G04 #@! TF.FileFunction,Soldermask,Top*
%FSLAX46Y46*%
G04 Gerber Fmt 4.6, Leading zero omitted, Abs format (unit mm)*
G04 Created by KiCad (PCBNEW 4.0.7-e2-6376~58~ubuntu16.04.1) date Fri Jan 19 19:37:22 2018*
%MOMM*%
%LPD*%
G01*
G04 APERTURE LIST*
%ADD10C,0.100000*%
%ADD11C,0.500000*%
%ADD12R,5.080000X1.800000*%
%ADD13C,0.300000*%
%ADD14C,1.600000*%
%ADD15R,1.700000X0.900000*%
%ADD16R,1.700000X1.700000*%
%ADD17O,1.700000X1.700000*%
%ADD18R,0.500000X0.900000*%
G04 APERTURE END LIST*
D10*
D11*
X128800000Y-86000000D03*
X116300000Y-86000000D03*
X116300000Y-89400000D03*
X128800000Y-89400000D03*
X109500000Y-88000000D03*
X135400000Y-88000000D03*
X109500000Y-94000000D03*
X135400000Y-94000000D03*
X125800000Y-92950000D03*
X125800000Y-95950000D03*
X122300000Y-95950000D03*
X122300000Y-92950000D03*
X118800000Y-95950000D03*
X118800000Y-92950000D03*
X139350000Y-94000000D03*
X139350000Y-88000000D03*
X143500000Y-92500000D03*
X141300000Y-92500000D03*
X143500000Y-89500000D03*
X141300000Y-89500000D03*
X141300000Y-86400000D03*
X143500000Y-86400000D03*
X143500000Y-95600000D03*
X141300000Y-95600000D03*
X103650000Y-92500000D03*
X101500000Y-92500000D03*
X101500000Y-89500000D03*
X103700000Y-89500000D03*
X103700000Y-86400000D03*
X101500000Y-86400000D03*
X103700000Y-95600000D03*
X101500000Y-95600000D03*
X105700000Y-88000000D03*
X105700000Y-94000000D03*
D12*
X102560000Y-91000000D03*
X102560000Y-94000000D03*
D13*
X104600000Y-88000000D03*
X100600000Y-88000000D03*
X101600000Y-88500000D03*
X101600000Y-87500000D03*
X102600000Y-88000000D03*
X103600000Y-88500000D03*
X103600000Y-87500000D03*
X104600000Y-94000000D03*
X100600000Y-94000000D03*
X101600000Y-94500000D03*
X101600000Y-93500000D03*
X102600000Y-94000000D03*
X103600000Y-94500000D03*
X103600000Y-93500000D03*
D12*
X102560000Y-88000000D03*
X142460000Y-91000000D03*
X142460000Y-94000000D03*
D13*
X144500000Y-88000000D03*
X140500000Y-88000000D03*
X141500000Y-88500000D03*
X141500000Y-87500000D03*
X142500000Y-88000000D03*
X143500000Y-88500000D03*
X143500000Y-87500000D03*
X144500000Y-94000000D03*
X140500000Y-94000000D03*
X141500000Y-94500000D03*
X141500000Y-93500000D03*
X142500000Y-94000000D03*
X143500000Y-94500000D03*
X143500000Y-93500000D03*
D12*
X142460000Y-88000000D03*
D14*
X133400000Y-87900000D03*
X131200000Y-92900000D03*
X120150000Y-86150000D03*
X125150000Y-88350000D03*
X111500000Y-92900000D03*
X113700000Y-87900000D03*
D15*
X117050000Y-92900000D03*
X117050000Y-95800000D03*
X120550000Y-92900000D03*
X120550000Y-95800000D03*
X124050000Y-92900000D03*
X124050000Y-95800000D03*
X127550000Y-92900000D03*
X127550000Y-95800000D03*
D16*
X107500000Y-87190000D03*
D17*
X107500000Y-89730000D03*
X107500000Y-92270000D03*
X107500000Y-94810000D03*
D16*
X137500000Y-87190000D03*
D17*
X137500000Y-89730000D03*
X137500000Y-92270000D03*
X137500000Y-94810000D03*
D18*
X124800000Y-98750000D03*
X123300000Y-98750000D03*
X121050000Y-98750000D03*
X119550000Y-98750000D03*
M02*
