G04 #@! TF.FileFunction,Copper,L1,Top,Signal*
%FSLAX46Y46*%
G04 Gerber Fmt 4.6, Leading zero omitted, Abs format (unit mm)*
G04 Created by KiCad (PCBNEW 0.201510291901+6286~30~ubuntu14.04.1-product) date Sat 07 Nov 2015 01:58:48 PM PST*
%MOMM*%
G01*
G04 APERTURE LIST*
%ADD10C,0.100000*%
%ADD11C,0.500000*%
%ADD12R,1.600000X2.000000*%
%ADD13R,5.080000X1.800000*%
%ADD14C,0.300000*%
%ADD15C,1.600000*%
%ADD16R,2.032000X1.727200*%
%ADD17C,2.000000*%
%ADD18C,1.000000*%
%ADD19C,0.300000*%
%ADD20C,0.150000*%
G04 APERTURE END LIST*
D10*
D11*
X128800000Y-86000000D03*
X116300000Y-86000000D03*
X116300000Y-89400000D03*
X128800000Y-89400000D03*
X109500000Y-88000000D03*
X135400000Y-88000000D03*
X109500000Y-94000000D03*
X135400000Y-94000000D03*
X125800000Y-93500000D03*
X125800000Y-96500000D03*
X122300000Y-96500000D03*
X122300000Y-93500000D03*
X118800000Y-96500000D03*
X118800000Y-93500000D03*
X139350000Y-94000000D03*
X139350000Y-88000000D03*
X143500000Y-92500000D03*
X141300000Y-92500000D03*
X143500000Y-89500000D03*
X141300000Y-89500000D03*
X141300000Y-86400000D03*
X143500000Y-86400000D03*
X143500000Y-95600000D03*
X141300000Y-95600000D03*
X103650000Y-92500000D03*
X101500000Y-92500000D03*
X101500000Y-89500000D03*
X103700000Y-89500000D03*
X103700000Y-86400000D03*
X101500000Y-86400000D03*
X103700000Y-95600000D03*
X101500000Y-95600000D03*
X105700000Y-88000000D03*
D12*
X127550000Y-92900000D03*
X127550000Y-96900000D03*
X124050000Y-92900000D03*
X124050000Y-96900000D03*
X120550000Y-92900000D03*
X120550000Y-96900000D03*
X117050000Y-92900000D03*
X117050000Y-96900000D03*
D11*
X105700000Y-94000000D03*
D13*
X102560000Y-91000000D03*
X102560000Y-94000000D03*
D14*
X104600000Y-88000000D03*
X100600000Y-88000000D03*
X101600000Y-88500000D03*
X101600000Y-87500000D03*
X102600000Y-88000000D03*
X103600000Y-88500000D03*
X103600000Y-87500000D03*
X104600000Y-94000000D03*
X100600000Y-94000000D03*
X101600000Y-94500000D03*
X101600000Y-93500000D03*
X102600000Y-94000000D03*
X103600000Y-94500000D03*
X103600000Y-93500000D03*
D13*
X102560000Y-88000000D03*
X142460000Y-91000000D03*
X142460000Y-94000000D03*
D14*
X144500000Y-88000000D03*
X140500000Y-88000000D03*
X141500000Y-88500000D03*
X141500000Y-87500000D03*
X142500000Y-88000000D03*
X143500000Y-88500000D03*
X143500000Y-87500000D03*
X144500000Y-94000000D03*
X140500000Y-94000000D03*
X141500000Y-94500000D03*
X141500000Y-93500000D03*
X142500000Y-94000000D03*
X143500000Y-94500000D03*
X143500000Y-93500000D03*
D13*
X142460000Y-88000000D03*
D15*
X133400000Y-87900000D03*
X131200000Y-92900000D03*
X120150000Y-86150000D03*
X125150000Y-88350000D03*
X111500000Y-92900000D03*
X113700000Y-87900000D03*
D16*
X137500000Y-93550000D03*
D17*
X137500000Y-91010000D03*
X137500000Y-88470000D03*
D16*
X107500000Y-93550000D03*
D17*
X107500000Y-91010000D03*
X107500000Y-88470000D03*
D18*
X107500000Y-91010000D02*
X109610000Y-91010000D01*
X109610000Y-91010000D02*
X111500000Y-92900000D01*
X102560000Y-91000000D02*
X107490000Y-91000000D01*
X107490000Y-91000000D02*
X107500000Y-91010000D01*
X117050000Y-92900000D02*
X111500000Y-92900000D01*
D19*
X117049360Y-92900640D02*
X117050000Y-92900000D01*
D18*
X120150000Y-86150000D02*
X119018630Y-86150000D01*
X119018630Y-86150000D02*
X117268630Y-87900000D01*
X117268630Y-87900000D02*
X113700000Y-87900000D01*
X120150000Y-89600000D02*
X120550000Y-90000000D01*
X120550000Y-90000000D02*
X120550000Y-92900000D01*
X120150000Y-86150000D02*
X120150000Y-89600000D01*
X125150000Y-89650000D02*
X124050000Y-90750000D01*
X124050000Y-90750000D02*
X124050000Y-92900000D01*
X125150000Y-88350000D02*
X125150000Y-89650000D01*
X127550000Y-87900000D02*
X127100000Y-88350000D01*
X127100000Y-88350000D02*
X125150000Y-88350000D01*
X133400000Y-87900000D02*
X127550000Y-87900000D01*
X127550000Y-92900000D02*
X131200000Y-92900000D01*
X137500000Y-91010000D02*
X133090000Y-91010000D01*
X133090000Y-91010000D02*
X131200000Y-92900000D01*
X142460000Y-91000000D02*
X137510000Y-91000000D01*
X137510000Y-91000000D02*
X137500000Y-91010000D01*
D19*
X127550620Y-92900620D02*
X127550000Y-92900000D01*
D20*
G36*
X144720000Y-86725000D02*
X142628750Y-86725000D01*
X142535000Y-86818750D01*
X142535000Y-87925000D01*
X142555000Y-87925000D01*
X142555000Y-88075000D01*
X142535000Y-88075000D01*
X142535000Y-89181250D01*
X142628750Y-89275000D01*
X144720000Y-89275000D01*
X144720000Y-89823670D01*
X139920000Y-89823670D01*
X139876207Y-89827162D01*
X139801930Y-89850164D01*
X139737002Y-89892949D01*
X139686564Y-89952128D01*
X139654610Y-90023016D01*
X139643670Y-90100000D01*
X139643670Y-90225000D01*
X138509270Y-90225000D01*
X138492835Y-90200264D01*
X138316648Y-90022842D01*
X138109355Y-89883022D01*
X137887388Y-89789715D01*
X138047873Y-89738385D01*
X138250242Y-89630217D01*
X138356106Y-89432172D01*
X137500000Y-88576066D01*
X136643894Y-89432172D01*
X136749758Y-89630217D01*
X136990521Y-89754288D01*
X137115502Y-89790157D01*
X136906439Y-89874623D01*
X136697215Y-90011536D01*
X136518568Y-90186480D01*
X136485346Y-90235000D01*
X133090000Y-90235000D01*
X133018743Y-90241987D01*
X132947438Y-90248225D01*
X132943523Y-90249362D01*
X132939468Y-90249760D01*
X132870965Y-90270442D01*
X132802190Y-90290423D01*
X132798570Y-90292300D01*
X132794670Y-90293477D01*
X132731469Y-90327082D01*
X132667906Y-90360030D01*
X132664722Y-90362572D01*
X132661122Y-90364486D01*
X132605619Y-90409753D01*
X132549698Y-90454394D01*
X132544029Y-90459985D01*
X132543908Y-90460083D01*
X132543816Y-90460195D01*
X132541993Y-90461992D01*
X131179201Y-91824783D01*
X131102099Y-91824245D01*
X130895014Y-91863748D01*
X130699547Y-91942722D01*
X130523142Y-92058158D01*
X130454885Y-92125000D01*
X128626330Y-92125000D01*
X128626330Y-91900000D01*
X128622838Y-91856207D01*
X128599836Y-91781930D01*
X128557051Y-91717002D01*
X128497872Y-91666564D01*
X128426984Y-91634610D01*
X128350000Y-91623670D01*
X126750000Y-91623670D01*
X126706207Y-91627162D01*
X126631930Y-91650164D01*
X126567002Y-91692949D01*
X126516564Y-91752128D01*
X126484610Y-91823016D01*
X126473670Y-91900000D01*
X126473670Y-93900000D01*
X126477162Y-93943793D01*
X126500164Y-94018070D01*
X126542949Y-94082998D01*
X126602128Y-94133436D01*
X126673016Y-94165390D01*
X126750000Y-94176330D01*
X128350000Y-94176330D01*
X128393793Y-94172838D01*
X128468070Y-94149836D01*
X128532998Y-94107051D01*
X128583436Y-94047872D01*
X128615390Y-93976984D01*
X128626330Y-93900000D01*
X128626330Y-93675000D01*
X130453920Y-93675000D01*
X130499900Y-93722614D01*
X130673014Y-93842931D01*
X130866200Y-93927332D01*
X131072100Y-93972602D01*
X131282872Y-93977017D01*
X131490487Y-93940409D01*
X131687038Y-93864172D01*
X131865038Y-93751210D01*
X131899124Y-93718750D01*
X136109000Y-93718750D01*
X136109000Y-94450535D01*
X136123411Y-94522984D01*
X136151679Y-94591229D01*
X136192719Y-94652649D01*
X136244952Y-94704882D01*
X136306371Y-94745921D01*
X136374617Y-94774189D01*
X136447066Y-94788600D01*
X137331250Y-94788600D01*
X137425000Y-94694850D01*
X137425000Y-93625000D01*
X137575000Y-93625000D01*
X137575000Y-94694850D01*
X137668750Y-94788600D01*
X138552934Y-94788600D01*
X138625383Y-94774189D01*
X138693629Y-94745921D01*
X138755048Y-94704882D01*
X138807281Y-94652649D01*
X138848321Y-94591229D01*
X138876589Y-94522984D01*
X138891000Y-94450535D01*
X138891000Y-94168750D01*
X139545000Y-94168750D01*
X139545000Y-94936934D01*
X139559411Y-95009383D01*
X139587679Y-95077629D01*
X139628718Y-95139048D01*
X139680951Y-95191281D01*
X139742371Y-95232321D01*
X139810616Y-95260589D01*
X139883065Y-95275000D01*
X142291250Y-95275000D01*
X142385000Y-95181250D01*
X142385000Y-94075000D01*
X139638750Y-94075000D01*
X139545000Y-94168750D01*
X138891000Y-94168750D01*
X138891000Y-93718750D01*
X138797250Y-93625000D01*
X137575000Y-93625000D01*
X137425000Y-93625000D01*
X136202750Y-93625000D01*
X136109000Y-93718750D01*
X131899124Y-93718750D01*
X132017707Y-93605826D01*
X132139229Y-93433556D01*
X132224977Y-93240964D01*
X132271683Y-93035385D01*
X132273256Y-92922760D01*
X132546550Y-92649465D01*
X136109000Y-92649465D01*
X136109000Y-93381250D01*
X136202750Y-93475000D01*
X137425000Y-93475000D01*
X137425000Y-92405150D01*
X137575000Y-92405150D01*
X137575000Y-93475000D01*
X138797250Y-93475000D01*
X138891000Y-93381250D01*
X138891000Y-93063066D01*
X139545000Y-93063066D01*
X139545000Y-93831250D01*
X139638750Y-93925000D01*
X142385000Y-93925000D01*
X142385000Y-92818750D01*
X142291250Y-92725000D01*
X139883065Y-92725000D01*
X139810616Y-92739411D01*
X139742371Y-92767679D01*
X139680951Y-92808719D01*
X139628718Y-92860952D01*
X139587679Y-92922371D01*
X139559411Y-92990617D01*
X139545000Y-93063066D01*
X138891000Y-93063066D01*
X138891000Y-92649465D01*
X138876589Y-92577016D01*
X138848321Y-92508771D01*
X138807281Y-92447351D01*
X138755048Y-92395118D01*
X138693629Y-92354079D01*
X138625383Y-92325811D01*
X138552934Y-92311400D01*
X137668750Y-92311400D01*
X137575000Y-92405150D01*
X137425000Y-92405150D01*
X137331250Y-92311400D01*
X136447066Y-92311400D01*
X136374617Y-92325811D01*
X136306371Y-92354079D01*
X136244952Y-92395118D01*
X136192719Y-92447351D01*
X136151679Y-92508771D01*
X136123411Y-92577016D01*
X136109000Y-92649465D01*
X132546550Y-92649465D01*
X133411015Y-91785000D01*
X136482554Y-91785000D01*
X136495956Y-91805795D01*
X136669649Y-91985659D01*
X136874969Y-92128361D01*
X137104097Y-92228464D01*
X137348305Y-92282157D01*
X137598290Y-92287393D01*
X137844532Y-92243974D01*
X138077650Y-92153553D01*
X138288766Y-92019575D01*
X138469839Y-91847142D01*
X138520730Y-91775000D01*
X139643670Y-91775000D01*
X139643670Y-91900000D01*
X139647162Y-91943793D01*
X139670164Y-92018070D01*
X139712949Y-92082998D01*
X139772128Y-92133436D01*
X139843016Y-92165390D01*
X139920000Y-92176330D01*
X144720000Y-92176330D01*
X144720000Y-92725000D01*
X142628750Y-92725000D01*
X142535000Y-92818750D01*
X142535000Y-93925000D01*
X142555000Y-93925000D01*
X142555000Y-94075000D01*
X142535000Y-94075000D01*
X142535000Y-95181250D01*
X142628750Y-95275000D01*
X144720000Y-95275000D01*
X144720000Y-99720000D01*
X100280000Y-99720000D01*
X100280000Y-97068750D01*
X115875000Y-97068750D01*
X115875000Y-97936934D01*
X115889411Y-98009383D01*
X115917679Y-98077629D01*
X115958718Y-98139048D01*
X116010951Y-98191281D01*
X116072371Y-98232321D01*
X116140616Y-98260589D01*
X116213065Y-98275000D01*
X116881250Y-98275000D01*
X116975000Y-98181250D01*
X116975000Y-96975000D01*
X117125000Y-96975000D01*
X117125000Y-98181250D01*
X117218750Y-98275000D01*
X117886935Y-98275000D01*
X117959384Y-98260589D01*
X118027629Y-98232321D01*
X118089049Y-98191281D01*
X118141282Y-98139048D01*
X118182321Y-98077629D01*
X118210589Y-98009383D01*
X118225000Y-97936934D01*
X118225000Y-97068750D01*
X119375000Y-97068750D01*
X119375000Y-97936934D01*
X119389411Y-98009383D01*
X119417679Y-98077629D01*
X119458718Y-98139048D01*
X119510951Y-98191281D01*
X119572371Y-98232321D01*
X119640616Y-98260589D01*
X119713065Y-98275000D01*
X120381250Y-98275000D01*
X120475000Y-98181250D01*
X120475000Y-96975000D01*
X120625000Y-96975000D01*
X120625000Y-98181250D01*
X120718750Y-98275000D01*
X121386935Y-98275000D01*
X121459384Y-98260589D01*
X121527629Y-98232321D01*
X121589049Y-98191281D01*
X121641282Y-98139048D01*
X121682321Y-98077629D01*
X121710589Y-98009383D01*
X121725000Y-97936934D01*
X121725000Y-97068750D01*
X122875000Y-97068750D01*
X122875000Y-97936934D01*
X122889411Y-98009383D01*
X122917679Y-98077629D01*
X122958718Y-98139048D01*
X123010951Y-98191281D01*
X123072371Y-98232321D01*
X123140616Y-98260589D01*
X123213065Y-98275000D01*
X123881250Y-98275000D01*
X123975000Y-98181250D01*
X123975000Y-96975000D01*
X124125000Y-96975000D01*
X124125000Y-98181250D01*
X124218750Y-98275000D01*
X124886935Y-98275000D01*
X124959384Y-98260589D01*
X125027629Y-98232321D01*
X125089049Y-98191281D01*
X125141282Y-98139048D01*
X125182321Y-98077629D01*
X125210589Y-98009383D01*
X125225000Y-97936934D01*
X125225000Y-97068750D01*
X126375000Y-97068750D01*
X126375000Y-97936934D01*
X126389411Y-98009383D01*
X126417679Y-98077629D01*
X126458718Y-98139048D01*
X126510951Y-98191281D01*
X126572371Y-98232321D01*
X126640616Y-98260589D01*
X126713065Y-98275000D01*
X127381250Y-98275000D01*
X127475000Y-98181250D01*
X127475000Y-96975000D01*
X127625000Y-96975000D01*
X127625000Y-98181250D01*
X127718750Y-98275000D01*
X128386935Y-98275000D01*
X128459384Y-98260589D01*
X128527629Y-98232321D01*
X128589049Y-98191281D01*
X128641282Y-98139048D01*
X128682321Y-98077629D01*
X128710589Y-98009383D01*
X128725000Y-97936934D01*
X128725000Y-97068750D01*
X128631250Y-96975000D01*
X127625000Y-96975000D01*
X127475000Y-96975000D01*
X126468750Y-96975000D01*
X126375000Y-97068750D01*
X125225000Y-97068750D01*
X125131250Y-96975000D01*
X124125000Y-96975000D01*
X123975000Y-96975000D01*
X122968750Y-96975000D01*
X122875000Y-97068750D01*
X121725000Y-97068750D01*
X121631250Y-96975000D01*
X120625000Y-96975000D01*
X120475000Y-96975000D01*
X119468750Y-96975000D01*
X119375000Y-97068750D01*
X118225000Y-97068750D01*
X118131250Y-96975000D01*
X117125000Y-96975000D01*
X116975000Y-96975000D01*
X115968750Y-96975000D01*
X115875000Y-97068750D01*
X100280000Y-97068750D01*
X100280000Y-95863066D01*
X115875000Y-95863066D01*
X115875000Y-96731250D01*
X115968750Y-96825000D01*
X116975000Y-96825000D01*
X116975000Y-95618750D01*
X117125000Y-95618750D01*
X117125000Y-96825000D01*
X118131250Y-96825000D01*
X118225000Y-96731250D01*
X118225000Y-95863066D01*
X119375000Y-95863066D01*
X119375000Y-96731250D01*
X119468750Y-96825000D01*
X120475000Y-96825000D01*
X120475000Y-95618750D01*
X120625000Y-95618750D01*
X120625000Y-96825000D01*
X121631250Y-96825000D01*
X121725000Y-96731250D01*
X121725000Y-95863066D01*
X122875000Y-95863066D01*
X122875000Y-96731250D01*
X122968750Y-96825000D01*
X123975000Y-96825000D01*
X123975000Y-95618750D01*
X124125000Y-95618750D01*
X124125000Y-96825000D01*
X125131250Y-96825000D01*
X125225000Y-96731250D01*
X125225000Y-95863066D01*
X126375000Y-95863066D01*
X126375000Y-96731250D01*
X126468750Y-96825000D01*
X127475000Y-96825000D01*
X127475000Y-95618750D01*
X127625000Y-95618750D01*
X127625000Y-96825000D01*
X128631250Y-96825000D01*
X128725000Y-96731250D01*
X128725000Y-95863066D01*
X128710589Y-95790617D01*
X128682321Y-95722371D01*
X128641282Y-95660952D01*
X128589049Y-95608719D01*
X128527629Y-95567679D01*
X128459384Y-95539411D01*
X128386935Y-95525000D01*
X127718750Y-95525000D01*
X127625000Y-95618750D01*
X127475000Y-95618750D01*
X127381250Y-95525000D01*
X126713065Y-95525000D01*
X126640616Y-95539411D01*
X126572371Y-95567679D01*
X126510951Y-95608719D01*
X126458718Y-95660952D01*
X126417679Y-95722371D01*
X126389411Y-95790617D01*
X126375000Y-95863066D01*
X125225000Y-95863066D01*
X125210589Y-95790617D01*
X125182321Y-95722371D01*
X125141282Y-95660952D01*
X125089049Y-95608719D01*
X125027629Y-95567679D01*
X124959384Y-95539411D01*
X124886935Y-95525000D01*
X124218750Y-95525000D01*
X124125000Y-95618750D01*
X123975000Y-95618750D01*
X123881250Y-95525000D01*
X123213065Y-95525000D01*
X123140616Y-95539411D01*
X123072371Y-95567679D01*
X123010951Y-95608719D01*
X122958718Y-95660952D01*
X122917679Y-95722371D01*
X122889411Y-95790617D01*
X122875000Y-95863066D01*
X121725000Y-95863066D01*
X121710589Y-95790617D01*
X121682321Y-95722371D01*
X121641282Y-95660952D01*
X121589049Y-95608719D01*
X121527629Y-95567679D01*
X121459384Y-95539411D01*
X121386935Y-95525000D01*
X120718750Y-95525000D01*
X120625000Y-95618750D01*
X120475000Y-95618750D01*
X120381250Y-95525000D01*
X119713065Y-95525000D01*
X119640616Y-95539411D01*
X119572371Y-95567679D01*
X119510951Y-95608719D01*
X119458718Y-95660952D01*
X119417679Y-95722371D01*
X119389411Y-95790617D01*
X119375000Y-95863066D01*
X118225000Y-95863066D01*
X118210589Y-95790617D01*
X118182321Y-95722371D01*
X118141282Y-95660952D01*
X118089049Y-95608719D01*
X118027629Y-95567679D01*
X117959384Y-95539411D01*
X117886935Y-95525000D01*
X117218750Y-95525000D01*
X117125000Y-95618750D01*
X116975000Y-95618750D01*
X116881250Y-95525000D01*
X116213065Y-95525000D01*
X116140616Y-95539411D01*
X116072371Y-95567679D01*
X116010951Y-95608719D01*
X115958718Y-95660952D01*
X115917679Y-95722371D01*
X115889411Y-95790617D01*
X115875000Y-95863066D01*
X100280000Y-95863066D01*
X100280000Y-95275000D01*
X102391250Y-95275000D01*
X102485000Y-95181250D01*
X102485000Y-94075000D01*
X102635000Y-94075000D01*
X102635000Y-95181250D01*
X102728750Y-95275000D01*
X105136935Y-95275000D01*
X105209384Y-95260589D01*
X105277629Y-95232321D01*
X105339049Y-95191281D01*
X105391282Y-95139048D01*
X105432321Y-95077629D01*
X105460589Y-95009383D01*
X105475000Y-94936934D01*
X105475000Y-94168750D01*
X105381250Y-94075000D01*
X102635000Y-94075000D01*
X102485000Y-94075000D01*
X102465000Y-94075000D01*
X102465000Y-93925000D01*
X102485000Y-93925000D01*
X102485000Y-92818750D01*
X102635000Y-92818750D01*
X102635000Y-93925000D01*
X105381250Y-93925000D01*
X105475000Y-93831250D01*
X105475000Y-93718750D01*
X106109000Y-93718750D01*
X106109000Y-94450535D01*
X106123411Y-94522984D01*
X106151679Y-94591229D01*
X106192719Y-94652649D01*
X106244952Y-94704882D01*
X106306371Y-94745921D01*
X106374617Y-94774189D01*
X106447066Y-94788600D01*
X107331250Y-94788600D01*
X107425000Y-94694850D01*
X107425000Y-93625000D01*
X107575000Y-93625000D01*
X107575000Y-94694850D01*
X107668750Y-94788600D01*
X108552934Y-94788600D01*
X108625383Y-94774189D01*
X108693629Y-94745921D01*
X108755048Y-94704882D01*
X108807281Y-94652649D01*
X108848321Y-94591229D01*
X108876589Y-94522984D01*
X108891000Y-94450535D01*
X108891000Y-93718750D01*
X108797250Y-93625000D01*
X107575000Y-93625000D01*
X107425000Y-93625000D01*
X106202750Y-93625000D01*
X106109000Y-93718750D01*
X105475000Y-93718750D01*
X105475000Y-93063066D01*
X105460589Y-92990617D01*
X105432321Y-92922371D01*
X105391282Y-92860952D01*
X105339049Y-92808719D01*
X105277629Y-92767679D01*
X105209384Y-92739411D01*
X105136935Y-92725000D01*
X102728750Y-92725000D01*
X102635000Y-92818750D01*
X102485000Y-92818750D01*
X102391250Y-92725000D01*
X100280000Y-92725000D01*
X100280000Y-92649465D01*
X106109000Y-92649465D01*
X106109000Y-93381250D01*
X106202750Y-93475000D01*
X107425000Y-93475000D01*
X107425000Y-92405150D01*
X107575000Y-92405150D01*
X107575000Y-93475000D01*
X108797250Y-93475000D01*
X108891000Y-93381250D01*
X108891000Y-92649465D01*
X108876589Y-92577016D01*
X108848321Y-92508771D01*
X108807281Y-92447351D01*
X108755048Y-92395118D01*
X108693629Y-92354079D01*
X108625383Y-92325811D01*
X108552934Y-92311400D01*
X107668750Y-92311400D01*
X107575000Y-92405150D01*
X107425000Y-92405150D01*
X107331250Y-92311400D01*
X106447066Y-92311400D01*
X106374617Y-92325811D01*
X106306371Y-92354079D01*
X106244952Y-92395118D01*
X106192719Y-92447351D01*
X106151679Y-92508771D01*
X106123411Y-92577016D01*
X106109000Y-92649465D01*
X100280000Y-92649465D01*
X100280000Y-92176330D01*
X105100000Y-92176330D01*
X105143793Y-92172838D01*
X105218070Y-92149836D01*
X105282998Y-92107051D01*
X105333436Y-92047872D01*
X105365390Y-91976984D01*
X105376330Y-91900000D01*
X105376330Y-91775000D01*
X106476110Y-91775000D01*
X106495956Y-91805795D01*
X106669649Y-91985659D01*
X106874969Y-92128361D01*
X107104097Y-92228464D01*
X107348305Y-92282157D01*
X107598290Y-92287393D01*
X107844532Y-92243974D01*
X108077650Y-92153553D01*
X108288766Y-92019575D01*
X108469839Y-91847142D01*
X108513675Y-91785000D01*
X109288984Y-91785000D01*
X110424562Y-92920577D01*
X110423587Y-92990389D01*
X110461644Y-93197744D01*
X110539252Y-93393758D01*
X110653454Y-93570964D01*
X110799900Y-93722614D01*
X110973014Y-93842931D01*
X111166200Y-93927332D01*
X111372100Y-93972602D01*
X111582872Y-93977017D01*
X111790487Y-93940409D01*
X111987038Y-93864172D01*
X112165038Y-93751210D01*
X112245067Y-93675000D01*
X115973670Y-93675000D01*
X115973670Y-93900000D01*
X115977162Y-93943793D01*
X116000164Y-94018070D01*
X116042949Y-94082998D01*
X116102128Y-94133436D01*
X116173016Y-94165390D01*
X116250000Y-94176330D01*
X117850000Y-94176330D01*
X117893793Y-94172838D01*
X117968070Y-94149836D01*
X118032998Y-94107051D01*
X118083436Y-94047872D01*
X118115390Y-93976984D01*
X118126330Y-93900000D01*
X118126330Y-91900000D01*
X118122838Y-91856207D01*
X118099836Y-91781930D01*
X118057051Y-91717002D01*
X117997872Y-91666564D01*
X117926984Y-91634610D01*
X117850000Y-91623670D01*
X116250000Y-91623670D01*
X116206207Y-91627162D01*
X116131930Y-91650164D01*
X116067002Y-91692949D01*
X116016564Y-91752128D01*
X115984610Y-91823016D01*
X115973670Y-91900000D01*
X115973670Y-92125000D01*
X112245457Y-92125000D01*
X112188546Y-92067691D01*
X112013770Y-91949803D01*
X111819424Y-91868107D01*
X111612912Y-91825716D01*
X111521091Y-91825075D01*
X110158008Y-90461992D01*
X110102658Y-90416527D01*
X110047849Y-90370537D01*
X110044279Y-90368574D01*
X110041129Y-90365987D01*
X109978050Y-90332165D01*
X109915305Y-90297670D01*
X109911418Y-90296437D01*
X109907828Y-90294512D01*
X109839370Y-90273582D01*
X109771132Y-90251936D01*
X109767083Y-90251482D01*
X109763185Y-90250290D01*
X109691945Y-90243054D01*
X109620821Y-90235076D01*
X109612853Y-90235020D01*
X109612705Y-90235005D01*
X109612567Y-90235018D01*
X109610000Y-90235000D01*
X108515913Y-90235000D01*
X108492835Y-90200264D01*
X108316648Y-90022842D01*
X108109355Y-89883022D01*
X107887388Y-89789715D01*
X108047873Y-89738385D01*
X108250242Y-89630217D01*
X108356106Y-89432172D01*
X107500000Y-88576066D01*
X106643894Y-89432172D01*
X106749758Y-89630217D01*
X106990521Y-89754288D01*
X107115502Y-89790157D01*
X106906439Y-89874623D01*
X106697215Y-90011536D01*
X106518568Y-90186480D01*
X106492193Y-90225000D01*
X105376330Y-90225000D01*
X105376330Y-90100000D01*
X105372838Y-90056207D01*
X105349836Y-89981930D01*
X105307051Y-89917002D01*
X105247872Y-89866564D01*
X105176984Y-89834610D01*
X105100000Y-89823670D01*
X100280000Y-89823670D01*
X100280000Y-89275000D01*
X102391250Y-89275000D01*
X102485000Y-89181250D01*
X102485000Y-88075000D01*
X102635000Y-88075000D01*
X102635000Y-89181250D01*
X102728750Y-89275000D01*
X105136935Y-89275000D01*
X105209384Y-89260589D01*
X105277629Y-89232321D01*
X105339049Y-89191281D01*
X105391282Y-89139048D01*
X105432321Y-89077629D01*
X105460589Y-89009383D01*
X105475000Y-88936934D01*
X105475000Y-88490778D01*
X106118504Y-88490778D01*
X106149102Y-88759895D01*
X106231615Y-89017873D01*
X106339783Y-89220242D01*
X106537828Y-89326106D01*
X107393934Y-88470000D01*
X107606066Y-88470000D01*
X108462172Y-89326106D01*
X108660217Y-89220242D01*
X108784288Y-88979479D01*
X108859005Y-88719138D01*
X108881496Y-88449222D01*
X108850898Y-88180105D01*
X108790219Y-87990389D01*
X112623587Y-87990389D01*
X112661644Y-88197744D01*
X112739252Y-88393758D01*
X112853454Y-88570964D01*
X112999900Y-88722614D01*
X113173014Y-88842931D01*
X113366200Y-88927332D01*
X113572100Y-88972602D01*
X113782872Y-88977017D01*
X113990487Y-88940409D01*
X114187038Y-88864172D01*
X114365038Y-88751210D01*
X114445067Y-88675000D01*
X117268630Y-88675000D01*
X117339879Y-88668014D01*
X117411193Y-88661775D01*
X117415108Y-88660637D01*
X117419162Y-88660240D01*
X117487653Y-88639562D01*
X117556440Y-88619577D01*
X117560060Y-88617700D01*
X117563960Y-88616523D01*
X117627141Y-88582929D01*
X117690725Y-88549970D01*
X117693911Y-88547426D01*
X117697508Y-88545514D01*
X117752989Y-88500265D01*
X117808932Y-88455606D01*
X117814605Y-88450012D01*
X117814722Y-88449917D01*
X117814811Y-88449809D01*
X117816638Y-88448008D01*
X119339646Y-86925000D01*
X119375000Y-86925000D01*
X119375000Y-89600000D01*
X119381986Y-89671249D01*
X119388225Y-89742563D01*
X119389363Y-89746478D01*
X119389760Y-89750532D01*
X119410438Y-89819023D01*
X119430423Y-89887810D01*
X119432300Y-89891430D01*
X119433477Y-89895330D01*
X119467071Y-89958511D01*
X119500030Y-90022095D01*
X119502574Y-90025281D01*
X119504486Y-90028878D01*
X119549735Y-90084359D01*
X119594394Y-90140302D01*
X119599988Y-90145975D01*
X119600083Y-90146092D01*
X119600191Y-90146181D01*
X119601992Y-90148008D01*
X119775000Y-90321016D01*
X119775000Y-91623670D01*
X119750000Y-91623670D01*
X119706207Y-91627162D01*
X119631930Y-91650164D01*
X119567002Y-91692949D01*
X119516564Y-91752128D01*
X119484610Y-91823016D01*
X119473670Y-91900000D01*
X119473670Y-93900000D01*
X119477162Y-93943793D01*
X119500164Y-94018070D01*
X119542949Y-94082998D01*
X119602128Y-94133436D01*
X119673016Y-94165390D01*
X119750000Y-94176330D01*
X121350000Y-94176330D01*
X121393793Y-94172838D01*
X121468070Y-94149836D01*
X121532998Y-94107051D01*
X121583436Y-94047872D01*
X121615390Y-93976984D01*
X121626330Y-93900000D01*
X121626330Y-91900000D01*
X122973670Y-91900000D01*
X122973670Y-93900000D01*
X122977162Y-93943793D01*
X123000164Y-94018070D01*
X123042949Y-94082998D01*
X123102128Y-94133436D01*
X123173016Y-94165390D01*
X123250000Y-94176330D01*
X124850000Y-94176330D01*
X124893793Y-94172838D01*
X124968070Y-94149836D01*
X125032998Y-94107051D01*
X125083436Y-94047872D01*
X125115390Y-93976984D01*
X125126330Y-93900000D01*
X125126330Y-91900000D01*
X125122838Y-91856207D01*
X125099836Y-91781930D01*
X125057051Y-91717002D01*
X124997872Y-91666564D01*
X124926984Y-91634610D01*
X124850000Y-91623670D01*
X124825000Y-91623670D01*
X124825000Y-91071016D01*
X125698008Y-90198008D01*
X125743473Y-90142658D01*
X125789463Y-90087849D01*
X125791426Y-90084279D01*
X125794013Y-90081129D01*
X125827835Y-90018050D01*
X125862330Y-89955305D01*
X125863563Y-89951418D01*
X125865488Y-89947828D01*
X125886418Y-89879370D01*
X125908064Y-89811132D01*
X125908518Y-89807083D01*
X125909710Y-89803185D01*
X125916946Y-89731945D01*
X125924924Y-89660821D01*
X125924980Y-89652853D01*
X125924995Y-89652705D01*
X125924982Y-89652567D01*
X125925000Y-89650000D01*
X125925000Y-89125000D01*
X127100000Y-89125000D01*
X127171249Y-89118014D01*
X127242563Y-89111775D01*
X127246478Y-89110637D01*
X127250532Y-89110240D01*
X127319023Y-89089562D01*
X127387810Y-89069577D01*
X127391430Y-89067700D01*
X127395330Y-89066523D01*
X127458511Y-89032929D01*
X127522095Y-88999970D01*
X127525281Y-88997426D01*
X127528878Y-88995514D01*
X127584359Y-88950265D01*
X127640302Y-88905606D01*
X127645975Y-88900012D01*
X127646092Y-88899917D01*
X127646181Y-88899809D01*
X127648008Y-88898008D01*
X127871016Y-88675000D01*
X132653920Y-88675000D01*
X132699900Y-88722614D01*
X132873014Y-88842931D01*
X133066200Y-88927332D01*
X133272100Y-88972602D01*
X133482872Y-88977017D01*
X133690487Y-88940409D01*
X133887038Y-88864172D01*
X134065038Y-88751210D01*
X134217707Y-88605826D01*
X134298863Y-88490778D01*
X136118504Y-88490778D01*
X136149102Y-88759895D01*
X136231615Y-89017873D01*
X136339783Y-89220242D01*
X136537828Y-89326106D01*
X137393934Y-88470000D01*
X137606066Y-88470000D01*
X138462172Y-89326106D01*
X138660217Y-89220242D01*
X138784288Y-88979479D01*
X138859005Y-88719138D01*
X138881496Y-88449222D01*
X138850898Y-88180105D01*
X138847267Y-88168750D01*
X139545000Y-88168750D01*
X139545000Y-88936934D01*
X139559411Y-89009383D01*
X139587679Y-89077629D01*
X139628718Y-89139048D01*
X139680951Y-89191281D01*
X139742371Y-89232321D01*
X139810616Y-89260589D01*
X139883065Y-89275000D01*
X142291250Y-89275000D01*
X142385000Y-89181250D01*
X142385000Y-88075000D01*
X139638750Y-88075000D01*
X139545000Y-88168750D01*
X138847267Y-88168750D01*
X138768385Y-87922127D01*
X138660217Y-87719758D01*
X138462172Y-87613894D01*
X137606066Y-88470000D01*
X137393934Y-88470000D01*
X136537828Y-87613894D01*
X136339783Y-87719758D01*
X136215712Y-87960521D01*
X136140995Y-88220862D01*
X136118504Y-88490778D01*
X134298863Y-88490778D01*
X134339229Y-88433556D01*
X134424977Y-88240964D01*
X134471683Y-88035385D01*
X134475046Y-87794591D01*
X134434097Y-87587788D01*
X134401141Y-87507828D01*
X136643894Y-87507828D01*
X137500000Y-88363934D01*
X138356106Y-87507828D01*
X138250242Y-87309783D01*
X138009479Y-87185712D01*
X137749138Y-87110995D01*
X137479222Y-87088504D01*
X137210105Y-87119102D01*
X136952127Y-87201615D01*
X136749758Y-87309783D01*
X136643894Y-87507828D01*
X134401141Y-87507828D01*
X134353761Y-87392876D01*
X134237096Y-87217281D01*
X134088546Y-87067691D01*
X134081690Y-87063066D01*
X139545000Y-87063066D01*
X139545000Y-87831250D01*
X139638750Y-87925000D01*
X142385000Y-87925000D01*
X142385000Y-86818750D01*
X142291250Y-86725000D01*
X139883065Y-86725000D01*
X139810616Y-86739411D01*
X139742371Y-86767679D01*
X139680951Y-86808719D01*
X139628718Y-86860952D01*
X139587679Y-86922371D01*
X139559411Y-86990617D01*
X139545000Y-87063066D01*
X134081690Y-87063066D01*
X133913770Y-86949803D01*
X133719424Y-86868107D01*
X133512912Y-86825716D01*
X133302099Y-86824245D01*
X133095014Y-86863748D01*
X132899547Y-86942722D01*
X132723142Y-87058158D01*
X132654885Y-87125000D01*
X127550000Y-87125000D01*
X127478751Y-87131986D01*
X127407437Y-87138225D01*
X127403522Y-87139363D01*
X127399468Y-87139760D01*
X127330977Y-87160438D01*
X127262190Y-87180423D01*
X127258570Y-87182300D01*
X127254670Y-87183477D01*
X127191489Y-87217071D01*
X127127905Y-87250030D01*
X127124719Y-87252574D01*
X127121122Y-87254486D01*
X127065641Y-87299735D01*
X127009698Y-87344394D01*
X127004025Y-87349988D01*
X127003908Y-87350083D01*
X127003819Y-87350191D01*
X127001992Y-87351992D01*
X126778984Y-87575000D01*
X125895457Y-87575000D01*
X125838546Y-87517691D01*
X125663770Y-87399803D01*
X125469424Y-87318107D01*
X125262912Y-87275716D01*
X125052099Y-87274245D01*
X124845014Y-87313748D01*
X124649547Y-87392722D01*
X124473142Y-87508158D01*
X124322518Y-87655660D01*
X124203413Y-87829609D01*
X124120362Y-88023380D01*
X124076531Y-88229591D01*
X124073587Y-88440389D01*
X124111644Y-88647744D01*
X124189252Y-88843758D01*
X124303454Y-89020964D01*
X124375000Y-89095052D01*
X124375000Y-89328984D01*
X123501992Y-90201992D01*
X123456527Y-90257342D01*
X123410537Y-90312151D01*
X123408574Y-90315721D01*
X123405987Y-90318871D01*
X123372165Y-90381950D01*
X123337670Y-90444695D01*
X123336437Y-90448582D01*
X123334512Y-90452172D01*
X123313582Y-90520630D01*
X123291936Y-90588868D01*
X123291482Y-90592917D01*
X123290290Y-90596815D01*
X123283054Y-90668055D01*
X123275076Y-90739179D01*
X123275020Y-90747147D01*
X123275005Y-90747295D01*
X123275018Y-90747433D01*
X123275000Y-90750000D01*
X123275000Y-91623670D01*
X123250000Y-91623670D01*
X123206207Y-91627162D01*
X123131930Y-91650164D01*
X123067002Y-91692949D01*
X123016564Y-91752128D01*
X122984610Y-91823016D01*
X122973670Y-91900000D01*
X121626330Y-91900000D01*
X121622838Y-91856207D01*
X121599836Y-91781930D01*
X121557051Y-91717002D01*
X121497872Y-91666564D01*
X121426984Y-91634610D01*
X121350000Y-91623670D01*
X121325000Y-91623670D01*
X121325000Y-90000000D01*
X121318009Y-89928701D01*
X121311774Y-89857437D01*
X121310638Y-89853527D01*
X121310240Y-89849468D01*
X121289535Y-89780890D01*
X121269576Y-89712190D01*
X121267702Y-89708574D01*
X121266523Y-89704670D01*
X121232889Y-89641414D01*
X121199969Y-89577905D01*
X121197428Y-89574722D01*
X121195514Y-89571122D01*
X121150238Y-89515607D01*
X121105605Y-89459697D01*
X121100016Y-89454029D01*
X121099917Y-89453908D01*
X121099805Y-89453815D01*
X121098007Y-89451992D01*
X120925000Y-89278985D01*
X120925000Y-86896495D01*
X120967707Y-86855826D01*
X121089229Y-86683556D01*
X121174977Y-86490964D01*
X121221683Y-86285385D01*
X121225046Y-86044591D01*
X121184097Y-85837788D01*
X121103761Y-85642876D01*
X120987096Y-85467281D01*
X120838546Y-85317691D01*
X120663770Y-85199803D01*
X120469424Y-85118107D01*
X120262912Y-85075716D01*
X120052099Y-85074245D01*
X119845014Y-85113748D01*
X119649547Y-85192722D01*
X119473142Y-85308158D01*
X119404885Y-85375000D01*
X119018630Y-85375000D01*
X118947373Y-85381987D01*
X118876068Y-85388225D01*
X118872153Y-85389362D01*
X118868098Y-85389760D01*
X118799595Y-85410442D01*
X118730820Y-85430423D01*
X118727200Y-85432300D01*
X118723300Y-85433477D01*
X118660099Y-85467082D01*
X118596536Y-85500030D01*
X118593352Y-85502572D01*
X118589752Y-85504486D01*
X118534249Y-85549753D01*
X118478328Y-85594394D01*
X118472655Y-85599988D01*
X118472538Y-85600083D01*
X118472449Y-85600191D01*
X118470622Y-85601992D01*
X116947614Y-87125000D01*
X114445457Y-87125000D01*
X114388546Y-87067691D01*
X114213770Y-86949803D01*
X114019424Y-86868107D01*
X113812912Y-86825716D01*
X113602099Y-86824245D01*
X113395014Y-86863748D01*
X113199547Y-86942722D01*
X113023142Y-87058158D01*
X112872518Y-87205660D01*
X112753413Y-87379609D01*
X112670362Y-87573380D01*
X112626531Y-87779591D01*
X112623587Y-87990389D01*
X108790219Y-87990389D01*
X108768385Y-87922127D01*
X108660217Y-87719758D01*
X108462172Y-87613894D01*
X107606066Y-88470000D01*
X107393934Y-88470000D01*
X106537828Y-87613894D01*
X106339783Y-87719758D01*
X106215712Y-87960521D01*
X106140995Y-88220862D01*
X106118504Y-88490778D01*
X105475000Y-88490778D01*
X105475000Y-88168750D01*
X105381250Y-88075000D01*
X102635000Y-88075000D01*
X102485000Y-88075000D01*
X102465000Y-88075000D01*
X102465000Y-87925000D01*
X102485000Y-87925000D01*
X102485000Y-86818750D01*
X102635000Y-86818750D01*
X102635000Y-87925000D01*
X105381250Y-87925000D01*
X105475000Y-87831250D01*
X105475000Y-87507828D01*
X106643894Y-87507828D01*
X107500000Y-88363934D01*
X108356106Y-87507828D01*
X108250242Y-87309783D01*
X108009479Y-87185712D01*
X107749138Y-87110995D01*
X107479222Y-87088504D01*
X107210105Y-87119102D01*
X106952127Y-87201615D01*
X106749758Y-87309783D01*
X106643894Y-87507828D01*
X105475000Y-87507828D01*
X105475000Y-87063066D01*
X105460589Y-86990617D01*
X105432321Y-86922371D01*
X105391282Y-86860952D01*
X105339049Y-86808719D01*
X105277629Y-86767679D01*
X105209384Y-86739411D01*
X105136935Y-86725000D01*
X102728750Y-86725000D01*
X102635000Y-86818750D01*
X102485000Y-86818750D01*
X102391250Y-86725000D01*
X100280000Y-86725000D01*
X100280000Y-82280000D01*
X144720000Y-82280000D01*
X144720000Y-86725000D01*
X144720000Y-86725000D01*
G37*
X144720000Y-86725000D02*
X142628750Y-86725000D01*
X142535000Y-86818750D01*
X142535000Y-87925000D01*
X142555000Y-87925000D01*
X142555000Y-88075000D01*
X142535000Y-88075000D01*
X142535000Y-89181250D01*
X142628750Y-89275000D01*
X144720000Y-89275000D01*
X144720000Y-89823670D01*
X139920000Y-89823670D01*
X139876207Y-89827162D01*
X139801930Y-89850164D01*
X139737002Y-89892949D01*
X139686564Y-89952128D01*
X139654610Y-90023016D01*
X139643670Y-90100000D01*
X139643670Y-90225000D01*
X138509270Y-90225000D01*
X138492835Y-90200264D01*
X138316648Y-90022842D01*
X138109355Y-89883022D01*
X137887388Y-89789715D01*
X138047873Y-89738385D01*
X138250242Y-89630217D01*
X138356106Y-89432172D01*
X137500000Y-88576066D01*
X136643894Y-89432172D01*
X136749758Y-89630217D01*
X136990521Y-89754288D01*
X137115502Y-89790157D01*
X136906439Y-89874623D01*
X136697215Y-90011536D01*
X136518568Y-90186480D01*
X136485346Y-90235000D01*
X133090000Y-90235000D01*
X133018743Y-90241987D01*
X132947438Y-90248225D01*
X132943523Y-90249362D01*
X132939468Y-90249760D01*
X132870965Y-90270442D01*
X132802190Y-90290423D01*
X132798570Y-90292300D01*
X132794670Y-90293477D01*
X132731469Y-90327082D01*
X132667906Y-90360030D01*
X132664722Y-90362572D01*
X132661122Y-90364486D01*
X132605619Y-90409753D01*
X132549698Y-90454394D01*
X132544029Y-90459985D01*
X132543908Y-90460083D01*
X132543816Y-90460195D01*
X132541993Y-90461992D01*
X131179201Y-91824783D01*
X131102099Y-91824245D01*
X130895014Y-91863748D01*
X130699547Y-91942722D01*
X130523142Y-92058158D01*
X130454885Y-92125000D01*
X128626330Y-92125000D01*
X128626330Y-91900000D01*
X128622838Y-91856207D01*
X128599836Y-91781930D01*
X128557051Y-91717002D01*
X128497872Y-91666564D01*
X128426984Y-91634610D01*
X128350000Y-91623670D01*
X126750000Y-91623670D01*
X126706207Y-91627162D01*
X126631930Y-91650164D01*
X126567002Y-91692949D01*
X126516564Y-91752128D01*
X126484610Y-91823016D01*
X126473670Y-91900000D01*
X126473670Y-93900000D01*
X126477162Y-93943793D01*
X126500164Y-94018070D01*
X126542949Y-94082998D01*
X126602128Y-94133436D01*
X126673016Y-94165390D01*
X126750000Y-94176330D01*
X128350000Y-94176330D01*
X128393793Y-94172838D01*
X128468070Y-94149836D01*
X128532998Y-94107051D01*
X128583436Y-94047872D01*
X128615390Y-93976984D01*
X128626330Y-93900000D01*
X128626330Y-93675000D01*
X130453920Y-93675000D01*
X130499900Y-93722614D01*
X130673014Y-93842931D01*
X130866200Y-93927332D01*
X131072100Y-93972602D01*
X131282872Y-93977017D01*
X131490487Y-93940409D01*
X131687038Y-93864172D01*
X131865038Y-93751210D01*
X131899124Y-93718750D01*
X136109000Y-93718750D01*
X136109000Y-94450535D01*
X136123411Y-94522984D01*
X136151679Y-94591229D01*
X136192719Y-94652649D01*
X136244952Y-94704882D01*
X136306371Y-94745921D01*
X136374617Y-94774189D01*
X136447066Y-94788600D01*
X137331250Y-94788600D01*
X137425000Y-94694850D01*
X137425000Y-93625000D01*
X137575000Y-93625000D01*
X137575000Y-94694850D01*
X137668750Y-94788600D01*
X138552934Y-94788600D01*
X138625383Y-94774189D01*
X138693629Y-94745921D01*
X138755048Y-94704882D01*
X138807281Y-94652649D01*
X138848321Y-94591229D01*
X138876589Y-94522984D01*
X138891000Y-94450535D01*
X138891000Y-94168750D01*
X139545000Y-94168750D01*
X139545000Y-94936934D01*
X139559411Y-95009383D01*
X139587679Y-95077629D01*
X139628718Y-95139048D01*
X139680951Y-95191281D01*
X139742371Y-95232321D01*
X139810616Y-95260589D01*
X139883065Y-95275000D01*
X142291250Y-95275000D01*
X142385000Y-95181250D01*
X142385000Y-94075000D01*
X139638750Y-94075000D01*
X139545000Y-94168750D01*
X138891000Y-94168750D01*
X138891000Y-93718750D01*
X138797250Y-93625000D01*
X137575000Y-93625000D01*
X137425000Y-93625000D01*
X136202750Y-93625000D01*
X136109000Y-93718750D01*
X131899124Y-93718750D01*
X132017707Y-93605826D01*
X132139229Y-93433556D01*
X132224977Y-93240964D01*
X132271683Y-93035385D01*
X132273256Y-92922760D01*
X132546550Y-92649465D01*
X136109000Y-92649465D01*
X136109000Y-93381250D01*
X136202750Y-93475000D01*
X137425000Y-93475000D01*
X137425000Y-92405150D01*
X137575000Y-92405150D01*
X137575000Y-93475000D01*
X138797250Y-93475000D01*
X138891000Y-93381250D01*
X138891000Y-93063066D01*
X139545000Y-93063066D01*
X139545000Y-93831250D01*
X139638750Y-93925000D01*
X142385000Y-93925000D01*
X142385000Y-92818750D01*
X142291250Y-92725000D01*
X139883065Y-92725000D01*
X139810616Y-92739411D01*
X139742371Y-92767679D01*
X139680951Y-92808719D01*
X139628718Y-92860952D01*
X139587679Y-92922371D01*
X139559411Y-92990617D01*
X139545000Y-93063066D01*
X138891000Y-93063066D01*
X138891000Y-92649465D01*
X138876589Y-92577016D01*
X138848321Y-92508771D01*
X138807281Y-92447351D01*
X138755048Y-92395118D01*
X138693629Y-92354079D01*
X138625383Y-92325811D01*
X138552934Y-92311400D01*
X137668750Y-92311400D01*
X137575000Y-92405150D01*
X137425000Y-92405150D01*
X137331250Y-92311400D01*
X136447066Y-92311400D01*
X136374617Y-92325811D01*
X136306371Y-92354079D01*
X136244952Y-92395118D01*
X136192719Y-92447351D01*
X136151679Y-92508771D01*
X136123411Y-92577016D01*
X136109000Y-92649465D01*
X132546550Y-92649465D01*
X133411015Y-91785000D01*
X136482554Y-91785000D01*
X136495956Y-91805795D01*
X136669649Y-91985659D01*
X136874969Y-92128361D01*
X137104097Y-92228464D01*
X137348305Y-92282157D01*
X137598290Y-92287393D01*
X137844532Y-92243974D01*
X138077650Y-92153553D01*
X138288766Y-92019575D01*
X138469839Y-91847142D01*
X138520730Y-91775000D01*
X139643670Y-91775000D01*
X139643670Y-91900000D01*
X139647162Y-91943793D01*
X139670164Y-92018070D01*
X139712949Y-92082998D01*
X139772128Y-92133436D01*
X139843016Y-92165390D01*
X139920000Y-92176330D01*
X144720000Y-92176330D01*
X144720000Y-92725000D01*
X142628750Y-92725000D01*
X142535000Y-92818750D01*
X142535000Y-93925000D01*
X142555000Y-93925000D01*
X142555000Y-94075000D01*
X142535000Y-94075000D01*
X142535000Y-95181250D01*
X142628750Y-95275000D01*
X144720000Y-95275000D01*
X144720000Y-99720000D01*
X100280000Y-99720000D01*
X100280000Y-97068750D01*
X115875000Y-97068750D01*
X115875000Y-97936934D01*
X115889411Y-98009383D01*
X115917679Y-98077629D01*
X115958718Y-98139048D01*
X116010951Y-98191281D01*
X116072371Y-98232321D01*
X116140616Y-98260589D01*
X116213065Y-98275000D01*
X116881250Y-98275000D01*
X116975000Y-98181250D01*
X116975000Y-96975000D01*
X117125000Y-96975000D01*
X117125000Y-98181250D01*
X117218750Y-98275000D01*
X117886935Y-98275000D01*
X117959384Y-98260589D01*
X118027629Y-98232321D01*
X118089049Y-98191281D01*
X118141282Y-98139048D01*
X118182321Y-98077629D01*
X118210589Y-98009383D01*
X118225000Y-97936934D01*
X118225000Y-97068750D01*
X119375000Y-97068750D01*
X119375000Y-97936934D01*
X119389411Y-98009383D01*
X119417679Y-98077629D01*
X119458718Y-98139048D01*
X119510951Y-98191281D01*
X119572371Y-98232321D01*
X119640616Y-98260589D01*
X119713065Y-98275000D01*
X120381250Y-98275000D01*
X120475000Y-98181250D01*
X120475000Y-96975000D01*
X120625000Y-96975000D01*
X120625000Y-98181250D01*
X120718750Y-98275000D01*
X121386935Y-98275000D01*
X121459384Y-98260589D01*
X121527629Y-98232321D01*
X121589049Y-98191281D01*
X121641282Y-98139048D01*
X121682321Y-98077629D01*
X121710589Y-98009383D01*
X121725000Y-97936934D01*
X121725000Y-97068750D01*
X122875000Y-97068750D01*
X122875000Y-97936934D01*
X122889411Y-98009383D01*
X122917679Y-98077629D01*
X122958718Y-98139048D01*
X123010951Y-98191281D01*
X123072371Y-98232321D01*
X123140616Y-98260589D01*
X123213065Y-98275000D01*
X123881250Y-98275000D01*
X123975000Y-98181250D01*
X123975000Y-96975000D01*
X124125000Y-96975000D01*
X124125000Y-98181250D01*
X124218750Y-98275000D01*
X124886935Y-98275000D01*
X124959384Y-98260589D01*
X125027629Y-98232321D01*
X125089049Y-98191281D01*
X125141282Y-98139048D01*
X125182321Y-98077629D01*
X125210589Y-98009383D01*
X125225000Y-97936934D01*
X125225000Y-97068750D01*
X126375000Y-97068750D01*
X126375000Y-97936934D01*
X126389411Y-98009383D01*
X126417679Y-98077629D01*
X126458718Y-98139048D01*
X126510951Y-98191281D01*
X126572371Y-98232321D01*
X126640616Y-98260589D01*
X126713065Y-98275000D01*
X127381250Y-98275000D01*
X127475000Y-98181250D01*
X127475000Y-96975000D01*
X127625000Y-96975000D01*
X127625000Y-98181250D01*
X127718750Y-98275000D01*
X128386935Y-98275000D01*
X128459384Y-98260589D01*
X128527629Y-98232321D01*
X128589049Y-98191281D01*
X128641282Y-98139048D01*
X128682321Y-98077629D01*
X128710589Y-98009383D01*
X128725000Y-97936934D01*
X128725000Y-97068750D01*
X128631250Y-96975000D01*
X127625000Y-96975000D01*
X127475000Y-96975000D01*
X126468750Y-96975000D01*
X126375000Y-97068750D01*
X125225000Y-97068750D01*
X125131250Y-96975000D01*
X124125000Y-96975000D01*
X123975000Y-96975000D01*
X122968750Y-96975000D01*
X122875000Y-97068750D01*
X121725000Y-97068750D01*
X121631250Y-96975000D01*
X120625000Y-96975000D01*
X120475000Y-96975000D01*
X119468750Y-96975000D01*
X119375000Y-97068750D01*
X118225000Y-97068750D01*
X118131250Y-96975000D01*
X117125000Y-96975000D01*
X116975000Y-96975000D01*
X115968750Y-96975000D01*
X115875000Y-97068750D01*
X100280000Y-97068750D01*
X100280000Y-95863066D01*
X115875000Y-95863066D01*
X115875000Y-96731250D01*
X115968750Y-96825000D01*
X116975000Y-96825000D01*
X116975000Y-95618750D01*
X117125000Y-95618750D01*
X117125000Y-96825000D01*
X118131250Y-96825000D01*
X118225000Y-96731250D01*
X118225000Y-95863066D01*
X119375000Y-95863066D01*
X119375000Y-96731250D01*
X119468750Y-96825000D01*
X120475000Y-96825000D01*
X120475000Y-95618750D01*
X120625000Y-95618750D01*
X120625000Y-96825000D01*
X121631250Y-96825000D01*
X121725000Y-96731250D01*
X121725000Y-95863066D01*
X122875000Y-95863066D01*
X122875000Y-96731250D01*
X122968750Y-96825000D01*
X123975000Y-96825000D01*
X123975000Y-95618750D01*
X124125000Y-95618750D01*
X124125000Y-96825000D01*
X125131250Y-96825000D01*
X125225000Y-96731250D01*
X125225000Y-95863066D01*
X126375000Y-95863066D01*
X126375000Y-96731250D01*
X126468750Y-96825000D01*
X127475000Y-96825000D01*
X127475000Y-95618750D01*
X127625000Y-95618750D01*
X127625000Y-96825000D01*
X128631250Y-96825000D01*
X128725000Y-96731250D01*
X128725000Y-95863066D01*
X128710589Y-95790617D01*
X128682321Y-95722371D01*
X128641282Y-95660952D01*
X128589049Y-95608719D01*
X128527629Y-95567679D01*
X128459384Y-95539411D01*
X128386935Y-95525000D01*
X127718750Y-95525000D01*
X127625000Y-95618750D01*
X127475000Y-95618750D01*
X127381250Y-95525000D01*
X126713065Y-95525000D01*
X126640616Y-95539411D01*
X126572371Y-95567679D01*
X126510951Y-95608719D01*
X126458718Y-95660952D01*
X126417679Y-95722371D01*
X126389411Y-95790617D01*
X126375000Y-95863066D01*
X125225000Y-95863066D01*
X125210589Y-95790617D01*
X125182321Y-95722371D01*
X125141282Y-95660952D01*
X125089049Y-95608719D01*
X125027629Y-95567679D01*
X124959384Y-95539411D01*
X124886935Y-95525000D01*
X124218750Y-95525000D01*
X124125000Y-95618750D01*
X123975000Y-95618750D01*
X123881250Y-95525000D01*
X123213065Y-95525000D01*
X123140616Y-95539411D01*
X123072371Y-95567679D01*
X123010951Y-95608719D01*
X122958718Y-95660952D01*
X122917679Y-95722371D01*
X122889411Y-95790617D01*
X122875000Y-95863066D01*
X121725000Y-95863066D01*
X121710589Y-95790617D01*
X121682321Y-95722371D01*
X121641282Y-95660952D01*
X121589049Y-95608719D01*
X121527629Y-95567679D01*
X121459384Y-95539411D01*
X121386935Y-95525000D01*
X120718750Y-95525000D01*
X120625000Y-95618750D01*
X120475000Y-95618750D01*
X120381250Y-95525000D01*
X119713065Y-95525000D01*
X119640616Y-95539411D01*
X119572371Y-95567679D01*
X119510951Y-95608719D01*
X119458718Y-95660952D01*
X119417679Y-95722371D01*
X119389411Y-95790617D01*
X119375000Y-95863066D01*
X118225000Y-95863066D01*
X118210589Y-95790617D01*
X118182321Y-95722371D01*
X118141282Y-95660952D01*
X118089049Y-95608719D01*
X118027629Y-95567679D01*
X117959384Y-95539411D01*
X117886935Y-95525000D01*
X117218750Y-95525000D01*
X117125000Y-95618750D01*
X116975000Y-95618750D01*
X116881250Y-95525000D01*
X116213065Y-95525000D01*
X116140616Y-95539411D01*
X116072371Y-95567679D01*
X116010951Y-95608719D01*
X115958718Y-95660952D01*
X115917679Y-95722371D01*
X115889411Y-95790617D01*
X115875000Y-95863066D01*
X100280000Y-95863066D01*
X100280000Y-95275000D01*
X102391250Y-95275000D01*
X102485000Y-95181250D01*
X102485000Y-94075000D01*
X102635000Y-94075000D01*
X102635000Y-95181250D01*
X102728750Y-95275000D01*
X105136935Y-95275000D01*
X105209384Y-95260589D01*
X105277629Y-95232321D01*
X105339049Y-95191281D01*
X105391282Y-95139048D01*
X105432321Y-95077629D01*
X105460589Y-95009383D01*
X105475000Y-94936934D01*
X105475000Y-94168750D01*
X105381250Y-94075000D01*
X102635000Y-94075000D01*
X102485000Y-94075000D01*
X102465000Y-94075000D01*
X102465000Y-93925000D01*
X102485000Y-93925000D01*
X102485000Y-92818750D01*
X102635000Y-92818750D01*
X102635000Y-93925000D01*
X105381250Y-93925000D01*
X105475000Y-93831250D01*
X105475000Y-93718750D01*
X106109000Y-93718750D01*
X106109000Y-94450535D01*
X106123411Y-94522984D01*
X106151679Y-94591229D01*
X106192719Y-94652649D01*
X106244952Y-94704882D01*
X106306371Y-94745921D01*
X106374617Y-94774189D01*
X106447066Y-94788600D01*
X107331250Y-94788600D01*
X107425000Y-94694850D01*
X107425000Y-93625000D01*
X107575000Y-93625000D01*
X107575000Y-94694850D01*
X107668750Y-94788600D01*
X108552934Y-94788600D01*
X108625383Y-94774189D01*
X108693629Y-94745921D01*
X108755048Y-94704882D01*
X108807281Y-94652649D01*
X108848321Y-94591229D01*
X108876589Y-94522984D01*
X108891000Y-94450535D01*
X108891000Y-93718750D01*
X108797250Y-93625000D01*
X107575000Y-93625000D01*
X107425000Y-93625000D01*
X106202750Y-93625000D01*
X106109000Y-93718750D01*
X105475000Y-93718750D01*
X105475000Y-93063066D01*
X105460589Y-92990617D01*
X105432321Y-92922371D01*
X105391282Y-92860952D01*
X105339049Y-92808719D01*
X105277629Y-92767679D01*
X105209384Y-92739411D01*
X105136935Y-92725000D01*
X102728750Y-92725000D01*
X102635000Y-92818750D01*
X102485000Y-92818750D01*
X102391250Y-92725000D01*
X100280000Y-92725000D01*
X100280000Y-92649465D01*
X106109000Y-92649465D01*
X106109000Y-93381250D01*
X106202750Y-93475000D01*
X107425000Y-93475000D01*
X107425000Y-92405150D01*
X107575000Y-92405150D01*
X107575000Y-93475000D01*
X108797250Y-93475000D01*
X108891000Y-93381250D01*
X108891000Y-92649465D01*
X108876589Y-92577016D01*
X108848321Y-92508771D01*
X108807281Y-92447351D01*
X108755048Y-92395118D01*
X108693629Y-92354079D01*
X108625383Y-92325811D01*
X108552934Y-92311400D01*
X107668750Y-92311400D01*
X107575000Y-92405150D01*
X107425000Y-92405150D01*
X107331250Y-92311400D01*
X106447066Y-92311400D01*
X106374617Y-92325811D01*
X106306371Y-92354079D01*
X106244952Y-92395118D01*
X106192719Y-92447351D01*
X106151679Y-92508771D01*
X106123411Y-92577016D01*
X106109000Y-92649465D01*
X100280000Y-92649465D01*
X100280000Y-92176330D01*
X105100000Y-92176330D01*
X105143793Y-92172838D01*
X105218070Y-92149836D01*
X105282998Y-92107051D01*
X105333436Y-92047872D01*
X105365390Y-91976984D01*
X105376330Y-91900000D01*
X105376330Y-91775000D01*
X106476110Y-91775000D01*
X106495956Y-91805795D01*
X106669649Y-91985659D01*
X106874969Y-92128361D01*
X107104097Y-92228464D01*
X107348305Y-92282157D01*
X107598290Y-92287393D01*
X107844532Y-92243974D01*
X108077650Y-92153553D01*
X108288766Y-92019575D01*
X108469839Y-91847142D01*
X108513675Y-91785000D01*
X109288984Y-91785000D01*
X110424562Y-92920577D01*
X110423587Y-92990389D01*
X110461644Y-93197744D01*
X110539252Y-93393758D01*
X110653454Y-93570964D01*
X110799900Y-93722614D01*
X110973014Y-93842931D01*
X111166200Y-93927332D01*
X111372100Y-93972602D01*
X111582872Y-93977017D01*
X111790487Y-93940409D01*
X111987038Y-93864172D01*
X112165038Y-93751210D01*
X112245067Y-93675000D01*
X115973670Y-93675000D01*
X115973670Y-93900000D01*
X115977162Y-93943793D01*
X116000164Y-94018070D01*
X116042949Y-94082998D01*
X116102128Y-94133436D01*
X116173016Y-94165390D01*
X116250000Y-94176330D01*
X117850000Y-94176330D01*
X117893793Y-94172838D01*
X117968070Y-94149836D01*
X118032998Y-94107051D01*
X118083436Y-94047872D01*
X118115390Y-93976984D01*
X118126330Y-93900000D01*
X118126330Y-91900000D01*
X118122838Y-91856207D01*
X118099836Y-91781930D01*
X118057051Y-91717002D01*
X117997872Y-91666564D01*
X117926984Y-91634610D01*
X117850000Y-91623670D01*
X116250000Y-91623670D01*
X116206207Y-91627162D01*
X116131930Y-91650164D01*
X116067002Y-91692949D01*
X116016564Y-91752128D01*
X115984610Y-91823016D01*
X115973670Y-91900000D01*
X115973670Y-92125000D01*
X112245457Y-92125000D01*
X112188546Y-92067691D01*
X112013770Y-91949803D01*
X111819424Y-91868107D01*
X111612912Y-91825716D01*
X111521091Y-91825075D01*
X110158008Y-90461992D01*
X110102658Y-90416527D01*
X110047849Y-90370537D01*
X110044279Y-90368574D01*
X110041129Y-90365987D01*
X109978050Y-90332165D01*
X109915305Y-90297670D01*
X109911418Y-90296437D01*
X109907828Y-90294512D01*
X109839370Y-90273582D01*
X109771132Y-90251936D01*
X109767083Y-90251482D01*
X109763185Y-90250290D01*
X109691945Y-90243054D01*
X109620821Y-90235076D01*
X109612853Y-90235020D01*
X109612705Y-90235005D01*
X109612567Y-90235018D01*
X109610000Y-90235000D01*
X108515913Y-90235000D01*
X108492835Y-90200264D01*
X108316648Y-90022842D01*
X108109355Y-89883022D01*
X107887388Y-89789715D01*
X108047873Y-89738385D01*
X108250242Y-89630217D01*
X108356106Y-89432172D01*
X107500000Y-88576066D01*
X106643894Y-89432172D01*
X106749758Y-89630217D01*
X106990521Y-89754288D01*
X107115502Y-89790157D01*
X106906439Y-89874623D01*
X106697215Y-90011536D01*
X106518568Y-90186480D01*
X106492193Y-90225000D01*
X105376330Y-90225000D01*
X105376330Y-90100000D01*
X105372838Y-90056207D01*
X105349836Y-89981930D01*
X105307051Y-89917002D01*
X105247872Y-89866564D01*
X105176984Y-89834610D01*
X105100000Y-89823670D01*
X100280000Y-89823670D01*
X100280000Y-89275000D01*
X102391250Y-89275000D01*
X102485000Y-89181250D01*
X102485000Y-88075000D01*
X102635000Y-88075000D01*
X102635000Y-89181250D01*
X102728750Y-89275000D01*
X105136935Y-89275000D01*
X105209384Y-89260589D01*
X105277629Y-89232321D01*
X105339049Y-89191281D01*
X105391282Y-89139048D01*
X105432321Y-89077629D01*
X105460589Y-89009383D01*
X105475000Y-88936934D01*
X105475000Y-88490778D01*
X106118504Y-88490778D01*
X106149102Y-88759895D01*
X106231615Y-89017873D01*
X106339783Y-89220242D01*
X106537828Y-89326106D01*
X107393934Y-88470000D01*
X107606066Y-88470000D01*
X108462172Y-89326106D01*
X108660217Y-89220242D01*
X108784288Y-88979479D01*
X108859005Y-88719138D01*
X108881496Y-88449222D01*
X108850898Y-88180105D01*
X108790219Y-87990389D01*
X112623587Y-87990389D01*
X112661644Y-88197744D01*
X112739252Y-88393758D01*
X112853454Y-88570964D01*
X112999900Y-88722614D01*
X113173014Y-88842931D01*
X113366200Y-88927332D01*
X113572100Y-88972602D01*
X113782872Y-88977017D01*
X113990487Y-88940409D01*
X114187038Y-88864172D01*
X114365038Y-88751210D01*
X114445067Y-88675000D01*
X117268630Y-88675000D01*
X117339879Y-88668014D01*
X117411193Y-88661775D01*
X117415108Y-88660637D01*
X117419162Y-88660240D01*
X117487653Y-88639562D01*
X117556440Y-88619577D01*
X117560060Y-88617700D01*
X117563960Y-88616523D01*
X117627141Y-88582929D01*
X117690725Y-88549970D01*
X117693911Y-88547426D01*
X117697508Y-88545514D01*
X117752989Y-88500265D01*
X117808932Y-88455606D01*
X117814605Y-88450012D01*
X117814722Y-88449917D01*
X117814811Y-88449809D01*
X117816638Y-88448008D01*
X119339646Y-86925000D01*
X119375000Y-86925000D01*
X119375000Y-89600000D01*
X119381986Y-89671249D01*
X119388225Y-89742563D01*
X119389363Y-89746478D01*
X119389760Y-89750532D01*
X119410438Y-89819023D01*
X119430423Y-89887810D01*
X119432300Y-89891430D01*
X119433477Y-89895330D01*
X119467071Y-89958511D01*
X119500030Y-90022095D01*
X119502574Y-90025281D01*
X119504486Y-90028878D01*
X119549735Y-90084359D01*
X119594394Y-90140302D01*
X119599988Y-90145975D01*
X119600083Y-90146092D01*
X119600191Y-90146181D01*
X119601992Y-90148008D01*
X119775000Y-90321016D01*
X119775000Y-91623670D01*
X119750000Y-91623670D01*
X119706207Y-91627162D01*
X119631930Y-91650164D01*
X119567002Y-91692949D01*
X119516564Y-91752128D01*
X119484610Y-91823016D01*
X119473670Y-91900000D01*
X119473670Y-93900000D01*
X119477162Y-93943793D01*
X119500164Y-94018070D01*
X119542949Y-94082998D01*
X119602128Y-94133436D01*
X119673016Y-94165390D01*
X119750000Y-94176330D01*
X121350000Y-94176330D01*
X121393793Y-94172838D01*
X121468070Y-94149836D01*
X121532998Y-94107051D01*
X121583436Y-94047872D01*
X121615390Y-93976984D01*
X121626330Y-93900000D01*
X121626330Y-91900000D01*
X122973670Y-91900000D01*
X122973670Y-93900000D01*
X122977162Y-93943793D01*
X123000164Y-94018070D01*
X123042949Y-94082998D01*
X123102128Y-94133436D01*
X123173016Y-94165390D01*
X123250000Y-94176330D01*
X124850000Y-94176330D01*
X124893793Y-94172838D01*
X124968070Y-94149836D01*
X125032998Y-94107051D01*
X125083436Y-94047872D01*
X125115390Y-93976984D01*
X125126330Y-93900000D01*
X125126330Y-91900000D01*
X125122838Y-91856207D01*
X125099836Y-91781930D01*
X125057051Y-91717002D01*
X124997872Y-91666564D01*
X124926984Y-91634610D01*
X124850000Y-91623670D01*
X124825000Y-91623670D01*
X124825000Y-91071016D01*
X125698008Y-90198008D01*
X125743473Y-90142658D01*
X125789463Y-90087849D01*
X125791426Y-90084279D01*
X125794013Y-90081129D01*
X125827835Y-90018050D01*
X125862330Y-89955305D01*
X125863563Y-89951418D01*
X125865488Y-89947828D01*
X125886418Y-89879370D01*
X125908064Y-89811132D01*
X125908518Y-89807083D01*
X125909710Y-89803185D01*
X125916946Y-89731945D01*
X125924924Y-89660821D01*
X125924980Y-89652853D01*
X125924995Y-89652705D01*
X125924982Y-89652567D01*
X125925000Y-89650000D01*
X125925000Y-89125000D01*
X127100000Y-89125000D01*
X127171249Y-89118014D01*
X127242563Y-89111775D01*
X127246478Y-89110637D01*
X127250532Y-89110240D01*
X127319023Y-89089562D01*
X127387810Y-89069577D01*
X127391430Y-89067700D01*
X127395330Y-89066523D01*
X127458511Y-89032929D01*
X127522095Y-88999970D01*
X127525281Y-88997426D01*
X127528878Y-88995514D01*
X127584359Y-88950265D01*
X127640302Y-88905606D01*
X127645975Y-88900012D01*
X127646092Y-88899917D01*
X127646181Y-88899809D01*
X127648008Y-88898008D01*
X127871016Y-88675000D01*
X132653920Y-88675000D01*
X132699900Y-88722614D01*
X132873014Y-88842931D01*
X133066200Y-88927332D01*
X133272100Y-88972602D01*
X133482872Y-88977017D01*
X133690487Y-88940409D01*
X133887038Y-88864172D01*
X134065038Y-88751210D01*
X134217707Y-88605826D01*
X134298863Y-88490778D01*
X136118504Y-88490778D01*
X136149102Y-88759895D01*
X136231615Y-89017873D01*
X136339783Y-89220242D01*
X136537828Y-89326106D01*
X137393934Y-88470000D01*
X137606066Y-88470000D01*
X138462172Y-89326106D01*
X138660217Y-89220242D01*
X138784288Y-88979479D01*
X138859005Y-88719138D01*
X138881496Y-88449222D01*
X138850898Y-88180105D01*
X138847267Y-88168750D01*
X139545000Y-88168750D01*
X139545000Y-88936934D01*
X139559411Y-89009383D01*
X139587679Y-89077629D01*
X139628718Y-89139048D01*
X139680951Y-89191281D01*
X139742371Y-89232321D01*
X139810616Y-89260589D01*
X139883065Y-89275000D01*
X142291250Y-89275000D01*
X142385000Y-89181250D01*
X142385000Y-88075000D01*
X139638750Y-88075000D01*
X139545000Y-88168750D01*
X138847267Y-88168750D01*
X138768385Y-87922127D01*
X138660217Y-87719758D01*
X138462172Y-87613894D01*
X137606066Y-88470000D01*
X137393934Y-88470000D01*
X136537828Y-87613894D01*
X136339783Y-87719758D01*
X136215712Y-87960521D01*
X136140995Y-88220862D01*
X136118504Y-88490778D01*
X134298863Y-88490778D01*
X134339229Y-88433556D01*
X134424977Y-88240964D01*
X134471683Y-88035385D01*
X134475046Y-87794591D01*
X134434097Y-87587788D01*
X134401141Y-87507828D01*
X136643894Y-87507828D01*
X137500000Y-88363934D01*
X138356106Y-87507828D01*
X138250242Y-87309783D01*
X138009479Y-87185712D01*
X137749138Y-87110995D01*
X137479222Y-87088504D01*
X137210105Y-87119102D01*
X136952127Y-87201615D01*
X136749758Y-87309783D01*
X136643894Y-87507828D01*
X134401141Y-87507828D01*
X134353761Y-87392876D01*
X134237096Y-87217281D01*
X134088546Y-87067691D01*
X134081690Y-87063066D01*
X139545000Y-87063066D01*
X139545000Y-87831250D01*
X139638750Y-87925000D01*
X142385000Y-87925000D01*
X142385000Y-86818750D01*
X142291250Y-86725000D01*
X139883065Y-86725000D01*
X139810616Y-86739411D01*
X139742371Y-86767679D01*
X139680951Y-86808719D01*
X139628718Y-86860952D01*
X139587679Y-86922371D01*
X139559411Y-86990617D01*
X139545000Y-87063066D01*
X134081690Y-87063066D01*
X133913770Y-86949803D01*
X133719424Y-86868107D01*
X133512912Y-86825716D01*
X133302099Y-86824245D01*
X133095014Y-86863748D01*
X132899547Y-86942722D01*
X132723142Y-87058158D01*
X132654885Y-87125000D01*
X127550000Y-87125000D01*
X127478751Y-87131986D01*
X127407437Y-87138225D01*
X127403522Y-87139363D01*
X127399468Y-87139760D01*
X127330977Y-87160438D01*
X127262190Y-87180423D01*
X127258570Y-87182300D01*
X127254670Y-87183477D01*
X127191489Y-87217071D01*
X127127905Y-87250030D01*
X127124719Y-87252574D01*
X127121122Y-87254486D01*
X127065641Y-87299735D01*
X127009698Y-87344394D01*
X127004025Y-87349988D01*
X127003908Y-87350083D01*
X127003819Y-87350191D01*
X127001992Y-87351992D01*
X126778984Y-87575000D01*
X125895457Y-87575000D01*
X125838546Y-87517691D01*
X125663770Y-87399803D01*
X125469424Y-87318107D01*
X125262912Y-87275716D01*
X125052099Y-87274245D01*
X124845014Y-87313748D01*
X124649547Y-87392722D01*
X124473142Y-87508158D01*
X124322518Y-87655660D01*
X124203413Y-87829609D01*
X124120362Y-88023380D01*
X124076531Y-88229591D01*
X124073587Y-88440389D01*
X124111644Y-88647744D01*
X124189252Y-88843758D01*
X124303454Y-89020964D01*
X124375000Y-89095052D01*
X124375000Y-89328984D01*
X123501992Y-90201992D01*
X123456527Y-90257342D01*
X123410537Y-90312151D01*
X123408574Y-90315721D01*
X123405987Y-90318871D01*
X123372165Y-90381950D01*
X123337670Y-90444695D01*
X123336437Y-90448582D01*
X123334512Y-90452172D01*
X123313582Y-90520630D01*
X123291936Y-90588868D01*
X123291482Y-90592917D01*
X123290290Y-90596815D01*
X123283054Y-90668055D01*
X123275076Y-90739179D01*
X123275020Y-90747147D01*
X123275005Y-90747295D01*
X123275018Y-90747433D01*
X123275000Y-90750000D01*
X123275000Y-91623670D01*
X123250000Y-91623670D01*
X123206207Y-91627162D01*
X123131930Y-91650164D01*
X123067002Y-91692949D01*
X123016564Y-91752128D01*
X122984610Y-91823016D01*
X122973670Y-91900000D01*
X121626330Y-91900000D01*
X121622838Y-91856207D01*
X121599836Y-91781930D01*
X121557051Y-91717002D01*
X121497872Y-91666564D01*
X121426984Y-91634610D01*
X121350000Y-91623670D01*
X121325000Y-91623670D01*
X121325000Y-90000000D01*
X121318009Y-89928701D01*
X121311774Y-89857437D01*
X121310638Y-89853527D01*
X121310240Y-89849468D01*
X121289535Y-89780890D01*
X121269576Y-89712190D01*
X121267702Y-89708574D01*
X121266523Y-89704670D01*
X121232889Y-89641414D01*
X121199969Y-89577905D01*
X121197428Y-89574722D01*
X121195514Y-89571122D01*
X121150238Y-89515607D01*
X121105605Y-89459697D01*
X121100016Y-89454029D01*
X121099917Y-89453908D01*
X121099805Y-89453815D01*
X121098007Y-89451992D01*
X120925000Y-89278985D01*
X120925000Y-86896495D01*
X120967707Y-86855826D01*
X121089229Y-86683556D01*
X121174977Y-86490964D01*
X121221683Y-86285385D01*
X121225046Y-86044591D01*
X121184097Y-85837788D01*
X121103761Y-85642876D01*
X120987096Y-85467281D01*
X120838546Y-85317691D01*
X120663770Y-85199803D01*
X120469424Y-85118107D01*
X120262912Y-85075716D01*
X120052099Y-85074245D01*
X119845014Y-85113748D01*
X119649547Y-85192722D01*
X119473142Y-85308158D01*
X119404885Y-85375000D01*
X119018630Y-85375000D01*
X118947373Y-85381987D01*
X118876068Y-85388225D01*
X118872153Y-85389362D01*
X118868098Y-85389760D01*
X118799595Y-85410442D01*
X118730820Y-85430423D01*
X118727200Y-85432300D01*
X118723300Y-85433477D01*
X118660099Y-85467082D01*
X118596536Y-85500030D01*
X118593352Y-85502572D01*
X118589752Y-85504486D01*
X118534249Y-85549753D01*
X118478328Y-85594394D01*
X118472655Y-85599988D01*
X118472538Y-85600083D01*
X118472449Y-85600191D01*
X118470622Y-85601992D01*
X116947614Y-87125000D01*
X114445457Y-87125000D01*
X114388546Y-87067691D01*
X114213770Y-86949803D01*
X114019424Y-86868107D01*
X113812912Y-86825716D01*
X113602099Y-86824245D01*
X113395014Y-86863748D01*
X113199547Y-86942722D01*
X113023142Y-87058158D01*
X112872518Y-87205660D01*
X112753413Y-87379609D01*
X112670362Y-87573380D01*
X112626531Y-87779591D01*
X112623587Y-87990389D01*
X108790219Y-87990389D01*
X108768385Y-87922127D01*
X108660217Y-87719758D01*
X108462172Y-87613894D01*
X107606066Y-88470000D01*
X107393934Y-88470000D01*
X106537828Y-87613894D01*
X106339783Y-87719758D01*
X106215712Y-87960521D01*
X106140995Y-88220862D01*
X106118504Y-88490778D01*
X105475000Y-88490778D01*
X105475000Y-88168750D01*
X105381250Y-88075000D01*
X102635000Y-88075000D01*
X102485000Y-88075000D01*
X102465000Y-88075000D01*
X102465000Y-87925000D01*
X102485000Y-87925000D01*
X102485000Y-86818750D01*
X102635000Y-86818750D01*
X102635000Y-87925000D01*
X105381250Y-87925000D01*
X105475000Y-87831250D01*
X105475000Y-87507828D01*
X106643894Y-87507828D01*
X107500000Y-88363934D01*
X108356106Y-87507828D01*
X108250242Y-87309783D01*
X108009479Y-87185712D01*
X107749138Y-87110995D01*
X107479222Y-87088504D01*
X107210105Y-87119102D01*
X106952127Y-87201615D01*
X106749758Y-87309783D01*
X106643894Y-87507828D01*
X105475000Y-87507828D01*
X105475000Y-87063066D01*
X105460589Y-86990617D01*
X105432321Y-86922371D01*
X105391282Y-86860952D01*
X105339049Y-86808719D01*
X105277629Y-86767679D01*
X105209384Y-86739411D01*
X105136935Y-86725000D01*
X102728750Y-86725000D01*
X102635000Y-86818750D01*
X102485000Y-86818750D01*
X102391250Y-86725000D01*
X100280000Y-86725000D01*
X100280000Y-82280000D01*
X144720000Y-82280000D01*
X144720000Y-86725000D01*
M02*
