M48
INCH,TZ
T1C0.008
T2C0.012
T3C0.031
T4C0.039
T5C0.040
%
G90
G05
T1
X39606Y-34646
X39606Y-37008
X40000Y-34449
X40000Y-34843
X40000Y-36811
X40000Y-37205
X40394Y-34646
X40394Y-37008
X40787Y-34449
X40787Y-34843
X40787Y-36811
X40787Y-37205
X41181Y-34646
X41181Y-37008
X55315Y-34646
X55315Y-37008
X55709Y-34449
X55709Y-34843
X55709Y-36811
X55709Y-37205
X56102Y-34646
X56102Y-37008
X56496Y-34449
X56496Y-34843
X56496Y-36811
X56496Y-37205
X56890Y-34646
X56890Y-37008
T2
X39961Y-34016
X39961Y-35236
X39961Y-36417
X39961Y-37638
X40807Y-36417
X40827Y-34016
X40827Y-35236
X40827Y-37638
X41614Y-34646
X41614Y-37008
X43110Y-34646
X43110Y-37008
X45787Y-33858
X45787Y-35197
X46772Y-36811
X46772Y-37992
X48150Y-36811
X48150Y-37992
X49528Y-36811
X49528Y-37992
X50709Y-33858
X50709Y-35197
X53307Y-34646
X53307Y-37008
X54862Y-34646
X54862Y-37008
X55630Y-34016
X55630Y-35236
X55630Y-36417
X55630Y-37638
X56496Y-34016
X56496Y-35236
X56496Y-36417
X56496Y-37638
T3
X43898Y-36575
X44764Y-34606
X47303Y-33917
X49272Y-34783
X51654Y-36575
X52520Y-34606
T4
X42323Y-34831
X42323Y-35831
X54134Y-34831
X54134Y-35831
T5
X42323Y-36831
X54134Y-36831
T0
M30
