G04 #@! TF.GenerationSoftware,KiCad,Pcbnew,5.0.2-bee76a0~70~ubuntu18.04.1*
G04 #@! TF.CreationDate,2018-12-18T09:34:18-08:00*
G04 #@! TF.ProjectId,LowPassFilterModule,4c6f7750-6173-4734-9669-6c7465724d6f,rev?*
G04 #@! TF.SameCoordinates,Original*
G04 #@! TF.FileFunction,Copper,L1,Top*
G04 #@! TF.FilePolarity,Positive*
%FSLAX46Y46*%
G04 Gerber Fmt 4.6, Leading zero omitted, Abs format (unit mm)*
G04 Created by KiCad (PCBNEW 5.0.2-bee76a0~70~ubuntu18.04.1) date Tue 18 Dec 2018 09:34:18 AM PST*
%MOMM*%
%LPD*%
G01*
G04 APERTURE LIST*
G04 #@! TA.AperFunction,ComponentPad*
%ADD10O,1.700000X1.700000*%
G04 #@! TD*
G04 #@! TA.AperFunction,ComponentPad*
%ADD11R,1.700000X1.700000*%
G04 #@! TD*
G04 #@! TA.AperFunction,ComponentPad*
%ADD12C,0.500000*%
G04 #@! TD*
G04 #@! TA.AperFunction,ComponentPad*
%ADD13C,1.600000*%
G04 #@! TD*
G04 #@! TA.AperFunction,Conductor*
%ADD14C,0.100000*%
G04 #@! TD*
G04 #@! TA.AperFunction,SMDPad,CuDef*
%ADD15C,0.975000*%
G04 #@! TD*
G04 #@! TA.AperFunction,SMDPad,CuDef*
%ADD16C,0.875000*%
G04 #@! TD*
G04 #@! TA.AperFunction,ViaPad*
%ADD17C,0.500000*%
G04 #@! TD*
G04 #@! TA.AperFunction,Conductor*
%ADD18C,0.800000*%
G04 #@! TD*
G04 #@! TA.AperFunction,Conductor*
%ADD19C,0.300000*%
G04 #@! TD*
G04 #@! TA.AperFunction,Conductor*
%ADD20C,0.200000*%
G04 #@! TD*
G04 APERTURE END LIST*
D10*
G04 #@! TO.P,J1,5*
G04 #@! TO.N,GND*
X102000000Y-98080000D03*
G04 #@! TO.P,J1,4*
G04 #@! TO.N,Net-(C1-Pad1)*
X102000000Y-95540000D03*
G04 #@! TO.P,J1,3*
G04 #@! TO.N,GND*
X102000000Y-93000000D03*
G04 #@! TO.P,J1,2*
G04 #@! TO.N,Net-(J1-Pad2)*
X102000000Y-90460000D03*
D11*
G04 #@! TO.P,J1,1*
G04 #@! TO.N,GND*
X102000000Y-87920000D03*
G04 #@! TD*
D12*
G04 #@! TO.P,VIA,*
G04 #@! TO.N,GND*
X117000000Y-87800000D03*
G04 #@! TD*
G04 #@! TO.P,VIA,*
G04 #@! TO.N,GND*
X109500000Y-87800000D03*
G04 #@! TD*
G04 #@! TO.P,VIA,*
G04 #@! TO.N,GND*
X110600000Y-87800000D03*
G04 #@! TD*
G04 #@! TO.P,VIA,*
G04 #@! TO.N,GND*
X111700000Y-87800000D03*
G04 #@! TD*
G04 #@! TO.P,VIA,*
G04 #@! TO.N,GND*
X112700000Y-87800000D03*
G04 #@! TD*
D13*
G04 #@! TO.P,L3,2*
G04 #@! TO.N,Net-(C6-Pad1)*
X124400000Y-94950000D03*
G04 #@! TO.P,L3,1*
G04 #@! TO.N,Net-(C4-Pad1)*
X126600000Y-89950000D03*
G04 #@! TD*
G04 #@! TO.P,L2,2*
G04 #@! TO.N,Net-(C4-Pad1)*
X119550000Y-91600000D03*
G04 #@! TO.P,L2,1*
G04 #@! TO.N,Net-(C2-Pad1)*
X114550000Y-89400000D03*
G04 #@! TD*
G04 #@! TO.P,L1,2*
G04 #@! TO.N,Net-(C2-Pad1)*
X109850000Y-89950000D03*
G04 #@! TO.P,L1,1*
G04 #@! TO.N,Net-(C1-Pad1)*
X107650000Y-94950000D03*
G04 #@! TD*
D12*
G04 #@! TO.P,VIA,*
G04 #@! TO.N,GND*
X124300000Y-93000000D03*
G04 #@! TD*
G04 #@! TO.P,VIA,*
G04 #@! TO.N,GND*
X117000000Y-91600000D03*
G04 #@! TD*
G04 #@! TO.P,VIA,*
G04 #@! TO.N,GND*
X117000000Y-89400000D03*
G04 #@! TD*
G04 #@! TO.P,VIA,*
G04 #@! TO.N,GND*
X126500000Y-93000000D03*
G04 #@! TD*
G04 #@! TO.P,VIA,*
G04 #@! TO.N,GND*
X122600000Y-97600000D03*
G04 #@! TD*
G04 #@! TO.P,VIA,*
G04 #@! TO.N,GND*
X129000000Y-90000000D03*
G04 #@! TD*
G04 #@! TO.P,VIA,*
G04 #@! TO.N,GND*
X117100000Y-97600000D03*
G04 #@! TD*
G04 #@! TO.P,VIA,*
G04 #@! TO.N,GND*
X117100000Y-95800000D03*
G04 #@! TD*
G04 #@! TO.P,VIA,*
G04 #@! TO.N,GND*
X119900000Y-95900000D03*
G04 #@! TD*
G04 #@! TO.P,VIA,*
G04 #@! TO.N,GND*
X122400000Y-94500000D03*
G04 #@! TD*
G04 #@! TO.P,VIA,*
G04 #@! TO.N,GND*
X114300000Y-97600000D03*
G04 #@! TD*
G04 #@! TO.P,VIA,*
G04 #@! TO.N,GND*
X114300000Y-95800000D03*
G04 #@! TD*
G04 #@! TO.P,VIA,*
G04 #@! TO.N,GND*
X111500000Y-94500000D03*
G04 #@! TD*
G04 #@! TO.P,VIA,*
G04 #@! TO.N,GND*
X111600000Y-97600000D03*
G04 #@! TD*
G04 #@! TO.P,VIA,*
G04 #@! TO.N,GND*
X119900000Y-97600000D03*
G04 #@! TD*
G04 #@! TO.P,VIA,*
G04 #@! TO.N,GND*
X105000000Y-90000000D03*
G04 #@! TD*
G04 #@! TO.P,VIA,*
G04 #@! TO.N,GND*
X105000000Y-97000000D03*
G04 #@! TD*
G04 #@! TO.P,VIA,*
G04 #@! TO.N,GND*
X129000000Y-97000000D03*
G04 #@! TD*
G04 #@! TO.P,VIA,*
G04 #@! TO.N,GND*
X109900000Y-93000000D03*
G04 #@! TD*
G04 #@! TO.P,VIA,*
G04 #@! TO.N,GND*
X107500000Y-93000000D03*
G04 #@! TD*
D14*
G04 #@! TO.N,Net-(C1-Pad1)*
G04 #@! TO.C,C1*
G36*
X113380142Y-95276174D02*
X113403803Y-95279684D01*
X113427007Y-95285496D01*
X113449529Y-95293554D01*
X113471153Y-95303782D01*
X113491670Y-95316079D01*
X113510883Y-95330329D01*
X113528607Y-95346393D01*
X113544671Y-95364117D01*
X113558921Y-95383330D01*
X113571218Y-95403847D01*
X113581446Y-95425471D01*
X113589504Y-95447993D01*
X113595316Y-95471197D01*
X113598826Y-95494858D01*
X113600000Y-95518750D01*
X113600000Y-96006250D01*
X113598826Y-96030142D01*
X113595316Y-96053803D01*
X113589504Y-96077007D01*
X113581446Y-96099529D01*
X113571218Y-96121153D01*
X113558921Y-96141670D01*
X113544671Y-96160883D01*
X113528607Y-96178607D01*
X113510883Y-96194671D01*
X113491670Y-96208921D01*
X113471153Y-96221218D01*
X113449529Y-96231446D01*
X113427007Y-96239504D01*
X113403803Y-96245316D01*
X113380142Y-96248826D01*
X113356250Y-96250000D01*
X112443750Y-96250000D01*
X112419858Y-96248826D01*
X112396197Y-96245316D01*
X112372993Y-96239504D01*
X112350471Y-96231446D01*
X112328847Y-96221218D01*
X112308330Y-96208921D01*
X112289117Y-96194671D01*
X112271393Y-96178607D01*
X112255329Y-96160883D01*
X112241079Y-96141670D01*
X112228782Y-96121153D01*
X112218554Y-96099529D01*
X112210496Y-96077007D01*
X112204684Y-96053803D01*
X112201174Y-96030142D01*
X112200000Y-96006250D01*
X112200000Y-95518750D01*
X112201174Y-95494858D01*
X112204684Y-95471197D01*
X112210496Y-95447993D01*
X112218554Y-95425471D01*
X112228782Y-95403847D01*
X112241079Y-95383330D01*
X112255329Y-95364117D01*
X112271393Y-95346393D01*
X112289117Y-95330329D01*
X112308330Y-95316079D01*
X112328847Y-95303782D01*
X112350471Y-95293554D01*
X112372993Y-95285496D01*
X112396197Y-95279684D01*
X112419858Y-95276174D01*
X112443750Y-95275000D01*
X113356250Y-95275000D01*
X113380142Y-95276174D01*
X113380142Y-95276174D01*
G37*
D15*
G04 #@! TD*
G04 #@! TO.P,C1,1*
G04 #@! TO.N,Net-(C1-Pad1)*
X112900000Y-95762500D03*
D14*
G04 #@! TO.N,GND*
G04 #@! TO.C,C1*
G36*
X113380142Y-97151174D02*
X113403803Y-97154684D01*
X113427007Y-97160496D01*
X113449529Y-97168554D01*
X113471153Y-97178782D01*
X113491670Y-97191079D01*
X113510883Y-97205329D01*
X113528607Y-97221393D01*
X113544671Y-97239117D01*
X113558921Y-97258330D01*
X113571218Y-97278847D01*
X113581446Y-97300471D01*
X113589504Y-97322993D01*
X113595316Y-97346197D01*
X113598826Y-97369858D01*
X113600000Y-97393750D01*
X113600000Y-97881250D01*
X113598826Y-97905142D01*
X113595316Y-97928803D01*
X113589504Y-97952007D01*
X113581446Y-97974529D01*
X113571218Y-97996153D01*
X113558921Y-98016670D01*
X113544671Y-98035883D01*
X113528607Y-98053607D01*
X113510883Y-98069671D01*
X113491670Y-98083921D01*
X113471153Y-98096218D01*
X113449529Y-98106446D01*
X113427007Y-98114504D01*
X113403803Y-98120316D01*
X113380142Y-98123826D01*
X113356250Y-98125000D01*
X112443750Y-98125000D01*
X112419858Y-98123826D01*
X112396197Y-98120316D01*
X112372993Y-98114504D01*
X112350471Y-98106446D01*
X112328847Y-98096218D01*
X112308330Y-98083921D01*
X112289117Y-98069671D01*
X112271393Y-98053607D01*
X112255329Y-98035883D01*
X112241079Y-98016670D01*
X112228782Y-97996153D01*
X112218554Y-97974529D01*
X112210496Y-97952007D01*
X112204684Y-97928803D01*
X112201174Y-97905142D01*
X112200000Y-97881250D01*
X112200000Y-97393750D01*
X112201174Y-97369858D01*
X112204684Y-97346197D01*
X112210496Y-97322993D01*
X112218554Y-97300471D01*
X112228782Y-97278847D01*
X112241079Y-97258330D01*
X112255329Y-97239117D01*
X112271393Y-97221393D01*
X112289117Y-97205329D01*
X112308330Y-97191079D01*
X112328847Y-97178782D01*
X112350471Y-97168554D01*
X112372993Y-97160496D01*
X112396197Y-97154684D01*
X112419858Y-97151174D01*
X112443750Y-97150000D01*
X113356250Y-97150000D01*
X113380142Y-97151174D01*
X113380142Y-97151174D01*
G37*
D15*
G04 #@! TD*
G04 #@! TO.P,C1,2*
G04 #@! TO.N,GND*
X112900000Y-97637500D03*
D14*
G04 #@! TO.N,Net-(C2-Pad1)*
G04 #@! TO.C,C2*
G36*
X105480142Y-91576174D02*
X105503803Y-91579684D01*
X105527007Y-91585496D01*
X105549529Y-91593554D01*
X105571153Y-91603782D01*
X105591670Y-91616079D01*
X105610883Y-91630329D01*
X105628607Y-91646393D01*
X105644671Y-91664117D01*
X105658921Y-91683330D01*
X105671218Y-91703847D01*
X105681446Y-91725471D01*
X105689504Y-91747993D01*
X105695316Y-91771197D01*
X105698826Y-91794858D01*
X105700000Y-91818750D01*
X105700000Y-92306250D01*
X105698826Y-92330142D01*
X105695316Y-92353803D01*
X105689504Y-92377007D01*
X105681446Y-92399529D01*
X105671218Y-92421153D01*
X105658921Y-92441670D01*
X105644671Y-92460883D01*
X105628607Y-92478607D01*
X105610883Y-92494671D01*
X105591670Y-92508921D01*
X105571153Y-92521218D01*
X105549529Y-92531446D01*
X105527007Y-92539504D01*
X105503803Y-92545316D01*
X105480142Y-92548826D01*
X105456250Y-92550000D01*
X104543750Y-92550000D01*
X104519858Y-92548826D01*
X104496197Y-92545316D01*
X104472993Y-92539504D01*
X104450471Y-92531446D01*
X104428847Y-92521218D01*
X104408330Y-92508921D01*
X104389117Y-92494671D01*
X104371393Y-92478607D01*
X104355329Y-92460883D01*
X104341079Y-92441670D01*
X104328782Y-92421153D01*
X104318554Y-92399529D01*
X104310496Y-92377007D01*
X104304684Y-92353803D01*
X104301174Y-92330142D01*
X104300000Y-92306250D01*
X104300000Y-91818750D01*
X104301174Y-91794858D01*
X104304684Y-91771197D01*
X104310496Y-91747993D01*
X104318554Y-91725471D01*
X104328782Y-91703847D01*
X104341079Y-91683330D01*
X104355329Y-91664117D01*
X104371393Y-91646393D01*
X104389117Y-91630329D01*
X104408330Y-91616079D01*
X104428847Y-91603782D01*
X104450471Y-91593554D01*
X104472993Y-91585496D01*
X104496197Y-91579684D01*
X104519858Y-91576174D01*
X104543750Y-91575000D01*
X105456250Y-91575000D01*
X105480142Y-91576174D01*
X105480142Y-91576174D01*
G37*
D15*
G04 #@! TD*
G04 #@! TO.P,C2,1*
G04 #@! TO.N,Net-(C2-Pad1)*
X105000000Y-92062500D03*
D14*
G04 #@! TO.N,Net-(C1-Pad1)*
G04 #@! TO.C,C2*
G36*
X105480142Y-93451174D02*
X105503803Y-93454684D01*
X105527007Y-93460496D01*
X105549529Y-93468554D01*
X105571153Y-93478782D01*
X105591670Y-93491079D01*
X105610883Y-93505329D01*
X105628607Y-93521393D01*
X105644671Y-93539117D01*
X105658921Y-93558330D01*
X105671218Y-93578847D01*
X105681446Y-93600471D01*
X105689504Y-93622993D01*
X105695316Y-93646197D01*
X105698826Y-93669858D01*
X105700000Y-93693750D01*
X105700000Y-94181250D01*
X105698826Y-94205142D01*
X105695316Y-94228803D01*
X105689504Y-94252007D01*
X105681446Y-94274529D01*
X105671218Y-94296153D01*
X105658921Y-94316670D01*
X105644671Y-94335883D01*
X105628607Y-94353607D01*
X105610883Y-94369671D01*
X105591670Y-94383921D01*
X105571153Y-94396218D01*
X105549529Y-94406446D01*
X105527007Y-94414504D01*
X105503803Y-94420316D01*
X105480142Y-94423826D01*
X105456250Y-94425000D01*
X104543750Y-94425000D01*
X104519858Y-94423826D01*
X104496197Y-94420316D01*
X104472993Y-94414504D01*
X104450471Y-94406446D01*
X104428847Y-94396218D01*
X104408330Y-94383921D01*
X104389117Y-94369671D01*
X104371393Y-94353607D01*
X104355329Y-94335883D01*
X104341079Y-94316670D01*
X104328782Y-94296153D01*
X104318554Y-94274529D01*
X104310496Y-94252007D01*
X104304684Y-94228803D01*
X104301174Y-94205142D01*
X104300000Y-94181250D01*
X104300000Y-93693750D01*
X104301174Y-93669858D01*
X104304684Y-93646197D01*
X104310496Y-93622993D01*
X104318554Y-93600471D01*
X104328782Y-93578847D01*
X104341079Y-93558330D01*
X104355329Y-93539117D01*
X104371393Y-93521393D01*
X104389117Y-93505329D01*
X104408330Y-93491079D01*
X104428847Y-93478782D01*
X104450471Y-93468554D01*
X104472993Y-93460496D01*
X104496197Y-93454684D01*
X104519858Y-93451174D01*
X104543750Y-93450000D01*
X105456250Y-93450000D01*
X105480142Y-93451174D01*
X105480142Y-93451174D01*
G37*
D15*
G04 #@! TD*
G04 #@! TO.P,C2,2*
G04 #@! TO.N,Net-(C1-Pad1)*
X105000000Y-93937500D03*
D14*
G04 #@! TO.N,GND*
G04 #@! TO.C,C3*
G36*
X116180142Y-97151174D02*
X116203803Y-97154684D01*
X116227007Y-97160496D01*
X116249529Y-97168554D01*
X116271153Y-97178782D01*
X116291670Y-97191079D01*
X116310883Y-97205329D01*
X116328607Y-97221393D01*
X116344671Y-97239117D01*
X116358921Y-97258330D01*
X116371218Y-97278847D01*
X116381446Y-97300471D01*
X116389504Y-97322993D01*
X116395316Y-97346197D01*
X116398826Y-97369858D01*
X116400000Y-97393750D01*
X116400000Y-97881250D01*
X116398826Y-97905142D01*
X116395316Y-97928803D01*
X116389504Y-97952007D01*
X116381446Y-97974529D01*
X116371218Y-97996153D01*
X116358921Y-98016670D01*
X116344671Y-98035883D01*
X116328607Y-98053607D01*
X116310883Y-98069671D01*
X116291670Y-98083921D01*
X116271153Y-98096218D01*
X116249529Y-98106446D01*
X116227007Y-98114504D01*
X116203803Y-98120316D01*
X116180142Y-98123826D01*
X116156250Y-98125000D01*
X115243750Y-98125000D01*
X115219858Y-98123826D01*
X115196197Y-98120316D01*
X115172993Y-98114504D01*
X115150471Y-98106446D01*
X115128847Y-98096218D01*
X115108330Y-98083921D01*
X115089117Y-98069671D01*
X115071393Y-98053607D01*
X115055329Y-98035883D01*
X115041079Y-98016670D01*
X115028782Y-97996153D01*
X115018554Y-97974529D01*
X115010496Y-97952007D01*
X115004684Y-97928803D01*
X115001174Y-97905142D01*
X115000000Y-97881250D01*
X115000000Y-97393750D01*
X115001174Y-97369858D01*
X115004684Y-97346197D01*
X115010496Y-97322993D01*
X115018554Y-97300471D01*
X115028782Y-97278847D01*
X115041079Y-97258330D01*
X115055329Y-97239117D01*
X115071393Y-97221393D01*
X115089117Y-97205329D01*
X115108330Y-97191079D01*
X115128847Y-97178782D01*
X115150471Y-97168554D01*
X115172993Y-97160496D01*
X115196197Y-97154684D01*
X115219858Y-97151174D01*
X115243750Y-97150000D01*
X116156250Y-97150000D01*
X116180142Y-97151174D01*
X116180142Y-97151174D01*
G37*
D15*
G04 #@! TD*
G04 #@! TO.P,C3,2*
G04 #@! TO.N,GND*
X115700000Y-97637500D03*
D14*
G04 #@! TO.N,Net-(C2-Pad1)*
G04 #@! TO.C,C3*
G36*
X116180142Y-95276174D02*
X116203803Y-95279684D01*
X116227007Y-95285496D01*
X116249529Y-95293554D01*
X116271153Y-95303782D01*
X116291670Y-95316079D01*
X116310883Y-95330329D01*
X116328607Y-95346393D01*
X116344671Y-95364117D01*
X116358921Y-95383330D01*
X116371218Y-95403847D01*
X116381446Y-95425471D01*
X116389504Y-95447993D01*
X116395316Y-95471197D01*
X116398826Y-95494858D01*
X116400000Y-95518750D01*
X116400000Y-96006250D01*
X116398826Y-96030142D01*
X116395316Y-96053803D01*
X116389504Y-96077007D01*
X116381446Y-96099529D01*
X116371218Y-96121153D01*
X116358921Y-96141670D01*
X116344671Y-96160883D01*
X116328607Y-96178607D01*
X116310883Y-96194671D01*
X116291670Y-96208921D01*
X116271153Y-96221218D01*
X116249529Y-96231446D01*
X116227007Y-96239504D01*
X116203803Y-96245316D01*
X116180142Y-96248826D01*
X116156250Y-96250000D01*
X115243750Y-96250000D01*
X115219858Y-96248826D01*
X115196197Y-96245316D01*
X115172993Y-96239504D01*
X115150471Y-96231446D01*
X115128847Y-96221218D01*
X115108330Y-96208921D01*
X115089117Y-96194671D01*
X115071393Y-96178607D01*
X115055329Y-96160883D01*
X115041079Y-96141670D01*
X115028782Y-96121153D01*
X115018554Y-96099529D01*
X115010496Y-96077007D01*
X115004684Y-96053803D01*
X115001174Y-96030142D01*
X115000000Y-96006250D01*
X115000000Y-95518750D01*
X115001174Y-95494858D01*
X115004684Y-95471197D01*
X115010496Y-95447993D01*
X115018554Y-95425471D01*
X115028782Y-95403847D01*
X115041079Y-95383330D01*
X115055329Y-95364117D01*
X115071393Y-95346393D01*
X115089117Y-95330329D01*
X115108330Y-95316079D01*
X115128847Y-95303782D01*
X115150471Y-95293554D01*
X115172993Y-95285496D01*
X115196197Y-95279684D01*
X115219858Y-95276174D01*
X115243750Y-95275000D01*
X116156250Y-95275000D01*
X116180142Y-95276174D01*
X116180142Y-95276174D01*
G37*
D15*
G04 #@! TD*
G04 #@! TO.P,C3,1*
G04 #@! TO.N,Net-(C2-Pad1)*
X115700000Y-95762500D03*
D14*
G04 #@! TO.N,Net-(C2-Pad1)*
G04 #@! TO.C,C4*
G36*
X116330142Y-93301174D02*
X116353803Y-93304684D01*
X116377007Y-93310496D01*
X116399529Y-93318554D01*
X116421153Y-93328782D01*
X116441670Y-93341079D01*
X116460883Y-93355329D01*
X116478607Y-93371393D01*
X116494671Y-93389117D01*
X116508921Y-93408330D01*
X116521218Y-93428847D01*
X116531446Y-93450471D01*
X116539504Y-93472993D01*
X116545316Y-93496197D01*
X116548826Y-93519858D01*
X116550000Y-93543750D01*
X116550000Y-94456250D01*
X116548826Y-94480142D01*
X116545316Y-94503803D01*
X116539504Y-94527007D01*
X116531446Y-94549529D01*
X116521218Y-94571153D01*
X116508921Y-94591670D01*
X116494671Y-94610883D01*
X116478607Y-94628607D01*
X116460883Y-94644671D01*
X116441670Y-94658921D01*
X116421153Y-94671218D01*
X116399529Y-94681446D01*
X116377007Y-94689504D01*
X116353803Y-94695316D01*
X116330142Y-94698826D01*
X116306250Y-94700000D01*
X115818750Y-94700000D01*
X115794858Y-94698826D01*
X115771197Y-94695316D01*
X115747993Y-94689504D01*
X115725471Y-94681446D01*
X115703847Y-94671218D01*
X115683330Y-94658921D01*
X115664117Y-94644671D01*
X115646393Y-94628607D01*
X115630329Y-94610883D01*
X115616079Y-94591670D01*
X115603782Y-94571153D01*
X115593554Y-94549529D01*
X115585496Y-94527007D01*
X115579684Y-94503803D01*
X115576174Y-94480142D01*
X115575000Y-94456250D01*
X115575000Y-93543750D01*
X115576174Y-93519858D01*
X115579684Y-93496197D01*
X115585496Y-93472993D01*
X115593554Y-93450471D01*
X115603782Y-93428847D01*
X115616079Y-93408330D01*
X115630329Y-93389117D01*
X115646393Y-93371393D01*
X115664117Y-93355329D01*
X115683330Y-93341079D01*
X115703847Y-93328782D01*
X115725471Y-93318554D01*
X115747993Y-93310496D01*
X115771197Y-93304684D01*
X115794858Y-93301174D01*
X115818750Y-93300000D01*
X116306250Y-93300000D01*
X116330142Y-93301174D01*
X116330142Y-93301174D01*
G37*
D15*
G04 #@! TD*
G04 #@! TO.P,C4,2*
G04 #@! TO.N,Net-(C2-Pad1)*
X116062500Y-94000000D03*
D14*
G04 #@! TO.N,Net-(C4-Pad1)*
G04 #@! TO.C,C4*
G36*
X118205142Y-93301174D02*
X118228803Y-93304684D01*
X118252007Y-93310496D01*
X118274529Y-93318554D01*
X118296153Y-93328782D01*
X118316670Y-93341079D01*
X118335883Y-93355329D01*
X118353607Y-93371393D01*
X118369671Y-93389117D01*
X118383921Y-93408330D01*
X118396218Y-93428847D01*
X118406446Y-93450471D01*
X118414504Y-93472993D01*
X118420316Y-93496197D01*
X118423826Y-93519858D01*
X118425000Y-93543750D01*
X118425000Y-94456250D01*
X118423826Y-94480142D01*
X118420316Y-94503803D01*
X118414504Y-94527007D01*
X118406446Y-94549529D01*
X118396218Y-94571153D01*
X118383921Y-94591670D01*
X118369671Y-94610883D01*
X118353607Y-94628607D01*
X118335883Y-94644671D01*
X118316670Y-94658921D01*
X118296153Y-94671218D01*
X118274529Y-94681446D01*
X118252007Y-94689504D01*
X118228803Y-94695316D01*
X118205142Y-94698826D01*
X118181250Y-94700000D01*
X117693750Y-94700000D01*
X117669858Y-94698826D01*
X117646197Y-94695316D01*
X117622993Y-94689504D01*
X117600471Y-94681446D01*
X117578847Y-94671218D01*
X117558330Y-94658921D01*
X117539117Y-94644671D01*
X117521393Y-94628607D01*
X117505329Y-94610883D01*
X117491079Y-94591670D01*
X117478782Y-94571153D01*
X117468554Y-94549529D01*
X117460496Y-94527007D01*
X117454684Y-94503803D01*
X117451174Y-94480142D01*
X117450000Y-94456250D01*
X117450000Y-93543750D01*
X117451174Y-93519858D01*
X117454684Y-93496197D01*
X117460496Y-93472993D01*
X117468554Y-93450471D01*
X117478782Y-93428847D01*
X117491079Y-93408330D01*
X117505329Y-93389117D01*
X117521393Y-93371393D01*
X117539117Y-93355329D01*
X117558330Y-93341079D01*
X117578847Y-93328782D01*
X117600471Y-93318554D01*
X117622993Y-93310496D01*
X117646197Y-93304684D01*
X117669858Y-93301174D01*
X117693750Y-93300000D01*
X118181250Y-93300000D01*
X118205142Y-93301174D01*
X118205142Y-93301174D01*
G37*
D15*
G04 #@! TD*
G04 #@! TO.P,C4,1*
G04 #@! TO.N,Net-(C4-Pad1)*
X117937500Y-94000000D03*
D14*
G04 #@! TO.N,Net-(C4-Pad1)*
G04 #@! TO.C,C5*
G36*
X118980142Y-95276174D02*
X119003803Y-95279684D01*
X119027007Y-95285496D01*
X119049529Y-95293554D01*
X119071153Y-95303782D01*
X119091670Y-95316079D01*
X119110883Y-95330329D01*
X119128607Y-95346393D01*
X119144671Y-95364117D01*
X119158921Y-95383330D01*
X119171218Y-95403847D01*
X119181446Y-95425471D01*
X119189504Y-95447993D01*
X119195316Y-95471197D01*
X119198826Y-95494858D01*
X119200000Y-95518750D01*
X119200000Y-96006250D01*
X119198826Y-96030142D01*
X119195316Y-96053803D01*
X119189504Y-96077007D01*
X119181446Y-96099529D01*
X119171218Y-96121153D01*
X119158921Y-96141670D01*
X119144671Y-96160883D01*
X119128607Y-96178607D01*
X119110883Y-96194671D01*
X119091670Y-96208921D01*
X119071153Y-96221218D01*
X119049529Y-96231446D01*
X119027007Y-96239504D01*
X119003803Y-96245316D01*
X118980142Y-96248826D01*
X118956250Y-96250000D01*
X118043750Y-96250000D01*
X118019858Y-96248826D01*
X117996197Y-96245316D01*
X117972993Y-96239504D01*
X117950471Y-96231446D01*
X117928847Y-96221218D01*
X117908330Y-96208921D01*
X117889117Y-96194671D01*
X117871393Y-96178607D01*
X117855329Y-96160883D01*
X117841079Y-96141670D01*
X117828782Y-96121153D01*
X117818554Y-96099529D01*
X117810496Y-96077007D01*
X117804684Y-96053803D01*
X117801174Y-96030142D01*
X117800000Y-96006250D01*
X117800000Y-95518750D01*
X117801174Y-95494858D01*
X117804684Y-95471197D01*
X117810496Y-95447993D01*
X117818554Y-95425471D01*
X117828782Y-95403847D01*
X117841079Y-95383330D01*
X117855329Y-95364117D01*
X117871393Y-95346393D01*
X117889117Y-95330329D01*
X117908330Y-95316079D01*
X117928847Y-95303782D01*
X117950471Y-95293554D01*
X117972993Y-95285496D01*
X117996197Y-95279684D01*
X118019858Y-95276174D01*
X118043750Y-95275000D01*
X118956250Y-95275000D01*
X118980142Y-95276174D01*
X118980142Y-95276174D01*
G37*
D15*
G04 #@! TD*
G04 #@! TO.P,C5,1*
G04 #@! TO.N,Net-(C4-Pad1)*
X118500000Y-95762500D03*
D14*
G04 #@! TO.N,GND*
G04 #@! TO.C,C5*
G36*
X118980142Y-97151174D02*
X119003803Y-97154684D01*
X119027007Y-97160496D01*
X119049529Y-97168554D01*
X119071153Y-97178782D01*
X119091670Y-97191079D01*
X119110883Y-97205329D01*
X119128607Y-97221393D01*
X119144671Y-97239117D01*
X119158921Y-97258330D01*
X119171218Y-97278847D01*
X119181446Y-97300471D01*
X119189504Y-97322993D01*
X119195316Y-97346197D01*
X119198826Y-97369858D01*
X119200000Y-97393750D01*
X119200000Y-97881250D01*
X119198826Y-97905142D01*
X119195316Y-97928803D01*
X119189504Y-97952007D01*
X119181446Y-97974529D01*
X119171218Y-97996153D01*
X119158921Y-98016670D01*
X119144671Y-98035883D01*
X119128607Y-98053607D01*
X119110883Y-98069671D01*
X119091670Y-98083921D01*
X119071153Y-98096218D01*
X119049529Y-98106446D01*
X119027007Y-98114504D01*
X119003803Y-98120316D01*
X118980142Y-98123826D01*
X118956250Y-98125000D01*
X118043750Y-98125000D01*
X118019858Y-98123826D01*
X117996197Y-98120316D01*
X117972993Y-98114504D01*
X117950471Y-98106446D01*
X117928847Y-98096218D01*
X117908330Y-98083921D01*
X117889117Y-98069671D01*
X117871393Y-98053607D01*
X117855329Y-98035883D01*
X117841079Y-98016670D01*
X117828782Y-97996153D01*
X117818554Y-97974529D01*
X117810496Y-97952007D01*
X117804684Y-97928803D01*
X117801174Y-97905142D01*
X117800000Y-97881250D01*
X117800000Y-97393750D01*
X117801174Y-97369858D01*
X117804684Y-97346197D01*
X117810496Y-97322993D01*
X117818554Y-97300471D01*
X117828782Y-97278847D01*
X117841079Y-97258330D01*
X117855329Y-97239117D01*
X117871393Y-97221393D01*
X117889117Y-97205329D01*
X117908330Y-97191079D01*
X117928847Y-97178782D01*
X117950471Y-97168554D01*
X117972993Y-97160496D01*
X117996197Y-97154684D01*
X118019858Y-97151174D01*
X118043750Y-97150000D01*
X118956250Y-97150000D01*
X118980142Y-97151174D01*
X118980142Y-97151174D01*
G37*
D15*
G04 #@! TD*
G04 #@! TO.P,C5,2*
G04 #@! TO.N,GND*
X118500000Y-97637500D03*
D14*
G04 #@! TO.N,Net-(C6-Pad1)*
G04 #@! TO.C,C6*
G36*
X129480142Y-93451174D02*
X129503803Y-93454684D01*
X129527007Y-93460496D01*
X129549529Y-93468554D01*
X129571153Y-93478782D01*
X129591670Y-93491079D01*
X129610883Y-93505329D01*
X129628607Y-93521393D01*
X129644671Y-93539117D01*
X129658921Y-93558330D01*
X129671218Y-93578847D01*
X129681446Y-93600471D01*
X129689504Y-93622993D01*
X129695316Y-93646197D01*
X129698826Y-93669858D01*
X129700000Y-93693750D01*
X129700000Y-94181250D01*
X129698826Y-94205142D01*
X129695316Y-94228803D01*
X129689504Y-94252007D01*
X129681446Y-94274529D01*
X129671218Y-94296153D01*
X129658921Y-94316670D01*
X129644671Y-94335883D01*
X129628607Y-94353607D01*
X129610883Y-94369671D01*
X129591670Y-94383921D01*
X129571153Y-94396218D01*
X129549529Y-94406446D01*
X129527007Y-94414504D01*
X129503803Y-94420316D01*
X129480142Y-94423826D01*
X129456250Y-94425000D01*
X128543750Y-94425000D01*
X128519858Y-94423826D01*
X128496197Y-94420316D01*
X128472993Y-94414504D01*
X128450471Y-94406446D01*
X128428847Y-94396218D01*
X128408330Y-94383921D01*
X128389117Y-94369671D01*
X128371393Y-94353607D01*
X128355329Y-94335883D01*
X128341079Y-94316670D01*
X128328782Y-94296153D01*
X128318554Y-94274529D01*
X128310496Y-94252007D01*
X128304684Y-94228803D01*
X128301174Y-94205142D01*
X128300000Y-94181250D01*
X128300000Y-93693750D01*
X128301174Y-93669858D01*
X128304684Y-93646197D01*
X128310496Y-93622993D01*
X128318554Y-93600471D01*
X128328782Y-93578847D01*
X128341079Y-93558330D01*
X128355329Y-93539117D01*
X128371393Y-93521393D01*
X128389117Y-93505329D01*
X128408330Y-93491079D01*
X128428847Y-93478782D01*
X128450471Y-93468554D01*
X128472993Y-93460496D01*
X128496197Y-93454684D01*
X128519858Y-93451174D01*
X128543750Y-93450000D01*
X129456250Y-93450000D01*
X129480142Y-93451174D01*
X129480142Y-93451174D01*
G37*
D15*
G04 #@! TD*
G04 #@! TO.P,C6,1*
G04 #@! TO.N,Net-(C6-Pad1)*
X129000000Y-93937500D03*
D14*
G04 #@! TO.N,Net-(C4-Pad1)*
G04 #@! TO.C,C6*
G36*
X129480142Y-91576174D02*
X129503803Y-91579684D01*
X129527007Y-91585496D01*
X129549529Y-91593554D01*
X129571153Y-91603782D01*
X129591670Y-91616079D01*
X129610883Y-91630329D01*
X129628607Y-91646393D01*
X129644671Y-91664117D01*
X129658921Y-91683330D01*
X129671218Y-91703847D01*
X129681446Y-91725471D01*
X129689504Y-91747993D01*
X129695316Y-91771197D01*
X129698826Y-91794858D01*
X129700000Y-91818750D01*
X129700000Y-92306250D01*
X129698826Y-92330142D01*
X129695316Y-92353803D01*
X129689504Y-92377007D01*
X129681446Y-92399529D01*
X129671218Y-92421153D01*
X129658921Y-92441670D01*
X129644671Y-92460883D01*
X129628607Y-92478607D01*
X129610883Y-92494671D01*
X129591670Y-92508921D01*
X129571153Y-92521218D01*
X129549529Y-92531446D01*
X129527007Y-92539504D01*
X129503803Y-92545316D01*
X129480142Y-92548826D01*
X129456250Y-92550000D01*
X128543750Y-92550000D01*
X128519858Y-92548826D01*
X128496197Y-92545316D01*
X128472993Y-92539504D01*
X128450471Y-92531446D01*
X128428847Y-92521218D01*
X128408330Y-92508921D01*
X128389117Y-92494671D01*
X128371393Y-92478607D01*
X128355329Y-92460883D01*
X128341079Y-92441670D01*
X128328782Y-92421153D01*
X128318554Y-92399529D01*
X128310496Y-92377007D01*
X128304684Y-92353803D01*
X128301174Y-92330142D01*
X128300000Y-92306250D01*
X128300000Y-91818750D01*
X128301174Y-91794858D01*
X128304684Y-91771197D01*
X128310496Y-91747993D01*
X128318554Y-91725471D01*
X128328782Y-91703847D01*
X128341079Y-91683330D01*
X128355329Y-91664117D01*
X128371393Y-91646393D01*
X128389117Y-91630329D01*
X128408330Y-91616079D01*
X128428847Y-91603782D01*
X128450471Y-91593554D01*
X128472993Y-91585496D01*
X128496197Y-91579684D01*
X128519858Y-91576174D01*
X128543750Y-91575000D01*
X129456250Y-91575000D01*
X129480142Y-91576174D01*
X129480142Y-91576174D01*
G37*
D15*
G04 #@! TD*
G04 #@! TO.P,C6,2*
G04 #@! TO.N,Net-(C4-Pad1)*
X129000000Y-92062500D03*
D14*
G04 #@! TO.N,GND*
G04 #@! TO.C,C7*
G36*
X121780142Y-97151174D02*
X121803803Y-97154684D01*
X121827007Y-97160496D01*
X121849529Y-97168554D01*
X121871153Y-97178782D01*
X121891670Y-97191079D01*
X121910883Y-97205329D01*
X121928607Y-97221393D01*
X121944671Y-97239117D01*
X121958921Y-97258330D01*
X121971218Y-97278847D01*
X121981446Y-97300471D01*
X121989504Y-97322993D01*
X121995316Y-97346197D01*
X121998826Y-97369858D01*
X122000000Y-97393750D01*
X122000000Y-97881250D01*
X121998826Y-97905142D01*
X121995316Y-97928803D01*
X121989504Y-97952007D01*
X121981446Y-97974529D01*
X121971218Y-97996153D01*
X121958921Y-98016670D01*
X121944671Y-98035883D01*
X121928607Y-98053607D01*
X121910883Y-98069671D01*
X121891670Y-98083921D01*
X121871153Y-98096218D01*
X121849529Y-98106446D01*
X121827007Y-98114504D01*
X121803803Y-98120316D01*
X121780142Y-98123826D01*
X121756250Y-98125000D01*
X120843750Y-98125000D01*
X120819858Y-98123826D01*
X120796197Y-98120316D01*
X120772993Y-98114504D01*
X120750471Y-98106446D01*
X120728847Y-98096218D01*
X120708330Y-98083921D01*
X120689117Y-98069671D01*
X120671393Y-98053607D01*
X120655329Y-98035883D01*
X120641079Y-98016670D01*
X120628782Y-97996153D01*
X120618554Y-97974529D01*
X120610496Y-97952007D01*
X120604684Y-97928803D01*
X120601174Y-97905142D01*
X120600000Y-97881250D01*
X120600000Y-97393750D01*
X120601174Y-97369858D01*
X120604684Y-97346197D01*
X120610496Y-97322993D01*
X120618554Y-97300471D01*
X120628782Y-97278847D01*
X120641079Y-97258330D01*
X120655329Y-97239117D01*
X120671393Y-97221393D01*
X120689117Y-97205329D01*
X120708330Y-97191079D01*
X120728847Y-97178782D01*
X120750471Y-97168554D01*
X120772993Y-97160496D01*
X120796197Y-97154684D01*
X120819858Y-97151174D01*
X120843750Y-97150000D01*
X121756250Y-97150000D01*
X121780142Y-97151174D01*
X121780142Y-97151174D01*
G37*
D15*
G04 #@! TD*
G04 #@! TO.P,C7,2*
G04 #@! TO.N,GND*
X121300000Y-97637500D03*
D14*
G04 #@! TO.N,Net-(C6-Pad1)*
G04 #@! TO.C,C7*
G36*
X121780142Y-95276174D02*
X121803803Y-95279684D01*
X121827007Y-95285496D01*
X121849529Y-95293554D01*
X121871153Y-95303782D01*
X121891670Y-95316079D01*
X121910883Y-95330329D01*
X121928607Y-95346393D01*
X121944671Y-95364117D01*
X121958921Y-95383330D01*
X121971218Y-95403847D01*
X121981446Y-95425471D01*
X121989504Y-95447993D01*
X121995316Y-95471197D01*
X121998826Y-95494858D01*
X122000000Y-95518750D01*
X122000000Y-96006250D01*
X121998826Y-96030142D01*
X121995316Y-96053803D01*
X121989504Y-96077007D01*
X121981446Y-96099529D01*
X121971218Y-96121153D01*
X121958921Y-96141670D01*
X121944671Y-96160883D01*
X121928607Y-96178607D01*
X121910883Y-96194671D01*
X121891670Y-96208921D01*
X121871153Y-96221218D01*
X121849529Y-96231446D01*
X121827007Y-96239504D01*
X121803803Y-96245316D01*
X121780142Y-96248826D01*
X121756250Y-96250000D01*
X120843750Y-96250000D01*
X120819858Y-96248826D01*
X120796197Y-96245316D01*
X120772993Y-96239504D01*
X120750471Y-96231446D01*
X120728847Y-96221218D01*
X120708330Y-96208921D01*
X120689117Y-96194671D01*
X120671393Y-96178607D01*
X120655329Y-96160883D01*
X120641079Y-96141670D01*
X120628782Y-96121153D01*
X120618554Y-96099529D01*
X120610496Y-96077007D01*
X120604684Y-96053803D01*
X120601174Y-96030142D01*
X120600000Y-96006250D01*
X120600000Y-95518750D01*
X120601174Y-95494858D01*
X120604684Y-95471197D01*
X120610496Y-95447993D01*
X120618554Y-95425471D01*
X120628782Y-95403847D01*
X120641079Y-95383330D01*
X120655329Y-95364117D01*
X120671393Y-95346393D01*
X120689117Y-95330329D01*
X120708330Y-95316079D01*
X120728847Y-95303782D01*
X120750471Y-95293554D01*
X120772993Y-95285496D01*
X120796197Y-95279684D01*
X120819858Y-95276174D01*
X120843750Y-95275000D01*
X121756250Y-95275000D01*
X121780142Y-95276174D01*
X121780142Y-95276174D01*
G37*
D15*
G04 #@! TD*
G04 #@! TO.P,C7,1*
G04 #@! TO.N,Net-(C6-Pad1)*
X121300000Y-95762500D03*
D14*
G04 #@! TO.N,VCC*
G04 #@! TO.C,R1*
G36*
X120227691Y-86626053D02*
X120248926Y-86629203D01*
X120269750Y-86634419D01*
X120289962Y-86641651D01*
X120309368Y-86650830D01*
X120327781Y-86661866D01*
X120345024Y-86674654D01*
X120360930Y-86689070D01*
X120375346Y-86704976D01*
X120388134Y-86722219D01*
X120399170Y-86740632D01*
X120408349Y-86760038D01*
X120415581Y-86780250D01*
X120420797Y-86801074D01*
X120423947Y-86822309D01*
X120425000Y-86843750D01*
X120425000Y-87356250D01*
X120423947Y-87377691D01*
X120420797Y-87398926D01*
X120415581Y-87419750D01*
X120408349Y-87439962D01*
X120399170Y-87459368D01*
X120388134Y-87477781D01*
X120375346Y-87495024D01*
X120360930Y-87510930D01*
X120345024Y-87525346D01*
X120327781Y-87538134D01*
X120309368Y-87549170D01*
X120289962Y-87558349D01*
X120269750Y-87565581D01*
X120248926Y-87570797D01*
X120227691Y-87573947D01*
X120206250Y-87575000D01*
X119768750Y-87575000D01*
X119747309Y-87573947D01*
X119726074Y-87570797D01*
X119705250Y-87565581D01*
X119685038Y-87558349D01*
X119665632Y-87549170D01*
X119647219Y-87538134D01*
X119629976Y-87525346D01*
X119614070Y-87510930D01*
X119599654Y-87495024D01*
X119586866Y-87477781D01*
X119575830Y-87459368D01*
X119566651Y-87439962D01*
X119559419Y-87419750D01*
X119554203Y-87398926D01*
X119551053Y-87377691D01*
X119550000Y-87356250D01*
X119550000Y-86843750D01*
X119551053Y-86822309D01*
X119554203Y-86801074D01*
X119559419Y-86780250D01*
X119566651Y-86760038D01*
X119575830Y-86740632D01*
X119586866Y-86722219D01*
X119599654Y-86704976D01*
X119614070Y-86689070D01*
X119629976Y-86674654D01*
X119647219Y-86661866D01*
X119665632Y-86650830D01*
X119685038Y-86641651D01*
X119705250Y-86634419D01*
X119726074Y-86629203D01*
X119747309Y-86626053D01*
X119768750Y-86625000D01*
X120206250Y-86625000D01*
X120227691Y-86626053D01*
X120227691Y-86626053D01*
G37*
D16*
G04 #@! TD*
G04 #@! TO.P,R1,1*
G04 #@! TO.N,VCC*
X119987500Y-87100000D03*
D14*
G04 #@! TO.N,Net-(J1-Pad2)*
G04 #@! TO.C,R1*
G36*
X118652691Y-86626053D02*
X118673926Y-86629203D01*
X118694750Y-86634419D01*
X118714962Y-86641651D01*
X118734368Y-86650830D01*
X118752781Y-86661866D01*
X118770024Y-86674654D01*
X118785930Y-86689070D01*
X118800346Y-86704976D01*
X118813134Y-86722219D01*
X118824170Y-86740632D01*
X118833349Y-86760038D01*
X118840581Y-86780250D01*
X118845797Y-86801074D01*
X118848947Y-86822309D01*
X118850000Y-86843750D01*
X118850000Y-87356250D01*
X118848947Y-87377691D01*
X118845797Y-87398926D01*
X118840581Y-87419750D01*
X118833349Y-87439962D01*
X118824170Y-87459368D01*
X118813134Y-87477781D01*
X118800346Y-87495024D01*
X118785930Y-87510930D01*
X118770024Y-87525346D01*
X118752781Y-87538134D01*
X118734368Y-87549170D01*
X118714962Y-87558349D01*
X118694750Y-87565581D01*
X118673926Y-87570797D01*
X118652691Y-87573947D01*
X118631250Y-87575000D01*
X118193750Y-87575000D01*
X118172309Y-87573947D01*
X118151074Y-87570797D01*
X118130250Y-87565581D01*
X118110038Y-87558349D01*
X118090632Y-87549170D01*
X118072219Y-87538134D01*
X118054976Y-87525346D01*
X118039070Y-87510930D01*
X118024654Y-87495024D01*
X118011866Y-87477781D01*
X118000830Y-87459368D01*
X117991651Y-87439962D01*
X117984419Y-87419750D01*
X117979203Y-87398926D01*
X117976053Y-87377691D01*
X117975000Y-87356250D01*
X117975000Y-86843750D01*
X117976053Y-86822309D01*
X117979203Y-86801074D01*
X117984419Y-86780250D01*
X117991651Y-86760038D01*
X118000830Y-86740632D01*
X118011866Y-86722219D01*
X118024654Y-86704976D01*
X118039070Y-86689070D01*
X118054976Y-86674654D01*
X118072219Y-86661866D01*
X118090632Y-86650830D01*
X118110038Y-86641651D01*
X118130250Y-86634419D01*
X118151074Y-86629203D01*
X118172309Y-86626053D01*
X118193750Y-86625000D01*
X118631250Y-86625000D01*
X118652691Y-86626053D01*
X118652691Y-86626053D01*
G37*
D16*
G04 #@! TD*
G04 #@! TO.P,R1,2*
G04 #@! TO.N,Net-(J1-Pad2)*
X118412500Y-87100000D03*
D14*
G04 #@! TO.N,GND*
G04 #@! TO.C,R2*
G36*
X114252691Y-86626053D02*
X114273926Y-86629203D01*
X114294750Y-86634419D01*
X114314962Y-86641651D01*
X114334368Y-86650830D01*
X114352781Y-86661866D01*
X114370024Y-86674654D01*
X114385930Y-86689070D01*
X114400346Y-86704976D01*
X114413134Y-86722219D01*
X114424170Y-86740632D01*
X114433349Y-86760038D01*
X114440581Y-86780250D01*
X114445797Y-86801074D01*
X114448947Y-86822309D01*
X114450000Y-86843750D01*
X114450000Y-87356250D01*
X114448947Y-87377691D01*
X114445797Y-87398926D01*
X114440581Y-87419750D01*
X114433349Y-87439962D01*
X114424170Y-87459368D01*
X114413134Y-87477781D01*
X114400346Y-87495024D01*
X114385930Y-87510930D01*
X114370024Y-87525346D01*
X114352781Y-87538134D01*
X114334368Y-87549170D01*
X114314962Y-87558349D01*
X114294750Y-87565581D01*
X114273926Y-87570797D01*
X114252691Y-87573947D01*
X114231250Y-87575000D01*
X113793750Y-87575000D01*
X113772309Y-87573947D01*
X113751074Y-87570797D01*
X113730250Y-87565581D01*
X113710038Y-87558349D01*
X113690632Y-87549170D01*
X113672219Y-87538134D01*
X113654976Y-87525346D01*
X113639070Y-87510930D01*
X113624654Y-87495024D01*
X113611866Y-87477781D01*
X113600830Y-87459368D01*
X113591651Y-87439962D01*
X113584419Y-87419750D01*
X113579203Y-87398926D01*
X113576053Y-87377691D01*
X113575000Y-87356250D01*
X113575000Y-86843750D01*
X113576053Y-86822309D01*
X113579203Y-86801074D01*
X113584419Y-86780250D01*
X113591651Y-86760038D01*
X113600830Y-86740632D01*
X113611866Y-86722219D01*
X113624654Y-86704976D01*
X113639070Y-86689070D01*
X113654976Y-86674654D01*
X113672219Y-86661866D01*
X113690632Y-86650830D01*
X113710038Y-86641651D01*
X113730250Y-86634419D01*
X113751074Y-86629203D01*
X113772309Y-86626053D01*
X113793750Y-86625000D01*
X114231250Y-86625000D01*
X114252691Y-86626053D01*
X114252691Y-86626053D01*
G37*
D16*
G04 #@! TD*
G04 #@! TO.P,R2,2*
G04 #@! TO.N,GND*
X114012500Y-87100000D03*
D14*
G04 #@! TO.N,Net-(J1-Pad2)*
G04 #@! TO.C,R2*
G36*
X115827691Y-86626053D02*
X115848926Y-86629203D01*
X115869750Y-86634419D01*
X115889962Y-86641651D01*
X115909368Y-86650830D01*
X115927781Y-86661866D01*
X115945024Y-86674654D01*
X115960930Y-86689070D01*
X115975346Y-86704976D01*
X115988134Y-86722219D01*
X115999170Y-86740632D01*
X116008349Y-86760038D01*
X116015581Y-86780250D01*
X116020797Y-86801074D01*
X116023947Y-86822309D01*
X116025000Y-86843750D01*
X116025000Y-87356250D01*
X116023947Y-87377691D01*
X116020797Y-87398926D01*
X116015581Y-87419750D01*
X116008349Y-87439962D01*
X115999170Y-87459368D01*
X115988134Y-87477781D01*
X115975346Y-87495024D01*
X115960930Y-87510930D01*
X115945024Y-87525346D01*
X115927781Y-87538134D01*
X115909368Y-87549170D01*
X115889962Y-87558349D01*
X115869750Y-87565581D01*
X115848926Y-87570797D01*
X115827691Y-87573947D01*
X115806250Y-87575000D01*
X115368750Y-87575000D01*
X115347309Y-87573947D01*
X115326074Y-87570797D01*
X115305250Y-87565581D01*
X115285038Y-87558349D01*
X115265632Y-87549170D01*
X115247219Y-87538134D01*
X115229976Y-87525346D01*
X115214070Y-87510930D01*
X115199654Y-87495024D01*
X115186866Y-87477781D01*
X115175830Y-87459368D01*
X115166651Y-87439962D01*
X115159419Y-87419750D01*
X115154203Y-87398926D01*
X115151053Y-87377691D01*
X115150000Y-87356250D01*
X115150000Y-86843750D01*
X115151053Y-86822309D01*
X115154203Y-86801074D01*
X115159419Y-86780250D01*
X115166651Y-86760038D01*
X115175830Y-86740632D01*
X115186866Y-86722219D01*
X115199654Y-86704976D01*
X115214070Y-86689070D01*
X115229976Y-86674654D01*
X115247219Y-86661866D01*
X115265632Y-86650830D01*
X115285038Y-86641651D01*
X115305250Y-86634419D01*
X115326074Y-86629203D01*
X115347309Y-86626053D01*
X115368750Y-86625000D01*
X115806250Y-86625000D01*
X115827691Y-86626053D01*
X115827691Y-86626053D01*
G37*
D16*
G04 #@! TD*
G04 #@! TO.P,R2,1*
G04 #@! TO.N,Net-(J1-Pad2)*
X115587500Y-87100000D03*
D11*
G04 #@! TO.P,J2,1*
G04 #@! TO.N,VCC*
X132000000Y-89190000D03*
D10*
G04 #@! TO.P,J2,2*
G04 #@! TO.N,GND*
X132000000Y-91730000D03*
G04 #@! TO.P,J2,3*
G04 #@! TO.N,Net-(C6-Pad1)*
X132000000Y-94270000D03*
G04 #@! TO.P,J2,4*
G04 #@! TO.N,GND*
X132000000Y-96810000D03*
G04 #@! TD*
D17*
G04 #@! TO.N,Net-(J1-Pad2)*
X117000000Y-87100000D03*
G04 #@! TD*
D18*
G04 #@! TO.N,Net-(C1-Pad1)*
X106850001Y-94150001D02*
X106750001Y-94150001D01*
X107650000Y-94950000D02*
X106850001Y-94150001D01*
X106537500Y-93937500D02*
X105000000Y-93937500D01*
X106750001Y-94150001D02*
X106537500Y-93937500D01*
X103397500Y-95540000D02*
X105000000Y-93937500D01*
X102000000Y-95540000D02*
X103397500Y-95540000D01*
X108462500Y-95762500D02*
X112900000Y-95762500D01*
X107650000Y-94950000D02*
X108462500Y-95762500D01*
G04 #@! TO.N,Net-(C2-Pad1)*
X115700000Y-94362500D02*
X116062500Y-94000000D01*
X115700000Y-95762500D02*
X115700000Y-94362500D01*
X116062500Y-90912500D02*
X114550000Y-89400000D01*
X116062500Y-94000000D02*
X116062500Y-90912500D01*
X107112500Y-89950000D02*
X105000000Y-92062500D01*
X109850000Y-89950000D02*
X107112500Y-89950000D01*
X114000000Y-89950000D02*
X114550000Y-89400000D01*
X109850000Y-89950000D02*
X114000000Y-89950000D01*
G04 #@! TO.N,Net-(C4-Pad1)*
X118500000Y-94562500D02*
X117937500Y-94000000D01*
X118500000Y-95762500D02*
X118500000Y-94562500D01*
X117937500Y-93212500D02*
X119550000Y-91600000D01*
X117937500Y-94000000D02*
X117937500Y-93212500D01*
X121200000Y-89950000D02*
X119550000Y-91600000D01*
X126600000Y-89950000D02*
X121200000Y-89950000D01*
X128712500Y-92062500D02*
X126600000Y-89950000D01*
X129000000Y-92062500D02*
X128712500Y-92062500D01*
D19*
G04 #@! TO.N,VCC*
X132000000Y-89190000D02*
X132000000Y-88040000D01*
X131060000Y-87100000D02*
X119987500Y-87100000D01*
X132000000Y-88040000D02*
X131060000Y-87100000D01*
D18*
G04 #@! TO.N,Net-(C6-Pad1)*
X129332500Y-94270000D02*
X129000000Y-93937500D01*
X132000000Y-94270000D02*
X129332500Y-94270000D01*
X123587500Y-95762500D02*
X124400000Y-94950000D01*
X121300000Y-95762500D02*
X123587500Y-95762500D01*
X125412500Y-93937500D02*
X124400000Y-94950000D01*
X129000000Y-93937500D02*
X125412500Y-93937500D01*
D19*
G04 #@! TO.N,Net-(J1-Pad2)*
X115587500Y-87100000D02*
X117000000Y-87100000D01*
X118412500Y-87100000D02*
X117000000Y-87100000D01*
G04 #@! TD*
D20*
G04 #@! TO.N,GND*
G36*
X133695000Y-100695000D02*
X100305000Y-100695000D01*
X100305000Y-98324771D01*
X100774199Y-98324771D01*
X100844795Y-98557500D01*
X100960148Y-98773694D01*
X101115461Y-98963230D01*
X101304767Y-99118824D01*
X101520790Y-99234497D01*
X101755229Y-99305803D01*
X101950000Y-99229002D01*
X101950000Y-98130000D01*
X102050000Y-98130000D01*
X102050000Y-99229002D01*
X102244771Y-99305803D01*
X102479210Y-99234497D01*
X102695233Y-99118824D01*
X102884539Y-98963230D01*
X103039852Y-98773694D01*
X103155205Y-98557500D01*
X103225801Y-98324771D01*
X103148913Y-98130000D01*
X102050000Y-98130000D01*
X101950000Y-98130000D01*
X100851087Y-98130000D01*
X100774199Y-98324771D01*
X100305000Y-98324771D01*
X100305000Y-97835229D01*
X100774199Y-97835229D01*
X100851087Y-98030000D01*
X101950000Y-98030000D01*
X101950000Y-96930998D01*
X102050000Y-96930998D01*
X102050000Y-98030000D01*
X103148913Y-98030000D01*
X103225801Y-97835229D01*
X103211323Y-97787500D01*
X111800000Y-97787500D01*
X111800000Y-98164397D01*
X111815372Y-98241676D01*
X111845525Y-98314471D01*
X111889300Y-98379986D01*
X111945015Y-98435701D01*
X112010529Y-98479476D01*
X112083325Y-98509628D01*
X112160604Y-98525000D01*
X112750000Y-98525000D01*
X112850000Y-98425000D01*
X112850000Y-97687500D01*
X112950000Y-97687500D01*
X112950000Y-98425000D01*
X113050000Y-98525000D01*
X113639396Y-98525000D01*
X113716675Y-98509628D01*
X113789471Y-98479476D01*
X113854985Y-98435701D01*
X113910700Y-98379986D01*
X113954475Y-98314471D01*
X113984628Y-98241676D01*
X114000000Y-98164397D01*
X114000000Y-97787500D01*
X114600000Y-97787500D01*
X114600000Y-98164397D01*
X114615372Y-98241676D01*
X114645525Y-98314471D01*
X114689300Y-98379986D01*
X114745015Y-98435701D01*
X114810529Y-98479476D01*
X114883325Y-98509628D01*
X114960604Y-98525000D01*
X115550000Y-98525000D01*
X115650000Y-98425000D01*
X115650000Y-97687500D01*
X115750000Y-97687500D01*
X115750000Y-98425000D01*
X115850000Y-98525000D01*
X116439396Y-98525000D01*
X116516675Y-98509628D01*
X116589471Y-98479476D01*
X116654985Y-98435701D01*
X116710700Y-98379986D01*
X116754475Y-98314471D01*
X116784628Y-98241676D01*
X116800000Y-98164397D01*
X116800000Y-97787500D01*
X117400000Y-97787500D01*
X117400000Y-98164397D01*
X117415372Y-98241676D01*
X117445525Y-98314471D01*
X117489300Y-98379986D01*
X117545015Y-98435701D01*
X117610529Y-98479476D01*
X117683325Y-98509628D01*
X117760604Y-98525000D01*
X118350000Y-98525000D01*
X118450000Y-98425000D01*
X118450000Y-97687500D01*
X118550000Y-97687500D01*
X118550000Y-98425000D01*
X118650000Y-98525000D01*
X119239396Y-98525000D01*
X119316675Y-98509628D01*
X119389471Y-98479476D01*
X119454985Y-98435701D01*
X119510700Y-98379986D01*
X119554475Y-98314471D01*
X119584628Y-98241676D01*
X119600000Y-98164397D01*
X119600000Y-97787500D01*
X120200000Y-97787500D01*
X120200000Y-98164397D01*
X120215372Y-98241676D01*
X120245525Y-98314471D01*
X120289300Y-98379986D01*
X120345015Y-98435701D01*
X120410529Y-98479476D01*
X120483325Y-98509628D01*
X120560604Y-98525000D01*
X121150000Y-98525000D01*
X121250000Y-98425000D01*
X121250000Y-97687500D01*
X121350000Y-97687500D01*
X121350000Y-98425000D01*
X121450000Y-98525000D01*
X122039396Y-98525000D01*
X122116675Y-98509628D01*
X122189471Y-98479476D01*
X122254985Y-98435701D01*
X122310700Y-98379986D01*
X122354475Y-98314471D01*
X122384628Y-98241676D01*
X122400000Y-98164397D01*
X122400000Y-97787500D01*
X122300000Y-97687500D01*
X121350000Y-97687500D01*
X121250000Y-97687500D01*
X120300000Y-97687500D01*
X120200000Y-97787500D01*
X119600000Y-97787500D01*
X119500000Y-97687500D01*
X118550000Y-97687500D01*
X118450000Y-97687500D01*
X117500000Y-97687500D01*
X117400000Y-97787500D01*
X116800000Y-97787500D01*
X116700000Y-97687500D01*
X115750000Y-97687500D01*
X115650000Y-97687500D01*
X114700000Y-97687500D01*
X114600000Y-97787500D01*
X114000000Y-97787500D01*
X113900000Y-97687500D01*
X112950000Y-97687500D01*
X112850000Y-97687500D01*
X111900000Y-97687500D01*
X111800000Y-97787500D01*
X103211323Y-97787500D01*
X103155205Y-97602500D01*
X103039852Y-97386306D01*
X102884539Y-97196770D01*
X102779703Y-97110603D01*
X111800000Y-97110603D01*
X111800000Y-97487500D01*
X111900000Y-97587500D01*
X112850000Y-97587500D01*
X112850000Y-96850000D01*
X112950000Y-96850000D01*
X112950000Y-97587500D01*
X113900000Y-97587500D01*
X114000000Y-97487500D01*
X114000000Y-97110603D01*
X114600000Y-97110603D01*
X114600000Y-97487500D01*
X114700000Y-97587500D01*
X115650000Y-97587500D01*
X115650000Y-96850000D01*
X115750000Y-96850000D01*
X115750000Y-97587500D01*
X116700000Y-97587500D01*
X116800000Y-97487500D01*
X116800000Y-97110603D01*
X117400000Y-97110603D01*
X117400000Y-97487500D01*
X117500000Y-97587500D01*
X118450000Y-97587500D01*
X118450000Y-96850000D01*
X118550000Y-96850000D01*
X118550000Y-97587500D01*
X119500000Y-97587500D01*
X119600000Y-97487500D01*
X119600000Y-97110603D01*
X120200000Y-97110603D01*
X120200000Y-97487500D01*
X120300000Y-97587500D01*
X121250000Y-97587500D01*
X121250000Y-96850000D01*
X121350000Y-96850000D01*
X121350000Y-97587500D01*
X122300000Y-97587500D01*
X122400000Y-97487500D01*
X122400000Y-97110603D01*
X122388895Y-97054771D01*
X130774199Y-97054771D01*
X130844795Y-97287500D01*
X130960148Y-97503694D01*
X131115461Y-97693230D01*
X131304767Y-97848824D01*
X131520790Y-97964497D01*
X131755229Y-98035803D01*
X131950000Y-97959002D01*
X131950000Y-96860000D01*
X132050000Y-96860000D01*
X132050000Y-97959002D01*
X132244771Y-98035803D01*
X132479210Y-97964497D01*
X132695233Y-97848824D01*
X132884539Y-97693230D01*
X133039852Y-97503694D01*
X133155205Y-97287500D01*
X133225801Y-97054771D01*
X133148913Y-96860000D01*
X132050000Y-96860000D01*
X131950000Y-96860000D01*
X130851087Y-96860000D01*
X130774199Y-97054771D01*
X122388895Y-97054771D01*
X122384628Y-97033324D01*
X122354475Y-96960529D01*
X122310700Y-96895014D01*
X122254985Y-96839299D01*
X122189471Y-96795524D01*
X122116675Y-96765372D01*
X122039396Y-96750000D01*
X121450000Y-96750000D01*
X121350000Y-96850000D01*
X121250000Y-96850000D01*
X121150000Y-96750000D01*
X120560604Y-96750000D01*
X120483325Y-96765372D01*
X120410529Y-96795524D01*
X120345015Y-96839299D01*
X120289300Y-96895014D01*
X120245525Y-96960529D01*
X120215372Y-97033324D01*
X120200000Y-97110603D01*
X119600000Y-97110603D01*
X119584628Y-97033324D01*
X119554475Y-96960529D01*
X119510700Y-96895014D01*
X119454985Y-96839299D01*
X119389471Y-96795524D01*
X119316675Y-96765372D01*
X119239396Y-96750000D01*
X118650000Y-96750000D01*
X118550000Y-96850000D01*
X118450000Y-96850000D01*
X118350000Y-96750000D01*
X117760604Y-96750000D01*
X117683325Y-96765372D01*
X117610529Y-96795524D01*
X117545015Y-96839299D01*
X117489300Y-96895014D01*
X117445525Y-96960529D01*
X117415372Y-97033324D01*
X117400000Y-97110603D01*
X116800000Y-97110603D01*
X116784628Y-97033324D01*
X116754475Y-96960529D01*
X116710700Y-96895014D01*
X116654985Y-96839299D01*
X116589471Y-96795524D01*
X116516675Y-96765372D01*
X116439396Y-96750000D01*
X115850000Y-96750000D01*
X115750000Y-96850000D01*
X115650000Y-96850000D01*
X115550000Y-96750000D01*
X114960604Y-96750000D01*
X114883325Y-96765372D01*
X114810529Y-96795524D01*
X114745015Y-96839299D01*
X114689300Y-96895014D01*
X114645525Y-96960529D01*
X114615372Y-97033324D01*
X114600000Y-97110603D01*
X114000000Y-97110603D01*
X113984628Y-97033324D01*
X113954475Y-96960529D01*
X113910700Y-96895014D01*
X113854985Y-96839299D01*
X113789471Y-96795524D01*
X113716675Y-96765372D01*
X113639396Y-96750000D01*
X113050000Y-96750000D01*
X112950000Y-96850000D01*
X112850000Y-96850000D01*
X112750000Y-96750000D01*
X112160604Y-96750000D01*
X112083325Y-96765372D01*
X112010529Y-96795524D01*
X111945015Y-96839299D01*
X111889300Y-96895014D01*
X111845525Y-96960529D01*
X111815372Y-97033324D01*
X111800000Y-97110603D01*
X102779703Y-97110603D01*
X102695233Y-97041176D01*
X102479210Y-96925503D01*
X102244771Y-96854197D01*
X102050000Y-96930998D01*
X101950000Y-96930998D01*
X101755229Y-96854197D01*
X101520790Y-96925503D01*
X101304767Y-97041176D01*
X101115461Y-97196770D01*
X100960148Y-97386306D01*
X100844795Y-97602500D01*
X100774199Y-97835229D01*
X100305000Y-97835229D01*
X100305000Y-95540000D01*
X100844436Y-95540000D01*
X100866640Y-95765439D01*
X100932398Y-95982215D01*
X101039184Y-96181997D01*
X101182893Y-96357107D01*
X101358003Y-96500816D01*
X101557785Y-96607602D01*
X101774561Y-96673360D01*
X101943508Y-96690000D01*
X102056492Y-96690000D01*
X102225439Y-96673360D01*
X102442215Y-96607602D01*
X102521489Y-96565229D01*
X130774199Y-96565229D01*
X130851087Y-96760000D01*
X131950000Y-96760000D01*
X131950000Y-95660998D01*
X132050000Y-95660998D01*
X132050000Y-96760000D01*
X133148913Y-96760000D01*
X133225801Y-96565229D01*
X133155205Y-96332500D01*
X133039852Y-96116306D01*
X132884539Y-95926770D01*
X132695233Y-95771176D01*
X132479210Y-95655503D01*
X132244771Y-95584197D01*
X132050000Y-95660998D01*
X131950000Y-95660998D01*
X131755229Y-95584197D01*
X131520790Y-95655503D01*
X131304767Y-95771176D01*
X131115461Y-95926770D01*
X130960148Y-96116306D01*
X130844795Y-96332500D01*
X130774199Y-96565229D01*
X102521489Y-96565229D01*
X102641997Y-96500816D01*
X102817107Y-96357107D01*
X102913214Y-96240000D01*
X103363113Y-96240000D01*
X103397500Y-96243387D01*
X103431887Y-96240000D01*
X103431890Y-96240000D01*
X103534724Y-96229872D01*
X103666675Y-96189845D01*
X103788281Y-96124845D01*
X103894870Y-96037370D01*
X103916796Y-96010653D01*
X105200998Y-94726451D01*
X105456250Y-94726451D01*
X105562613Y-94715975D01*
X105664889Y-94684950D01*
X105753662Y-94637500D01*
X106244530Y-94637500D01*
X106252631Y-94647371D01*
X106359220Y-94734846D01*
X106480826Y-94799846D01*
X106522556Y-94812505D01*
X106550284Y-94840233D01*
X106550000Y-94841659D01*
X106550000Y-95058341D01*
X106592273Y-95270858D01*
X106675193Y-95471045D01*
X106795575Y-95651209D01*
X106948791Y-95804425D01*
X107128955Y-95924807D01*
X107329142Y-96007727D01*
X107541659Y-96050000D01*
X107758341Y-96050000D01*
X107759767Y-96049716D01*
X107943208Y-96233158D01*
X107965130Y-96259870D01*
X108071719Y-96347345D01*
X108193325Y-96412345D01*
X108325273Y-96452371D01*
X108325276Y-96452372D01*
X108462500Y-96465887D01*
X108496890Y-96462500D01*
X112146338Y-96462500D01*
X112235111Y-96509950D01*
X112337387Y-96540975D01*
X112443750Y-96551451D01*
X113356250Y-96551451D01*
X113462613Y-96540975D01*
X113564889Y-96509950D01*
X113659147Y-96459568D01*
X113741765Y-96391765D01*
X113809568Y-96309147D01*
X113859950Y-96214889D01*
X113890975Y-96112613D01*
X113901451Y-96006250D01*
X113901451Y-95518750D01*
X113890975Y-95412387D01*
X113859950Y-95310111D01*
X113809568Y-95215853D01*
X113741765Y-95133235D01*
X113659147Y-95065432D01*
X113564889Y-95015050D01*
X113462613Y-94984025D01*
X113356250Y-94973549D01*
X112443750Y-94973549D01*
X112337387Y-94984025D01*
X112235111Y-95015050D01*
X112146338Y-95062500D01*
X108752450Y-95062500D01*
X108749716Y-95059767D01*
X108750000Y-95058341D01*
X108750000Y-94841659D01*
X108707727Y-94629142D01*
X108624807Y-94428955D01*
X108504425Y-94248791D01*
X108351209Y-94095575D01*
X108171045Y-93975193D01*
X107970858Y-93892273D01*
X107758341Y-93850000D01*
X107541659Y-93850000D01*
X107540233Y-93850284D01*
X107369297Y-93679348D01*
X107347371Y-93652631D01*
X107240782Y-93565156D01*
X107119176Y-93500156D01*
X107077446Y-93487497D01*
X107056796Y-93466847D01*
X107034870Y-93440130D01*
X106928281Y-93352655D01*
X106806675Y-93287655D01*
X106674724Y-93247628D01*
X106571890Y-93237500D01*
X106571887Y-93237500D01*
X106537500Y-93234113D01*
X106503113Y-93237500D01*
X105753662Y-93237500D01*
X105664889Y-93190050D01*
X105562613Y-93159025D01*
X105456250Y-93148549D01*
X104543750Y-93148549D01*
X104437387Y-93159025D01*
X104335111Y-93190050D01*
X104240853Y-93240432D01*
X104158235Y-93308235D01*
X104090432Y-93390853D01*
X104040050Y-93485111D01*
X104009025Y-93587387D01*
X103998549Y-93693750D01*
X103998549Y-93949002D01*
X103107551Y-94840000D01*
X102913214Y-94840000D01*
X102817107Y-94722893D01*
X102641997Y-94579184D01*
X102442215Y-94472398D01*
X102225439Y-94406640D01*
X102056492Y-94390000D01*
X101943508Y-94390000D01*
X101774561Y-94406640D01*
X101557785Y-94472398D01*
X101358003Y-94579184D01*
X101182893Y-94722893D01*
X101039184Y-94898003D01*
X100932398Y-95097785D01*
X100866640Y-95314561D01*
X100844436Y-95540000D01*
X100305000Y-95540000D01*
X100305000Y-93244771D01*
X100774199Y-93244771D01*
X100844795Y-93477500D01*
X100960148Y-93693694D01*
X101115461Y-93883230D01*
X101304767Y-94038824D01*
X101520790Y-94154497D01*
X101755229Y-94225803D01*
X101950000Y-94149002D01*
X101950000Y-93050000D01*
X102050000Y-93050000D01*
X102050000Y-94149002D01*
X102244771Y-94225803D01*
X102479210Y-94154497D01*
X102695233Y-94038824D01*
X102884539Y-93883230D01*
X103039852Y-93693694D01*
X103155205Y-93477500D01*
X103225801Y-93244771D01*
X103148913Y-93050000D01*
X102050000Y-93050000D01*
X101950000Y-93050000D01*
X100851087Y-93050000D01*
X100774199Y-93244771D01*
X100305000Y-93244771D01*
X100305000Y-92755229D01*
X100774199Y-92755229D01*
X100851087Y-92950000D01*
X101950000Y-92950000D01*
X101950000Y-91850998D01*
X102050000Y-91850998D01*
X102050000Y-92950000D01*
X103148913Y-92950000D01*
X103225801Y-92755229D01*
X103155205Y-92522500D01*
X103039852Y-92306306D01*
X102884539Y-92116770D01*
X102695233Y-91961176D01*
X102479210Y-91845503D01*
X102391252Y-91818750D01*
X103998549Y-91818750D01*
X103998549Y-92306250D01*
X104009025Y-92412613D01*
X104040050Y-92514889D01*
X104090432Y-92609147D01*
X104158235Y-92691765D01*
X104240853Y-92759568D01*
X104335111Y-92809950D01*
X104437387Y-92840975D01*
X104543750Y-92851451D01*
X105456250Y-92851451D01*
X105562613Y-92840975D01*
X105664889Y-92809950D01*
X105759147Y-92759568D01*
X105841765Y-92691765D01*
X105909568Y-92609147D01*
X105959950Y-92514889D01*
X105990975Y-92412613D01*
X106001451Y-92306250D01*
X106001451Y-92050998D01*
X107402450Y-90650000D01*
X108994767Y-90650000D01*
X108995575Y-90651209D01*
X109148791Y-90804425D01*
X109328955Y-90924807D01*
X109529142Y-91007727D01*
X109741659Y-91050000D01*
X109958341Y-91050000D01*
X110170858Y-91007727D01*
X110371045Y-90924807D01*
X110551209Y-90804425D01*
X110704425Y-90651209D01*
X110705233Y-90650000D01*
X113965613Y-90650000D01*
X114000000Y-90653387D01*
X114034387Y-90650000D01*
X114034390Y-90650000D01*
X114137224Y-90639872D01*
X114269175Y-90599845D01*
X114390781Y-90534845D01*
X114434882Y-90498652D01*
X114441659Y-90500000D01*
X114658341Y-90500000D01*
X114659767Y-90499716D01*
X115362501Y-91202451D01*
X115362500Y-93246338D01*
X115315050Y-93335111D01*
X115284025Y-93437387D01*
X115273549Y-93543750D01*
X115273549Y-93799002D01*
X115229343Y-93843208D01*
X115202631Y-93865130D01*
X115180710Y-93891841D01*
X115180708Y-93891843D01*
X115115155Y-93971719D01*
X115050155Y-94093326D01*
X115010129Y-94225277D01*
X114996613Y-94362500D01*
X115000001Y-94396897D01*
X115000001Y-95033817D01*
X114940853Y-95065432D01*
X114858235Y-95133235D01*
X114790432Y-95215853D01*
X114740050Y-95310111D01*
X114709025Y-95412387D01*
X114698549Y-95518750D01*
X114698549Y-96006250D01*
X114709025Y-96112613D01*
X114740050Y-96214889D01*
X114790432Y-96309147D01*
X114858235Y-96391765D01*
X114940853Y-96459568D01*
X115035111Y-96509950D01*
X115137387Y-96540975D01*
X115243750Y-96551451D01*
X116156250Y-96551451D01*
X116262613Y-96540975D01*
X116364889Y-96509950D01*
X116459147Y-96459568D01*
X116541765Y-96391765D01*
X116609568Y-96309147D01*
X116659950Y-96214889D01*
X116690975Y-96112613D01*
X116701451Y-96006250D01*
X116701451Y-95518750D01*
X116690975Y-95412387D01*
X116659950Y-95310111D01*
X116609568Y-95215853D01*
X116541765Y-95133235D01*
X116459147Y-95065432D01*
X116400000Y-95033817D01*
X116400000Y-94992217D01*
X116412613Y-94990975D01*
X116514889Y-94959950D01*
X116609147Y-94909568D01*
X116691765Y-94841765D01*
X116759568Y-94759147D01*
X116809950Y-94664889D01*
X116840975Y-94562613D01*
X116851451Y-94456250D01*
X116851451Y-93543750D01*
X117148549Y-93543750D01*
X117148549Y-94456250D01*
X117159025Y-94562613D01*
X117190050Y-94664889D01*
X117240432Y-94759147D01*
X117308235Y-94841765D01*
X117390853Y-94909568D01*
X117485111Y-94959950D01*
X117587387Y-94990975D01*
X117693750Y-95001451D01*
X117800001Y-95001451D01*
X117800001Y-95033817D01*
X117740853Y-95065432D01*
X117658235Y-95133235D01*
X117590432Y-95215853D01*
X117540050Y-95310111D01*
X117509025Y-95412387D01*
X117498549Y-95518750D01*
X117498549Y-96006250D01*
X117509025Y-96112613D01*
X117540050Y-96214889D01*
X117590432Y-96309147D01*
X117658235Y-96391765D01*
X117740853Y-96459568D01*
X117835111Y-96509950D01*
X117937387Y-96540975D01*
X118043750Y-96551451D01*
X118956250Y-96551451D01*
X119062613Y-96540975D01*
X119164889Y-96509950D01*
X119259147Y-96459568D01*
X119341765Y-96391765D01*
X119409568Y-96309147D01*
X119459950Y-96214889D01*
X119490975Y-96112613D01*
X119501451Y-96006250D01*
X119501451Y-95518750D01*
X120298549Y-95518750D01*
X120298549Y-96006250D01*
X120309025Y-96112613D01*
X120340050Y-96214889D01*
X120390432Y-96309147D01*
X120458235Y-96391765D01*
X120540853Y-96459568D01*
X120635111Y-96509950D01*
X120737387Y-96540975D01*
X120843750Y-96551451D01*
X121756250Y-96551451D01*
X121862613Y-96540975D01*
X121964889Y-96509950D01*
X122053662Y-96462500D01*
X123553113Y-96462500D01*
X123587500Y-96465887D01*
X123621887Y-96462500D01*
X123621890Y-96462500D01*
X123724724Y-96452372D01*
X123856675Y-96412345D01*
X123978281Y-96347345D01*
X124084870Y-96259870D01*
X124106796Y-96233153D01*
X124290233Y-96049716D01*
X124291659Y-96050000D01*
X124508341Y-96050000D01*
X124720858Y-96007727D01*
X124921045Y-95924807D01*
X125101209Y-95804425D01*
X125254425Y-95651209D01*
X125374807Y-95471045D01*
X125457727Y-95270858D01*
X125500000Y-95058341D01*
X125500000Y-94841659D01*
X125499716Y-94840233D01*
X125702449Y-94637500D01*
X128246338Y-94637500D01*
X128335111Y-94684950D01*
X128437387Y-94715975D01*
X128543750Y-94726451D01*
X128799002Y-94726451D01*
X128813204Y-94740653D01*
X128835130Y-94767370D01*
X128941719Y-94854845D01*
X129063325Y-94919845D01*
X129195276Y-94959872D01*
X129298110Y-94970000D01*
X129298112Y-94970000D01*
X129332499Y-94973387D01*
X129366886Y-94970000D01*
X131086786Y-94970000D01*
X131182893Y-95087107D01*
X131358003Y-95230816D01*
X131557785Y-95337602D01*
X131774561Y-95403360D01*
X131943508Y-95420000D01*
X132056492Y-95420000D01*
X132225439Y-95403360D01*
X132442215Y-95337602D01*
X132641997Y-95230816D01*
X132817107Y-95087107D01*
X132960816Y-94911997D01*
X133067602Y-94712215D01*
X133133360Y-94495439D01*
X133155564Y-94270000D01*
X133133360Y-94044561D01*
X133067602Y-93827785D01*
X132960816Y-93628003D01*
X132817107Y-93452893D01*
X132641997Y-93309184D01*
X132442215Y-93202398D01*
X132225439Y-93136640D01*
X132056492Y-93120000D01*
X131943508Y-93120000D01*
X131774561Y-93136640D01*
X131557785Y-93202398D01*
X131358003Y-93309184D01*
X131182893Y-93452893D01*
X131086786Y-93570000D01*
X129985701Y-93570000D01*
X129959950Y-93485111D01*
X129909568Y-93390853D01*
X129841765Y-93308235D01*
X129759147Y-93240432D01*
X129664889Y-93190050D01*
X129562613Y-93159025D01*
X129456250Y-93148549D01*
X128543750Y-93148549D01*
X128437387Y-93159025D01*
X128335111Y-93190050D01*
X128246338Y-93237500D01*
X125446886Y-93237500D01*
X125412499Y-93234113D01*
X125378112Y-93237500D01*
X125378110Y-93237500D01*
X125275276Y-93247628D01*
X125143325Y-93287655D01*
X125021718Y-93352655D01*
X124983370Y-93384127D01*
X124915130Y-93440130D01*
X124893204Y-93466847D01*
X124509767Y-93850284D01*
X124508341Y-93850000D01*
X124291659Y-93850000D01*
X124079142Y-93892273D01*
X123878955Y-93975193D01*
X123698791Y-94095575D01*
X123545575Y-94248791D01*
X123425193Y-94428955D01*
X123342273Y-94629142D01*
X123300000Y-94841659D01*
X123300000Y-95058341D01*
X123300284Y-95059767D01*
X123297551Y-95062500D01*
X122053662Y-95062500D01*
X121964889Y-95015050D01*
X121862613Y-94984025D01*
X121756250Y-94973549D01*
X120843750Y-94973549D01*
X120737387Y-94984025D01*
X120635111Y-95015050D01*
X120540853Y-95065432D01*
X120458235Y-95133235D01*
X120390432Y-95215853D01*
X120340050Y-95310111D01*
X120309025Y-95412387D01*
X120298549Y-95518750D01*
X119501451Y-95518750D01*
X119490975Y-95412387D01*
X119459950Y-95310111D01*
X119409568Y-95215853D01*
X119341765Y-95133235D01*
X119259147Y-95065432D01*
X119200000Y-95033817D01*
X119200000Y-94596886D01*
X119203387Y-94562499D01*
X119195670Y-94484147D01*
X119189872Y-94425276D01*
X119149845Y-94293325D01*
X119146584Y-94287224D01*
X119084845Y-94171718D01*
X119019292Y-94091842D01*
X119019291Y-94091841D01*
X118997370Y-94065130D01*
X118970658Y-94043208D01*
X118726451Y-93799001D01*
X118726451Y-93543750D01*
X118715975Y-93437387D01*
X118712853Y-93427096D01*
X119440233Y-92699716D01*
X119441659Y-92700000D01*
X119658341Y-92700000D01*
X119870858Y-92657727D01*
X120071045Y-92574807D01*
X120251209Y-92454425D01*
X120404425Y-92301209D01*
X120524807Y-92121045D01*
X120607727Y-91920858D01*
X120650000Y-91708341D01*
X120650000Y-91491659D01*
X120649716Y-91490233D01*
X121489949Y-90650000D01*
X125744767Y-90650000D01*
X125745575Y-90651209D01*
X125898791Y-90804425D01*
X126078955Y-90924807D01*
X126279142Y-91007727D01*
X126491659Y-91050000D01*
X126708341Y-91050000D01*
X126709767Y-91049716D01*
X128002072Y-92342022D01*
X128009025Y-92412613D01*
X128040050Y-92514889D01*
X128090432Y-92609147D01*
X128158235Y-92691765D01*
X128240853Y-92759568D01*
X128335111Y-92809950D01*
X128437387Y-92840975D01*
X128543750Y-92851451D01*
X129456250Y-92851451D01*
X129562613Y-92840975D01*
X129664889Y-92809950D01*
X129759147Y-92759568D01*
X129841765Y-92691765D01*
X129909568Y-92609147D01*
X129959950Y-92514889D01*
X129990975Y-92412613D01*
X130001451Y-92306250D01*
X130001451Y-91974771D01*
X130774199Y-91974771D01*
X130844795Y-92207500D01*
X130960148Y-92423694D01*
X131115461Y-92613230D01*
X131304767Y-92768824D01*
X131520790Y-92884497D01*
X131755229Y-92955803D01*
X131950000Y-92879002D01*
X131950000Y-91780000D01*
X132050000Y-91780000D01*
X132050000Y-92879002D01*
X132244771Y-92955803D01*
X132479210Y-92884497D01*
X132695233Y-92768824D01*
X132884539Y-92613230D01*
X133039852Y-92423694D01*
X133155205Y-92207500D01*
X133225801Y-91974771D01*
X133148913Y-91780000D01*
X132050000Y-91780000D01*
X131950000Y-91780000D01*
X130851087Y-91780000D01*
X130774199Y-91974771D01*
X130001451Y-91974771D01*
X130001451Y-91818750D01*
X129990975Y-91712387D01*
X129959950Y-91610111D01*
X129909568Y-91515853D01*
X129884436Y-91485229D01*
X130774199Y-91485229D01*
X130851087Y-91680000D01*
X131950000Y-91680000D01*
X131950000Y-90580998D01*
X132050000Y-90580998D01*
X132050000Y-91680000D01*
X133148913Y-91680000D01*
X133225801Y-91485229D01*
X133155205Y-91252500D01*
X133039852Y-91036306D01*
X132884539Y-90846770D01*
X132695233Y-90691176D01*
X132479210Y-90575503D01*
X132244771Y-90504197D01*
X132050000Y-90580998D01*
X131950000Y-90580998D01*
X131755229Y-90504197D01*
X131520790Y-90575503D01*
X131304767Y-90691176D01*
X131115461Y-90846770D01*
X130960148Y-91036306D01*
X130844795Y-91252500D01*
X130774199Y-91485229D01*
X129884436Y-91485229D01*
X129841765Y-91433235D01*
X129759147Y-91365432D01*
X129664889Y-91315050D01*
X129562613Y-91284025D01*
X129456250Y-91273549D01*
X128913499Y-91273549D01*
X127699716Y-90059767D01*
X127700000Y-90058341D01*
X127700000Y-89841659D01*
X127657727Y-89629142D01*
X127574807Y-89428955D01*
X127454425Y-89248791D01*
X127301209Y-89095575D01*
X127121045Y-88975193D01*
X126920858Y-88892273D01*
X126708341Y-88850000D01*
X126491659Y-88850000D01*
X126279142Y-88892273D01*
X126078955Y-88975193D01*
X125898791Y-89095575D01*
X125745575Y-89248791D01*
X125744767Y-89250000D01*
X121234386Y-89250000D01*
X121199999Y-89246613D01*
X121165612Y-89250000D01*
X121165610Y-89250000D01*
X121062776Y-89260128D01*
X120930825Y-89300155D01*
X120809219Y-89365155D01*
X120702630Y-89452630D01*
X120680704Y-89479347D01*
X119659767Y-90500284D01*
X119658341Y-90500000D01*
X119441659Y-90500000D01*
X119229142Y-90542273D01*
X119028955Y-90625193D01*
X118848791Y-90745575D01*
X118695575Y-90898791D01*
X118575193Y-91078955D01*
X118492273Y-91279142D01*
X118450000Y-91491659D01*
X118450000Y-91708341D01*
X118450284Y-91709767D01*
X117466842Y-92693209D01*
X117440131Y-92715130D01*
X117418210Y-92741841D01*
X117418208Y-92741843D01*
X117352655Y-92821719D01*
X117287655Y-92943326D01*
X117273713Y-92989287D01*
X117247628Y-93075276D01*
X117239380Y-93159025D01*
X117234113Y-93212500D01*
X117237454Y-93246424D01*
X117190050Y-93335111D01*
X117159025Y-93437387D01*
X117148549Y-93543750D01*
X116851451Y-93543750D01*
X116840975Y-93437387D01*
X116809950Y-93335111D01*
X116762500Y-93246338D01*
X116762500Y-90946886D01*
X116765887Y-90912499D01*
X116759413Y-90846770D01*
X116752372Y-90775276D01*
X116712345Y-90643325D01*
X116702653Y-90625193D01*
X116647345Y-90521718D01*
X116581792Y-90441842D01*
X116581791Y-90441841D01*
X116559870Y-90415130D01*
X116533158Y-90393208D01*
X115649716Y-89509767D01*
X115650000Y-89508341D01*
X115650000Y-89291659D01*
X115607727Y-89079142D01*
X115524807Y-88878955D01*
X115404425Y-88698791D01*
X115251209Y-88545575D01*
X115071045Y-88425193D01*
X114870858Y-88342273D01*
X114658341Y-88300000D01*
X114441659Y-88300000D01*
X114229142Y-88342273D01*
X114028955Y-88425193D01*
X113848791Y-88545575D01*
X113695575Y-88698791D01*
X113575193Y-88878955D01*
X113492273Y-89079142D01*
X113458287Y-89250000D01*
X110705233Y-89250000D01*
X110704425Y-89248791D01*
X110551209Y-89095575D01*
X110371045Y-88975193D01*
X110170858Y-88892273D01*
X109958341Y-88850000D01*
X109741659Y-88850000D01*
X109529142Y-88892273D01*
X109328955Y-88975193D01*
X109148791Y-89095575D01*
X108995575Y-89248791D01*
X108994767Y-89250000D01*
X107146886Y-89250000D01*
X107112499Y-89246613D01*
X107078112Y-89250000D01*
X107078110Y-89250000D01*
X106975276Y-89260128D01*
X106843325Y-89300155D01*
X106721718Y-89365155D01*
X106643978Y-89428955D01*
X106615130Y-89452630D01*
X106593209Y-89479342D01*
X104799002Y-91273549D01*
X104543750Y-91273549D01*
X104437387Y-91284025D01*
X104335111Y-91315050D01*
X104240853Y-91365432D01*
X104158235Y-91433235D01*
X104090432Y-91515853D01*
X104040050Y-91610111D01*
X104009025Y-91712387D01*
X103998549Y-91818750D01*
X102391252Y-91818750D01*
X102244771Y-91774197D01*
X102050000Y-91850998D01*
X101950000Y-91850998D01*
X101755229Y-91774197D01*
X101520790Y-91845503D01*
X101304767Y-91961176D01*
X101115461Y-92116770D01*
X100960148Y-92306306D01*
X100844795Y-92522500D01*
X100774199Y-92755229D01*
X100305000Y-92755229D01*
X100305000Y-90460000D01*
X100844436Y-90460000D01*
X100866640Y-90685439D01*
X100932398Y-90902215D01*
X101039184Y-91101997D01*
X101182893Y-91277107D01*
X101358003Y-91420816D01*
X101557785Y-91527602D01*
X101774561Y-91593360D01*
X101943508Y-91610000D01*
X102056492Y-91610000D01*
X102225439Y-91593360D01*
X102442215Y-91527602D01*
X102641997Y-91420816D01*
X102817107Y-91277107D01*
X102960816Y-91101997D01*
X103067602Y-90902215D01*
X103133360Y-90685439D01*
X103155564Y-90460000D01*
X103133360Y-90234561D01*
X103067602Y-90017785D01*
X102960816Y-89818003D01*
X102817107Y-89642893D01*
X102641997Y-89499184D01*
X102442215Y-89392398D01*
X102225439Y-89326640D01*
X102056492Y-89310000D01*
X101943508Y-89310000D01*
X101774561Y-89326640D01*
X101557785Y-89392398D01*
X101358003Y-89499184D01*
X101182893Y-89642893D01*
X101039184Y-89818003D01*
X100932398Y-90017785D01*
X100866640Y-90234561D01*
X100844436Y-90460000D01*
X100305000Y-90460000D01*
X100305000Y-88070000D01*
X100750000Y-88070000D01*
X100750000Y-88809396D01*
X100765372Y-88886675D01*
X100795524Y-88959471D01*
X100839299Y-89024985D01*
X100895014Y-89080700D01*
X100960529Y-89124475D01*
X101033324Y-89154628D01*
X101110603Y-89170000D01*
X101850000Y-89170000D01*
X101950000Y-89070000D01*
X101950000Y-87970000D01*
X102050000Y-87970000D01*
X102050000Y-89070000D01*
X102150000Y-89170000D01*
X102889397Y-89170000D01*
X102966676Y-89154628D01*
X103039471Y-89124475D01*
X103104986Y-89080700D01*
X103160701Y-89024985D01*
X103204476Y-88959471D01*
X103234628Y-88886675D01*
X103250000Y-88809396D01*
X103250000Y-88070000D01*
X103150000Y-87970000D01*
X102050000Y-87970000D01*
X101950000Y-87970000D01*
X100850000Y-87970000D01*
X100750000Y-88070000D01*
X100305000Y-88070000D01*
X100305000Y-87030604D01*
X100750000Y-87030604D01*
X100750000Y-87770000D01*
X100850000Y-87870000D01*
X101950000Y-87870000D01*
X101950000Y-86770000D01*
X102050000Y-86770000D01*
X102050000Y-87870000D01*
X103150000Y-87870000D01*
X103250000Y-87770000D01*
X103250000Y-87250000D01*
X113175000Y-87250000D01*
X113175000Y-87614396D01*
X113190372Y-87691675D01*
X113220524Y-87764471D01*
X113264299Y-87829985D01*
X113320014Y-87885700D01*
X113385529Y-87929475D01*
X113458324Y-87959628D01*
X113535603Y-87975000D01*
X113862500Y-87975000D01*
X113962500Y-87875000D01*
X113962500Y-87150000D01*
X113275000Y-87150000D01*
X113175000Y-87250000D01*
X103250000Y-87250000D01*
X103250000Y-87030604D01*
X103234628Y-86953325D01*
X103204476Y-86880529D01*
X103160701Y-86815015D01*
X103104986Y-86759300D01*
X103039471Y-86715525D01*
X102966676Y-86685372D01*
X102889397Y-86670000D01*
X102150000Y-86670000D01*
X102050000Y-86770000D01*
X101950000Y-86770000D01*
X101850000Y-86670000D01*
X101110603Y-86670000D01*
X101033324Y-86685372D01*
X100960529Y-86715525D01*
X100895014Y-86759300D01*
X100839299Y-86815015D01*
X100795524Y-86880529D01*
X100765372Y-86953325D01*
X100750000Y-87030604D01*
X100305000Y-87030604D01*
X100305000Y-86585604D01*
X113175000Y-86585604D01*
X113175000Y-86950000D01*
X113275000Y-87050000D01*
X113962500Y-87050000D01*
X113962500Y-86325000D01*
X114062500Y-86325000D01*
X114062500Y-87050000D01*
X114082500Y-87050000D01*
X114082500Y-87150000D01*
X114062500Y-87150000D01*
X114062500Y-87875000D01*
X114162500Y-87975000D01*
X114489397Y-87975000D01*
X114566676Y-87959628D01*
X114639471Y-87929475D01*
X114704986Y-87885700D01*
X114760701Y-87829985D01*
X114804476Y-87764471D01*
X114834628Y-87691675D01*
X114850000Y-87614396D01*
X114850000Y-87370982D01*
X114858545Y-87457736D01*
X114888147Y-87555322D01*
X114936219Y-87645258D01*
X115000912Y-87724088D01*
X115079742Y-87788781D01*
X115169678Y-87836853D01*
X115267264Y-87866455D01*
X115368750Y-87876451D01*
X115806250Y-87876451D01*
X115907736Y-87866455D01*
X116005322Y-87836853D01*
X116095258Y-87788781D01*
X116174088Y-87724088D01*
X116238781Y-87645258D01*
X116286853Y-87555322D01*
X116288467Y-87550000D01*
X116683499Y-87550000D01*
X116739477Y-87587403D01*
X116839571Y-87628864D01*
X116945830Y-87650000D01*
X117054170Y-87650000D01*
X117160429Y-87628864D01*
X117260523Y-87587403D01*
X117316501Y-87550000D01*
X117711533Y-87550000D01*
X117713147Y-87555322D01*
X117761219Y-87645258D01*
X117825912Y-87724088D01*
X117904742Y-87788781D01*
X117994678Y-87836853D01*
X118092264Y-87866455D01*
X118193750Y-87876451D01*
X118631250Y-87876451D01*
X118732736Y-87866455D01*
X118830322Y-87836853D01*
X118920258Y-87788781D01*
X118999088Y-87724088D01*
X119063781Y-87645258D01*
X119111853Y-87555322D01*
X119141455Y-87457736D01*
X119151451Y-87356250D01*
X119151451Y-86843750D01*
X119248549Y-86843750D01*
X119248549Y-87356250D01*
X119258545Y-87457736D01*
X119288147Y-87555322D01*
X119336219Y-87645258D01*
X119400912Y-87724088D01*
X119479742Y-87788781D01*
X119569678Y-87836853D01*
X119667264Y-87866455D01*
X119768750Y-87876451D01*
X120206250Y-87876451D01*
X120307736Y-87866455D01*
X120405322Y-87836853D01*
X120495258Y-87788781D01*
X120574088Y-87724088D01*
X120638781Y-87645258D01*
X120686853Y-87555322D01*
X120688467Y-87550000D01*
X130873605Y-87550000D01*
X131362153Y-88038549D01*
X131150000Y-88038549D01*
X131091190Y-88044341D01*
X131034640Y-88061496D01*
X130982523Y-88089353D01*
X130936842Y-88126842D01*
X130899353Y-88172523D01*
X130871496Y-88224640D01*
X130854341Y-88281190D01*
X130848549Y-88340000D01*
X130848549Y-90040000D01*
X130854341Y-90098810D01*
X130871496Y-90155360D01*
X130899353Y-90207477D01*
X130936842Y-90253158D01*
X130982523Y-90290647D01*
X131034640Y-90318504D01*
X131091190Y-90335659D01*
X131150000Y-90341451D01*
X132850000Y-90341451D01*
X132908810Y-90335659D01*
X132965360Y-90318504D01*
X133017477Y-90290647D01*
X133063158Y-90253158D01*
X133100647Y-90207477D01*
X133128504Y-90155360D01*
X133145659Y-90098810D01*
X133151451Y-90040000D01*
X133151451Y-88340000D01*
X133145659Y-88281190D01*
X133128504Y-88224640D01*
X133100647Y-88172523D01*
X133063158Y-88126842D01*
X133017477Y-88089353D01*
X132965360Y-88061496D01*
X132908810Y-88044341D01*
X132850000Y-88038549D01*
X132452033Y-88038549D01*
X132450000Y-88017906D01*
X132450000Y-88017895D01*
X132443489Y-87951785D01*
X132417757Y-87866959D01*
X132397994Y-87829985D01*
X132375971Y-87788783D01*
X132333828Y-87737432D01*
X132333824Y-87737428D01*
X132319737Y-87720263D01*
X132302572Y-87706176D01*
X131393829Y-86797434D01*
X131379737Y-86780263D01*
X131311216Y-86724029D01*
X131233041Y-86682243D01*
X131148215Y-86656511D01*
X131082105Y-86650000D01*
X131082094Y-86650000D01*
X131060000Y-86647824D01*
X131037906Y-86650000D01*
X120688467Y-86650000D01*
X120686853Y-86644678D01*
X120638781Y-86554742D01*
X120574088Y-86475912D01*
X120495258Y-86411219D01*
X120405322Y-86363147D01*
X120307736Y-86333545D01*
X120206250Y-86323549D01*
X119768750Y-86323549D01*
X119667264Y-86333545D01*
X119569678Y-86363147D01*
X119479742Y-86411219D01*
X119400912Y-86475912D01*
X119336219Y-86554742D01*
X119288147Y-86644678D01*
X119258545Y-86742264D01*
X119248549Y-86843750D01*
X119151451Y-86843750D01*
X119141455Y-86742264D01*
X119111853Y-86644678D01*
X119063781Y-86554742D01*
X118999088Y-86475912D01*
X118920258Y-86411219D01*
X118830322Y-86363147D01*
X118732736Y-86333545D01*
X118631250Y-86323549D01*
X118193750Y-86323549D01*
X118092264Y-86333545D01*
X117994678Y-86363147D01*
X117904742Y-86411219D01*
X117825912Y-86475912D01*
X117761219Y-86554742D01*
X117713147Y-86644678D01*
X117711533Y-86650000D01*
X117316501Y-86650000D01*
X117260523Y-86612597D01*
X117160429Y-86571136D01*
X117054170Y-86550000D01*
X116945830Y-86550000D01*
X116839571Y-86571136D01*
X116739477Y-86612597D01*
X116683499Y-86650000D01*
X116288467Y-86650000D01*
X116286853Y-86644678D01*
X116238781Y-86554742D01*
X116174088Y-86475912D01*
X116095258Y-86411219D01*
X116005322Y-86363147D01*
X115907736Y-86333545D01*
X115806250Y-86323549D01*
X115368750Y-86323549D01*
X115267264Y-86333545D01*
X115169678Y-86363147D01*
X115079742Y-86411219D01*
X115000912Y-86475912D01*
X114936219Y-86554742D01*
X114888147Y-86644678D01*
X114858545Y-86742264D01*
X114850000Y-86829018D01*
X114850000Y-86585604D01*
X114834628Y-86508325D01*
X114804476Y-86435529D01*
X114760701Y-86370015D01*
X114704986Y-86314300D01*
X114639471Y-86270525D01*
X114566676Y-86240372D01*
X114489397Y-86225000D01*
X114162500Y-86225000D01*
X114062500Y-86325000D01*
X113962500Y-86325000D01*
X113862500Y-86225000D01*
X113535603Y-86225000D01*
X113458324Y-86240372D01*
X113385529Y-86270525D01*
X113320014Y-86314300D01*
X113264299Y-86370015D01*
X113220524Y-86435529D01*
X113190372Y-86508325D01*
X113175000Y-86585604D01*
X100305000Y-86585604D01*
X100305000Y-85305000D01*
X133695001Y-85305000D01*
X133695000Y-100695000D01*
X133695000Y-100695000D01*
G37*
X133695000Y-100695000D02*
X100305000Y-100695000D01*
X100305000Y-98324771D01*
X100774199Y-98324771D01*
X100844795Y-98557500D01*
X100960148Y-98773694D01*
X101115461Y-98963230D01*
X101304767Y-99118824D01*
X101520790Y-99234497D01*
X101755229Y-99305803D01*
X101950000Y-99229002D01*
X101950000Y-98130000D01*
X102050000Y-98130000D01*
X102050000Y-99229002D01*
X102244771Y-99305803D01*
X102479210Y-99234497D01*
X102695233Y-99118824D01*
X102884539Y-98963230D01*
X103039852Y-98773694D01*
X103155205Y-98557500D01*
X103225801Y-98324771D01*
X103148913Y-98130000D01*
X102050000Y-98130000D01*
X101950000Y-98130000D01*
X100851087Y-98130000D01*
X100774199Y-98324771D01*
X100305000Y-98324771D01*
X100305000Y-97835229D01*
X100774199Y-97835229D01*
X100851087Y-98030000D01*
X101950000Y-98030000D01*
X101950000Y-96930998D01*
X102050000Y-96930998D01*
X102050000Y-98030000D01*
X103148913Y-98030000D01*
X103225801Y-97835229D01*
X103211323Y-97787500D01*
X111800000Y-97787500D01*
X111800000Y-98164397D01*
X111815372Y-98241676D01*
X111845525Y-98314471D01*
X111889300Y-98379986D01*
X111945015Y-98435701D01*
X112010529Y-98479476D01*
X112083325Y-98509628D01*
X112160604Y-98525000D01*
X112750000Y-98525000D01*
X112850000Y-98425000D01*
X112850000Y-97687500D01*
X112950000Y-97687500D01*
X112950000Y-98425000D01*
X113050000Y-98525000D01*
X113639396Y-98525000D01*
X113716675Y-98509628D01*
X113789471Y-98479476D01*
X113854985Y-98435701D01*
X113910700Y-98379986D01*
X113954475Y-98314471D01*
X113984628Y-98241676D01*
X114000000Y-98164397D01*
X114000000Y-97787500D01*
X114600000Y-97787500D01*
X114600000Y-98164397D01*
X114615372Y-98241676D01*
X114645525Y-98314471D01*
X114689300Y-98379986D01*
X114745015Y-98435701D01*
X114810529Y-98479476D01*
X114883325Y-98509628D01*
X114960604Y-98525000D01*
X115550000Y-98525000D01*
X115650000Y-98425000D01*
X115650000Y-97687500D01*
X115750000Y-97687500D01*
X115750000Y-98425000D01*
X115850000Y-98525000D01*
X116439396Y-98525000D01*
X116516675Y-98509628D01*
X116589471Y-98479476D01*
X116654985Y-98435701D01*
X116710700Y-98379986D01*
X116754475Y-98314471D01*
X116784628Y-98241676D01*
X116800000Y-98164397D01*
X116800000Y-97787500D01*
X117400000Y-97787500D01*
X117400000Y-98164397D01*
X117415372Y-98241676D01*
X117445525Y-98314471D01*
X117489300Y-98379986D01*
X117545015Y-98435701D01*
X117610529Y-98479476D01*
X117683325Y-98509628D01*
X117760604Y-98525000D01*
X118350000Y-98525000D01*
X118450000Y-98425000D01*
X118450000Y-97687500D01*
X118550000Y-97687500D01*
X118550000Y-98425000D01*
X118650000Y-98525000D01*
X119239396Y-98525000D01*
X119316675Y-98509628D01*
X119389471Y-98479476D01*
X119454985Y-98435701D01*
X119510700Y-98379986D01*
X119554475Y-98314471D01*
X119584628Y-98241676D01*
X119600000Y-98164397D01*
X119600000Y-97787500D01*
X120200000Y-97787500D01*
X120200000Y-98164397D01*
X120215372Y-98241676D01*
X120245525Y-98314471D01*
X120289300Y-98379986D01*
X120345015Y-98435701D01*
X120410529Y-98479476D01*
X120483325Y-98509628D01*
X120560604Y-98525000D01*
X121150000Y-98525000D01*
X121250000Y-98425000D01*
X121250000Y-97687500D01*
X121350000Y-97687500D01*
X121350000Y-98425000D01*
X121450000Y-98525000D01*
X122039396Y-98525000D01*
X122116675Y-98509628D01*
X122189471Y-98479476D01*
X122254985Y-98435701D01*
X122310700Y-98379986D01*
X122354475Y-98314471D01*
X122384628Y-98241676D01*
X122400000Y-98164397D01*
X122400000Y-97787500D01*
X122300000Y-97687500D01*
X121350000Y-97687500D01*
X121250000Y-97687500D01*
X120300000Y-97687500D01*
X120200000Y-97787500D01*
X119600000Y-97787500D01*
X119500000Y-97687500D01*
X118550000Y-97687500D01*
X118450000Y-97687500D01*
X117500000Y-97687500D01*
X117400000Y-97787500D01*
X116800000Y-97787500D01*
X116700000Y-97687500D01*
X115750000Y-97687500D01*
X115650000Y-97687500D01*
X114700000Y-97687500D01*
X114600000Y-97787500D01*
X114000000Y-97787500D01*
X113900000Y-97687500D01*
X112950000Y-97687500D01*
X112850000Y-97687500D01*
X111900000Y-97687500D01*
X111800000Y-97787500D01*
X103211323Y-97787500D01*
X103155205Y-97602500D01*
X103039852Y-97386306D01*
X102884539Y-97196770D01*
X102779703Y-97110603D01*
X111800000Y-97110603D01*
X111800000Y-97487500D01*
X111900000Y-97587500D01*
X112850000Y-97587500D01*
X112850000Y-96850000D01*
X112950000Y-96850000D01*
X112950000Y-97587500D01*
X113900000Y-97587500D01*
X114000000Y-97487500D01*
X114000000Y-97110603D01*
X114600000Y-97110603D01*
X114600000Y-97487500D01*
X114700000Y-97587500D01*
X115650000Y-97587500D01*
X115650000Y-96850000D01*
X115750000Y-96850000D01*
X115750000Y-97587500D01*
X116700000Y-97587500D01*
X116800000Y-97487500D01*
X116800000Y-97110603D01*
X117400000Y-97110603D01*
X117400000Y-97487500D01*
X117500000Y-97587500D01*
X118450000Y-97587500D01*
X118450000Y-96850000D01*
X118550000Y-96850000D01*
X118550000Y-97587500D01*
X119500000Y-97587500D01*
X119600000Y-97487500D01*
X119600000Y-97110603D01*
X120200000Y-97110603D01*
X120200000Y-97487500D01*
X120300000Y-97587500D01*
X121250000Y-97587500D01*
X121250000Y-96850000D01*
X121350000Y-96850000D01*
X121350000Y-97587500D01*
X122300000Y-97587500D01*
X122400000Y-97487500D01*
X122400000Y-97110603D01*
X122388895Y-97054771D01*
X130774199Y-97054771D01*
X130844795Y-97287500D01*
X130960148Y-97503694D01*
X131115461Y-97693230D01*
X131304767Y-97848824D01*
X131520790Y-97964497D01*
X131755229Y-98035803D01*
X131950000Y-97959002D01*
X131950000Y-96860000D01*
X132050000Y-96860000D01*
X132050000Y-97959002D01*
X132244771Y-98035803D01*
X132479210Y-97964497D01*
X132695233Y-97848824D01*
X132884539Y-97693230D01*
X133039852Y-97503694D01*
X133155205Y-97287500D01*
X133225801Y-97054771D01*
X133148913Y-96860000D01*
X132050000Y-96860000D01*
X131950000Y-96860000D01*
X130851087Y-96860000D01*
X130774199Y-97054771D01*
X122388895Y-97054771D01*
X122384628Y-97033324D01*
X122354475Y-96960529D01*
X122310700Y-96895014D01*
X122254985Y-96839299D01*
X122189471Y-96795524D01*
X122116675Y-96765372D01*
X122039396Y-96750000D01*
X121450000Y-96750000D01*
X121350000Y-96850000D01*
X121250000Y-96850000D01*
X121150000Y-96750000D01*
X120560604Y-96750000D01*
X120483325Y-96765372D01*
X120410529Y-96795524D01*
X120345015Y-96839299D01*
X120289300Y-96895014D01*
X120245525Y-96960529D01*
X120215372Y-97033324D01*
X120200000Y-97110603D01*
X119600000Y-97110603D01*
X119584628Y-97033324D01*
X119554475Y-96960529D01*
X119510700Y-96895014D01*
X119454985Y-96839299D01*
X119389471Y-96795524D01*
X119316675Y-96765372D01*
X119239396Y-96750000D01*
X118650000Y-96750000D01*
X118550000Y-96850000D01*
X118450000Y-96850000D01*
X118350000Y-96750000D01*
X117760604Y-96750000D01*
X117683325Y-96765372D01*
X117610529Y-96795524D01*
X117545015Y-96839299D01*
X117489300Y-96895014D01*
X117445525Y-96960529D01*
X117415372Y-97033324D01*
X117400000Y-97110603D01*
X116800000Y-97110603D01*
X116784628Y-97033324D01*
X116754475Y-96960529D01*
X116710700Y-96895014D01*
X116654985Y-96839299D01*
X116589471Y-96795524D01*
X116516675Y-96765372D01*
X116439396Y-96750000D01*
X115850000Y-96750000D01*
X115750000Y-96850000D01*
X115650000Y-96850000D01*
X115550000Y-96750000D01*
X114960604Y-96750000D01*
X114883325Y-96765372D01*
X114810529Y-96795524D01*
X114745015Y-96839299D01*
X114689300Y-96895014D01*
X114645525Y-96960529D01*
X114615372Y-97033324D01*
X114600000Y-97110603D01*
X114000000Y-97110603D01*
X113984628Y-97033324D01*
X113954475Y-96960529D01*
X113910700Y-96895014D01*
X113854985Y-96839299D01*
X113789471Y-96795524D01*
X113716675Y-96765372D01*
X113639396Y-96750000D01*
X113050000Y-96750000D01*
X112950000Y-96850000D01*
X112850000Y-96850000D01*
X112750000Y-96750000D01*
X112160604Y-96750000D01*
X112083325Y-96765372D01*
X112010529Y-96795524D01*
X111945015Y-96839299D01*
X111889300Y-96895014D01*
X111845525Y-96960529D01*
X111815372Y-97033324D01*
X111800000Y-97110603D01*
X102779703Y-97110603D01*
X102695233Y-97041176D01*
X102479210Y-96925503D01*
X102244771Y-96854197D01*
X102050000Y-96930998D01*
X101950000Y-96930998D01*
X101755229Y-96854197D01*
X101520790Y-96925503D01*
X101304767Y-97041176D01*
X101115461Y-97196770D01*
X100960148Y-97386306D01*
X100844795Y-97602500D01*
X100774199Y-97835229D01*
X100305000Y-97835229D01*
X100305000Y-95540000D01*
X100844436Y-95540000D01*
X100866640Y-95765439D01*
X100932398Y-95982215D01*
X101039184Y-96181997D01*
X101182893Y-96357107D01*
X101358003Y-96500816D01*
X101557785Y-96607602D01*
X101774561Y-96673360D01*
X101943508Y-96690000D01*
X102056492Y-96690000D01*
X102225439Y-96673360D01*
X102442215Y-96607602D01*
X102521489Y-96565229D01*
X130774199Y-96565229D01*
X130851087Y-96760000D01*
X131950000Y-96760000D01*
X131950000Y-95660998D01*
X132050000Y-95660998D01*
X132050000Y-96760000D01*
X133148913Y-96760000D01*
X133225801Y-96565229D01*
X133155205Y-96332500D01*
X133039852Y-96116306D01*
X132884539Y-95926770D01*
X132695233Y-95771176D01*
X132479210Y-95655503D01*
X132244771Y-95584197D01*
X132050000Y-95660998D01*
X131950000Y-95660998D01*
X131755229Y-95584197D01*
X131520790Y-95655503D01*
X131304767Y-95771176D01*
X131115461Y-95926770D01*
X130960148Y-96116306D01*
X130844795Y-96332500D01*
X130774199Y-96565229D01*
X102521489Y-96565229D01*
X102641997Y-96500816D01*
X102817107Y-96357107D01*
X102913214Y-96240000D01*
X103363113Y-96240000D01*
X103397500Y-96243387D01*
X103431887Y-96240000D01*
X103431890Y-96240000D01*
X103534724Y-96229872D01*
X103666675Y-96189845D01*
X103788281Y-96124845D01*
X103894870Y-96037370D01*
X103916796Y-96010653D01*
X105200998Y-94726451D01*
X105456250Y-94726451D01*
X105562613Y-94715975D01*
X105664889Y-94684950D01*
X105753662Y-94637500D01*
X106244530Y-94637500D01*
X106252631Y-94647371D01*
X106359220Y-94734846D01*
X106480826Y-94799846D01*
X106522556Y-94812505D01*
X106550284Y-94840233D01*
X106550000Y-94841659D01*
X106550000Y-95058341D01*
X106592273Y-95270858D01*
X106675193Y-95471045D01*
X106795575Y-95651209D01*
X106948791Y-95804425D01*
X107128955Y-95924807D01*
X107329142Y-96007727D01*
X107541659Y-96050000D01*
X107758341Y-96050000D01*
X107759767Y-96049716D01*
X107943208Y-96233158D01*
X107965130Y-96259870D01*
X108071719Y-96347345D01*
X108193325Y-96412345D01*
X108325273Y-96452371D01*
X108325276Y-96452372D01*
X108462500Y-96465887D01*
X108496890Y-96462500D01*
X112146338Y-96462500D01*
X112235111Y-96509950D01*
X112337387Y-96540975D01*
X112443750Y-96551451D01*
X113356250Y-96551451D01*
X113462613Y-96540975D01*
X113564889Y-96509950D01*
X113659147Y-96459568D01*
X113741765Y-96391765D01*
X113809568Y-96309147D01*
X113859950Y-96214889D01*
X113890975Y-96112613D01*
X113901451Y-96006250D01*
X113901451Y-95518750D01*
X113890975Y-95412387D01*
X113859950Y-95310111D01*
X113809568Y-95215853D01*
X113741765Y-95133235D01*
X113659147Y-95065432D01*
X113564889Y-95015050D01*
X113462613Y-94984025D01*
X113356250Y-94973549D01*
X112443750Y-94973549D01*
X112337387Y-94984025D01*
X112235111Y-95015050D01*
X112146338Y-95062500D01*
X108752450Y-95062500D01*
X108749716Y-95059767D01*
X108750000Y-95058341D01*
X108750000Y-94841659D01*
X108707727Y-94629142D01*
X108624807Y-94428955D01*
X108504425Y-94248791D01*
X108351209Y-94095575D01*
X108171045Y-93975193D01*
X107970858Y-93892273D01*
X107758341Y-93850000D01*
X107541659Y-93850000D01*
X107540233Y-93850284D01*
X107369297Y-93679348D01*
X107347371Y-93652631D01*
X107240782Y-93565156D01*
X107119176Y-93500156D01*
X107077446Y-93487497D01*
X107056796Y-93466847D01*
X107034870Y-93440130D01*
X106928281Y-93352655D01*
X106806675Y-93287655D01*
X106674724Y-93247628D01*
X106571890Y-93237500D01*
X106571887Y-93237500D01*
X106537500Y-93234113D01*
X106503113Y-93237500D01*
X105753662Y-93237500D01*
X105664889Y-93190050D01*
X105562613Y-93159025D01*
X105456250Y-93148549D01*
X104543750Y-93148549D01*
X104437387Y-93159025D01*
X104335111Y-93190050D01*
X104240853Y-93240432D01*
X104158235Y-93308235D01*
X104090432Y-93390853D01*
X104040050Y-93485111D01*
X104009025Y-93587387D01*
X103998549Y-93693750D01*
X103998549Y-93949002D01*
X103107551Y-94840000D01*
X102913214Y-94840000D01*
X102817107Y-94722893D01*
X102641997Y-94579184D01*
X102442215Y-94472398D01*
X102225439Y-94406640D01*
X102056492Y-94390000D01*
X101943508Y-94390000D01*
X101774561Y-94406640D01*
X101557785Y-94472398D01*
X101358003Y-94579184D01*
X101182893Y-94722893D01*
X101039184Y-94898003D01*
X100932398Y-95097785D01*
X100866640Y-95314561D01*
X100844436Y-95540000D01*
X100305000Y-95540000D01*
X100305000Y-93244771D01*
X100774199Y-93244771D01*
X100844795Y-93477500D01*
X100960148Y-93693694D01*
X101115461Y-93883230D01*
X101304767Y-94038824D01*
X101520790Y-94154497D01*
X101755229Y-94225803D01*
X101950000Y-94149002D01*
X101950000Y-93050000D01*
X102050000Y-93050000D01*
X102050000Y-94149002D01*
X102244771Y-94225803D01*
X102479210Y-94154497D01*
X102695233Y-94038824D01*
X102884539Y-93883230D01*
X103039852Y-93693694D01*
X103155205Y-93477500D01*
X103225801Y-93244771D01*
X103148913Y-93050000D01*
X102050000Y-93050000D01*
X101950000Y-93050000D01*
X100851087Y-93050000D01*
X100774199Y-93244771D01*
X100305000Y-93244771D01*
X100305000Y-92755229D01*
X100774199Y-92755229D01*
X100851087Y-92950000D01*
X101950000Y-92950000D01*
X101950000Y-91850998D01*
X102050000Y-91850998D01*
X102050000Y-92950000D01*
X103148913Y-92950000D01*
X103225801Y-92755229D01*
X103155205Y-92522500D01*
X103039852Y-92306306D01*
X102884539Y-92116770D01*
X102695233Y-91961176D01*
X102479210Y-91845503D01*
X102391252Y-91818750D01*
X103998549Y-91818750D01*
X103998549Y-92306250D01*
X104009025Y-92412613D01*
X104040050Y-92514889D01*
X104090432Y-92609147D01*
X104158235Y-92691765D01*
X104240853Y-92759568D01*
X104335111Y-92809950D01*
X104437387Y-92840975D01*
X104543750Y-92851451D01*
X105456250Y-92851451D01*
X105562613Y-92840975D01*
X105664889Y-92809950D01*
X105759147Y-92759568D01*
X105841765Y-92691765D01*
X105909568Y-92609147D01*
X105959950Y-92514889D01*
X105990975Y-92412613D01*
X106001451Y-92306250D01*
X106001451Y-92050998D01*
X107402450Y-90650000D01*
X108994767Y-90650000D01*
X108995575Y-90651209D01*
X109148791Y-90804425D01*
X109328955Y-90924807D01*
X109529142Y-91007727D01*
X109741659Y-91050000D01*
X109958341Y-91050000D01*
X110170858Y-91007727D01*
X110371045Y-90924807D01*
X110551209Y-90804425D01*
X110704425Y-90651209D01*
X110705233Y-90650000D01*
X113965613Y-90650000D01*
X114000000Y-90653387D01*
X114034387Y-90650000D01*
X114034390Y-90650000D01*
X114137224Y-90639872D01*
X114269175Y-90599845D01*
X114390781Y-90534845D01*
X114434882Y-90498652D01*
X114441659Y-90500000D01*
X114658341Y-90500000D01*
X114659767Y-90499716D01*
X115362501Y-91202451D01*
X115362500Y-93246338D01*
X115315050Y-93335111D01*
X115284025Y-93437387D01*
X115273549Y-93543750D01*
X115273549Y-93799002D01*
X115229343Y-93843208D01*
X115202631Y-93865130D01*
X115180710Y-93891841D01*
X115180708Y-93891843D01*
X115115155Y-93971719D01*
X115050155Y-94093326D01*
X115010129Y-94225277D01*
X114996613Y-94362500D01*
X115000001Y-94396897D01*
X115000001Y-95033817D01*
X114940853Y-95065432D01*
X114858235Y-95133235D01*
X114790432Y-95215853D01*
X114740050Y-95310111D01*
X114709025Y-95412387D01*
X114698549Y-95518750D01*
X114698549Y-96006250D01*
X114709025Y-96112613D01*
X114740050Y-96214889D01*
X114790432Y-96309147D01*
X114858235Y-96391765D01*
X114940853Y-96459568D01*
X115035111Y-96509950D01*
X115137387Y-96540975D01*
X115243750Y-96551451D01*
X116156250Y-96551451D01*
X116262613Y-96540975D01*
X116364889Y-96509950D01*
X116459147Y-96459568D01*
X116541765Y-96391765D01*
X116609568Y-96309147D01*
X116659950Y-96214889D01*
X116690975Y-96112613D01*
X116701451Y-96006250D01*
X116701451Y-95518750D01*
X116690975Y-95412387D01*
X116659950Y-95310111D01*
X116609568Y-95215853D01*
X116541765Y-95133235D01*
X116459147Y-95065432D01*
X116400000Y-95033817D01*
X116400000Y-94992217D01*
X116412613Y-94990975D01*
X116514889Y-94959950D01*
X116609147Y-94909568D01*
X116691765Y-94841765D01*
X116759568Y-94759147D01*
X116809950Y-94664889D01*
X116840975Y-94562613D01*
X116851451Y-94456250D01*
X116851451Y-93543750D01*
X117148549Y-93543750D01*
X117148549Y-94456250D01*
X117159025Y-94562613D01*
X117190050Y-94664889D01*
X117240432Y-94759147D01*
X117308235Y-94841765D01*
X117390853Y-94909568D01*
X117485111Y-94959950D01*
X117587387Y-94990975D01*
X117693750Y-95001451D01*
X117800001Y-95001451D01*
X117800001Y-95033817D01*
X117740853Y-95065432D01*
X117658235Y-95133235D01*
X117590432Y-95215853D01*
X117540050Y-95310111D01*
X117509025Y-95412387D01*
X117498549Y-95518750D01*
X117498549Y-96006250D01*
X117509025Y-96112613D01*
X117540050Y-96214889D01*
X117590432Y-96309147D01*
X117658235Y-96391765D01*
X117740853Y-96459568D01*
X117835111Y-96509950D01*
X117937387Y-96540975D01*
X118043750Y-96551451D01*
X118956250Y-96551451D01*
X119062613Y-96540975D01*
X119164889Y-96509950D01*
X119259147Y-96459568D01*
X119341765Y-96391765D01*
X119409568Y-96309147D01*
X119459950Y-96214889D01*
X119490975Y-96112613D01*
X119501451Y-96006250D01*
X119501451Y-95518750D01*
X120298549Y-95518750D01*
X120298549Y-96006250D01*
X120309025Y-96112613D01*
X120340050Y-96214889D01*
X120390432Y-96309147D01*
X120458235Y-96391765D01*
X120540853Y-96459568D01*
X120635111Y-96509950D01*
X120737387Y-96540975D01*
X120843750Y-96551451D01*
X121756250Y-96551451D01*
X121862613Y-96540975D01*
X121964889Y-96509950D01*
X122053662Y-96462500D01*
X123553113Y-96462500D01*
X123587500Y-96465887D01*
X123621887Y-96462500D01*
X123621890Y-96462500D01*
X123724724Y-96452372D01*
X123856675Y-96412345D01*
X123978281Y-96347345D01*
X124084870Y-96259870D01*
X124106796Y-96233153D01*
X124290233Y-96049716D01*
X124291659Y-96050000D01*
X124508341Y-96050000D01*
X124720858Y-96007727D01*
X124921045Y-95924807D01*
X125101209Y-95804425D01*
X125254425Y-95651209D01*
X125374807Y-95471045D01*
X125457727Y-95270858D01*
X125500000Y-95058341D01*
X125500000Y-94841659D01*
X125499716Y-94840233D01*
X125702449Y-94637500D01*
X128246338Y-94637500D01*
X128335111Y-94684950D01*
X128437387Y-94715975D01*
X128543750Y-94726451D01*
X128799002Y-94726451D01*
X128813204Y-94740653D01*
X128835130Y-94767370D01*
X128941719Y-94854845D01*
X129063325Y-94919845D01*
X129195276Y-94959872D01*
X129298110Y-94970000D01*
X129298112Y-94970000D01*
X129332499Y-94973387D01*
X129366886Y-94970000D01*
X131086786Y-94970000D01*
X131182893Y-95087107D01*
X131358003Y-95230816D01*
X131557785Y-95337602D01*
X131774561Y-95403360D01*
X131943508Y-95420000D01*
X132056492Y-95420000D01*
X132225439Y-95403360D01*
X132442215Y-95337602D01*
X132641997Y-95230816D01*
X132817107Y-95087107D01*
X132960816Y-94911997D01*
X133067602Y-94712215D01*
X133133360Y-94495439D01*
X133155564Y-94270000D01*
X133133360Y-94044561D01*
X133067602Y-93827785D01*
X132960816Y-93628003D01*
X132817107Y-93452893D01*
X132641997Y-93309184D01*
X132442215Y-93202398D01*
X132225439Y-93136640D01*
X132056492Y-93120000D01*
X131943508Y-93120000D01*
X131774561Y-93136640D01*
X131557785Y-93202398D01*
X131358003Y-93309184D01*
X131182893Y-93452893D01*
X131086786Y-93570000D01*
X129985701Y-93570000D01*
X129959950Y-93485111D01*
X129909568Y-93390853D01*
X129841765Y-93308235D01*
X129759147Y-93240432D01*
X129664889Y-93190050D01*
X129562613Y-93159025D01*
X129456250Y-93148549D01*
X128543750Y-93148549D01*
X128437387Y-93159025D01*
X128335111Y-93190050D01*
X128246338Y-93237500D01*
X125446886Y-93237500D01*
X125412499Y-93234113D01*
X125378112Y-93237500D01*
X125378110Y-93237500D01*
X125275276Y-93247628D01*
X125143325Y-93287655D01*
X125021718Y-93352655D01*
X124983370Y-93384127D01*
X124915130Y-93440130D01*
X124893204Y-93466847D01*
X124509767Y-93850284D01*
X124508341Y-93850000D01*
X124291659Y-93850000D01*
X124079142Y-93892273D01*
X123878955Y-93975193D01*
X123698791Y-94095575D01*
X123545575Y-94248791D01*
X123425193Y-94428955D01*
X123342273Y-94629142D01*
X123300000Y-94841659D01*
X123300000Y-95058341D01*
X123300284Y-95059767D01*
X123297551Y-95062500D01*
X122053662Y-95062500D01*
X121964889Y-95015050D01*
X121862613Y-94984025D01*
X121756250Y-94973549D01*
X120843750Y-94973549D01*
X120737387Y-94984025D01*
X120635111Y-95015050D01*
X120540853Y-95065432D01*
X120458235Y-95133235D01*
X120390432Y-95215853D01*
X120340050Y-95310111D01*
X120309025Y-95412387D01*
X120298549Y-95518750D01*
X119501451Y-95518750D01*
X119490975Y-95412387D01*
X119459950Y-95310111D01*
X119409568Y-95215853D01*
X119341765Y-95133235D01*
X119259147Y-95065432D01*
X119200000Y-95033817D01*
X119200000Y-94596886D01*
X119203387Y-94562499D01*
X119195670Y-94484147D01*
X119189872Y-94425276D01*
X119149845Y-94293325D01*
X119146584Y-94287224D01*
X119084845Y-94171718D01*
X119019292Y-94091842D01*
X119019291Y-94091841D01*
X118997370Y-94065130D01*
X118970658Y-94043208D01*
X118726451Y-93799001D01*
X118726451Y-93543750D01*
X118715975Y-93437387D01*
X118712853Y-93427096D01*
X119440233Y-92699716D01*
X119441659Y-92700000D01*
X119658341Y-92700000D01*
X119870858Y-92657727D01*
X120071045Y-92574807D01*
X120251209Y-92454425D01*
X120404425Y-92301209D01*
X120524807Y-92121045D01*
X120607727Y-91920858D01*
X120650000Y-91708341D01*
X120650000Y-91491659D01*
X120649716Y-91490233D01*
X121489949Y-90650000D01*
X125744767Y-90650000D01*
X125745575Y-90651209D01*
X125898791Y-90804425D01*
X126078955Y-90924807D01*
X126279142Y-91007727D01*
X126491659Y-91050000D01*
X126708341Y-91050000D01*
X126709767Y-91049716D01*
X128002072Y-92342022D01*
X128009025Y-92412613D01*
X128040050Y-92514889D01*
X128090432Y-92609147D01*
X128158235Y-92691765D01*
X128240853Y-92759568D01*
X128335111Y-92809950D01*
X128437387Y-92840975D01*
X128543750Y-92851451D01*
X129456250Y-92851451D01*
X129562613Y-92840975D01*
X129664889Y-92809950D01*
X129759147Y-92759568D01*
X129841765Y-92691765D01*
X129909568Y-92609147D01*
X129959950Y-92514889D01*
X129990975Y-92412613D01*
X130001451Y-92306250D01*
X130001451Y-91974771D01*
X130774199Y-91974771D01*
X130844795Y-92207500D01*
X130960148Y-92423694D01*
X131115461Y-92613230D01*
X131304767Y-92768824D01*
X131520790Y-92884497D01*
X131755229Y-92955803D01*
X131950000Y-92879002D01*
X131950000Y-91780000D01*
X132050000Y-91780000D01*
X132050000Y-92879002D01*
X132244771Y-92955803D01*
X132479210Y-92884497D01*
X132695233Y-92768824D01*
X132884539Y-92613230D01*
X133039852Y-92423694D01*
X133155205Y-92207500D01*
X133225801Y-91974771D01*
X133148913Y-91780000D01*
X132050000Y-91780000D01*
X131950000Y-91780000D01*
X130851087Y-91780000D01*
X130774199Y-91974771D01*
X130001451Y-91974771D01*
X130001451Y-91818750D01*
X129990975Y-91712387D01*
X129959950Y-91610111D01*
X129909568Y-91515853D01*
X129884436Y-91485229D01*
X130774199Y-91485229D01*
X130851087Y-91680000D01*
X131950000Y-91680000D01*
X131950000Y-90580998D01*
X132050000Y-90580998D01*
X132050000Y-91680000D01*
X133148913Y-91680000D01*
X133225801Y-91485229D01*
X133155205Y-91252500D01*
X133039852Y-91036306D01*
X132884539Y-90846770D01*
X132695233Y-90691176D01*
X132479210Y-90575503D01*
X132244771Y-90504197D01*
X132050000Y-90580998D01*
X131950000Y-90580998D01*
X131755229Y-90504197D01*
X131520790Y-90575503D01*
X131304767Y-90691176D01*
X131115461Y-90846770D01*
X130960148Y-91036306D01*
X130844795Y-91252500D01*
X130774199Y-91485229D01*
X129884436Y-91485229D01*
X129841765Y-91433235D01*
X129759147Y-91365432D01*
X129664889Y-91315050D01*
X129562613Y-91284025D01*
X129456250Y-91273549D01*
X128913499Y-91273549D01*
X127699716Y-90059767D01*
X127700000Y-90058341D01*
X127700000Y-89841659D01*
X127657727Y-89629142D01*
X127574807Y-89428955D01*
X127454425Y-89248791D01*
X127301209Y-89095575D01*
X127121045Y-88975193D01*
X126920858Y-88892273D01*
X126708341Y-88850000D01*
X126491659Y-88850000D01*
X126279142Y-88892273D01*
X126078955Y-88975193D01*
X125898791Y-89095575D01*
X125745575Y-89248791D01*
X125744767Y-89250000D01*
X121234386Y-89250000D01*
X121199999Y-89246613D01*
X121165612Y-89250000D01*
X121165610Y-89250000D01*
X121062776Y-89260128D01*
X120930825Y-89300155D01*
X120809219Y-89365155D01*
X120702630Y-89452630D01*
X120680704Y-89479347D01*
X119659767Y-90500284D01*
X119658341Y-90500000D01*
X119441659Y-90500000D01*
X119229142Y-90542273D01*
X119028955Y-90625193D01*
X118848791Y-90745575D01*
X118695575Y-90898791D01*
X118575193Y-91078955D01*
X118492273Y-91279142D01*
X118450000Y-91491659D01*
X118450000Y-91708341D01*
X118450284Y-91709767D01*
X117466842Y-92693209D01*
X117440131Y-92715130D01*
X117418210Y-92741841D01*
X117418208Y-92741843D01*
X117352655Y-92821719D01*
X117287655Y-92943326D01*
X117273713Y-92989287D01*
X117247628Y-93075276D01*
X117239380Y-93159025D01*
X117234113Y-93212500D01*
X117237454Y-93246424D01*
X117190050Y-93335111D01*
X117159025Y-93437387D01*
X117148549Y-93543750D01*
X116851451Y-93543750D01*
X116840975Y-93437387D01*
X116809950Y-93335111D01*
X116762500Y-93246338D01*
X116762500Y-90946886D01*
X116765887Y-90912499D01*
X116759413Y-90846770D01*
X116752372Y-90775276D01*
X116712345Y-90643325D01*
X116702653Y-90625193D01*
X116647345Y-90521718D01*
X116581792Y-90441842D01*
X116581791Y-90441841D01*
X116559870Y-90415130D01*
X116533158Y-90393208D01*
X115649716Y-89509767D01*
X115650000Y-89508341D01*
X115650000Y-89291659D01*
X115607727Y-89079142D01*
X115524807Y-88878955D01*
X115404425Y-88698791D01*
X115251209Y-88545575D01*
X115071045Y-88425193D01*
X114870858Y-88342273D01*
X114658341Y-88300000D01*
X114441659Y-88300000D01*
X114229142Y-88342273D01*
X114028955Y-88425193D01*
X113848791Y-88545575D01*
X113695575Y-88698791D01*
X113575193Y-88878955D01*
X113492273Y-89079142D01*
X113458287Y-89250000D01*
X110705233Y-89250000D01*
X110704425Y-89248791D01*
X110551209Y-89095575D01*
X110371045Y-88975193D01*
X110170858Y-88892273D01*
X109958341Y-88850000D01*
X109741659Y-88850000D01*
X109529142Y-88892273D01*
X109328955Y-88975193D01*
X109148791Y-89095575D01*
X108995575Y-89248791D01*
X108994767Y-89250000D01*
X107146886Y-89250000D01*
X107112499Y-89246613D01*
X107078112Y-89250000D01*
X107078110Y-89250000D01*
X106975276Y-89260128D01*
X106843325Y-89300155D01*
X106721718Y-89365155D01*
X106643978Y-89428955D01*
X106615130Y-89452630D01*
X106593209Y-89479342D01*
X104799002Y-91273549D01*
X104543750Y-91273549D01*
X104437387Y-91284025D01*
X104335111Y-91315050D01*
X104240853Y-91365432D01*
X104158235Y-91433235D01*
X104090432Y-91515853D01*
X104040050Y-91610111D01*
X104009025Y-91712387D01*
X103998549Y-91818750D01*
X102391252Y-91818750D01*
X102244771Y-91774197D01*
X102050000Y-91850998D01*
X101950000Y-91850998D01*
X101755229Y-91774197D01*
X101520790Y-91845503D01*
X101304767Y-91961176D01*
X101115461Y-92116770D01*
X100960148Y-92306306D01*
X100844795Y-92522500D01*
X100774199Y-92755229D01*
X100305000Y-92755229D01*
X100305000Y-90460000D01*
X100844436Y-90460000D01*
X100866640Y-90685439D01*
X100932398Y-90902215D01*
X101039184Y-91101997D01*
X101182893Y-91277107D01*
X101358003Y-91420816D01*
X101557785Y-91527602D01*
X101774561Y-91593360D01*
X101943508Y-91610000D01*
X102056492Y-91610000D01*
X102225439Y-91593360D01*
X102442215Y-91527602D01*
X102641997Y-91420816D01*
X102817107Y-91277107D01*
X102960816Y-91101997D01*
X103067602Y-90902215D01*
X103133360Y-90685439D01*
X103155564Y-90460000D01*
X103133360Y-90234561D01*
X103067602Y-90017785D01*
X102960816Y-89818003D01*
X102817107Y-89642893D01*
X102641997Y-89499184D01*
X102442215Y-89392398D01*
X102225439Y-89326640D01*
X102056492Y-89310000D01*
X101943508Y-89310000D01*
X101774561Y-89326640D01*
X101557785Y-89392398D01*
X101358003Y-89499184D01*
X101182893Y-89642893D01*
X101039184Y-89818003D01*
X100932398Y-90017785D01*
X100866640Y-90234561D01*
X100844436Y-90460000D01*
X100305000Y-90460000D01*
X100305000Y-88070000D01*
X100750000Y-88070000D01*
X100750000Y-88809396D01*
X100765372Y-88886675D01*
X100795524Y-88959471D01*
X100839299Y-89024985D01*
X100895014Y-89080700D01*
X100960529Y-89124475D01*
X101033324Y-89154628D01*
X101110603Y-89170000D01*
X101850000Y-89170000D01*
X101950000Y-89070000D01*
X101950000Y-87970000D01*
X102050000Y-87970000D01*
X102050000Y-89070000D01*
X102150000Y-89170000D01*
X102889397Y-89170000D01*
X102966676Y-89154628D01*
X103039471Y-89124475D01*
X103104986Y-89080700D01*
X103160701Y-89024985D01*
X103204476Y-88959471D01*
X103234628Y-88886675D01*
X103250000Y-88809396D01*
X103250000Y-88070000D01*
X103150000Y-87970000D01*
X102050000Y-87970000D01*
X101950000Y-87970000D01*
X100850000Y-87970000D01*
X100750000Y-88070000D01*
X100305000Y-88070000D01*
X100305000Y-87030604D01*
X100750000Y-87030604D01*
X100750000Y-87770000D01*
X100850000Y-87870000D01*
X101950000Y-87870000D01*
X101950000Y-86770000D01*
X102050000Y-86770000D01*
X102050000Y-87870000D01*
X103150000Y-87870000D01*
X103250000Y-87770000D01*
X103250000Y-87250000D01*
X113175000Y-87250000D01*
X113175000Y-87614396D01*
X113190372Y-87691675D01*
X113220524Y-87764471D01*
X113264299Y-87829985D01*
X113320014Y-87885700D01*
X113385529Y-87929475D01*
X113458324Y-87959628D01*
X113535603Y-87975000D01*
X113862500Y-87975000D01*
X113962500Y-87875000D01*
X113962500Y-87150000D01*
X113275000Y-87150000D01*
X113175000Y-87250000D01*
X103250000Y-87250000D01*
X103250000Y-87030604D01*
X103234628Y-86953325D01*
X103204476Y-86880529D01*
X103160701Y-86815015D01*
X103104986Y-86759300D01*
X103039471Y-86715525D01*
X102966676Y-86685372D01*
X102889397Y-86670000D01*
X102150000Y-86670000D01*
X102050000Y-86770000D01*
X101950000Y-86770000D01*
X101850000Y-86670000D01*
X101110603Y-86670000D01*
X101033324Y-86685372D01*
X100960529Y-86715525D01*
X100895014Y-86759300D01*
X100839299Y-86815015D01*
X100795524Y-86880529D01*
X100765372Y-86953325D01*
X100750000Y-87030604D01*
X100305000Y-87030604D01*
X100305000Y-86585604D01*
X113175000Y-86585604D01*
X113175000Y-86950000D01*
X113275000Y-87050000D01*
X113962500Y-87050000D01*
X113962500Y-86325000D01*
X114062500Y-86325000D01*
X114062500Y-87050000D01*
X114082500Y-87050000D01*
X114082500Y-87150000D01*
X114062500Y-87150000D01*
X114062500Y-87875000D01*
X114162500Y-87975000D01*
X114489397Y-87975000D01*
X114566676Y-87959628D01*
X114639471Y-87929475D01*
X114704986Y-87885700D01*
X114760701Y-87829985D01*
X114804476Y-87764471D01*
X114834628Y-87691675D01*
X114850000Y-87614396D01*
X114850000Y-87370982D01*
X114858545Y-87457736D01*
X114888147Y-87555322D01*
X114936219Y-87645258D01*
X115000912Y-87724088D01*
X115079742Y-87788781D01*
X115169678Y-87836853D01*
X115267264Y-87866455D01*
X115368750Y-87876451D01*
X115806250Y-87876451D01*
X115907736Y-87866455D01*
X116005322Y-87836853D01*
X116095258Y-87788781D01*
X116174088Y-87724088D01*
X116238781Y-87645258D01*
X116286853Y-87555322D01*
X116288467Y-87550000D01*
X116683499Y-87550000D01*
X116739477Y-87587403D01*
X116839571Y-87628864D01*
X116945830Y-87650000D01*
X117054170Y-87650000D01*
X117160429Y-87628864D01*
X117260523Y-87587403D01*
X117316501Y-87550000D01*
X117711533Y-87550000D01*
X117713147Y-87555322D01*
X117761219Y-87645258D01*
X117825912Y-87724088D01*
X117904742Y-87788781D01*
X117994678Y-87836853D01*
X118092264Y-87866455D01*
X118193750Y-87876451D01*
X118631250Y-87876451D01*
X118732736Y-87866455D01*
X118830322Y-87836853D01*
X118920258Y-87788781D01*
X118999088Y-87724088D01*
X119063781Y-87645258D01*
X119111853Y-87555322D01*
X119141455Y-87457736D01*
X119151451Y-87356250D01*
X119151451Y-86843750D01*
X119248549Y-86843750D01*
X119248549Y-87356250D01*
X119258545Y-87457736D01*
X119288147Y-87555322D01*
X119336219Y-87645258D01*
X119400912Y-87724088D01*
X119479742Y-87788781D01*
X119569678Y-87836853D01*
X119667264Y-87866455D01*
X119768750Y-87876451D01*
X120206250Y-87876451D01*
X120307736Y-87866455D01*
X120405322Y-87836853D01*
X120495258Y-87788781D01*
X120574088Y-87724088D01*
X120638781Y-87645258D01*
X120686853Y-87555322D01*
X120688467Y-87550000D01*
X130873605Y-87550000D01*
X131362153Y-88038549D01*
X131150000Y-88038549D01*
X131091190Y-88044341D01*
X131034640Y-88061496D01*
X130982523Y-88089353D01*
X130936842Y-88126842D01*
X130899353Y-88172523D01*
X130871496Y-88224640D01*
X130854341Y-88281190D01*
X130848549Y-88340000D01*
X130848549Y-90040000D01*
X130854341Y-90098810D01*
X130871496Y-90155360D01*
X130899353Y-90207477D01*
X130936842Y-90253158D01*
X130982523Y-90290647D01*
X131034640Y-90318504D01*
X131091190Y-90335659D01*
X131150000Y-90341451D01*
X132850000Y-90341451D01*
X132908810Y-90335659D01*
X132965360Y-90318504D01*
X133017477Y-90290647D01*
X133063158Y-90253158D01*
X133100647Y-90207477D01*
X133128504Y-90155360D01*
X133145659Y-90098810D01*
X133151451Y-90040000D01*
X133151451Y-88340000D01*
X133145659Y-88281190D01*
X133128504Y-88224640D01*
X133100647Y-88172523D01*
X133063158Y-88126842D01*
X133017477Y-88089353D01*
X132965360Y-88061496D01*
X132908810Y-88044341D01*
X132850000Y-88038549D01*
X132452033Y-88038549D01*
X132450000Y-88017906D01*
X132450000Y-88017895D01*
X132443489Y-87951785D01*
X132417757Y-87866959D01*
X132397994Y-87829985D01*
X132375971Y-87788783D01*
X132333828Y-87737432D01*
X132333824Y-87737428D01*
X132319737Y-87720263D01*
X132302572Y-87706176D01*
X131393829Y-86797434D01*
X131379737Y-86780263D01*
X131311216Y-86724029D01*
X131233041Y-86682243D01*
X131148215Y-86656511D01*
X131082105Y-86650000D01*
X131082094Y-86650000D01*
X131060000Y-86647824D01*
X131037906Y-86650000D01*
X120688467Y-86650000D01*
X120686853Y-86644678D01*
X120638781Y-86554742D01*
X120574088Y-86475912D01*
X120495258Y-86411219D01*
X120405322Y-86363147D01*
X120307736Y-86333545D01*
X120206250Y-86323549D01*
X119768750Y-86323549D01*
X119667264Y-86333545D01*
X119569678Y-86363147D01*
X119479742Y-86411219D01*
X119400912Y-86475912D01*
X119336219Y-86554742D01*
X119288147Y-86644678D01*
X119258545Y-86742264D01*
X119248549Y-86843750D01*
X119151451Y-86843750D01*
X119141455Y-86742264D01*
X119111853Y-86644678D01*
X119063781Y-86554742D01*
X118999088Y-86475912D01*
X118920258Y-86411219D01*
X118830322Y-86363147D01*
X118732736Y-86333545D01*
X118631250Y-86323549D01*
X118193750Y-86323549D01*
X118092264Y-86333545D01*
X117994678Y-86363147D01*
X117904742Y-86411219D01*
X117825912Y-86475912D01*
X117761219Y-86554742D01*
X117713147Y-86644678D01*
X117711533Y-86650000D01*
X117316501Y-86650000D01*
X117260523Y-86612597D01*
X117160429Y-86571136D01*
X117054170Y-86550000D01*
X116945830Y-86550000D01*
X116839571Y-86571136D01*
X116739477Y-86612597D01*
X116683499Y-86650000D01*
X116288467Y-86650000D01*
X116286853Y-86644678D01*
X116238781Y-86554742D01*
X116174088Y-86475912D01*
X116095258Y-86411219D01*
X116005322Y-86363147D01*
X115907736Y-86333545D01*
X115806250Y-86323549D01*
X115368750Y-86323549D01*
X115267264Y-86333545D01*
X115169678Y-86363147D01*
X115079742Y-86411219D01*
X115000912Y-86475912D01*
X114936219Y-86554742D01*
X114888147Y-86644678D01*
X114858545Y-86742264D01*
X114850000Y-86829018D01*
X114850000Y-86585604D01*
X114834628Y-86508325D01*
X114804476Y-86435529D01*
X114760701Y-86370015D01*
X114704986Y-86314300D01*
X114639471Y-86270525D01*
X114566676Y-86240372D01*
X114489397Y-86225000D01*
X114162500Y-86225000D01*
X114062500Y-86325000D01*
X113962500Y-86325000D01*
X113862500Y-86225000D01*
X113535603Y-86225000D01*
X113458324Y-86240372D01*
X113385529Y-86270525D01*
X113320014Y-86314300D01*
X113264299Y-86370015D01*
X113220524Y-86435529D01*
X113190372Y-86508325D01*
X113175000Y-86585604D01*
X100305000Y-86585604D01*
X100305000Y-85305000D01*
X133695001Y-85305000D01*
X133695000Y-100695000D01*
G04 #@! TD*
M02*
