<?xml version="1.0" standalone="no"?>
 <!DOCTYPE svg PUBLIC "-//W3C//DTD SVG 1.1//EN" 
 "http://www.w3.org/Graphics/SVG/1.1/DTD/svg11.dtd"> 
<svg xmlns="http://www.w3.org/2000/svg" version="1.1" 
    width="27.94cm" height="21.59cm" viewBox="0 0 110000 85000 ">
<title>SVG Picture created as LowPassFilterModule.sch.svg date 2015/04/20 12:01:24 </title>
  <desc>Picture generated by Eeschema-SVG </desc>
<g style="fill:#000000; fill-opacity:1;stroke:#000000; stroke-opacity:1;
stroke-linecap:round; stroke-linejoin:round; "
 transform="translate(0 0) scale(1 1)">
</g>
<g style="fill:#000000; fill-opacity:0.0; 
stroke:#000000; stroke-width:100; stroke-opacity:1; 
stroke-linecap:round; stroke-linejoin:round;">
</g>
<g style="fill:#000000; fill-opacity:0.0; 
stroke:#000000; stroke-width:60; stroke-opacity:1; 
stroke-linecap:round; stroke-linejoin:round;">
<rect x="62760" y="67680" width="42520" height="12600" rx="0" />
</g>
<g style="fill:#000000; fill-opacity:0.0; 
stroke:#000000; stroke-width:100; stroke-opacity:1; 
stroke-linecap:round; stroke-linejoin:round;">
</g>
<g style="fill:#000000; fill-opacity:0.0; 
stroke:#000000; stroke-width:60; stroke-opacity:1; 
stroke-linecap:round; stroke-linejoin:round;">
<rect x="3940" y="3940" width="102120" height="77120" rx="0" />
</g>
<g style="fill:#000000; fill-opacity:0.0; 
stroke:#000000; stroke-width:100; stroke-opacity:1; 
stroke-linecap:round; stroke-linejoin:round;">
</g>
<g style="fill:#000000; fill-opacity:0.0; 
stroke:#000000; stroke-width:60; stroke-opacity:1; 
stroke-linecap:round; stroke-linejoin:round;">
<rect x="4720" y="4720" width="100560" height="75560" rx="0" />
</g>
<g style="fill:#000000; fill-opacity:0.0; 
stroke:#000000; stroke-width:100; stroke-opacity:1; 
stroke-linecap:round; stroke-linejoin:round;">
</g>
<g style="fill:#000000; fill-opacity:0.0; 
stroke:#000000; stroke-width:60; stroke-opacity:1; 
stroke-linecap:round; stroke-linejoin:round;">
<path d="M23620 4720
L23620 3940
" />
</g>
<g style="fill:#000000; fill-opacity:0.0; 
stroke:#000000; stroke-width:100; stroke-opacity:1; 
stroke-linecap:round; stroke-linejoin:round;">
</g>
<g style="fill:#000000; fill-opacity:0.0; 
stroke:#000000; stroke-width:60; stroke-opacity:1; 
stroke-linecap:round; stroke-linejoin:round;">
<path d="M43310 4720
L43310 3940
" />
</g>
<g style="fill:#000000; fill-opacity:0.0; 
stroke:#000000; stroke-width:100; stroke-opacity:1; 
stroke-linecap:round; stroke-linejoin:round;">
</g>
<g style="fill:#000000; fill-opacity:0.0; 
stroke:#000000; stroke-width:60; stroke-opacity:1; 
stroke-linecap:round; stroke-linejoin:round;">
<path d="M62990 4720
L62990 3940
" />
</g>
<g style="fill:#000000; fill-opacity:0.0; 
stroke:#000000; stroke-width:100; stroke-opacity:1; 
stroke-linecap:round; stroke-linejoin:round;">
</g>
<g style="fill:#000000; fill-opacity:0.0; 
stroke:#000000; stroke-width:60; stroke-opacity:1; 
stroke-linecap:round; stroke-linejoin:round;">
<path d="M82680 4720
L82680 3940
" />
</g>
<g style="fill:#000000; fill-opacity:0.0; 
stroke:#000000; stroke-width:100; stroke-opacity:1; 
stroke-linecap:round; stroke-linejoin:round;">
</g>
<g style="fill:#000000; fill-opacity:0.0; 
stroke:#000000; stroke-width:60; stroke-opacity:1; 
stroke-linecap:round; stroke-linejoin:round;">
<path d="M102360 4720
L102360 3940
" />
</g>
<g style="fill:#000000; fill-opacity:0.0; 
stroke:#000000; stroke-width:100; stroke-opacity:1; 
stroke-linecap:round; stroke-linejoin:round;">
</g>
<g style="fill:#000000; fill-opacity:0.0; 
stroke:#000000; stroke-width:60; stroke-opacity:1; 
stroke-linecap:round; stroke-linejoin:round;">
<path d="M14170 4560
L13880 4560
" />
<path d="M14020 4560
L14020 4050
L13970 4120
L13930 4170
L13880 4190
" />
</g>
<g style="fill:#000000; fill-opacity:0.0; 
stroke:#000000; stroke-width:100; stroke-opacity:1; 
stroke-linecap:round; stroke-linejoin:round;">
</g>
<g style="fill:#000000; fill-opacity:0.0; 
stroke:#000000; stroke-width:60; stroke-opacity:1; 
stroke-linecap:round; stroke-linejoin:round;">
<path d="M33560 4090
L33580 4070
L33630 4050
L33750 4050
L33800 4070
L33820 4090
L33850 4140
L33850 4190
L33820 4260
L33530 4560
L33850 4560
" />
</g>
<g style="fill:#000000; fill-opacity:0.0; 
stroke:#000000; stroke-width:100; stroke-opacity:1; 
stroke-linecap:round; stroke-linejoin:round;">
</g>
<g style="fill:#000000; fill-opacity:0.0; 
stroke:#000000; stroke-width:60; stroke-opacity:1; 
stroke-linecap:round; stroke-linejoin:round;">
<path d="M53220 4050
L53540 4050
L53370 4240
L53440 4240
L53490 4260
L53510 4290
L53540 4340
L53540 4460
L53510 4510
L53490 4530
L53440 4560
L53300 4560
L53250 4530
L53220 4510
" />
</g>
<g style="fill:#000000; fill-opacity:0.0; 
stroke:#000000; stroke-width:100; stroke-opacity:1; 
stroke-linecap:round; stroke-linejoin:round;">
</g>
<g style="fill:#000000; fill-opacity:0.0; 
stroke:#000000; stroke-width:60; stroke-opacity:1; 
stroke-linecap:round; stroke-linejoin:round;">
<path d="M73170 4220
L73170 4560
" />
<path d="M73050 4020
L72930 4390
L73240 4390
" />
</g>
<g style="fill:#000000; fill-opacity:0.0; 
stroke:#000000; stroke-width:100; stroke-opacity:1; 
stroke-linecap:round; stroke-linejoin:round;">
</g>
<g style="fill:#000000; fill-opacity:0.0; 
stroke:#000000; stroke-width:60; stroke-opacity:1; 
stroke-linecap:round; stroke-linejoin:round;">
<path d="M92880 4050
L92640 4050
L92620 4290
L92640 4260
L92690 4240
L92810 4240
L92860 4260
L92880 4290
L92910 4340
L92910 4460
L92880 4510
L92860 4530
L92810 4560
L92690 4560
L92640 4530
L92620 4510
" />
</g>
<g style="fill:#000000; fill-opacity:0.0; 
stroke:#000000; stroke-width:100; stroke-opacity:1; 
stroke-linecap:round; stroke-linejoin:round;">
</g>
<g style="fill:#000000; fill-opacity:0.0; 
stroke:#000000; stroke-width:60; stroke-opacity:1; 
stroke-linecap:round; stroke-linejoin:round;">
<path d="M23620 80280
L23620 81060
" />
</g>
<g style="fill:#000000; fill-opacity:0.0; 
stroke:#000000; stroke-width:100; stroke-opacity:1; 
stroke-linecap:round; stroke-linejoin:round;">
</g>
<g style="fill:#000000; fill-opacity:0.0; 
stroke:#000000; stroke-width:60; stroke-opacity:1; 
stroke-linecap:round; stroke-linejoin:round;">
<path d="M43310 80280
L43310 81060
" />
</g>
<g style="fill:#000000; fill-opacity:0.0; 
stroke:#000000; stroke-width:100; stroke-opacity:1; 
stroke-linecap:round; stroke-linejoin:round;">
</g>
<g style="fill:#000000; fill-opacity:0.0; 
stroke:#000000; stroke-width:60; stroke-opacity:1; 
stroke-linecap:round; stroke-linejoin:round;">
<path d="M62990 80280
L62990 81060
" />
</g>
<g style="fill:#000000; fill-opacity:0.0; 
stroke:#000000; stroke-width:100; stroke-opacity:1; 
stroke-linecap:round; stroke-linejoin:round;">
</g>
<g style="fill:#000000; fill-opacity:0.0; 
stroke:#000000; stroke-width:60; stroke-opacity:1; 
stroke-linecap:round; stroke-linejoin:round;">
<path d="M82680 80280
L82680 81060
" />
</g>
<g style="fill:#000000; fill-opacity:0.0; 
stroke:#000000; stroke-width:100; stroke-opacity:1; 
stroke-linecap:round; stroke-linejoin:round;">
</g>
<g style="fill:#000000; fill-opacity:0.0; 
stroke:#000000; stroke-width:60; stroke-opacity:1; 
stroke-linecap:round; stroke-linejoin:round;">
<path d="M102360 80280
L102360 81060
" />
</g>
<g style="fill:#000000; fill-opacity:0.0; 
stroke:#000000; stroke-width:100; stroke-opacity:1; 
stroke-linecap:round; stroke-linejoin:round;">
</g>
<g style="fill:#000000; fill-opacity:0.0; 
stroke:#000000; stroke-width:60; stroke-opacity:1; 
stroke-linecap:round; stroke-linejoin:round;">
<path d="M14170 80900
L13880 80900
" />
<path d="M14020 80900
L14020 80390
L13970 80460
L13930 80510
L13880 80530
" />
</g>
<g style="fill:#000000; fill-opacity:0.0; 
stroke:#000000; stroke-width:100; stroke-opacity:1; 
stroke-linecap:round; stroke-linejoin:round;">
</g>
<g style="fill:#000000; fill-opacity:0.0; 
stroke:#000000; stroke-width:60; stroke-opacity:1; 
stroke-linecap:round; stroke-linejoin:round;">
<path d="M33560 80430
L33580 80410
L33630 80390
L33750 80390
L33800 80410
L33820 80430
L33850 80480
L33850 80530
L33820 80600
L33530 80900
L33850 80900
" />
</g>
<g style="fill:#000000; fill-opacity:0.0; 
stroke:#000000; stroke-width:100; stroke-opacity:1; 
stroke-linecap:round; stroke-linejoin:round;">
</g>
<g style="fill:#000000; fill-opacity:0.0; 
stroke:#000000; stroke-width:60; stroke-opacity:1; 
stroke-linecap:round; stroke-linejoin:round;">
<path d="M53220 80390
L53540 80390
L53370 80580
L53440 80580
L53490 80600
L53510 80630
L53540 80680
L53540 80800
L53510 80850
L53490 80870
L53440 80900
L53300 80900
L53250 80870
L53220 80850
" />
</g>
<g style="fill:#000000; fill-opacity:0.0; 
stroke:#000000; stroke-width:100; stroke-opacity:1; 
stroke-linecap:round; stroke-linejoin:round;">
</g>
<g style="fill:#000000; fill-opacity:0.0; 
stroke:#000000; stroke-width:60; stroke-opacity:1; 
stroke-linecap:round; stroke-linejoin:round;">
<path d="M73170 80560
L73170 80900
" />
<path d="M73050 80360
L72930 80730
L73240 80730
" />
</g>
<g style="fill:#000000; fill-opacity:0.0; 
stroke:#000000; stroke-width:100; stroke-opacity:1; 
stroke-linecap:round; stroke-linejoin:round;">
</g>
<g style="fill:#000000; fill-opacity:0.0; 
stroke:#000000; stroke-width:60; stroke-opacity:1; 
stroke-linecap:round; stroke-linejoin:round;">
<path d="M92880 80390
L92640 80390
L92620 80630
L92640 80600
L92690 80580
L92810 80580
L92860 80600
L92880 80630
L92910 80680
L92910 80800
L92880 80850
L92860 80870
L92810 80900
L92690 80900
L92640 80870
L92620 80850
" />
</g>
<g style="fill:#000000; fill-opacity:0.0; 
stroke:#000000; stroke-width:100; stroke-opacity:1; 
stroke-linecap:round; stroke-linejoin:round;">
</g>
<g style="fill:#000000; fill-opacity:0.0; 
stroke:#000000; stroke-width:60; stroke-opacity:1; 
stroke-linecap:round; stroke-linejoin:round;">
<path d="M3940 23620
L4720 23620
" />
</g>
<g style="fill:#000000; fill-opacity:0.0; 
stroke:#000000; stroke-width:100; stroke-opacity:1; 
stroke-linecap:round; stroke-linejoin:round;">
</g>
<g style="fill:#000000; fill-opacity:0.0; 
stroke:#000000; stroke-width:60; stroke-opacity:1; 
stroke-linecap:round; stroke-linejoin:round;">
<path d="M3940 43310
L4720 43310
" />
</g>
<g style="fill:#000000; fill-opacity:0.0; 
stroke:#000000; stroke-width:100; stroke-opacity:1; 
stroke-linecap:round; stroke-linejoin:round;">
</g>
<g style="fill:#000000; fill-opacity:0.0; 
stroke:#000000; stroke-width:60; stroke-opacity:1; 
stroke-linecap:round; stroke-linejoin:round;">
<path d="M3940 62990
L4720 62990
" />
</g>
<g style="fill:#000000; fill-opacity:0.0; 
stroke:#000000; stroke-width:100; stroke-opacity:1; 
stroke-linecap:round; stroke-linejoin:round;">
</g>
<g style="fill:#000000; fill-opacity:0.0; 
stroke:#000000; stroke-width:60; stroke-opacity:1; 
stroke-linecap:round; stroke-linejoin:round;">
<path d="M4210 13860
L4450 13860
" />
<path d="M4160 14010
L4330 13500
L4500 14010
" />
</g>
<g style="fill:#000000; fill-opacity:0.0; 
stroke:#000000; stroke-width:100; stroke-opacity:1; 
stroke-linecap:round; stroke-linejoin:round;">
</g>
<g style="fill:#000000; fill-opacity:0.0; 
stroke:#000000; stroke-width:60; stroke-opacity:1; 
stroke-linecap:round; stroke-linejoin:round;">
<path d="M4370 33420
L4440 33440
L4470 33470
L4490 33520
L4490 33590
L4470 33640
L4440 33660
L4400 33690
L4200 33690
L4200 33180
L4370 33180
L4420 33200
L4440 33220
L4470 33270
L4470 33320
L4440 33370
L4420 33390
L4370 33420
L4200 33420
" />
</g>
<g style="fill:#000000; fill-opacity:0.0; 
stroke:#000000; stroke-width:100; stroke-opacity:1; 
stroke-linecap:round; stroke-linejoin:round;">
</g>
<g style="fill:#000000; fill-opacity:0.0; 
stroke:#000000; stroke-width:60; stroke-opacity:1; 
stroke-linecap:round; stroke-linejoin:round;">
<path d="M4490 53330
L4470 53350
L4400 53380
L4350 53380
L4270 53350
L4230 53300
L4200 53250
L4180 53160
L4180 53080
L4200 52990
L4230 52940
L4270 52890
L4350 52870
L4400 52870
L4470 52890
L4490 52910
" />
</g>
<g style="fill:#000000; fill-opacity:0.0; 
stroke:#000000; stroke-width:100; stroke-opacity:1; 
stroke-linecap:round; stroke-linejoin:round;">
</g>
<g style="fill:#000000; fill-opacity:0.0; 
stroke:#000000; stroke-width:60; stroke-opacity:1; 
stroke-linecap:round; stroke-linejoin:round;">
<path d="M4200 73060
L4200 72550
L4320 72550
L4400 72570
L4440 72620
L4470 72670
L4490 72760
L4490 72840
L4470 72930
L4440 72980
L4400 73030
L4320 73060
L4200 73060
" />
</g>
<g style="fill:#000000; fill-opacity:0.0; 
stroke:#000000; stroke-width:100; stroke-opacity:1; 
stroke-linecap:round; stroke-linejoin:round;">
</g>
<g style="fill:#000000; fill-opacity:0.0; 
stroke:#000000; stroke-width:60; stroke-opacity:1; 
stroke-linecap:round; stroke-linejoin:round;">
<path d="M106060 23620
L105280 23620
" />
</g>
<g style="fill:#000000; fill-opacity:0.0; 
stroke:#000000; stroke-width:100; stroke-opacity:1; 
stroke-linecap:round; stroke-linejoin:round;">
</g>
<g style="fill:#000000; fill-opacity:0.0; 
stroke:#000000; stroke-width:60; stroke-opacity:1; 
stroke-linecap:round; stroke-linejoin:round;">
<path d="M106060 43310
L105280 43310
" />
</g>
<g style="fill:#000000; fill-opacity:0.0; 
stroke:#000000; stroke-width:100; stroke-opacity:1; 
stroke-linecap:round; stroke-linejoin:round;">
</g>
<g style="fill:#000000; fill-opacity:0.0; 
stroke:#000000; stroke-width:60; stroke-opacity:1; 
stroke-linecap:round; stroke-linejoin:round;">
<path d="M106060 62990
L105280 62990
" />
</g>
<g style="fill:#000000; fill-opacity:0.0; 
stroke:#000000; stroke-width:100; stroke-opacity:1; 
stroke-linecap:round; stroke-linejoin:round;">
</g>
<g style="fill:#000000; fill-opacity:0.0; 
stroke:#000000; stroke-width:60; stroke-opacity:1; 
stroke-linecap:round; stroke-linejoin:round;">
<path d="M105550 13860
L105790 13860
" />
<path d="M105500 14010
L105670 13500
L105840 14010
" />
</g>
<g style="fill:#000000; fill-opacity:0.0; 
stroke:#000000; stroke-width:100; stroke-opacity:1; 
stroke-linecap:round; stroke-linejoin:round;">
</g>
<g style="fill:#000000; fill-opacity:0.0; 
stroke:#000000; stroke-width:60; stroke-opacity:1; 
stroke-linecap:round; stroke-linejoin:round;">
<path d="M105710 33420
L105780 33440
L105810 33470
L105830 33520
L105830 33590
L105810 33640
L105780 33660
L105740 33690
L105540 33690
L105540 33180
L105710 33180
L105760 33200
L105780 33220
L105810 33270
L105810 33320
L105780 33370
L105760 33390
L105710 33420
L105540 33420
" />
</g>
<g style="fill:#000000; fill-opacity:0.0; 
stroke:#000000; stroke-width:100; stroke-opacity:1; 
stroke-linecap:round; stroke-linejoin:round;">
</g>
<g style="fill:#000000; fill-opacity:0.0; 
stroke:#000000; stroke-width:60; stroke-opacity:1; 
stroke-linecap:round; stroke-linejoin:round;">
<path d="M105830 53330
L105810 53350
L105740 53380
L105690 53380
L105610 53350
L105570 53300
L105540 53250
L105520 53160
L105520 53080
L105540 52990
L105570 52940
L105610 52890
L105690 52870
L105740 52870
L105810 52890
L105830 52910
" />
</g>
<g style="fill:#000000; fill-opacity:0.0; 
stroke:#000000; stroke-width:100; stroke-opacity:1; 
stroke-linecap:round; stroke-linejoin:round;">
</g>
<g style="fill:#000000; fill-opacity:0.0; 
stroke:#000000; stroke-width:60; stroke-opacity:1; 
stroke-linecap:round; stroke-linejoin:round;">
<path d="M105540 73060
L105540 72550
L105660 72550
L105740 72570
L105780 72620
L105810 72670
L105830 72760
L105830 72840
L105810 72930
L105780 72980
L105740 73030
L105660 73060
L105540 73060
" />
</g>
<g style="fill:#000000; fill-opacity:0.0; 
stroke:#000000; stroke-width:100; stroke-opacity:1; 
stroke-linecap:round; stroke-linejoin:round;">
</g>
<g style="fill:#000000; fill-opacity:0.0; 
stroke:#000000; stroke-width:60; stroke-opacity:1; 
stroke-linecap:round; stroke-linejoin:round;">
<path d="M71950 78610
L71950 78020
L72090 78020
L72180 78050
L72230 78110
L72260 78160
L72290 78270
L72290 78360
L72260 78470
L72230 78530
L72180 78580
L72090 78610
L71950 78610
" />
<path d="M72790 78610
L72790 78300
L72770 78250
L72710 78220
L72600 78220
L72540 78250
" />
<path d="M72790 78580
L72740 78610
L72600 78610
L72540 78580
L72510 78530
L72510 78470
L72540 78420
L72600 78390
L72740 78390
L72790 78360
" />
<path d="M72990 78220
L73210 78220
" />
<path d="M73070 78020
L73070 78530
L73100 78580
L73150 78610
L73210 78610
" />
<path d="M73640 78580
L73580 78610
L73470 78610
L73410 78580
L73380 78530
L73380 78300
L73410 78250
L73470 78220
L73580 78220
L73640 78250
L73660 78300
L73660 78360
L73380 78420
" />
<path d="M73920 78560
L73950 78580
L73920 78610
L73890 78580
L73920 78560
L73920 78610
" />
<path d="M73920 78250
L73950 78270
L73920 78300
L73890 78270
L73920 78250
L73920 78300
" />
<path d="M74650 78610
L74650 78020
L74850 78440
L75040 78020
L75040 78610
" />
<path d="M75400 78610
L75350 78580
L75320 78560
L75290 78500
L75290 78330
L75320 78270
L75350 78250
L75400 78220
L75490 78220
L75550 78250
L75570 78270
L75600 78330
L75600 78500
L75570 78560
L75550 78580
L75490 78610
L75400 78610
" />
<path d="M75850 78220
L75850 78610
" />
<path d="M75850 78270
L75880 78250
L75930 78220
L76020 78220
L76080 78250
L76100 78300
L76100 78610
" />
<path d="M76800 78080
L76830 78050
L76890 78020
L77030 78020
L77080 78050
L77110 78080
L77140 78130
L77140 78190
L77110 78270
L76770 78610
L77140 78610
" />
<path d="M77500 78020
L77560 78020
L77620 78050
L77640 78080
L77670 78130
L77700 78250
L77700 78390
L77670 78500
L77640 78560
L77620 78580
L77560 78610
L77500 78610
L77450 78580
L77420 78560
L77390 78500
L77360 78390
L77360 78250
L77390 78130
L77420 78080
L77450 78050
L77500 78020
" />
<path d="M78370 78440
L78650 78440
" />
<path d="M78320 78610
L78510 78020
L78710 78610
" />
<path d="M78910 78220
L78910 78810
" />
<path d="M78910 78250
L78970 78220
L79080 78220
L79140 78250
L79160 78270
L79190 78330
L79190 78500
L79160 78560
L79140 78580
L79080 78610
L78970 78610
L78910 78580
" />
<path d="M79440 78610
L79440 78220
" />
<path d="M79440 78330
L79470 78270
L79500 78250
L79550 78220
L79610 78220
" />
<path d="M80230 78080
L80260 78050
L80320 78020
L80460 78020
L80510 78050
L80540 78080
L80570 78130
L80570 78190
L80540 78270
L80200 78610
L80570 78610
" />
<path d="M80930 78020
L80990 78020
L81050 78050
L81070 78080
L81100 78130
L81130 78250
L81130 78390
L81100 78500
L81070 78560
L81050 78580
L80990 78610
L80930 78610
L80880 78580
L80850 78560
L80820 78500
L80790 78390
L80790 78250
L80820 78130
L80850 78080
L80880 78050
L80930 78020
" />
<path d="M81690 78610
L81350 78610
" />
<path d="M81520 78610
L81520 78020
L81460 78110
L81410 78160
L81350 78190
" />
<path d="M82220 78020
L81940 78020
L81910 78300
L81940 78270
L82000 78250
L82140 78250
L82190 78270
L82220 78300
L82250 78360
L82250 78500
L82220 78560
L82190 78580
L82140 78610
L82000 78610
L81940 78580
L81910 78560
" />
</g>
<g style="fill:#000000; fill-opacity:0.0; 
stroke:#000000; stroke-width:100; stroke-opacity:1; 
stroke-linecap:round; stroke-linejoin:round;">
</g>
<g style="fill:#000000; fill-opacity:0.0; 
stroke:#000000; stroke-width:60; stroke-opacity:1; 
stroke-linecap:round; stroke-linejoin:round;">
<path d="M62760 78900
L105280 78900
" />
</g>
<g style="fill:#000000; fill-opacity:0.0; 
stroke:#000000; stroke-width:100; stroke-opacity:1; 
stroke-linecap:round; stroke-linejoin:round;">
</g>
<g style="fill:#000000; fill-opacity:0.0; 
stroke:#000000; stroke-width:60; stroke-opacity:1; 
stroke-linecap:round; stroke-linejoin:round;">
<path d="M63290 79710
L63290 79120
" />
<path d="M63630 79710
L63370 79370
" />
<path d="M63630 79120
L63290 79460
" />
<path d="M63880 79710
L63880 79320
" />
<path d="M63880 79120
L63850 79150
L63880 79180
L63910 79150
L63880 79120
L63880 79180
" />
<path d="M64500 79660
L64470 79680
L64390 79710
L64330 79710
L64240 79680
L64190 79630
L64160 79570
L64130 79460
L64130 79370
L64160 79260
L64190 79210
L64240 79150
L64330 79120
L64390 79120
L64470 79150
L64500 79180
" />
<path d="M65000 79710
L65000 79400
L64980 79350
L64920 79320
L64810 79320
L64750 79350
" />
<path d="M65000 79680
L64950 79710
L64810 79710
L64750 79680
L64720 79630
L64720 79570
L64750 79520
L64810 79490
L64950 79490
L65000 79460
" />
<path d="M65530 79710
L65530 79120
" />
<path d="M65530 79680
L65480 79710
L65360 79710
L65310 79680
L65280 79660
L65250 79600
L65250 79430
L65280 79370
L65310 79350
L65360 79320
L65480 79320
L65530 79350
" />
<path d="M66260 79400
L66460 79400
" />
<path d="M66540 79710
L66260 79710
L66260 79120
L66540 79120
" />
<path d="M66790 79660
L66820 79680
L66790 79710
L66760 79680
L66790 79660
L66790 79710
" />
<path d="M67070 79710
L67070 79120
L67210 79120
L67300 79150
L67350 79210
L67380 79260
L67410 79370
L67410 79460
L67380 79570
L67350 79630
L67300 79680
L67210 79710
L67070 79710
" />
<path d="M67660 79660
L67690 79680
L67660 79710
L67630 79680
L67660 79660
L67660 79710
" />
<path d="M67910 79540
L68190 79540
" />
<path d="M67860 79710
L68050 79120
L68250 79710
" />
<path d="M68450 79660
L68480 79680
L68450 79710
L68420 79680
L68450 79660
L68450 79710
" />
<path d="M69630 79710
L69630 79120
" />
<path d="M69690 79490
L69860 79710
" />
<path d="M69860 79320
L69630 79540
" />
<path d="M70110 79710
L70110 79320
" />
<path d="M70110 79120
L70080 79150
L70110 79180
L70140 79150
L70110 79120
L70110 79180
" />
<path d="M70640 79680
L70590 79710
L70470 79710
L70420 79680
L70390 79660
L70360 79600
L70360 79430
L70390 79370
L70420 79350
L70470 79320
L70590 79320
L70640 79350
" />
<path d="M71150 79710
L71150 79400
L71130 79350
L71070 79320
L70960 79320
L70900 79350
" />
<path d="M71150 79680
L71100 79710
L70960 79710
L70900 79680
L70870 79630
L70870 79570
L70900 79520
L70960 79490
L71100 79490
L71150 79460
" />
<path d="M71680 79710
L71680 79120
" />
<path d="M71680 79680
L71630 79710
L71510 79710
L71460 79680
L71430 79660
L71400 79600
L71400 79430
L71430 79370
L71460 79350
L71510 79320
L71630 79320
L71680 79350
" />
<path d="M72520 79120
L72580 79120
L72640 79150
L72660 79180
L72690 79230
L72720 79350
L72720 79490
L72690 79600
L72660 79660
L72640 79680
L72580 79710
L72520 79710
L72470 79680
L72440 79660
L72410 79600
L72380 79490
L72380 79350
L72410 79230
L72440 79180
L72470 79150
L72520 79120
" />
<path d="M72970 79660
L73000 79680
L72970 79710
L72940 79680
L72970 79660
L72970 79710
" />
<path d="M73220 79180
L73250 79150
L73310 79120
L73450 79120
L73500 79150
L73530 79180
L73560 79230
L73560 79290
L73530 79370
L73190 79710
L73560 79710
" />
<path d="M73920 79120
L73980 79120
L74040 79150
L74060 79180
L74090 79230
L74120 79350
L74120 79490
L74090 79600
L74060 79660
L74040 79680
L73980 79710
L73920 79710
L73870 79680
L73840 79660
L73810 79600
L73780 79490
L73780 79350
L73810 79230
L73840 79180
L73870 79150
L73920 79120
" />
<path d="M74680 79710
L74340 79710
" />
<path d="M74510 79710
L74510 79120
L74450 79210
L74400 79260
L74340 79290
" />
<path d="M75210 79120
L74930 79120
L74900 79400
L74930 79370
L74990 79350
L75130 79350
L75180 79370
L75210 79400
L75240 79460
L75240 79600
L75210 79660
L75180 79680
L75130 79710
L74990 79710
L74930 79680
L74900 79660
" />
<path d="M75600 79120
L75660 79120
L75720 79150
L75740 79180
L75770 79230
L75800 79350
L75800 79490
L75770 79600
L75740 79660
L75720 79680
L75660 79710
L75600 79710
L75550 79680
L75520 79660
L75490 79600
L75460 79490
L75460 79350
L75490 79230
L75520 79180
L75550 79150
L75600 79120
" />
<path d="M76360 79710
L76020 79710
" />
<path d="M76190 79710
L76190 79120
L76130 79210
L76080 79260
L76020 79290
" />
<path d="M76920 79710
L76580 79710
" />
<path d="M76750 79710
L76750 79120
L76690 79210
L76640 79260
L76580 79290
" />
<path d="M77110 79120
L77510 79120
L77250 79710
" />
<path d="M77700 79180
L77730 79150
L77790 79120
L77930 79120
L77980 79150
L78010 79180
L78040 79230
L78040 79290
L78010 79370
L77670 79710
L78040 79710
" />
<path d="M78400 79120
L78460 79120
L78520 79150
L78540 79180
L78570 79230
L78600 79350
L78600 79490
L78570 79600
L78540 79660
L78520 79680
L78460 79710
L78400 79710
L78350 79680
L78320 79660
L78290 79600
L78260 79490
L78260 79350
L78290 79230
L78320 79180
L78350 79150
L78400 79120
" />
<path d="M79160 79710
L78820 79710
" />
<path d="M78990 79710
L78990 79120
L78930 79210
L78880 79260
L78820 79290
" />
<path d="M79660 79120
L79550 79120
L79490 79150
L79470 79180
L79410 79260
L79380 79370
L79380 79600
L79410 79660
L79440 79680
L79490 79710
L79610 79710
L79660 79680
L79690 79660
L79720 79600
L79720 79460
L79690 79400
L79660 79370
L79610 79350
L79490 79350
L79440 79370
L79410 79400
L79380 79460
" />
<path d="M79970 79490
L80420 79490
" />
<path d="M80200 79710
L80200 79260
" />
<path d="M80980 79120
L80700 79120
L80670 79400
L80700 79370
L80760 79350
L80900 79350
L80950 79370
L80980 79400
L81010 79460
L81010 79600
L80980 79660
L80950 79680
L80900 79710
L80760 79710
L80700 79680
L80670 79660
" />
<path d="M81200 79120
L81570 79120
L81370 79350
L81460 79350
L81510 79370
L81540 79400
L81570 79460
L81570 79600
L81540 79660
L81510 79680
L81460 79710
L81290 79710
L81230 79680
L81200 79660
" />
<path d="M81760 79120
L82160 79120
L81900 79710
" />
<path d="M82320 79120
L82720 79120
L82460 79710
" />
<path d="M82910 79180
L82940 79150
L83000 79120
L83140 79120
L83190 79150
L83220 79180
L83250 79230
L83250 79290
L83220 79370
L82880 79710
L83250 79710
" />
<path d="M83610 79120
L83670 79120
L83730 79150
L83750 79180
L83780 79230
L83810 79350
L83810 79490
L83780 79600
L83750 79660
L83730 79680
L83670 79710
L83610 79710
L83560 79680
L83530 79660
L83500 79600
L83470 79490
L83470 79350
L83500 79230
L83530 79180
L83560 79150
L83610 79120
" />
<path d="M82800 79020
L83920 79020
" />
<path d="M84310 79320
L84310 79710
" />
<path d="M84060 79320
L84060 79630
L84090 79680
L84140 79710
L84230 79710
L84290 79680
L84310 79660
" />
<path d="M84590 79710
L84590 79120
" />
<path d="M84590 79350
L84650 79320
L84760 79320
L84820 79350
L84840 79370
L84870 79430
L84870 79600
L84840 79660
L84820 79680
L84760 79710
L84650 79710
L84590 79680
" />
<path d="M85370 79320
L85370 79710
" />
<path d="M85120 79320
L85120 79630
L85150 79680
L85200 79710
L85290 79710
L85350 79680
L85370 79660
" />
<path d="M85650 79320
L85650 79710
" />
<path d="M85650 79370
L85680 79350
L85730 79320
L85820 79320
L85880 79350
L85900 79400
L85900 79710
" />
<path d="M86100 79320
L86320 79320
" />
<path d="M86180 79120
L86180 79630
L86210 79680
L86260 79710
L86320 79710
" />
<path d="M86770 79320
L86770 79710
" />
<path d="M86520 79320
L86520 79630
L86550 79680
L86600 79710
L86690 79710
L86750 79680
L86770 79660
" />
<path d="M87360 79710
L87020 79710
" />
<path d="M87190 79710
L87190 79120
L87130 79210
L87080 79260
L87020 79290
" />
<path d="M87860 79320
L87860 79710
" />
<path d="M87720 79090
L87580 79520
L87950 79520
" />
<path d="M88170 79660
L88200 79680
L88170 79710
L88140 79680
L88170 79660
L88170 79710
" />
<path d="M88560 79120
L88620 79120
L88680 79150
L88700 79180
L88730 79230
L88760 79350
L88760 79490
L88730 79600
L88700 79660
L88680 79680
L88620 79710
L88560 79710
L88510 79680
L88480 79660
L88450 79600
L88420 79490
L88420 79350
L88450 79230
L88480 79180
L88510 79150
L88560 79120
" />
<path d="M89260 79320
L89260 79710
" />
<path d="M89120 79090
L88980 79520
L89350 79520
" />
<path d="M89570 79660
L89600 79680
L89570 79710
L89540 79680
L89570 79660
L89570 79710
" />
<path d="M90160 79710
L89820 79710
" />
<path d="M89990 79710
L89990 79120
L89930 79210
L89880 79260
L89820 79290
" />
<path d="M90410 79490
L90860 79490
" />
<path d="M91140 79320
L91140 79910
" />
<path d="M91140 79350
L91200 79320
L91310 79320
L91370 79350
L91390 79370
L91420 79430
L91420 79600
L91390 79660
L91370 79680
L91310 79710
L91200 79710
L91140 79680
" />
<path d="M91670 79710
L91670 79320
" />
<path d="M91670 79430
L91700 79370
L91730 79350
L91780 79320
L91840 79320
" />
<path d="M92120 79710
L92070 79680
L92040 79660
L92010 79600
L92010 79430
L92040 79370
L92070 79350
L92120 79320
L92210 79320
L92270 79350
L92290 79370
L92320 79430
L92320 79600
L92290 79660
L92270 79680
L92210 79710
L92120 79710
" />
<path d="M92820 79710
L92820 79120
" />
<path d="M92820 79680
L92770 79710
L92650 79710
L92600 79680
L92570 79660
L92540 79600
L92540 79430
L92570 79370
L92600 79350
L92650 79320
L92770 79320
L92820 79350
" />
<path d="M93350 79320
L93350 79710
" />
<path d="M93100 79320
L93100 79630
L93130 79680
L93180 79710
L93270 79710
L93330 79680
L93350 79660
" />
<path d="M93880 79680
L93830 79710
L93710 79710
L93660 79680
L93630 79660
L93600 79600
L93600 79430
L93630 79370
L93660 79350
L93710 79320
L93830 79320
L93880 79350
" />
<path d="M94060 79320
L94280 79320
" />
<path d="M94140 79120
L94140 79630
L94170 79680
L94220 79710
L94280 79710
" />
</g>
<g style="fill:#000000; fill-opacity:0.0; 
stroke:#000000; stroke-width:100; stroke-opacity:1; 
stroke-linecap:round; stroke-linejoin:round;">
</g>
<g style="fill:#000000; fill-opacity:0.0; 
stroke:#000000; stroke-width:60; stroke-opacity:1; 
stroke-linecap:round; stroke-linejoin:round;">
<path d="M62760 77720
L105280 77720
" />
</g>
<g style="fill:#000000; fill-opacity:0.0; 
stroke:#000000; stroke-width:100; stroke-opacity:1; 
stroke-linecap:round; stroke-linejoin:round;">
</g>
<g style="fill:#000000; fill-opacity:0.0; 
stroke:#000000; stroke-width:120; stroke-opacity:1; 
stroke-linecap:round; stroke-linejoin:round;">
<path d="M97090 78610
L96890 78330
" />
<path d="M96750 78610
L96750 78020
L96980 78020
L97030 78050
L97060 78080
L97090 78130
L97090 78220
L97060 78270
L97030 78300
L96980 78330
L96750 78330
" />
<path d="M97570 78580
L97510 78610
L97400 78610
L97340 78580
L97310 78530
L97310 78300
L97340 78250
L97400 78220
L97510 78220
L97570 78250
L97590 78300
L97590 78360
L97310 78420
" />
<path d="M97790 78220
L97930 78610
L98080 78220
" />
<path d="M98300 78560
L98330 78580
L98300 78610
L98270 78580
L98300 78560
L98300 78610
" />
<path d="M98300 78250
L98330 78270
L98300 78300
L98270 78270
L98300 78250
L98300 78300
" />
<path d="M99000 78440
L99280 78440
" />
<path d="M98950 78610
L99140 78020
L99340 78610
" />
</g>
<g style="fill:#000000; fill-opacity:0.0; 
stroke:#000000; stroke-width:100; stroke-opacity:1; 
stroke-linecap:round; stroke-linejoin:round;">
</g>
<g style="fill:#000000; fill-opacity:0.0; 
stroke:#000000; stroke-width:60; stroke-opacity:1; 
stroke-linecap:round; stroke-linejoin:round;">
<path d="M63260 78580
L63350 78610
L63490 78610
L63540 78580
L63570 78560
L63600 78500
L63600 78440
L63570 78390
L63540 78360
L63490 78330
L63370 78300
L63320 78270
L63290 78250
L63260 78190
L63260 78130
L63290 78080
L63320 78050
L63370 78020
L63520 78020
L63600 78050
" />
<path d="M63850 78610
L63850 78220
" />
<path d="M63850 78020
L63820 78050
L63850 78080
L63880 78050
L63850 78020
L63850 78080
" />
<path d="M64070 78220
L64380 78220
L64070 78610
L64380 78610
" />
<path d="M64840 78580
L64780 78610
L64670 78610
L64610 78580
L64580 78530
L64580 78300
L64610 78250
L64670 78220
L64780 78220
L64840 78250
L64860 78300
L64860 78360
L64580 78420
" />
<path d="M65120 78560
L65150 78580
L65120 78610
L65090 78580
L65120 78560
L65120 78610
" />
<path d="M65120 78250
L65150 78270
L65120 78300
L65090 78270
L65120 78250
L65120 78300
" />
<path d="M65850 78020
L65850 78500
L65880 78560
L65910 78580
L65960 78610
L66080 78610
L66130 78580
L66160 78560
L66190 78500
L66190 78020
" />
<path d="M66440 78580
L66530 78610
L66670 78610
L66720 78580
L66750 78560
L66780 78500
L66780 78440
L66750 78390
L66720 78360
L66670 78330
L66550 78300
L66500 78270
L66470 78250
L66440 78190
L66440 78130
L66470 78080
L66500 78050
L66550 78020
L66700 78020
L66780 78050
" />
<path d="M67310 78610
L67030 78610
L67030 78020
" />
<path d="M67740 78580
L67680 78610
L67570 78610
L67510 78580
L67480 78530
L67480 78300
L67510 78250
L67570 78220
L67680 78220
L67740 78250
L67760 78300
L67760 78360
L67480 78420
" />
<path d="M67940 78220
L68160 78220
" />
<path d="M68020 78020
L68020 78530
L68050 78580
L68100 78610
L68160 78610
" />
<path d="M68280 78220
L68500 78220
" />
<path d="M68360 78020
L68360 78530
L68390 78580
L68440 78610
L68500 78610
" />
<path d="M68930 78580
L68870 78610
L68760 78610
L68700 78580
L68670 78530
L68670 78300
L68700 78250
L68760 78220
L68870 78220
L68930 78250
L68950 78300
L68950 78360
L68670 78420
" />
<path d="M69210 78610
L69210 78220
" />
<path d="M69210 78330
L69240 78270
L69270 78250
L69320 78220
L69380 78220
" />
</g>
<g style="fill:#000000; fill-opacity:0.0; 
stroke:#000000; stroke-width:100; stroke-opacity:1; 
stroke-linecap:round; stroke-linejoin:round;">
</g>
<g style="fill:#000000; fill-opacity:0.0; 
stroke:#000000; stroke-width:60; stroke-opacity:1; 
stroke-linecap:round; stroke-linejoin:round;">
<path d="M96750 79710
L96750 79120
" />
<path d="M97280 79710
L97280 79120
" />
<path d="M97280 79680
L97230 79710
L97110 79710
L97060 79680
L97030 79660
L97000 79600
L97000 79430
L97030 79370
L97060 79350
L97110 79320
L97230 79320
L97280 79350
" />
<path d="M97560 79660
L97590 79680
L97560 79710
L97530 79680
L97560 79660
L97560 79710
" />
<path d="M97560 79350
L97590 79370
L97560 79400
L97530 79370
L97560 79350
L97560 79400
" />
<path d="M98600 79710
L98260 79710
" />
<path d="M98430 79710
L98430 79120
L98370 79210
L98320 79260
L98260 79290
" />
<path d="M99270 79090
L98770 79850
" />
<path d="M99780 79710
L99440 79710
" />
<path d="M99610 79710
L99610 79120
L99550 79210
L99500 79260
L99440 79290
" />
</g>
<g style="fill:#000000; fill-opacity:0.0; 
stroke:#000000; stroke-width:100; stroke-opacity:1; 
stroke-linecap:round; stroke-linejoin:round;">
</g>
<g style="fill:#000000; fill-opacity:0.0; 
stroke:#000000; stroke-width:60; stroke-opacity:1; 
stroke-linecap:round; stroke-linejoin:round;">
<path d="M62760 76140
L105280 76140
" />
</g>
<g style="fill:#000000; fill-opacity:0.0; 
stroke:#000000; stroke-width:100; stroke-opacity:1; 
stroke-linecap:round; stroke-linejoin:round;">
</g>
<g style="fill:#000000; fill-opacity:0.0; 
stroke:#000000; stroke-width:160; stroke-opacity:1; 
stroke-linecap:round; stroke-linejoin:round;">
<path d="M63330 76410
L63780 76410
" />
<path d="M63460 77200
L63550 76410
" />
<path d="M63950 77200
L64010 76680
" />
<path d="M64040 76410
L64000 76450
L64030 76490
L64080 76450
L64040 76410
L64030 76490
" />
<path d="M64280 76680
L64580 76680
" />
<path d="M64420 76410
L64340 77090
L64370 77160
L64440 77200
L64520 77200
" />
<path d="M64890 77200
L64820 77160
L64790 77090
L64870 76410
" />
<path d="M65490 77160
L65410 77200
L65260 77200
L65190 77160
L65160 77090
L65200 76790
L65250 76710
L65320 76680
L65470 76680
L65550 76710
L65580 76790
L65570 76860
L65180 76940
" />
<path d="M65870 77130
L65910 77160
L65870 77200
L65830 77160
L65870 77130
L65870 77200
" />
<path d="M65930 76710
L65960 76750
L65920 76790
L65880 76750
L65930 76710
L65920 76790
" />
<path d="M67220 77200
L66850 77200
L66940 76410
" />
<path d="M67600 77200
L67530 77160
L67490 77130
L67460 77050
L67490 76830
L67540 76750
L67590 76710
L67660 76680
L67770 76680
L67850 76710
L67880 76750
L67900 76830
L67870 77050
L67830 77130
L67790 77160
L67710 77200
L67600 77200
" />
<path d="M68180 76680
L68270 77200
L68460 76830
L68570 77200
L68780 76680
" />
<path d="M69630 77200
L69720 76410
L70020 76410
L70090 76450
L70120 76490
L70160 76560
L70140 76680
L70090 76750
L70050 76790
L69970 76830
L69670 76830
" />
<path d="M70760 77200
L70810 76790
L70780 76710
L70700 76680
L70550 76680
L70480 76710
" />
<path d="M70760 77160
L70680 77200
L70490 77200
L70420 77160
L70390 77090
L70400 77010
L70450 76940
L70520 76900
L70710 76900
L70800 76860
" />
<path d="M71090 77160
L71170 77200
L71320 77200
L71390 77160
L71440 77090
L71440 77050
L71410 76980
L71350 76940
L71230 76940
L71160 76900
L71130 76830
L71140 76790
L71190 76710
L71260 76680
L71380 76680
L71450 76710
" />
<path d="M71730 77160
L71810 77200
L71960 77200
L72030 77160
L72080 77090
L72080 77050
L72050 76980
L71990 76940
L71870 76940
L71800 76900
L71770 76830
L71780 76790
L71830 76710
L71900 76680
L72020 76680
L72090 76710
" />
<path d="M73320 76790
L73060 76790
" />
<path d="M73010 77200
L73100 76410
L73470 76410
" />
<path d="M73690 77200
L73750 76680
" />
<path d="M73780 76410
L73740 76450
L73770 76490
L73820 76450
L73780 76410
L73770 76490
" />
<path d="M74180 77200
L74110 77160
L74080 77090
L74160 76410
" />
<path d="M74430 76680
L74730 76680
" />
<path d="M74570 76410
L74490 77090
L74520 77160
L74590 77200
L74670 77200
" />
<path d="M75230 77160
L75150 77200
L75000 77200
L74930 77160
L74900 77090
L74940 76790
L74990 76710
L75060 76680
L75210 76680
L75290 76710
L75320 76790
L75310 76860
L74920 76940
" />
<path d="M75610 77200
L75670 76680
" />
<path d="M75650 76830
L75700 76750
L75740 76710
L75820 76680
L75890 76680
" />
<path d="M76700 77200
L76790 76410
L76980 76980
L77310 76410
L77220 77200
" />
<path d="M77710 77200
L77640 77160
L77600 77130
L77570 77050
L77600 76830
L77650 76750
L77700 76710
L77770 76680
L77880 76680
L77960 76710
L77990 76750
L78010 76830
L77980 77050
L77940 77130
L77900 77160
L77820 77200
L77710 77200
" />
<path d="M78650 77200
L78740 76410
" />
<path d="M78650 77160
L78570 77200
L78420 77200
L78350 77160
L78310 77130
L78280 77050
L78310 76830
L78360 76750
L78410 76710
L78480 76680
L78630 76680
L78710 76710
" />
<path d="M79420 76680
L79360 77200
" />
<path d="M79080 76680
L79030 77090
L79060 77160
L79130 77200
L79240 77200
L79320 77160
L79360 77130
" />
<path d="M79840 77200
L79770 77160
L79740 77090
L79820 76410
" />
<path d="M80440 77160
L80360 77200
L80210 77200
L80140 77160
L80110 77090
L80150 76790
L80200 76710
L80270 76680
L80420 76680
L80500 76710
L80530 76790
L80520 76860
L80130 76940
" />
</g>
<g style="fill:#000000; fill-opacity:0.0; 
stroke:#000000; stroke-width:100; stroke-opacity:1; 
stroke-linecap:round; stroke-linejoin:round;">
</g>
<g style="fill:#000000; fill-opacity:0.0; 
stroke:#000000; stroke-width:60; stroke-opacity:1; 
stroke-linecap:round; stroke-linejoin:round;">
<path d="M63490 75380
L63290 75380
" />
<path d="M63290 75690
L63290 75100
L63570 75100
" />
<path d="M63800 75690
L63800 75300
" />
<path d="M63800 75100
L63770 75130
L63800 75160
L63830 75130
L63800 75100
L63800 75160
" />
<path d="M64160 75690
L64110 75660
L64080 75610
L64080 75100
" />
<path d="M64620 75660
L64560 75690
L64450 75690
L64390 75660
L64360 75610
L64360 75380
L64390 75330
L64450 75300
L64560 75300
L64620 75330
L64640 75380
L64640 75440
L64360 75500
" />
<path d="M64900 75640
L64930 75660
L64900 75690
L64870 75660
L64900 75640
L64900 75690
" />
<path d="M64900 75330
L64930 75350
L64900 75380
L64870 75350
L64900 75330
L64900 75380
" />
<path d="M65910 75690
L65630 75690
L65630 75100
" />
<path d="M66190 75690
L66140 75660
L66110 75640
L66080 75580
L66080 75410
L66110 75350
L66140 75330
L66190 75300
L66280 75300
L66340 75330
L66360 75350
L66390 75410
L66390 75580
L66360 75640
L66340 75660
L66280 75690
L66190 75690
" />
<path d="M66580 75300
L66700 75690
L66810 75410
L66920 75690
L67030 75300
" />
<path d="M67260 75690
L67260 75100
L67490 75100
L67540 75130
L67570 75160
L67600 75210
L67600 75300
L67570 75350
L67540 75380
L67490 75410
L67260 75410
" />
<path d="M68100 75690
L68100 75380
L68080 75330
L68020 75300
L67910 75300
L67850 75330
" />
<path d="M68100 75660
L68050 75690
L67910 75690
L67850 75660
L67820 75610
L67820 75550
L67850 75500
L67910 75470
L68050 75470
L68100 75440
" />
<path d="M68350 75660
L68410 75690
L68520 75690
L68580 75660
L68610 75610
L68610 75580
L68580 75520
L68520 75500
L68440 75500
L68380 75470
L68350 75410
L68350 75380
L68380 75330
L68440 75300
L68520 75300
L68580 75330
" />
<path d="M68830 75660
L68890 75690
L69000 75690
L69060 75660
L69090 75610
L69090 75580
L69060 75520
L69000 75500
L68920 75500
L68860 75470
L68830 75410
L68830 75380
L68860 75330
L68920 75300
L69000 75300
L69060 75330
" />
<path d="M69540 75380
L69340 75380
" />
<path d="M69340 75690
L69340 75100
L69620 75100
" />
<path d="M69850 75690
L69850 75300
" />
<path d="M69850 75100
L69820 75130
L69850 75160
L69880 75130
L69850 75100
L69850 75160
" />
<path d="M70210 75690
L70160 75660
L70130 75610
L70130 75100
" />
<path d="M70360 75300
L70580 75300
" />
<path d="M70440 75100
L70440 75610
L70470 75660
L70520 75690
L70580 75690
" />
<path d="M71010 75660
L70950 75690
L70840 75690
L70780 75660
L70750 75610
L70750 75380
L70780 75330
L70840 75300
L70950 75300
L71010 75330
L71030 75380
L71030 75440
L70750 75500
" />
<path d="M71290 75690
L71290 75300
" />
<path d="M71290 75410
L71320 75350
L71350 75330
L71400 75300
L71460 75300
" />
<path d="M71660 75690
L71660 75100
L71860 75520
L72050 75100
L72050 75690
" />
<path d="M72410 75690
L72360 75660
L72330 75640
L72300 75580
L72300 75410
L72330 75350
L72360 75330
L72410 75300
L72500 75300
L72560 75330
L72580 75350
L72610 75410
L72610 75580
L72580 75640
L72560 75660
L72500 75690
L72410 75690
" />
<path d="M73110 75690
L73110 75100
" />
<path d="M73110 75660
L73060 75690
L72940 75690
L72890 75660
L72860 75640
L72830 75580
L72830 75410
L72860 75350
L72890 75330
L72940 75300
L73060 75300
L73110 75330
" />
<path d="M73640 75300
L73640 75690
" />
<path d="M73390 75300
L73390 75610
L73420 75660
L73470 75690
L73560 75690
L73620 75660
L73640 75640
" />
<path d="M74000 75690
L73950 75660
L73920 75610
L73920 75100
" />
<path d="M74460 75660
L74400 75690
L74290 75690
L74230 75660
L74200 75610
L74200 75380
L74230 75330
L74290 75300
L74400 75300
L74460 75330
L74480 75380
L74480 75440
L74200 75500
" />
<path d="M74740 75640
L74770 75660
L74740 75690
L74710 75660
L74740 75640
L74740 75690
" />
<path d="M74990 75660
L75050 75690
L75160 75690
L75220 75660
L75250 75610
L75250 75580
L75220 75520
L75160 75500
L75080 75500
L75020 75470
L74990 75410
L74990 75380
L75020 75330
L75080 75300
L75160 75300
L75220 75330
" />
<path d="M75750 75660
L75700 75690
L75580 75690
L75530 75660
L75500 75640
L75470 75580
L75470 75410
L75500 75350
L75530 75330
L75580 75300
L75700 75300
L75750 75330
" />
<path d="M76010 75690
L76010 75100
" />
<path d="M76260 75690
L76260 75380
L76240 75330
L76180 75300
L76090 75300
L76040 75330
L76010 75350
" />
</g>
<g style="fill:#000000; fill-opacity:0.0; 
stroke:#000000; stroke-width:100; stroke-opacity:1; 
stroke-linecap:round; stroke-linejoin:round;">
</g>
<g style="fill:#000000; fill-opacity:0.0; 
stroke:#000000; stroke-width:60; stroke-opacity:1; 
stroke-linecap:round; stroke-linejoin:round;">
<path d="M62760 73780
L105280 73780
" />
</g>
<g style="fill:#000000; fill-opacity:0.0; 
stroke:#000000; stroke-width:100; stroke-opacity:1; 
stroke-linecap:round; stroke-linejoin:round;">
</g>
<g style="fill:#000000; fill-opacity:0.0; 
stroke:#000000; stroke-width:60; stroke-opacity:1; 
stroke-linecap:round; stroke-linejoin:round;">
<path d="M63260 74600
L63350 74630
L63490 74630
L63540 74600
L63570 74580
L63600 74520
L63600 74460
L63570 74410
L63540 74380
L63490 74350
L63370 74320
L63320 74290
L63290 74270
L63260 74210
L63260 74150
L63290 74100
L63320 74070
L63370 74040
L63520 74040
L63600 74070
" />
<path d="M63850 74630
L63850 74040
" />
<path d="M64100 74630
L64100 74320
L64080 74270
L64020 74240
L63930 74240
L63880 74270
L63850 74290
" />
<path d="M64610 74600
L64550 74630
L64440 74630
L64380 74600
L64350 74550
L64350 74320
L64380 74270
L64440 74240
L64550 74240
L64610 74270
L64630 74320
L64630 74380
L64350 74440
" />
<path d="M65120 74600
L65060 74630
L64950 74630
L64890 74600
L64860 74550
L64860 74320
L64890 74270
L64950 74240
L65060 74240
L65120 74270
L65140 74320
L65140 74380
L64860 74440
" />
<path d="M65320 74240
L65540 74240
" />
<path d="M65400 74040
L65400 74550
L65430 74600
L65480 74630
L65540 74630
" />
<path d="M65740 74580
L65770 74600
L65740 74630
L65710 74600
L65740 74580
L65740 74630
" />
<path d="M65740 74270
L65770 74290
L65740 74320
L65710 74290
L65740 74270
L65740 74320
" />
<path d="M66890 74010
L66390 74770
" />
</g>
<g style="fill:#000000; fill-opacity:0.0; 
stroke:#000000; stroke-width:100; stroke-opacity:1; 
stroke-linecap:round; stroke-linejoin:round;">
</g>
<g style="fill:#000000; fill-opacity:0.0; 
stroke:#000000; stroke-width:120; stroke-opacity:1; 
stroke-linecap:round; stroke-linejoin:round;">
<path d="M63290 73140
L63490 73140
" />
<path d="M63570 73450
L63290 73450
L63290 72860
L63570 72860
" />
<path d="M63740 73060
L63960 73060
" />
<path d="M63820 72860
L63820 73370
L63850 73420
L63900 73450
L63960 73450
" />
<path d="M64160 73450
L64160 72860
" />
<path d="M64410 73450
L64410 73140
L64390 73090
L64330 73060
L64240 73060
L64190 73090
L64160 73110
" />
<path d="M64920 73420
L64860 73450
L64750 73450
L64690 73420
L64660 73370
L64660 73140
L64690 73090
L64750 73060
L64860 73060
L64920 73090
L64940 73140
L64940 73200
L64660 73260
" />
<path d="M65200 73450
L65200 73060
" />
<path d="M65200 73170
L65230 73110
L65260 73090
L65310 73060
L65370 73060
" />
<path d="M65570 73450
L65570 72860
" />
<path d="M65630 73230
L65800 73450
" />
<path d="M65800 73060
L65570 73280
" />
<path d="M66050 73450
L66050 73060
" />
<path d="M66050 72860
L66020 72890
L66050 72920
L66080 72890
L66050 72860
L66050 72920
" />
<path d="M66250 73060
L66470 73060
" />
<path d="M66330 72860
L66330 73370
L66360 73420
L66410 73450
L66470 73450
" />
</g>
<g style="fill:#000000; fill-opacity:0.0; 
stroke:#000000; stroke-width:100; stroke-opacity:1; 
stroke-linecap:round; stroke-linejoin:round;">
</g>
<g style="fill:#000000; fill-opacity:0.0; 
stroke:#000000; stroke-width:60; stroke-opacity:1; 
stroke-linecap:round; stroke-linejoin:round;">
<path d="M70630 77720
L70630 78900
" />
</g>
<g style="fill:#000000; fill-opacity:0.0; 
stroke:#000000; stroke-width:100; stroke-opacity:1; 
stroke-linecap:round; stroke-linejoin:round;">
</g>
<g style="fill:#000000; fill-opacity:0.0; 
stroke:#000000; stroke-width:60; stroke-opacity:1; 
stroke-linecap:round; stroke-linejoin:round;">
<path d="M95830 77720
L95830 80280
" />
</g>
<g style="fill:#000000; fill-opacity:0.0; 
stroke:#000000; stroke-width:0; stroke-opacity:1; 
stroke-linecap:round; stroke-linejoin:round;">
</g>
<g style="fill:#000000; fill-opacity:0.0; 
stroke:#000000; stroke-width:80; stroke-opacity:1; 
stroke-linecap:round; stroke-linejoin:round;">
<circle cx="63900" cy="28500" r="200" /> 
</g>
<g style="fill:#000000; fill-opacity:0.0; 
stroke:#000000; stroke-width:120; stroke-opacity:1; 
stroke-linecap:round; stroke-linejoin:round;">
<circle cx="63900" cy="28500" r="700" /> 
</g>
<g style="fill:#000000; fill-opacity:0.0; 
stroke:#000000; stroke-width:60; stroke-opacity:1; 
stroke-linecap:round; stroke-linejoin:round;">
<path d="M63700 28500
L62400 28500
" />
<path d="M63900 29250
L63900 30000
" />
<path d="M63730 26400
L63730 26750
L63710 26820
L63660 26870
L63590 26900
L63540 26900
" />
<path d="M63950 26440
L63970 26420
L64020 26400
L64140 26400
L64180 26420
L64210 26440
L64230 26490
L64230 26540
L64210 26610
L63920 26900
L64230 26900
" />
<path d="M63260 27570
L63330 27600
L63450 27600
L63490 27570
L63520 27550
L63540 27500
L63540 27450
L63520 27410
L63490 27380
L63450 27360
L63350 27330
L63300 27310
L63280 27290
L63260 27240
L63260 27190
L63280 27140
L63300 27120
L63350 27100
L63470 27100
L63540 27120
" />
<path d="M63760 27600
L63760 27100
L63930 27450
L64090 27100
L64090 27600
" />
<path d="M64310 27450
L64540 27450
" />
<path d="M64260 27600
L64420 27100
L64590 27600
" />
</g>
<g style="fill:#000000; fill-opacity:0.0; 
stroke:#000000; stroke-width:0; stroke-opacity:1; 
stroke-linecap:round; stroke-linejoin:round;">
</g>
<g style="fill:#000000; fill-opacity:0.0; 
stroke:#000000; stroke-width:80; stroke-opacity:1; 
stroke-linecap:round; stroke-linejoin:round;">
<circle cx="43200" cy="28500" r="200" /> 
</g>
<g style="fill:#000000; fill-opacity:0.0; 
stroke:#000000; stroke-width:120; stroke-opacity:1; 
stroke-linecap:round; stroke-linejoin:round;">
<circle cx="43200" cy="28500" r="700" /> 
</g>
<g style="fill:#000000; fill-opacity:0.0; 
stroke:#000000; stroke-width:60; stroke-opacity:1; 
stroke-linecap:round; stroke-linejoin:round;">
<path d="M43400 28500
L44700 28500
" />
<path d="M43200 29250
L43200 30000
" />
<path d="M43030 26400
L43030 26750
L43010 26820
L42960 26870
L42890 26900
L42840 26900
" />
<path d="M43530 26900
L43250 26900
" />
<path d="M43390 26900
L43390 26400
L43340 26470
L43290 26520
L43250 26540
" />
<path d="M42560 27570
L42630 27600
L42750 27600
L42790 27570
L42820 27550
L42840 27500
L42840 27450
L42820 27410
L42790 27380
L42750 27360
L42650 27330
L42600 27310
L42580 27290
L42560 27240
L42560 27190
L42580 27140
L42600 27120
L42650 27100
L42770 27100
L42840 27120
" />
<path d="M43060 27600
L43060 27100
L43230 27450
L43390 27100
L43390 27600
" />
<path d="M43610 27450
L43840 27450
" />
<path d="M43560 27600
L43720 27100
L43890 27600
" />
</g>
<g style="fill:#000000; fill-opacity:0.0; 
stroke:#000000; stroke-width:0; stroke-opacity:1; 
stroke-linecap:round; stroke-linejoin:round;">
</g>
<g style="fill:#000000; fill-opacity:0.0; 
stroke:#000000; stroke-width:60; stroke-opacity:1; 
stroke-linecap:round; stroke-linejoin:round;">
<path d="M49900 27999.3 A400 400 0.0 0 0 49100 27999.3 " />
<path d="M49100 27999.3 A400 400 0.0 0 0 48300 27999.3 " />
<path d="M48300 27999.3 A400 400 0.0 0 0 47500 27999.3 " />
<path d="M47500 27999.3 A400 400 0.0 0 0 46700 27999.3 " />
</g>
<g style="fill:#000000; fill-opacity:0.0; 
stroke:#000000; stroke-width:90; stroke-opacity:1; 
stroke-linecap:round; stroke-linejoin:round;">
<polyline fill="none;"
points="46700,27300
49900,27300
" /> 
<polyline fill="none;"
points="46700,27100
49900,27100
" /> 
</g>
<g style="fill:#000000; fill-opacity:0.0; 
stroke:#000000; stroke-width:60; stroke-opacity:1; 
stroke-linecap:round; stroke-linejoin:round;">
<path d="M46700 28000
L46700 28500
" />
<path d="M49900 28000
L49900 28500
" />
<path d="M48220 26660
L47980 26660
L47980 26160
" />
<path d="M48640 26660
L48360 26660
" />
<path d="M48500 26660
L48500 26160
L48450 26230
L48400 26280
L48360 26300
" />
</g>
<g style="fill:#000000; fill-opacity:0.0; 
stroke:#000000; stroke-width:0; stroke-opacity:1; 
stroke-linecap:round; stroke-linejoin:round;">
</g>
<g style="fill:#000000; fill-opacity:0.0; 
stroke:#000000; stroke-width:60; stroke-opacity:1; 
stroke-linecap:round; stroke-linejoin:round;">
<path d="M55200 27999.3 A400 400 0.0 0 0 54400 27999.3 " />
<path d="M54400 27999.3 A400 400 0.0 0 0 53600 27999.3 " />
<path d="M53600 27999.3 A400 400 0.0 0 0 52800 27999.3 " />
<path d="M52800 27999.3 A400 400 0.0 0 0 52000 27999.3 " />
</g>
<g style="fill:#000000; fill-opacity:0.0; 
stroke:#000000; stroke-width:90; stroke-opacity:1; 
stroke-linecap:round; stroke-linejoin:round;">
<polyline fill="none;"
points="52000,27300
55200,27300
" /> 
<polyline fill="none;"
points="52000,27100
55200,27100
" /> 
</g>
<g style="fill:#000000; fill-opacity:0.0; 
stroke:#000000; stroke-width:60; stroke-opacity:1; 
stroke-linecap:round; stroke-linejoin:round;">
<path d="M52000 28000
L52000 28500
" />
<path d="M55200 28000
L55200 28500
" />
<path d="M53520 26660
L53280 26660
L53280 26160
" />
<path d="M53660 26200
L53680 26180
L53730 26160
L53850 26160
L53890 26180
L53920 26200
L53940 26250
L53940 26300
L53920 26370
L53630 26660
L53940 26660
" />
</g>
<g style="fill:#000000; fill-opacity:0.0; 
stroke:#000000; stroke-width:0; stroke-opacity:1; 
stroke-linecap:round; stroke-linejoin:round;">
</g>
<g style="fill:#000000; fill-opacity:0.0; 
stroke:#000000; stroke-width:60; stroke-opacity:1; 
stroke-linecap:round; stroke-linejoin:round;">
<path d="M60400 27999.3 A400 400 0.0 0 0 59600 27999.3 " />
<path d="M59600 27999.3 A400 400 0.0 0 0 58800 27999.3 " />
<path d="M58800 27999.3 A400 400 0.0 0 0 58000 27999.3 " />
<path d="M58000 27999.3 A400 400 0.0 0 0 57200 27999.3 " />
</g>
<g style="fill:#000000; fill-opacity:0.0; 
stroke:#000000; stroke-width:90; stroke-opacity:1; 
stroke-linecap:round; stroke-linejoin:round;">
<polyline fill="none;"
points="57200,27300
60400,27300
" /> 
<polyline fill="none;"
points="57200,27100
60400,27100
" /> 
</g>
<g style="fill:#000000; fill-opacity:0.0; 
stroke:#000000; stroke-width:60; stroke-opacity:1; 
stroke-linecap:round; stroke-linejoin:round;">
<path d="M57200 28000
L57200 28500
" />
<path d="M60400 28000
L60400 28500
" />
<path d="M58720 26660
L58480 26660
L58480 26160
" />
<path d="M59140 26660
L58860 26660
" />
<path d="M59000 26660
L59000 26160
L58950 26230
L58900 26280
L58860 26300
" />
</g>
<g style="fill:#000000; fill-opacity:0.0; 
stroke:#000000; stroke-width:0; stroke-opacity:1; 
stroke-linecap:round; stroke-linejoin:round;">
</g>
<g style="fill:#000000; fill-opacity:0.0; 
stroke:#000000; stroke-width:60; stroke-opacity:1; 
stroke-linecap:round; stroke-linejoin:round;">
<polyline fill="none;"
points="44800,30700
46600,30700
" /> 
<polyline fill="none;"
points="46600,31300
44800,31300
" /> 
<path d="M45700 30700
L45700 30000
" />
<path d="M45700 31300
L45700 32000
" />
<path d="M47110 31150
L47090 31170
L47020 31200
L46970 31200
L46900 31170
L46850 31120
L46830 31080
L46810 30980
L46810 30910
L46830 30820
L46850 30770
L46900 30720
L46970 30700
L47020 30700
L47090 30720
L47110 30740
" />
<path d="M47590 31200
L47310 31200
" />
<path d="M47450 31200
L47450 30700
L47400 30770
L47350 30820
L47310 30840
" />
</g>
<g style="fill:#000000; fill-opacity:0.0; 
stroke:#000000; stroke-width:0; stroke-opacity:1; 
stroke-linecap:round; stroke-linejoin:round;">
</g>
<g style="fill:#000000; fill-opacity:0.0; 
stroke:#000000; stroke-width:60; stroke-opacity:1; 
stroke-linecap:round; stroke-linejoin:round;">
<polyline fill="none;"
points="50100,30700
51900,30700
" /> 
<polyline fill="none;"
points="51900,31300
50100,31300
" /> 
<path d="M51000 30700
L51000 30000
" />
<path d="M51000 31300
L51000 32000
" />
<path d="M52410 31150
L52390 31170
L52320 31200
L52270 31200
L52200 31170
L52150 31120
L52130 31080
L52110 30980
L52110 30910
L52130 30820
L52150 30770
L52200 30720
L52270 30700
L52320 30700
L52390 30720
L52410 30740
" />
<path d="M52610 30740
L52630 30720
L52680 30700
L52800 30700
L52840 30720
L52870 30740
L52890 30790
L52890 30840
L52870 30910
L52580 31200
L52890 31200
" />
</g>
<g style="fill:#000000; fill-opacity:0.0; 
stroke:#000000; stroke-width:0; stroke-opacity:1; 
stroke-linecap:round; stroke-linejoin:round;">
</g>
<g style="fill:#000000; fill-opacity:0.0; 
stroke:#000000; stroke-width:60; stroke-opacity:1; 
stroke-linecap:round; stroke-linejoin:round;">
<polyline fill="none;"
points="55300,30700
57100,30700
" /> 
<polyline fill="none;"
points="57100,31300
55300,31300
" /> 
<path d="M56200 30700
L56200 30000
" />
<path d="M56200 31300
L56200 32000
" />
<path d="M57610 31150
L57590 31170
L57520 31200
L57470 31200
L57400 31170
L57350 31120
L57330 31080
L57310 30980
L57310 30910
L57330 30820
L57350 30770
L57400 30720
L57470 30700
L57520 30700
L57590 30720
L57610 30740
" />
<path d="M57810 30740
L57830 30720
L57880 30700
L58000 30700
L58040 30720
L58070 30740
L58090 30790
L58090 30840
L58070 30910
L57780 31200
L58090 31200
" />
</g>
<g style="fill:#000000; fill-opacity:0.0; 
stroke:#000000; stroke-width:0; stroke-opacity:1; 
stroke-linecap:round; stroke-linejoin:round;">
</g>
<g style="fill:#000000; fill-opacity:0.0; 
stroke:#000000; stroke-width:60; stroke-opacity:1; 
stroke-linecap:round; stroke-linejoin:round;">
<polyline fill="none;"
points="60600,30700
62400,30700
" /> 
<polyline fill="none;"
points="62400,31300
60600,31300
" /> 
<path d="M61500 30700
L61500 30000
" />
<path d="M61500 31300
L61500 32000
" />
<path d="M62910 31150
L62890 31170
L62820 31200
L62770 31200
L62700 31170
L62650 31120
L62630 31080
L62610 30980
L62610 30910
L62630 30820
L62650 30770
L62700 30720
L62770 30700
L62820 30700
L62890 30720
L62910 30740
" />
<path d="M63390 31200
L63110 31200
" />
<path d="M63250 31200
L63250 30700
L63200 30770
L63150 30820
L63110 30840
" />
</g>
<g style="fill:#000000; fill-opacity:0.0; 
stroke:#000000; stroke-width:0; stroke-opacity:1; 
stroke-linecap:round; stroke-linejoin:round;">
</g>
<g style="fill:#000000; fill-opacity:0.0; 
stroke:#000000; stroke-width:60; stroke-opacity:1; 
stroke-linecap:round; stroke-linejoin:round;">
<polyline fill="none;"
points="42700,30000
43200,30500
43700,30000
42700,30000
" /> 
<path d="M44700 28500
L46700 28500
" />
<path d="M49900 28500
L52000 28500
" />
<path d="M55200 28500
L57200 28500
" />
<path d="M60400 28500
L62400 28500
" />
</g>
<g style="fill:#000000; fill-opacity:0.0; 
stroke:#000000; stroke-width:0; stroke-opacity:1; 
stroke-linecap:round; stroke-linejoin:round;">
</g>
<g style="fill:#000000; fill-opacity:0.0; 
stroke:#000000; stroke-width:60; stroke-opacity:1; 
stroke-linecap:round; stroke-linejoin:round;">
<polyline fill="none;"
points="63400,30000
63900,30500
64400,30000
63400,30000
" /> 
</g>
<g style="fill:#000000; fill-opacity:0.0; 
stroke:#000000; stroke-width:0; stroke-opacity:1; 
stroke-linecap:round; stroke-linejoin:round;">
</g>
<g style="fill:#000000; fill-opacity:0.0; 
stroke:#000000; stroke-width:60; stroke-opacity:1; 
stroke-linecap:round; stroke-linejoin:round;">
<polyline fill="none;"
points="61000,32000
61500,32500
62000,32000
61000,32000
" /> 
</g>
<g style="fill:#000000; fill-opacity:0.0; 
stroke:#000000; stroke-width:0; stroke-opacity:1; 
stroke-linecap:round; stroke-linejoin:round;">
</g>
<g style="fill:#000000; fill-opacity:0.0; 
stroke:#000000; stroke-width:60; stroke-opacity:1; 
stroke-linecap:round; stroke-linejoin:round;">
<polyline fill="none;"
points="55700,32000
56200,32500
56700,32000
55700,32000
" /> 
</g>
<g style="fill:#000000; fill-opacity:0.0; 
stroke:#000000; stroke-width:0; stroke-opacity:1; 
stroke-linecap:round; stroke-linejoin:round;">
</g>
<g style="fill:#000000; fill-opacity:0.0; 
stroke:#000000; stroke-width:60; stroke-opacity:1; 
stroke-linecap:round; stroke-linejoin:round;">
<polyline fill="none;"
points="50500,32000
51000,32500
51500,32000
50500,32000
" /> 
</g>
<g style="fill:#000000; fill-opacity:0.0; 
stroke:#000000; stroke-width:0; stroke-opacity:1; 
stroke-linecap:round; stroke-linejoin:round;">
</g>
<g style="fill:#000000; fill-opacity:0.0; 
stroke:#000000; stroke-width:60; stroke-opacity:1; 
stroke-linecap:round; stroke-linejoin:round;">
<polyline fill="none;"
points="45200,32000
45700,32500
46200,32000
45200,32000
" /> 
<path d="M45700 30000
L45700 28500
" />
</g>
<g style="fill:#000000; fill-opacity:0.0; 
stroke:#000000; stroke-width:0; stroke-opacity:1; 
stroke-linecap:round; stroke-linejoin:round;">
</g>
<g style="fill:#000000; fill-opacity:1.0; 
stroke:#000000; stroke-width:100; stroke-opacity:1; 
stroke-linecap:round; stroke-linejoin:round;">
<circle cx="45700" cy="28500" r="200" /> 
</g>
<g style="fill:#000000; fill-opacity:1.0; 
stroke:#000000; stroke-width:0; stroke-opacity:1; 
stroke-linecap:round; stroke-linejoin:round;">
</g>
<g style="fill:#000000; fill-opacity:1.0; 
stroke:#000000; stroke-width:100; stroke-opacity:1; 
stroke-linecap:round; stroke-linejoin:round;">
<circle cx="56200" cy="28500" r="200" /> 
</g>
<g style="fill:#000000; fill-opacity:1.0; 
stroke:#000000; stroke-width:60; stroke-opacity:1; 
stroke-linecap:round; stroke-linejoin:round;">
</g>
<g style="fill:#000000; fill-opacity:0.0; 
stroke:#000000; stroke-width:60; stroke-opacity:1; 
stroke-linecap:round; stroke-linejoin:round;">
<path d="M61500 30000
L61500 28500
" />
</g>
<g style="fill:#000000; fill-opacity:0.0; 
stroke:#000000; stroke-width:0; stroke-opacity:1; 
stroke-linecap:round; stroke-linejoin:round;">
</g>
<g style="fill:#000000; fill-opacity:1.0; 
stroke:#000000; stroke-width:100; stroke-opacity:1; 
stroke-linecap:round; stroke-linejoin:round;">
<circle cx="61500" cy="28500" r="200" /> 
</g>
<g style="fill:#000000; fill-opacity:1.0; 
stroke:#000000; stroke-width:60; stroke-opacity:1; 
stroke-linecap:round; stroke-linejoin:round;">
</g>
<g style="fill:#000000; fill-opacity:0.0; 
stroke:#000000; stroke-width:60; stroke-opacity:1; 
stroke-linecap:round; stroke-linejoin:round;">
<path d="M56200 30000
L56200 28500
" />
</g>
<g style="fill:#000000; fill-opacity:0.0; 
stroke:#000000; stroke-width:0; stroke-opacity:1; 
stroke-linecap:round; stroke-linejoin:round;">
</g>
<g style="fill:#000000; fill-opacity:1.0; 
stroke:#000000; stroke-width:100; stroke-opacity:1; 
stroke-linecap:round; stroke-linejoin:round;">
<circle cx="51000" cy="28500" r="200" /> 
</g>
<g style="fill:#000000; fill-opacity:1.0; 
stroke:#000000; stroke-width:60; stroke-opacity:1; 
stroke-linecap:round; stroke-linejoin:round;">
</g>
<g style="fill:#000000; fill-opacity:0.0; 
stroke:#000000; stroke-width:60; stroke-opacity:1; 
stroke-linecap:round; stroke-linejoin:round;">
<path d="M51000 28500
L51000 30000
" />
</g> 
</svg>
