M48
;DRILL file {KiCad 5.0.2-bee76a0~70~ubuntu18.04.1} date Tue 18 Dec 2018 09:34:16 AM PST
;FORMAT={-:-/ absolute / inch / decimal}
FMAT,2
INCH,TZ
T1C0.0118
T2C0.0157
T3C0.0315
T4C0.0394
%
G90
G05
T1
X4.5Y-3.8425
X4.311Y-3.4567
X4.7205Y-3.7756
X4.3976Y-3.4567
X4.3543Y-3.4567
X5.0787Y-3.8189
X4.437Y-3.4567
X4.1339Y-3.8189
X4.6063Y-3.6063
X4.6063Y-3.5197
X4.8189Y-3.7205
X4.3268Y-3.6614
X4.6063Y-3.4567
X5.0787Y-3.5433
X4.8268Y-3.8425
X4.3898Y-3.7205
X4.2323Y-3.6614
X4.9803Y-3.6614
X4.5Y-3.7717
X4.3937Y-3.8425
X4.6102Y-3.8425
X4.1339Y-3.5433
X4.7205Y-3.8425
X4.8937Y-3.6614
X4.6102Y-3.7717
T2
X4.6063Y-3.4291
T3
X4.2382Y-3.7382
X4.3248Y-3.5413
X4.8976Y-3.7382
X4.9843Y-3.5413
X4.5098Y-3.5197
X4.7067Y-3.6063
T4
X4.0157Y-3.4614
X4.0157Y-3.5614
X4.0157Y-3.6614
X4.0157Y-3.7614
X4.0157Y-3.8614
X5.1969Y-3.5114
X5.1969Y-3.6114
X5.1969Y-3.7114
X5.1969Y-3.8114
T0
M30
