G04 #@! TF.FileFunction,Legend,Top*
%FSLAX46Y46*%
G04 Gerber Fmt 4.6, Leading zero omitted, Abs format (unit mm)*
G04 Created by KiCad (PCBNEW 4.0.7-e2-6376~58~ubuntu16.04.1) date Fri Jan 19 19:37:22 2018*
%MOMM*%
%LPD*%
G01*
G04 APERTURE LIST*
%ADD10C,0.100000*%
%ADD11C,0.200000*%
%ADD12C,0.250000*%
%ADD13C,0.150000*%
%ADD14C,0.002540*%
%ADD15C,0.381000*%
%ADD16C,0.120000*%
%ADD17C,0.300000*%
%ADD18C,0.304800*%
G04 APERTURE END LIST*
D10*
D11*
X133545238Y-83614286D02*
X133469048Y-83657143D01*
X133316667Y-83657143D01*
X133240476Y-83614286D01*
X133202381Y-83528571D01*
X133202381Y-83185714D01*
X133240476Y-83100000D01*
X133316667Y-83057143D01*
X133469048Y-83057143D01*
X133545238Y-83100000D01*
X133583333Y-83185714D01*
X133583333Y-83271429D01*
X133202381Y-83357143D01*
X133811904Y-83057143D02*
X134116666Y-83057143D01*
X133926190Y-82757143D02*
X133926190Y-83528571D01*
X133964285Y-83614286D01*
X134040476Y-83657143D01*
X134116666Y-83657143D01*
X134383333Y-83657143D02*
X134383333Y-82757143D01*
X134726190Y-83657143D02*
X134726190Y-83185714D01*
X134688095Y-83100000D01*
X134611905Y-83057143D01*
X134497619Y-83057143D01*
X134421428Y-83100000D01*
X134383333Y-83142857D01*
X135411905Y-83614286D02*
X135335715Y-83657143D01*
X135183334Y-83657143D01*
X135107143Y-83614286D01*
X135069048Y-83528571D01*
X135069048Y-83185714D01*
X135107143Y-83100000D01*
X135183334Y-83057143D01*
X135335715Y-83057143D01*
X135411905Y-83100000D01*
X135450000Y-83185714D01*
X135450000Y-83271429D01*
X135069048Y-83357143D01*
X135792857Y-83657143D02*
X135792857Y-83057143D01*
X135792857Y-83228571D02*
X135830952Y-83142857D01*
X135869048Y-83100000D01*
X135945238Y-83057143D01*
X136021429Y-83057143D01*
X136288095Y-83657143D02*
X136288095Y-82757143D01*
X136364286Y-83314286D02*
X136592857Y-83657143D01*
X136592857Y-83057143D02*
X136288095Y-83400000D01*
X136935714Y-83657143D02*
X136935714Y-83057143D01*
X136935714Y-82757143D02*
X136897619Y-82800000D01*
X136935714Y-82842857D01*
X136973809Y-82800000D01*
X136935714Y-82757143D01*
X136935714Y-82842857D01*
X137202380Y-83057143D02*
X137507142Y-83057143D01*
X137316666Y-82757143D02*
X137316666Y-83528571D01*
X137354761Y-83614286D01*
X137430952Y-83657143D01*
X137507142Y-83657143D01*
X137773809Y-83571429D02*
X137811904Y-83614286D01*
X137773809Y-83657143D01*
X137735714Y-83614286D01*
X137773809Y-83571429D01*
X137773809Y-83657143D01*
X138497618Y-83614286D02*
X138421428Y-83657143D01*
X138269047Y-83657143D01*
X138192856Y-83614286D01*
X138154761Y-83571429D01*
X138116666Y-83485714D01*
X138116666Y-83228571D01*
X138154761Y-83142857D01*
X138192856Y-83100000D01*
X138269047Y-83057143D01*
X138421428Y-83057143D01*
X138497618Y-83100000D01*
X138954761Y-83657143D02*
X138878570Y-83614286D01*
X138840475Y-83571429D01*
X138802380Y-83485714D01*
X138802380Y-83228571D01*
X138840475Y-83142857D01*
X138878570Y-83100000D01*
X138954761Y-83057143D01*
X139069047Y-83057143D01*
X139145237Y-83100000D01*
X139183332Y-83142857D01*
X139221428Y-83228571D01*
X139221428Y-83485714D01*
X139183332Y-83571429D01*
X139145237Y-83614286D01*
X139069047Y-83657143D01*
X138954761Y-83657143D01*
X139564285Y-83657143D02*
X139564285Y-83057143D01*
X139564285Y-83142857D02*
X139602380Y-83100000D01*
X139678571Y-83057143D01*
X139792857Y-83057143D01*
X139869047Y-83100000D01*
X139907142Y-83185714D01*
X139907142Y-83657143D01*
X139907142Y-83185714D02*
X139945238Y-83100000D01*
X140021428Y-83057143D01*
X140135714Y-83057143D01*
X140211904Y-83100000D01*
X140249999Y-83185714D01*
X140249999Y-83657143D01*
X141202381Y-82842857D02*
X141240476Y-82800000D01*
X141316667Y-82757143D01*
X141507143Y-82757143D01*
X141583333Y-82800000D01*
X141621429Y-82842857D01*
X141659524Y-82928571D01*
X141659524Y-83014286D01*
X141621429Y-83142857D01*
X141164286Y-83657143D01*
X141659524Y-83657143D01*
X142154762Y-82757143D02*
X142230953Y-82757143D01*
X142307143Y-82800000D01*
X142345238Y-82842857D01*
X142383334Y-82928571D01*
X142421429Y-83100000D01*
X142421429Y-83314286D01*
X142383334Y-83485714D01*
X142345238Y-83571429D01*
X142307143Y-83614286D01*
X142230953Y-83657143D01*
X142154762Y-83657143D01*
X142078572Y-83614286D01*
X142040476Y-83571429D01*
X142002381Y-83485714D01*
X141964286Y-83314286D01*
X141964286Y-83100000D01*
X142002381Y-82928571D01*
X142040476Y-82842857D01*
X142078572Y-82800000D01*
X142154762Y-82757143D01*
X143183334Y-83657143D02*
X142726191Y-83657143D01*
X142954762Y-83657143D02*
X142954762Y-82757143D01*
X142878572Y-82885714D01*
X142802381Y-82971429D01*
X142726191Y-83014286D01*
X143640477Y-83142857D02*
X143564286Y-83100000D01*
X143526191Y-83057143D01*
X143488096Y-82971429D01*
X143488096Y-82928571D01*
X143526191Y-82842857D01*
X143564286Y-82800000D01*
X143640477Y-82757143D01*
X143792858Y-82757143D01*
X143869048Y-82800000D01*
X143907144Y-82842857D01*
X143945239Y-82928571D01*
X143945239Y-82971429D01*
X143907144Y-83057143D01*
X143869048Y-83100000D01*
X143792858Y-83142857D01*
X143640477Y-83142857D01*
X143564286Y-83185714D01*
X143526191Y-83228571D01*
X143488096Y-83314286D01*
X143488096Y-83485714D01*
X143526191Y-83571429D01*
X143564286Y-83614286D01*
X143640477Y-83657143D01*
X143792858Y-83657143D01*
X143869048Y-83614286D01*
X143907144Y-83571429D01*
X143945239Y-83485714D01*
X143945239Y-83314286D01*
X143907144Y-83228571D01*
X143869048Y-83185714D01*
X143792858Y-83142857D01*
D12*
X101364286Y-83797619D02*
X100888095Y-83797619D01*
X100888095Y-82697619D01*
X101840476Y-83797619D02*
X101745238Y-83745238D01*
X101697619Y-83692857D01*
X101650000Y-83588095D01*
X101650000Y-83273810D01*
X101697619Y-83169048D01*
X101745238Y-83116667D01*
X101840476Y-83064286D01*
X101983334Y-83064286D01*
X102078572Y-83116667D01*
X102126191Y-83169048D01*
X102173810Y-83273810D01*
X102173810Y-83588095D01*
X102126191Y-83692857D01*
X102078572Y-83745238D01*
X101983334Y-83797619D01*
X101840476Y-83797619D01*
X102507143Y-83064286D02*
X102697619Y-83797619D01*
X102888096Y-83273810D01*
X103078572Y-83797619D01*
X103269048Y-83064286D01*
X104411905Y-83797619D02*
X104411905Y-82697619D01*
X104792858Y-82697619D01*
X104888096Y-82750000D01*
X104935715Y-82802381D01*
X104983334Y-82907143D01*
X104983334Y-83064286D01*
X104935715Y-83169048D01*
X104888096Y-83221429D01*
X104792858Y-83273810D01*
X104411905Y-83273810D01*
X105840477Y-83797619D02*
X105840477Y-83221429D01*
X105792858Y-83116667D01*
X105697620Y-83064286D01*
X105507143Y-83064286D01*
X105411905Y-83116667D01*
X105840477Y-83745238D02*
X105745239Y-83797619D01*
X105507143Y-83797619D01*
X105411905Y-83745238D01*
X105364286Y-83640476D01*
X105364286Y-83535714D01*
X105411905Y-83430952D01*
X105507143Y-83378571D01*
X105745239Y-83378571D01*
X105840477Y-83326190D01*
X106269048Y-83745238D02*
X106364286Y-83797619D01*
X106554762Y-83797619D01*
X106650001Y-83745238D01*
X106697620Y-83640476D01*
X106697620Y-83588095D01*
X106650001Y-83483333D01*
X106554762Y-83430952D01*
X106411905Y-83430952D01*
X106316667Y-83378571D01*
X106269048Y-83273810D01*
X106269048Y-83221429D01*
X106316667Y-83116667D01*
X106411905Y-83064286D01*
X106554762Y-83064286D01*
X106650001Y-83116667D01*
X107078572Y-83745238D02*
X107173810Y-83797619D01*
X107364286Y-83797619D01*
X107459525Y-83745238D01*
X107507144Y-83640476D01*
X107507144Y-83588095D01*
X107459525Y-83483333D01*
X107364286Y-83430952D01*
X107221429Y-83430952D01*
X107126191Y-83378571D01*
X107078572Y-83273810D01*
X107078572Y-83221429D01*
X107126191Y-83116667D01*
X107221429Y-83064286D01*
X107364286Y-83064286D01*
X107459525Y-83116667D01*
X109030954Y-83221429D02*
X108697620Y-83221429D01*
X108697620Y-83797619D02*
X108697620Y-82697619D01*
X109173811Y-82697619D01*
X109554763Y-83797619D02*
X109554763Y-83064286D01*
X109554763Y-82697619D02*
X109507144Y-82750000D01*
X109554763Y-82802381D01*
X109602382Y-82750000D01*
X109554763Y-82697619D01*
X109554763Y-82802381D01*
X110173810Y-83797619D02*
X110078572Y-83745238D01*
X110030953Y-83640476D01*
X110030953Y-82697619D01*
X110411906Y-83064286D02*
X110792858Y-83064286D01*
X110554763Y-82697619D02*
X110554763Y-83640476D01*
X110602382Y-83745238D01*
X110697620Y-83797619D01*
X110792858Y-83797619D01*
X111507145Y-83745238D02*
X111411907Y-83797619D01*
X111221430Y-83797619D01*
X111126192Y-83745238D01*
X111078573Y-83640476D01*
X111078573Y-83221429D01*
X111126192Y-83116667D01*
X111221430Y-83064286D01*
X111411907Y-83064286D01*
X111507145Y-83116667D01*
X111554764Y-83221429D01*
X111554764Y-83326190D01*
X111078573Y-83430952D01*
X111983335Y-83797619D02*
X111983335Y-83064286D01*
X111983335Y-83273810D02*
X112030954Y-83169048D01*
X112078573Y-83116667D01*
X112173811Y-83064286D01*
X112269050Y-83064286D01*
D13*
X126971428Y-99085714D02*
X127085714Y-99128571D01*
X127123809Y-99171429D01*
X127161904Y-99257143D01*
X127161904Y-99385714D01*
X127123809Y-99471429D01*
X127085714Y-99514286D01*
X127009523Y-99557143D01*
X126704761Y-99557143D01*
X126704761Y-98657143D01*
X126971428Y-98657143D01*
X127047618Y-98700000D01*
X127085714Y-98742857D01*
X127123809Y-98828571D01*
X127123809Y-98914286D01*
X127085714Y-99000000D01*
X127047618Y-99042857D01*
X126971428Y-99085714D01*
X126704761Y-99085714D01*
X127847618Y-99557143D02*
X127847618Y-99085714D01*
X127809523Y-99000000D01*
X127733333Y-98957143D01*
X127580952Y-98957143D01*
X127504761Y-99000000D01*
X127847618Y-99514286D02*
X127771428Y-99557143D01*
X127580952Y-99557143D01*
X127504761Y-99514286D01*
X127466666Y-99428571D01*
X127466666Y-99342857D01*
X127504761Y-99257143D01*
X127580952Y-99214286D01*
X127771428Y-99214286D01*
X127847618Y-99171429D01*
X128228571Y-98957143D02*
X128228571Y-99557143D01*
X128228571Y-99042857D02*
X128266666Y-99000000D01*
X128342857Y-98957143D01*
X128457143Y-98957143D01*
X128533333Y-99000000D01*
X128571428Y-99085714D01*
X128571428Y-99557143D01*
X129295238Y-99557143D02*
X129295238Y-98657143D01*
X129295238Y-99514286D02*
X129219048Y-99557143D01*
X129066667Y-99557143D01*
X128990476Y-99514286D01*
X128952381Y-99471429D01*
X128914286Y-99385714D01*
X128914286Y-99128571D01*
X128952381Y-99042857D01*
X128990476Y-99000000D01*
X129066667Y-98957143D01*
X129219048Y-98957143D01*
X129295238Y-99000000D01*
D14*
G36*
X114256040Y-97018340D02*
X114256040Y-96977700D01*
X114253500Y-96850700D01*
X114248420Y-96766880D01*
X114240800Y-96736400D01*
X114220480Y-96741480D01*
X114149360Y-96759260D01*
X114029980Y-96792280D01*
X113875040Y-96832920D01*
X113689620Y-96883720D01*
X113328940Y-96982780D01*
X113138440Y-97036120D01*
X112970800Y-97079300D01*
X112841260Y-97114860D01*
X112752360Y-97137720D01*
X112716800Y-97145340D01*
X112714260Y-97145340D01*
X112673620Y-97117400D01*
X112592340Y-97058980D01*
X112480580Y-96972620D01*
X112345960Y-96865940D01*
X112193560Y-96744020D01*
X111698260Y-96342700D01*
X111698260Y-96855780D01*
X112239280Y-97277420D01*
X112307860Y-97333300D01*
X112457720Y-97450140D01*
X112587260Y-97551740D01*
X112688860Y-97633020D01*
X112752360Y-97683820D01*
X112775220Y-97704140D01*
X112759980Y-97701600D01*
X112688860Y-97688900D01*
X112569480Y-97666040D01*
X112409460Y-97635560D01*
X112211340Y-97597460D01*
X111987820Y-97554280D01*
X111743980Y-97506020D01*
X111571260Y-97473000D01*
X111337580Y-97424740D01*
X111129300Y-97384100D01*
X110951500Y-97351080D01*
X110814340Y-97325680D01*
X110725440Y-97307900D01*
X110687340Y-97302820D01*
X110679720Y-97302820D01*
X110669560Y-97315520D01*
X110664480Y-97353620D01*
X110664480Y-97429820D01*
X110664480Y-97556820D01*
X110669560Y-97810820D01*
X110794020Y-97836220D01*
X110910860Y-97864160D01*
X110994680Y-97904800D01*
X111063260Y-97963220D01*
X111098820Y-98003860D01*
X111136920Y-98074980D01*
X111147080Y-98163880D01*
X111147080Y-98168960D01*
X111136920Y-98240080D01*
X111098820Y-98298500D01*
X111088660Y-98308660D01*
X111040400Y-98346760D01*
X110981980Y-98362000D01*
X110890540Y-98354380D01*
X110755920Y-98331520D01*
X110664480Y-98311200D01*
X110588280Y-98295960D01*
X110557800Y-98290880D01*
X110555260Y-98275640D01*
X110555260Y-98209600D01*
X110552720Y-98135940D01*
X110126000Y-98135940D01*
X110120920Y-98186740D01*
X110113300Y-98204520D01*
X110100600Y-98207060D01*
X110085360Y-98201980D01*
X110019320Y-98186740D01*
X109925340Y-98166420D01*
X109884700Y-98156260D01*
X109785640Y-98128320D01*
X109717060Y-98100380D01*
X109704360Y-98092760D01*
X109625620Y-98021640D01*
X109577360Y-97925120D01*
X109562120Y-97820980D01*
X109582440Y-97732080D01*
X109643400Y-97668580D01*
X109648480Y-97666040D01*
X109737380Y-97648260D01*
X109861840Y-97653340D01*
X110001540Y-97676200D01*
X110118380Y-97704140D01*
X110123460Y-97958140D01*
X110126000Y-98041960D01*
X110126000Y-98135940D01*
X110552720Y-98135940D01*
X110552720Y-98097840D01*
X110552720Y-97953060D01*
X110550180Y-97780340D01*
X110550180Y-97272340D01*
X110514620Y-97262180D01*
X110507000Y-97259640D01*
X110400320Y-97236780D01*
X110260620Y-97211380D01*
X110108220Y-97183440D01*
X109955820Y-97155500D01*
X109821200Y-97135180D01*
X109714520Y-97119940D01*
X109656100Y-97112320D01*
X109625620Y-97114860D01*
X109445280Y-97150420D01*
X109287800Y-97239320D01*
X109160800Y-97366320D01*
X109084600Y-97526340D01*
X109079520Y-97544120D01*
X109061740Y-97663500D01*
X109061740Y-97803200D01*
X109076980Y-97927660D01*
X109112540Y-98047040D01*
X109214140Y-98229920D01*
X109356380Y-98397560D01*
X109524020Y-98534720D01*
X109704360Y-98628700D01*
X109727220Y-98636320D01*
X109816120Y-98656640D01*
X109945660Y-98684580D01*
X110103140Y-98720140D01*
X110278400Y-98755700D01*
X110458740Y-98791260D01*
X110631460Y-98824280D01*
X110781320Y-98852220D01*
X110898160Y-98872540D01*
X110969280Y-98882700D01*
X111070880Y-98882700D01*
X111235980Y-98862380D01*
X111373140Y-98811580D01*
X111406160Y-98791260D01*
X111535700Y-98674420D01*
X111627140Y-98516940D01*
X111672860Y-98334060D01*
X111667780Y-98138480D01*
X111665240Y-98115620D01*
X111655080Y-98044500D01*
X111655080Y-98014020D01*
X111662700Y-98014020D01*
X111723660Y-98024180D01*
X111835420Y-98047040D01*
X111990360Y-98077520D01*
X112188480Y-98115620D01*
X112417080Y-98158800D01*
X112671080Y-98209600D01*
X113087640Y-98293420D01*
X113351800Y-98346760D01*
X113595640Y-98395020D01*
X113809000Y-98435660D01*
X113989340Y-98471220D01*
X114123960Y-98496620D01*
X114212860Y-98511860D01*
X114243340Y-98514400D01*
X114245880Y-98511860D01*
X114250960Y-98466140D01*
X114253500Y-98377240D01*
X114256040Y-98257860D01*
X114256040Y-98153720D01*
X114253500Y-98069900D01*
X114248420Y-98026720D01*
X114238260Y-98006400D01*
X114220480Y-98001320D01*
X114195080Y-97996240D01*
X114116340Y-97978460D01*
X114002040Y-97958140D01*
X113864880Y-97930200D01*
X113824240Y-97922580D01*
X113661680Y-97887020D01*
X113560080Y-97859080D01*
X113511820Y-97838760D01*
X113501660Y-97828600D01*
X113415300Y-97752400D01*
X113326400Y-97673660D01*
X113250200Y-97600000D01*
X113196860Y-97549200D01*
X113176540Y-97528880D01*
X113191780Y-97523800D01*
X113257820Y-97508560D01*
X113369580Y-97485700D01*
X113514360Y-97455220D01*
X113682000Y-97422200D01*
X113798840Y-97396800D01*
X113956320Y-97363780D01*
X114088400Y-97338380D01*
X114179840Y-97318060D01*
X114220480Y-97310440D01*
X114223020Y-97307900D01*
X114238260Y-97302820D01*
X114248420Y-97282500D01*
X114253500Y-97236780D01*
X114256040Y-97152960D01*
X114256040Y-97018340D01*
X114256040Y-97018340D01*
G37*
X114256040Y-97018340D02*
X114256040Y-96977700D01*
X114253500Y-96850700D01*
X114248420Y-96766880D01*
X114240800Y-96736400D01*
X114220480Y-96741480D01*
X114149360Y-96759260D01*
X114029980Y-96792280D01*
X113875040Y-96832920D01*
X113689620Y-96883720D01*
X113328940Y-96982780D01*
X113138440Y-97036120D01*
X112970800Y-97079300D01*
X112841260Y-97114860D01*
X112752360Y-97137720D01*
X112716800Y-97145340D01*
X112714260Y-97145340D01*
X112673620Y-97117400D01*
X112592340Y-97058980D01*
X112480580Y-96972620D01*
X112345960Y-96865940D01*
X112193560Y-96744020D01*
X111698260Y-96342700D01*
X111698260Y-96855780D01*
X112239280Y-97277420D01*
X112307860Y-97333300D01*
X112457720Y-97450140D01*
X112587260Y-97551740D01*
X112688860Y-97633020D01*
X112752360Y-97683820D01*
X112775220Y-97704140D01*
X112759980Y-97701600D01*
X112688860Y-97688900D01*
X112569480Y-97666040D01*
X112409460Y-97635560D01*
X112211340Y-97597460D01*
X111987820Y-97554280D01*
X111743980Y-97506020D01*
X111571260Y-97473000D01*
X111337580Y-97424740D01*
X111129300Y-97384100D01*
X110951500Y-97351080D01*
X110814340Y-97325680D01*
X110725440Y-97307900D01*
X110687340Y-97302820D01*
X110679720Y-97302820D01*
X110669560Y-97315520D01*
X110664480Y-97353620D01*
X110664480Y-97429820D01*
X110664480Y-97556820D01*
X110669560Y-97810820D01*
X110794020Y-97836220D01*
X110910860Y-97864160D01*
X110994680Y-97904800D01*
X111063260Y-97963220D01*
X111098820Y-98003860D01*
X111136920Y-98074980D01*
X111147080Y-98163880D01*
X111147080Y-98168960D01*
X111136920Y-98240080D01*
X111098820Y-98298500D01*
X111088660Y-98308660D01*
X111040400Y-98346760D01*
X110981980Y-98362000D01*
X110890540Y-98354380D01*
X110755920Y-98331520D01*
X110664480Y-98311200D01*
X110588280Y-98295960D01*
X110557800Y-98290880D01*
X110555260Y-98275640D01*
X110555260Y-98209600D01*
X110552720Y-98135940D01*
X110126000Y-98135940D01*
X110120920Y-98186740D01*
X110113300Y-98204520D01*
X110100600Y-98207060D01*
X110085360Y-98201980D01*
X110019320Y-98186740D01*
X109925340Y-98166420D01*
X109884700Y-98156260D01*
X109785640Y-98128320D01*
X109717060Y-98100380D01*
X109704360Y-98092760D01*
X109625620Y-98021640D01*
X109577360Y-97925120D01*
X109562120Y-97820980D01*
X109582440Y-97732080D01*
X109643400Y-97668580D01*
X109648480Y-97666040D01*
X109737380Y-97648260D01*
X109861840Y-97653340D01*
X110001540Y-97676200D01*
X110118380Y-97704140D01*
X110123460Y-97958140D01*
X110126000Y-98041960D01*
X110126000Y-98135940D01*
X110552720Y-98135940D01*
X110552720Y-98097840D01*
X110552720Y-97953060D01*
X110550180Y-97780340D01*
X110550180Y-97272340D01*
X110514620Y-97262180D01*
X110507000Y-97259640D01*
X110400320Y-97236780D01*
X110260620Y-97211380D01*
X110108220Y-97183440D01*
X109955820Y-97155500D01*
X109821200Y-97135180D01*
X109714520Y-97119940D01*
X109656100Y-97112320D01*
X109625620Y-97114860D01*
X109445280Y-97150420D01*
X109287800Y-97239320D01*
X109160800Y-97366320D01*
X109084600Y-97526340D01*
X109079520Y-97544120D01*
X109061740Y-97663500D01*
X109061740Y-97803200D01*
X109076980Y-97927660D01*
X109112540Y-98047040D01*
X109214140Y-98229920D01*
X109356380Y-98397560D01*
X109524020Y-98534720D01*
X109704360Y-98628700D01*
X109727220Y-98636320D01*
X109816120Y-98656640D01*
X109945660Y-98684580D01*
X110103140Y-98720140D01*
X110278400Y-98755700D01*
X110458740Y-98791260D01*
X110631460Y-98824280D01*
X110781320Y-98852220D01*
X110898160Y-98872540D01*
X110969280Y-98882700D01*
X111070880Y-98882700D01*
X111235980Y-98862380D01*
X111373140Y-98811580D01*
X111406160Y-98791260D01*
X111535700Y-98674420D01*
X111627140Y-98516940D01*
X111672860Y-98334060D01*
X111667780Y-98138480D01*
X111665240Y-98115620D01*
X111655080Y-98044500D01*
X111655080Y-98014020D01*
X111662700Y-98014020D01*
X111723660Y-98024180D01*
X111835420Y-98047040D01*
X111990360Y-98077520D01*
X112188480Y-98115620D01*
X112417080Y-98158800D01*
X112671080Y-98209600D01*
X113087640Y-98293420D01*
X113351800Y-98346760D01*
X113595640Y-98395020D01*
X113809000Y-98435660D01*
X113989340Y-98471220D01*
X114123960Y-98496620D01*
X114212860Y-98511860D01*
X114243340Y-98514400D01*
X114245880Y-98511860D01*
X114250960Y-98466140D01*
X114253500Y-98377240D01*
X114256040Y-98257860D01*
X114256040Y-98153720D01*
X114253500Y-98069900D01*
X114248420Y-98026720D01*
X114238260Y-98006400D01*
X114220480Y-98001320D01*
X114195080Y-97996240D01*
X114116340Y-97978460D01*
X114002040Y-97958140D01*
X113864880Y-97930200D01*
X113824240Y-97922580D01*
X113661680Y-97887020D01*
X113560080Y-97859080D01*
X113511820Y-97838760D01*
X113501660Y-97828600D01*
X113415300Y-97752400D01*
X113326400Y-97673660D01*
X113250200Y-97600000D01*
X113196860Y-97549200D01*
X113176540Y-97528880D01*
X113191780Y-97523800D01*
X113257820Y-97508560D01*
X113369580Y-97485700D01*
X113514360Y-97455220D01*
X113682000Y-97422200D01*
X113798840Y-97396800D01*
X113956320Y-97363780D01*
X114088400Y-97338380D01*
X114179840Y-97318060D01*
X114220480Y-97310440D01*
X114223020Y-97307900D01*
X114238260Y-97302820D01*
X114248420Y-97282500D01*
X114253500Y-97236780D01*
X114256040Y-97152960D01*
X114256040Y-97018340D01*
G36*
X104348980Y-98998740D02*
X104336280Y-98975880D01*
X104303260Y-98922540D01*
X104255000Y-98848880D01*
X104196580Y-98759980D01*
X104135620Y-98673620D01*
X104087360Y-98599960D01*
X104054340Y-98549160D01*
X104044180Y-98528840D01*
X104046720Y-98516140D01*
X104067040Y-98475500D01*
X104100060Y-98414540D01*
X104117840Y-98378980D01*
X104140700Y-98323100D01*
X104145780Y-98295160D01*
X104138160Y-98290080D01*
X104097520Y-98269760D01*
X104023860Y-98239280D01*
X103927340Y-98196100D01*
X103813040Y-98147840D01*
X103691120Y-98097040D01*
X103569200Y-98043700D01*
X103449820Y-97995440D01*
X103343140Y-97952260D01*
X103256780Y-97916700D01*
X103195820Y-97893840D01*
X103170420Y-97886220D01*
X103165340Y-97888760D01*
X103137400Y-97916700D01*
X103101840Y-97964960D01*
X103015480Y-98069100D01*
X102885940Y-98173240D01*
X102738620Y-98236740D01*
X102573520Y-98259600D01*
X102423660Y-98241820D01*
X102278880Y-98180860D01*
X102146800Y-98079260D01*
X102050280Y-97954800D01*
X101986780Y-97812560D01*
X101966460Y-97650000D01*
X101984240Y-97495060D01*
X102042660Y-97347740D01*
X102144260Y-97215660D01*
X102207760Y-97159780D01*
X102339840Y-97083580D01*
X102482080Y-97040400D01*
X102517640Y-97035320D01*
X102675120Y-97042940D01*
X102824980Y-97088660D01*
X102957060Y-97169940D01*
X103068820Y-97284240D01*
X103078980Y-97299480D01*
X103117080Y-97352820D01*
X103145020Y-97388380D01*
X103167880Y-97416320D01*
X103647940Y-97218200D01*
X103724140Y-97185180D01*
X103853680Y-97131840D01*
X103967980Y-97083580D01*
X104056880Y-97042940D01*
X104117840Y-97017540D01*
X104140700Y-97004840D01*
X104143240Y-97004840D01*
X104145780Y-96987060D01*
X104133080Y-96951500D01*
X104100060Y-96882920D01*
X104077200Y-96839740D01*
X104051800Y-96788940D01*
X104044180Y-96766080D01*
X104054340Y-96745760D01*
X104084820Y-96697500D01*
X104133080Y-96626380D01*
X104191500Y-96540020D01*
X104247380Y-96458740D01*
X104295640Y-96385080D01*
X104331200Y-96329200D01*
X104346440Y-96303800D01*
X104346440Y-96298720D01*
X104333740Y-96275860D01*
X104295640Y-96232680D01*
X104234680Y-96166640D01*
X104143240Y-96075200D01*
X104130540Y-96059960D01*
X104051800Y-95983760D01*
X103988300Y-95922800D01*
X103942580Y-95882160D01*
X103919720Y-95866920D01*
X103919720Y-95866920D01*
X103894320Y-95879620D01*
X103840980Y-95915180D01*
X103764780Y-95963440D01*
X103675880Y-96024400D01*
X103444740Y-96184420D01*
X103226300Y-96095520D01*
X103160260Y-96070120D01*
X103078980Y-96034560D01*
X103023100Y-96009160D01*
X102997700Y-95996460D01*
X102987540Y-95973600D01*
X102974840Y-95915180D01*
X102957060Y-95828820D01*
X102936740Y-95724680D01*
X102918960Y-95625620D01*
X102901180Y-95539260D01*
X102888480Y-95473220D01*
X102883400Y-95445280D01*
X102880860Y-95437660D01*
X102865620Y-95432580D01*
X102835140Y-95430040D01*
X102781800Y-95427500D01*
X102697980Y-95424960D01*
X102573520Y-95424960D01*
X102560820Y-95424960D01*
X102443980Y-95427500D01*
X102350000Y-95427500D01*
X102291580Y-95432580D01*
X102266180Y-95435120D01*
X102266180Y-95435120D01*
X102261100Y-95463060D01*
X102245860Y-95526560D01*
X102230620Y-95615460D01*
X102210300Y-95719600D01*
X102207760Y-95727220D01*
X102187440Y-95831360D01*
X102169660Y-95920260D01*
X102154420Y-95981220D01*
X102146800Y-96009160D01*
X102139180Y-96014240D01*
X102098540Y-96034560D01*
X102032500Y-96065040D01*
X101953760Y-96100600D01*
X101869940Y-96133620D01*
X101796280Y-96164100D01*
X101740400Y-96184420D01*
X101715000Y-96189500D01*
X101715000Y-96189500D01*
X101689600Y-96174260D01*
X101636260Y-96138700D01*
X101560060Y-96087900D01*
X101471160Y-96024400D01*
X101463540Y-96021860D01*
X101374640Y-95960900D01*
X101298440Y-95910100D01*
X101245100Y-95879620D01*
X101222240Y-95866920D01*
X101219700Y-95866920D01*
X101194300Y-95887240D01*
X101143500Y-95932960D01*
X101074920Y-95996460D01*
X100996180Y-96075200D01*
X100970780Y-96100600D01*
X100886960Y-96186960D01*
X100831080Y-96245380D01*
X100803140Y-96283480D01*
X100795520Y-96301260D01*
X100795520Y-96301260D01*
X100813300Y-96329200D01*
X100848860Y-96385080D01*
X100902200Y-96461280D01*
X100963160Y-96552720D01*
X100965700Y-96557800D01*
X101026660Y-96646700D01*
X101077460Y-96720360D01*
X101113020Y-96773700D01*
X101125720Y-96796560D01*
X101125720Y-96801640D01*
X101115560Y-96837200D01*
X101092700Y-96900700D01*
X101062220Y-96976900D01*
X101029200Y-97060720D01*
X100998720Y-97134380D01*
X100973320Y-97190260D01*
X100958080Y-97218200D01*
X100955540Y-97218200D01*
X100925060Y-97228360D01*
X100859020Y-97243600D01*
X100767580Y-97261380D01*
X100658360Y-97281700D01*
X100640580Y-97286780D01*
X100533900Y-97307100D01*
X100447540Y-97322340D01*
X100386580Y-97335040D01*
X100361180Y-97342660D01*
X100358640Y-97357900D01*
X100353560Y-97408700D01*
X100351020Y-97487440D01*
X100351020Y-97583960D01*
X100351020Y-97683020D01*
X100353560Y-97782080D01*
X100356100Y-97865900D01*
X100361180Y-97924320D01*
X100366260Y-97949720D01*
X100366260Y-97952260D01*
X100399280Y-97959880D01*
X100465320Y-97975120D01*
X100559300Y-97992900D01*
X100668520Y-98015760D01*
X100686300Y-98018300D01*
X100792980Y-98038620D01*
X100879340Y-98056400D01*
X100940300Y-98069100D01*
X100963160Y-98076720D01*
X100968240Y-98084340D01*
X100986020Y-98130060D01*
X101016500Y-98201180D01*
X101052060Y-98287540D01*
X101133340Y-98490740D01*
X100963160Y-98742200D01*
X100947920Y-98765060D01*
X100886960Y-98853960D01*
X100836160Y-98927620D01*
X100803140Y-98978420D01*
X100792980Y-99001280D01*
X100792980Y-99001280D01*
X100815840Y-99026680D01*
X100861560Y-99077480D01*
X100927600Y-99143520D01*
X101006340Y-99222260D01*
X101062220Y-99280680D01*
X101133340Y-99349260D01*
X101181600Y-99394980D01*
X101212080Y-99417840D01*
X101229860Y-99425460D01*
X101242560Y-99422920D01*
X101267960Y-99407680D01*
X101321300Y-99372120D01*
X101397500Y-99318780D01*
X101486400Y-99257820D01*
X101560060Y-99209560D01*
X101643880Y-99153680D01*
X101704840Y-99118120D01*
X101732780Y-99107960D01*
X101745480Y-99110500D01*
X101793740Y-99128280D01*
X101867400Y-99156220D01*
X101956300Y-99194320D01*
X102154420Y-99280680D01*
X102179820Y-99410220D01*
X102192520Y-99488960D01*
X102215380Y-99600720D01*
X102235700Y-99704860D01*
X102266180Y-99869960D01*
X102868160Y-99875040D01*
X102878320Y-99849640D01*
X102885940Y-99824240D01*
X102898640Y-99763280D01*
X102916420Y-99676920D01*
X102936740Y-99575320D01*
X102951980Y-99488960D01*
X102969760Y-99400060D01*
X102982460Y-99336560D01*
X102987540Y-99308620D01*
X102997700Y-99301000D01*
X103038340Y-99280680D01*
X103106920Y-99247660D01*
X103188200Y-99214640D01*
X103272020Y-99179080D01*
X103350760Y-99148600D01*
X103409180Y-99125740D01*
X103442200Y-99118120D01*
X103465060Y-99130820D01*
X103515860Y-99163840D01*
X103589520Y-99212100D01*
X103675880Y-99270520D01*
X103764780Y-99331480D01*
X103838440Y-99382280D01*
X103891780Y-99415300D01*
X103917180Y-99430540D01*
X103934960Y-99422920D01*
X103975600Y-99389900D01*
X104044180Y-99323860D01*
X104140700Y-99224800D01*
X104155940Y-99209560D01*
X104232140Y-99130820D01*
X104293100Y-99064780D01*
X104333740Y-99019060D01*
X104348980Y-98998740D01*
X104348980Y-98998740D01*
G37*
X104348980Y-98998740D02*
X104336280Y-98975880D01*
X104303260Y-98922540D01*
X104255000Y-98848880D01*
X104196580Y-98759980D01*
X104135620Y-98673620D01*
X104087360Y-98599960D01*
X104054340Y-98549160D01*
X104044180Y-98528840D01*
X104046720Y-98516140D01*
X104067040Y-98475500D01*
X104100060Y-98414540D01*
X104117840Y-98378980D01*
X104140700Y-98323100D01*
X104145780Y-98295160D01*
X104138160Y-98290080D01*
X104097520Y-98269760D01*
X104023860Y-98239280D01*
X103927340Y-98196100D01*
X103813040Y-98147840D01*
X103691120Y-98097040D01*
X103569200Y-98043700D01*
X103449820Y-97995440D01*
X103343140Y-97952260D01*
X103256780Y-97916700D01*
X103195820Y-97893840D01*
X103170420Y-97886220D01*
X103165340Y-97888760D01*
X103137400Y-97916700D01*
X103101840Y-97964960D01*
X103015480Y-98069100D01*
X102885940Y-98173240D01*
X102738620Y-98236740D01*
X102573520Y-98259600D01*
X102423660Y-98241820D01*
X102278880Y-98180860D01*
X102146800Y-98079260D01*
X102050280Y-97954800D01*
X101986780Y-97812560D01*
X101966460Y-97650000D01*
X101984240Y-97495060D01*
X102042660Y-97347740D01*
X102144260Y-97215660D01*
X102207760Y-97159780D01*
X102339840Y-97083580D01*
X102482080Y-97040400D01*
X102517640Y-97035320D01*
X102675120Y-97042940D01*
X102824980Y-97088660D01*
X102957060Y-97169940D01*
X103068820Y-97284240D01*
X103078980Y-97299480D01*
X103117080Y-97352820D01*
X103145020Y-97388380D01*
X103167880Y-97416320D01*
X103647940Y-97218200D01*
X103724140Y-97185180D01*
X103853680Y-97131840D01*
X103967980Y-97083580D01*
X104056880Y-97042940D01*
X104117840Y-97017540D01*
X104140700Y-97004840D01*
X104143240Y-97004840D01*
X104145780Y-96987060D01*
X104133080Y-96951500D01*
X104100060Y-96882920D01*
X104077200Y-96839740D01*
X104051800Y-96788940D01*
X104044180Y-96766080D01*
X104054340Y-96745760D01*
X104084820Y-96697500D01*
X104133080Y-96626380D01*
X104191500Y-96540020D01*
X104247380Y-96458740D01*
X104295640Y-96385080D01*
X104331200Y-96329200D01*
X104346440Y-96303800D01*
X104346440Y-96298720D01*
X104333740Y-96275860D01*
X104295640Y-96232680D01*
X104234680Y-96166640D01*
X104143240Y-96075200D01*
X104130540Y-96059960D01*
X104051800Y-95983760D01*
X103988300Y-95922800D01*
X103942580Y-95882160D01*
X103919720Y-95866920D01*
X103919720Y-95866920D01*
X103894320Y-95879620D01*
X103840980Y-95915180D01*
X103764780Y-95963440D01*
X103675880Y-96024400D01*
X103444740Y-96184420D01*
X103226300Y-96095520D01*
X103160260Y-96070120D01*
X103078980Y-96034560D01*
X103023100Y-96009160D01*
X102997700Y-95996460D01*
X102987540Y-95973600D01*
X102974840Y-95915180D01*
X102957060Y-95828820D01*
X102936740Y-95724680D01*
X102918960Y-95625620D01*
X102901180Y-95539260D01*
X102888480Y-95473220D01*
X102883400Y-95445280D01*
X102880860Y-95437660D01*
X102865620Y-95432580D01*
X102835140Y-95430040D01*
X102781800Y-95427500D01*
X102697980Y-95424960D01*
X102573520Y-95424960D01*
X102560820Y-95424960D01*
X102443980Y-95427500D01*
X102350000Y-95427500D01*
X102291580Y-95432580D01*
X102266180Y-95435120D01*
X102266180Y-95435120D01*
X102261100Y-95463060D01*
X102245860Y-95526560D01*
X102230620Y-95615460D01*
X102210300Y-95719600D01*
X102207760Y-95727220D01*
X102187440Y-95831360D01*
X102169660Y-95920260D01*
X102154420Y-95981220D01*
X102146800Y-96009160D01*
X102139180Y-96014240D01*
X102098540Y-96034560D01*
X102032500Y-96065040D01*
X101953760Y-96100600D01*
X101869940Y-96133620D01*
X101796280Y-96164100D01*
X101740400Y-96184420D01*
X101715000Y-96189500D01*
X101715000Y-96189500D01*
X101689600Y-96174260D01*
X101636260Y-96138700D01*
X101560060Y-96087900D01*
X101471160Y-96024400D01*
X101463540Y-96021860D01*
X101374640Y-95960900D01*
X101298440Y-95910100D01*
X101245100Y-95879620D01*
X101222240Y-95866920D01*
X101219700Y-95866920D01*
X101194300Y-95887240D01*
X101143500Y-95932960D01*
X101074920Y-95996460D01*
X100996180Y-96075200D01*
X100970780Y-96100600D01*
X100886960Y-96186960D01*
X100831080Y-96245380D01*
X100803140Y-96283480D01*
X100795520Y-96301260D01*
X100795520Y-96301260D01*
X100813300Y-96329200D01*
X100848860Y-96385080D01*
X100902200Y-96461280D01*
X100963160Y-96552720D01*
X100965700Y-96557800D01*
X101026660Y-96646700D01*
X101077460Y-96720360D01*
X101113020Y-96773700D01*
X101125720Y-96796560D01*
X101125720Y-96801640D01*
X101115560Y-96837200D01*
X101092700Y-96900700D01*
X101062220Y-96976900D01*
X101029200Y-97060720D01*
X100998720Y-97134380D01*
X100973320Y-97190260D01*
X100958080Y-97218200D01*
X100955540Y-97218200D01*
X100925060Y-97228360D01*
X100859020Y-97243600D01*
X100767580Y-97261380D01*
X100658360Y-97281700D01*
X100640580Y-97286780D01*
X100533900Y-97307100D01*
X100447540Y-97322340D01*
X100386580Y-97335040D01*
X100361180Y-97342660D01*
X100358640Y-97357900D01*
X100353560Y-97408700D01*
X100351020Y-97487440D01*
X100351020Y-97583960D01*
X100351020Y-97683020D01*
X100353560Y-97782080D01*
X100356100Y-97865900D01*
X100361180Y-97924320D01*
X100366260Y-97949720D01*
X100366260Y-97952260D01*
X100399280Y-97959880D01*
X100465320Y-97975120D01*
X100559300Y-97992900D01*
X100668520Y-98015760D01*
X100686300Y-98018300D01*
X100792980Y-98038620D01*
X100879340Y-98056400D01*
X100940300Y-98069100D01*
X100963160Y-98076720D01*
X100968240Y-98084340D01*
X100986020Y-98130060D01*
X101016500Y-98201180D01*
X101052060Y-98287540D01*
X101133340Y-98490740D01*
X100963160Y-98742200D01*
X100947920Y-98765060D01*
X100886960Y-98853960D01*
X100836160Y-98927620D01*
X100803140Y-98978420D01*
X100792980Y-99001280D01*
X100792980Y-99001280D01*
X100815840Y-99026680D01*
X100861560Y-99077480D01*
X100927600Y-99143520D01*
X101006340Y-99222260D01*
X101062220Y-99280680D01*
X101133340Y-99349260D01*
X101181600Y-99394980D01*
X101212080Y-99417840D01*
X101229860Y-99425460D01*
X101242560Y-99422920D01*
X101267960Y-99407680D01*
X101321300Y-99372120D01*
X101397500Y-99318780D01*
X101486400Y-99257820D01*
X101560060Y-99209560D01*
X101643880Y-99153680D01*
X101704840Y-99118120D01*
X101732780Y-99107960D01*
X101745480Y-99110500D01*
X101793740Y-99128280D01*
X101867400Y-99156220D01*
X101956300Y-99194320D01*
X102154420Y-99280680D01*
X102179820Y-99410220D01*
X102192520Y-99488960D01*
X102215380Y-99600720D01*
X102235700Y-99704860D01*
X102266180Y-99869960D01*
X102868160Y-99875040D01*
X102878320Y-99849640D01*
X102885940Y-99824240D01*
X102898640Y-99763280D01*
X102916420Y-99676920D01*
X102936740Y-99575320D01*
X102951980Y-99488960D01*
X102969760Y-99400060D01*
X102982460Y-99336560D01*
X102987540Y-99308620D01*
X102997700Y-99301000D01*
X103038340Y-99280680D01*
X103106920Y-99247660D01*
X103188200Y-99214640D01*
X103272020Y-99179080D01*
X103350760Y-99148600D01*
X103409180Y-99125740D01*
X103442200Y-99118120D01*
X103465060Y-99130820D01*
X103515860Y-99163840D01*
X103589520Y-99212100D01*
X103675880Y-99270520D01*
X103764780Y-99331480D01*
X103838440Y-99382280D01*
X103891780Y-99415300D01*
X103917180Y-99430540D01*
X103934960Y-99422920D01*
X103975600Y-99389900D01*
X104044180Y-99323860D01*
X104140700Y-99224800D01*
X104155940Y-99209560D01*
X104232140Y-99130820D01*
X104293100Y-99064780D01*
X104333740Y-99019060D01*
X104348980Y-98998740D01*
D15*
X134601240Y-85400000D02*
X129998760Y-85400000D01*
X129998760Y-85400000D02*
X129998760Y-95399980D01*
X129998760Y-95399980D02*
X134601240Y-95399980D01*
X134601240Y-95399980D02*
X134601240Y-85400000D01*
X117650000Y-84948760D02*
X117650000Y-89551240D01*
X117650000Y-89551240D02*
X127649980Y-89551240D01*
X127649980Y-89551240D02*
X127649980Y-84948760D01*
X127649980Y-84948760D02*
X117650000Y-84948760D01*
X110298760Y-95400000D02*
X114901240Y-95400000D01*
X114901240Y-95400000D02*
X114901240Y-85400020D01*
X114901240Y-85400020D02*
X110298760Y-85400020D01*
X110298760Y-85400020D02*
X110298760Y-95400000D01*
D16*
X115980000Y-95350000D02*
X115980000Y-93350000D01*
X118120000Y-93350000D02*
X118120000Y-95350000D01*
X119480000Y-95350000D02*
X119480000Y-93350000D01*
X121620000Y-93350000D02*
X121620000Y-95350000D01*
X122980000Y-95350000D02*
X122980000Y-93350000D01*
X125120000Y-93350000D02*
X125120000Y-95350000D01*
X126480000Y-95350000D02*
X126480000Y-93350000D01*
X128620000Y-93350000D02*
X128620000Y-95350000D01*
X106170000Y-88460000D02*
X106170000Y-96140000D01*
X106170000Y-96140000D02*
X108830000Y-96140000D01*
X108830000Y-96140000D02*
X108830000Y-88460000D01*
X108830000Y-88460000D02*
X106170000Y-88460000D01*
X106170000Y-87190000D02*
X106170000Y-85860000D01*
X106170000Y-85860000D02*
X107500000Y-85860000D01*
X136170000Y-88460000D02*
X136170000Y-96140000D01*
X136170000Y-96140000D02*
X138830000Y-96140000D01*
X138830000Y-96140000D02*
X138830000Y-88460000D01*
X138830000Y-88460000D02*
X136170000Y-88460000D01*
X136170000Y-87190000D02*
X136170000Y-85860000D01*
X136170000Y-85860000D02*
X137500000Y-85860000D01*
X123550000Y-98070000D02*
X124550000Y-98070000D01*
X124550000Y-99430000D02*
X123550000Y-99430000D01*
X119800000Y-98070000D02*
X120800000Y-98070000D01*
X120800000Y-99430000D02*
X119800000Y-99430000D01*
D17*
X102200000Y-84592857D02*
X102200000Y-85450000D01*
X102142858Y-85621429D01*
X102028572Y-85735714D01*
X101857143Y-85792857D01*
X101742858Y-85792857D01*
X103400001Y-85792857D02*
X102714286Y-85792857D01*
X103057144Y-85792857D02*
X103057144Y-84592857D01*
X102942858Y-84764286D01*
X102828572Y-84878571D01*
X102714286Y-84935714D01*
X142000000Y-84542857D02*
X142000000Y-85400000D01*
X141942858Y-85571429D01*
X141828572Y-85685714D01*
X141657143Y-85742857D01*
X141542858Y-85742857D01*
X142457144Y-84542857D02*
X143200001Y-84542857D01*
X142800001Y-85000000D01*
X142971429Y-85000000D01*
X143085715Y-85057143D01*
X143142858Y-85114286D01*
X143200001Y-85228571D01*
X143200001Y-85514286D01*
X143142858Y-85628571D01*
X143085715Y-85685714D01*
X142971429Y-85742857D01*
X142628572Y-85742857D01*
X142514286Y-85685714D01*
X142457144Y-85628571D01*
D18*
X130633333Y-84788095D02*
X130014286Y-84788095D01*
X130014286Y-83488095D01*
X130942857Y-83488095D02*
X131747619Y-83488095D01*
X131314286Y-83983333D01*
X131500000Y-83983333D01*
X131623810Y-84045238D01*
X131685714Y-84107143D01*
X131747619Y-84230952D01*
X131747619Y-84540476D01*
X131685714Y-84664286D01*
X131623810Y-84726190D01*
X131500000Y-84788095D01*
X131128572Y-84788095D01*
X131004762Y-84726190D01*
X130942857Y-84664286D01*
X118233333Y-84288095D02*
X117614286Y-84288095D01*
X117614286Y-82988095D01*
X118604762Y-83111905D02*
X118666667Y-83050000D01*
X118790476Y-82988095D01*
X119100000Y-82988095D01*
X119223810Y-83050000D01*
X119285714Y-83111905D01*
X119347619Y-83235714D01*
X119347619Y-83359524D01*
X119285714Y-83545238D01*
X118542857Y-84288095D01*
X119347619Y-84288095D01*
X113833333Y-84838095D02*
X113214286Y-84838095D01*
X113214286Y-83538095D01*
X114947619Y-84838095D02*
X114204762Y-84838095D01*
X114576191Y-84838095D02*
X114576191Y-83538095D01*
X114452381Y-83723810D01*
X114328572Y-83847619D01*
X114204762Y-83909524D01*
D13*
X116883334Y-91957143D02*
X116835715Y-92004762D01*
X116692858Y-92052381D01*
X116597620Y-92052381D01*
X116454762Y-92004762D01*
X116359524Y-91909524D01*
X116311905Y-91814286D01*
X116264286Y-91623810D01*
X116264286Y-91480952D01*
X116311905Y-91290476D01*
X116359524Y-91195238D01*
X116454762Y-91100000D01*
X116597620Y-91052381D01*
X116692858Y-91052381D01*
X116835715Y-91100000D01*
X116883334Y-91147619D01*
X117835715Y-92052381D02*
X117264286Y-92052381D01*
X117550000Y-92052381D02*
X117550000Y-91052381D01*
X117454762Y-91195238D01*
X117359524Y-91290476D01*
X117264286Y-91338095D01*
X120233334Y-91957143D02*
X120185715Y-92004762D01*
X120042858Y-92052381D01*
X119947620Y-92052381D01*
X119804762Y-92004762D01*
X119709524Y-91909524D01*
X119661905Y-91814286D01*
X119614286Y-91623810D01*
X119614286Y-91480952D01*
X119661905Y-91290476D01*
X119709524Y-91195238D01*
X119804762Y-91100000D01*
X119947620Y-91052381D01*
X120042858Y-91052381D01*
X120185715Y-91100000D01*
X120233334Y-91147619D01*
X120614286Y-91147619D02*
X120661905Y-91100000D01*
X120757143Y-91052381D01*
X120995239Y-91052381D01*
X121090477Y-91100000D01*
X121138096Y-91147619D01*
X121185715Y-91242857D01*
X121185715Y-91338095D01*
X121138096Y-91480952D01*
X120566667Y-92052381D01*
X121185715Y-92052381D01*
X123883334Y-91957143D02*
X123835715Y-92004762D01*
X123692858Y-92052381D01*
X123597620Y-92052381D01*
X123454762Y-92004762D01*
X123359524Y-91909524D01*
X123311905Y-91814286D01*
X123264286Y-91623810D01*
X123264286Y-91480952D01*
X123311905Y-91290476D01*
X123359524Y-91195238D01*
X123454762Y-91100000D01*
X123597620Y-91052381D01*
X123692858Y-91052381D01*
X123835715Y-91100000D01*
X123883334Y-91147619D01*
X124216667Y-91052381D02*
X124835715Y-91052381D01*
X124502381Y-91433333D01*
X124645239Y-91433333D01*
X124740477Y-91480952D01*
X124788096Y-91528571D01*
X124835715Y-91623810D01*
X124835715Y-91861905D01*
X124788096Y-91957143D01*
X124740477Y-92004762D01*
X124645239Y-92052381D01*
X124359524Y-92052381D01*
X124264286Y-92004762D01*
X124216667Y-91957143D01*
X127383334Y-91957143D02*
X127335715Y-92004762D01*
X127192858Y-92052381D01*
X127097620Y-92052381D01*
X126954762Y-92004762D01*
X126859524Y-91909524D01*
X126811905Y-91814286D01*
X126764286Y-91623810D01*
X126764286Y-91480952D01*
X126811905Y-91290476D01*
X126859524Y-91195238D01*
X126954762Y-91100000D01*
X127097620Y-91052381D01*
X127192858Y-91052381D01*
X127335715Y-91100000D01*
X127383334Y-91147619D01*
X128240477Y-91385714D02*
X128240477Y-92052381D01*
X128002381Y-91004762D02*
X127764286Y-91719048D01*
X128383334Y-91719048D01*
X107166667Y-84302381D02*
X107166667Y-85016667D01*
X107119047Y-85159524D01*
X107023809Y-85254762D01*
X106880952Y-85302381D01*
X106785714Y-85302381D01*
X107595238Y-84397619D02*
X107642857Y-84350000D01*
X107738095Y-84302381D01*
X107976191Y-84302381D01*
X108071429Y-84350000D01*
X108119048Y-84397619D01*
X108166667Y-84492857D01*
X108166667Y-84588095D01*
X108119048Y-84730952D01*
X107547619Y-85302381D01*
X108166667Y-85302381D01*
X137166667Y-84302381D02*
X137166667Y-85016667D01*
X137119047Y-85159524D01*
X137023809Y-85254762D01*
X136880952Y-85302381D01*
X136785714Y-85302381D01*
X138071429Y-84635714D02*
X138071429Y-85302381D01*
X137833333Y-84254762D02*
X137595238Y-84969048D01*
X138214286Y-84969048D01*
X123883334Y-97852381D02*
X123550000Y-97376190D01*
X123311905Y-97852381D02*
X123311905Y-96852381D01*
X123692858Y-96852381D01*
X123788096Y-96900000D01*
X123835715Y-96947619D01*
X123883334Y-97042857D01*
X123883334Y-97185714D01*
X123835715Y-97280952D01*
X123788096Y-97328571D01*
X123692858Y-97376190D01*
X123311905Y-97376190D01*
X124835715Y-97852381D02*
X124264286Y-97852381D01*
X124550000Y-97852381D02*
X124550000Y-96852381D01*
X124454762Y-96995238D01*
X124359524Y-97090476D01*
X124264286Y-97138095D01*
X120133334Y-97852381D02*
X119800000Y-97376190D01*
X119561905Y-97852381D02*
X119561905Y-96852381D01*
X119942858Y-96852381D01*
X120038096Y-96900000D01*
X120085715Y-96947619D01*
X120133334Y-97042857D01*
X120133334Y-97185714D01*
X120085715Y-97280952D01*
X120038096Y-97328571D01*
X119942858Y-97376190D01*
X119561905Y-97376190D01*
X120514286Y-96947619D02*
X120561905Y-96900000D01*
X120657143Y-96852381D01*
X120895239Y-96852381D01*
X120990477Y-96900000D01*
X121038096Y-96947619D01*
X121085715Y-97042857D01*
X121085715Y-97138095D01*
X121038096Y-97280952D01*
X120466667Y-97852381D01*
X121085715Y-97852381D01*
G36*
X144224314Y-96227758D02*
X144247698Y-96234851D01*
X144269245Y-96246368D01*
X144288132Y-96261868D01*
X144303632Y-96280755D01*
X144315149Y-96302302D01*
X144322242Y-96325686D01*
X144325000Y-96353686D01*
X144325000Y-99496314D01*
X144322242Y-99524314D01*
X144315149Y-99547698D01*
X144303632Y-99569245D01*
X144288132Y-99588132D01*
X144269245Y-99603632D01*
X144247698Y-99615149D01*
X144224314Y-99622242D01*
X144196314Y-99625000D01*
X129803686Y-99625000D01*
X129775686Y-99622242D01*
X129752302Y-99615149D01*
X129730755Y-99603632D01*
X129711868Y-99588132D01*
X129696368Y-99569245D01*
X129684851Y-99547698D01*
X129677758Y-99524314D01*
X129675000Y-99496314D01*
X129675000Y-96225000D01*
X144196314Y-96225000D01*
X144224314Y-96227758D01*
X144224314Y-96227758D01*
G37*
X144224314Y-96227758D02*
X144247698Y-96234851D01*
X144269245Y-96246368D01*
X144288132Y-96261868D01*
X144303632Y-96280755D01*
X144315149Y-96302302D01*
X144322242Y-96325686D01*
X144325000Y-96353686D01*
X144325000Y-99496314D01*
X144322242Y-99524314D01*
X144315149Y-99547698D01*
X144303632Y-99569245D01*
X144288132Y-99588132D01*
X144269245Y-99603632D01*
X144247698Y-99615149D01*
X144224314Y-99622242D01*
X144196314Y-99625000D01*
X129803686Y-99625000D01*
X129775686Y-99622242D01*
X129752302Y-99615149D01*
X129730755Y-99603632D01*
X129711868Y-99588132D01*
X129696368Y-99569245D01*
X129684851Y-99547698D01*
X129677758Y-99524314D01*
X129675000Y-99496314D01*
X129675000Y-96225000D01*
X144196314Y-96225000D01*
X144224314Y-96227758D01*
M02*
