G04 #@! TF.GenerationSoftware,KiCad,Pcbnew,5.0.2-bee76a0~70~ubuntu18.04.1*
G04 #@! TF.CreationDate,2018-12-18T09:34:18-08:00*
G04 #@! TF.ProjectId,LowPassFilterModule,4c6f7750-6173-4734-9669-6c7465724d6f,rev?*
G04 #@! TF.SameCoordinates,Original*
G04 #@! TF.FileFunction,Copper,L2,Bot*
G04 #@! TF.FilePolarity,Positive*
%FSLAX46Y46*%
G04 Gerber Fmt 4.6, Leading zero omitted, Abs format (unit mm)*
G04 Created by KiCad (PCBNEW 5.0.2-bee76a0~70~ubuntu18.04.1) date Tue 18 Dec 2018 09:34:18 AM PST*
%MOMM*%
%LPD*%
G01*
G04 APERTURE LIST*
G04 #@! TA.AperFunction,NonConductor*
%ADD10C,0.200000*%
G04 #@! TD*
G04 #@! TA.AperFunction,ComponentPad*
%ADD11O,1.700000X1.700000*%
G04 #@! TD*
G04 #@! TA.AperFunction,ComponentPad*
%ADD12R,1.700000X1.700000*%
G04 #@! TD*
G04 #@! TA.AperFunction,ComponentPad*
%ADD13C,0.500000*%
G04 #@! TD*
G04 #@! TA.AperFunction,ComponentPad*
%ADD14C,1.600000*%
G04 #@! TD*
G04 #@! TA.AperFunction,ViaPad*
%ADD15C,0.500000*%
G04 #@! TD*
G04 #@! TA.AperFunction,Conductor*
%ADD16C,0.300000*%
G04 #@! TD*
G04 #@! TA.AperFunction,Conductor*
%ADD17C,0.200000*%
G04 #@! TD*
G04 APERTURE END LIST*
D10*
X109280952Y-99042857D02*
X109614285Y-98471428D01*
X109852380Y-99042857D02*
X109852380Y-97842857D01*
X109471428Y-97842857D01*
X109376190Y-97900000D01*
X109328571Y-97957142D01*
X109280952Y-98071428D01*
X109280952Y-98242857D01*
X109328571Y-98357142D01*
X109376190Y-98414285D01*
X109471428Y-98471428D01*
X109852380Y-98471428D01*
X108471428Y-98985714D02*
X108566666Y-99042857D01*
X108757142Y-99042857D01*
X108852380Y-98985714D01*
X108900000Y-98871428D01*
X108900000Y-98414285D01*
X108852380Y-98300000D01*
X108757142Y-98242857D01*
X108566666Y-98242857D01*
X108471428Y-98300000D01*
X108423809Y-98414285D01*
X108423809Y-98528571D01*
X108900000Y-98642857D01*
X108090476Y-98242857D02*
X107852380Y-99042857D01*
X107614285Y-98242857D01*
X105900000Y-98928571D02*
X105947619Y-98985714D01*
X106090476Y-99042857D01*
X106185714Y-99042857D01*
X106328571Y-98985714D01*
X106423809Y-98871428D01*
X106471428Y-98757142D01*
X106519047Y-98528571D01*
X106519047Y-98357142D01*
X106471428Y-98128571D01*
X106423809Y-98014285D01*
X106328571Y-97900000D01*
X106185714Y-97842857D01*
X106090476Y-97842857D01*
X105947619Y-97900000D01*
X105900000Y-97957142D01*
D11*
G04 #@! TO.P,J1,5*
G04 #@! TO.N,GND*
X102000000Y-98080000D03*
G04 #@! TO.P,J1,4*
G04 #@! TO.N,Net-(C1-Pad1)*
X102000000Y-95540000D03*
G04 #@! TO.P,J1,3*
G04 #@! TO.N,GND*
X102000000Y-93000000D03*
G04 #@! TO.P,J1,2*
G04 #@! TO.N,Net-(J1-Pad2)*
X102000000Y-90460000D03*
D12*
G04 #@! TO.P,J1,1*
G04 #@! TO.N,GND*
X102000000Y-87920000D03*
G04 #@! TD*
D13*
G04 #@! TO.P,VIA,*
G04 #@! TO.N,GND*
X117000000Y-87800000D03*
G04 #@! TD*
G04 #@! TO.P,VIA,*
G04 #@! TO.N,GND*
X109500000Y-87800000D03*
G04 #@! TD*
G04 #@! TO.P,VIA,*
G04 #@! TO.N,GND*
X110600000Y-87800000D03*
G04 #@! TD*
G04 #@! TO.P,VIA,*
G04 #@! TO.N,GND*
X111700000Y-87800000D03*
G04 #@! TD*
G04 #@! TO.P,VIA,*
G04 #@! TO.N,GND*
X112700000Y-87800000D03*
G04 #@! TD*
D14*
G04 #@! TO.P,L3,2*
G04 #@! TO.N,Net-(C6-Pad1)*
X124400000Y-94950000D03*
G04 #@! TO.P,L3,1*
G04 #@! TO.N,Net-(C4-Pad1)*
X126600000Y-89950000D03*
G04 #@! TD*
G04 #@! TO.P,L2,2*
G04 #@! TO.N,Net-(C4-Pad1)*
X119550000Y-91600000D03*
G04 #@! TO.P,L2,1*
G04 #@! TO.N,Net-(C2-Pad1)*
X114550000Y-89400000D03*
G04 #@! TD*
G04 #@! TO.P,L1,2*
G04 #@! TO.N,Net-(C2-Pad1)*
X109850000Y-89950000D03*
G04 #@! TO.P,L1,1*
G04 #@! TO.N,Net-(C1-Pad1)*
X107650000Y-94950000D03*
G04 #@! TD*
D13*
G04 #@! TO.P,VIA,*
G04 #@! TO.N,GND*
X124300000Y-93000000D03*
G04 #@! TD*
G04 #@! TO.P,VIA,*
G04 #@! TO.N,GND*
X117000000Y-91600000D03*
G04 #@! TD*
G04 #@! TO.P,VIA,*
G04 #@! TO.N,GND*
X117000000Y-89400000D03*
G04 #@! TD*
G04 #@! TO.P,VIA,*
G04 #@! TO.N,GND*
X126500000Y-93000000D03*
G04 #@! TD*
G04 #@! TO.P,VIA,*
G04 #@! TO.N,GND*
X122600000Y-97600000D03*
G04 #@! TD*
G04 #@! TO.P,VIA,*
G04 #@! TO.N,GND*
X129000000Y-90000000D03*
G04 #@! TD*
G04 #@! TO.P,VIA,*
G04 #@! TO.N,GND*
X117100000Y-97600000D03*
G04 #@! TD*
G04 #@! TO.P,VIA,*
G04 #@! TO.N,GND*
X117100000Y-95800000D03*
G04 #@! TD*
G04 #@! TO.P,VIA,*
G04 #@! TO.N,GND*
X119900000Y-95900000D03*
G04 #@! TD*
G04 #@! TO.P,VIA,*
G04 #@! TO.N,GND*
X122400000Y-94500000D03*
G04 #@! TD*
G04 #@! TO.P,VIA,*
G04 #@! TO.N,GND*
X114300000Y-97600000D03*
G04 #@! TD*
G04 #@! TO.P,VIA,*
G04 #@! TO.N,GND*
X114300000Y-95800000D03*
G04 #@! TD*
G04 #@! TO.P,VIA,*
G04 #@! TO.N,GND*
X111500000Y-94500000D03*
G04 #@! TD*
G04 #@! TO.P,VIA,*
G04 #@! TO.N,GND*
X111600000Y-97600000D03*
G04 #@! TD*
G04 #@! TO.P,VIA,*
G04 #@! TO.N,GND*
X119900000Y-97600000D03*
G04 #@! TD*
G04 #@! TO.P,VIA,*
G04 #@! TO.N,GND*
X105000000Y-90000000D03*
G04 #@! TD*
G04 #@! TO.P,VIA,*
G04 #@! TO.N,GND*
X105000000Y-97000000D03*
G04 #@! TD*
G04 #@! TO.P,VIA,*
G04 #@! TO.N,GND*
X129000000Y-97000000D03*
G04 #@! TD*
G04 #@! TO.P,VIA,*
G04 #@! TO.N,GND*
X109900000Y-93000000D03*
G04 #@! TD*
G04 #@! TO.P,VIA,*
G04 #@! TO.N,GND*
X107500000Y-93000000D03*
G04 #@! TD*
D12*
G04 #@! TO.P,J2,1*
G04 #@! TO.N,VCC*
X132000000Y-89190000D03*
D11*
G04 #@! TO.P,J2,2*
G04 #@! TO.N,GND*
X132000000Y-91730000D03*
G04 #@! TO.P,J2,3*
G04 #@! TO.N,Net-(C6-Pad1)*
X132000000Y-94270000D03*
G04 #@! TO.P,J2,4*
G04 #@! TO.N,GND*
X132000000Y-96810000D03*
G04 #@! TD*
D15*
G04 #@! TO.N,Net-(J1-Pad2)*
X117000000Y-87100000D03*
G04 #@! TD*
D16*
G04 #@! TO.N,Net-(J1-Pad2)*
X105360000Y-87100000D02*
X102000000Y-90460000D01*
X117000000Y-87100000D02*
X105360000Y-87100000D01*
G04 #@! TD*
D17*
G04 #@! TO.N,GND*
G36*
X133695000Y-100695000D02*
X100305000Y-100695000D01*
X100305000Y-98324771D01*
X100774199Y-98324771D01*
X100844795Y-98557500D01*
X100960148Y-98773694D01*
X101115461Y-98963230D01*
X101304767Y-99118824D01*
X101520790Y-99234497D01*
X101755229Y-99305803D01*
X101950000Y-99229002D01*
X101950000Y-98130000D01*
X102050000Y-98130000D01*
X102050000Y-99229002D01*
X102244771Y-99305803D01*
X102479210Y-99234497D01*
X102695233Y-99118824D01*
X102884539Y-98963230D01*
X103039852Y-98773694D01*
X103155205Y-98557500D01*
X103225801Y-98324771D01*
X103148913Y-98130000D01*
X102050000Y-98130000D01*
X101950000Y-98130000D01*
X100851087Y-98130000D01*
X100774199Y-98324771D01*
X100305000Y-98324771D01*
X100305000Y-97835229D01*
X100774199Y-97835229D01*
X100851087Y-98030000D01*
X101950000Y-98030000D01*
X101950000Y-96930998D01*
X102050000Y-96930998D01*
X102050000Y-98030000D01*
X103148913Y-98030000D01*
X103225801Y-97835229D01*
X103155205Y-97602500D01*
X103039852Y-97386306D01*
X102957658Y-97286000D01*
X105309524Y-97286000D01*
X105309524Y-99886000D01*
X110490476Y-99886000D01*
X110490476Y-97286000D01*
X105309524Y-97286000D01*
X102957658Y-97286000D01*
X102884539Y-97196770D01*
X102711774Y-97054771D01*
X130774199Y-97054771D01*
X130844795Y-97287500D01*
X130960148Y-97503694D01*
X131115461Y-97693230D01*
X131304767Y-97848824D01*
X131520790Y-97964497D01*
X131755229Y-98035803D01*
X131950000Y-97959002D01*
X131950000Y-96860000D01*
X132050000Y-96860000D01*
X132050000Y-97959002D01*
X132244771Y-98035803D01*
X132479210Y-97964497D01*
X132695233Y-97848824D01*
X132884539Y-97693230D01*
X133039852Y-97503694D01*
X133155205Y-97287500D01*
X133225801Y-97054771D01*
X133148913Y-96860000D01*
X132050000Y-96860000D01*
X131950000Y-96860000D01*
X130851087Y-96860000D01*
X130774199Y-97054771D01*
X102711774Y-97054771D01*
X102695233Y-97041176D01*
X102479210Y-96925503D01*
X102244771Y-96854197D01*
X102050000Y-96930998D01*
X101950000Y-96930998D01*
X101755229Y-96854197D01*
X101520790Y-96925503D01*
X101304767Y-97041176D01*
X101115461Y-97196770D01*
X100960148Y-97386306D01*
X100844795Y-97602500D01*
X100774199Y-97835229D01*
X100305000Y-97835229D01*
X100305000Y-95540000D01*
X100844436Y-95540000D01*
X100866640Y-95765439D01*
X100932398Y-95982215D01*
X101039184Y-96181997D01*
X101182893Y-96357107D01*
X101358003Y-96500816D01*
X101557785Y-96607602D01*
X101774561Y-96673360D01*
X101943508Y-96690000D01*
X102056492Y-96690000D01*
X102225439Y-96673360D01*
X102442215Y-96607602D01*
X102521489Y-96565229D01*
X130774199Y-96565229D01*
X130851087Y-96760000D01*
X131950000Y-96760000D01*
X131950000Y-95660998D01*
X132050000Y-95660998D01*
X132050000Y-96760000D01*
X133148913Y-96760000D01*
X133225801Y-96565229D01*
X133155205Y-96332500D01*
X133039852Y-96116306D01*
X132884539Y-95926770D01*
X132695233Y-95771176D01*
X132479210Y-95655503D01*
X132244771Y-95584197D01*
X132050000Y-95660998D01*
X131950000Y-95660998D01*
X131755229Y-95584197D01*
X131520790Y-95655503D01*
X131304767Y-95771176D01*
X131115461Y-95926770D01*
X130960148Y-96116306D01*
X130844795Y-96332500D01*
X130774199Y-96565229D01*
X102521489Y-96565229D01*
X102641997Y-96500816D01*
X102817107Y-96357107D01*
X102960816Y-96181997D01*
X103067602Y-95982215D01*
X103133360Y-95765439D01*
X103155564Y-95540000D01*
X103133360Y-95314561D01*
X103067602Y-95097785D01*
X102960816Y-94898003D01*
X102914576Y-94841659D01*
X106550000Y-94841659D01*
X106550000Y-95058341D01*
X106592273Y-95270858D01*
X106675193Y-95471045D01*
X106795575Y-95651209D01*
X106948791Y-95804425D01*
X107128955Y-95924807D01*
X107329142Y-96007727D01*
X107541659Y-96050000D01*
X107758341Y-96050000D01*
X107970858Y-96007727D01*
X108171045Y-95924807D01*
X108351209Y-95804425D01*
X108504425Y-95651209D01*
X108624807Y-95471045D01*
X108707727Y-95270858D01*
X108750000Y-95058341D01*
X108750000Y-94841659D01*
X123300000Y-94841659D01*
X123300000Y-95058341D01*
X123342273Y-95270858D01*
X123425193Y-95471045D01*
X123545575Y-95651209D01*
X123698791Y-95804425D01*
X123878955Y-95924807D01*
X124079142Y-96007727D01*
X124291659Y-96050000D01*
X124508341Y-96050000D01*
X124720858Y-96007727D01*
X124921045Y-95924807D01*
X125101209Y-95804425D01*
X125254425Y-95651209D01*
X125374807Y-95471045D01*
X125457727Y-95270858D01*
X125500000Y-95058341D01*
X125500000Y-94841659D01*
X125457727Y-94629142D01*
X125374807Y-94428955D01*
X125268597Y-94270000D01*
X130844436Y-94270000D01*
X130866640Y-94495439D01*
X130932398Y-94712215D01*
X131039184Y-94911997D01*
X131182893Y-95087107D01*
X131358003Y-95230816D01*
X131557785Y-95337602D01*
X131774561Y-95403360D01*
X131943508Y-95420000D01*
X132056492Y-95420000D01*
X132225439Y-95403360D01*
X132442215Y-95337602D01*
X132641997Y-95230816D01*
X132817107Y-95087107D01*
X132960816Y-94911997D01*
X133067602Y-94712215D01*
X133133360Y-94495439D01*
X133155564Y-94270000D01*
X133133360Y-94044561D01*
X133067602Y-93827785D01*
X132960816Y-93628003D01*
X132817107Y-93452893D01*
X132641997Y-93309184D01*
X132442215Y-93202398D01*
X132225439Y-93136640D01*
X132056492Y-93120000D01*
X131943508Y-93120000D01*
X131774561Y-93136640D01*
X131557785Y-93202398D01*
X131358003Y-93309184D01*
X131182893Y-93452893D01*
X131039184Y-93628003D01*
X130932398Y-93827785D01*
X130866640Y-94044561D01*
X130844436Y-94270000D01*
X125268597Y-94270000D01*
X125254425Y-94248791D01*
X125101209Y-94095575D01*
X124921045Y-93975193D01*
X124720858Y-93892273D01*
X124508341Y-93850000D01*
X124291659Y-93850000D01*
X124079142Y-93892273D01*
X123878955Y-93975193D01*
X123698791Y-94095575D01*
X123545575Y-94248791D01*
X123425193Y-94428955D01*
X123342273Y-94629142D01*
X123300000Y-94841659D01*
X108750000Y-94841659D01*
X108707727Y-94629142D01*
X108624807Y-94428955D01*
X108504425Y-94248791D01*
X108351209Y-94095575D01*
X108171045Y-93975193D01*
X107970858Y-93892273D01*
X107758341Y-93850000D01*
X107541659Y-93850000D01*
X107329142Y-93892273D01*
X107128955Y-93975193D01*
X106948791Y-94095575D01*
X106795575Y-94248791D01*
X106675193Y-94428955D01*
X106592273Y-94629142D01*
X106550000Y-94841659D01*
X102914576Y-94841659D01*
X102817107Y-94722893D01*
X102641997Y-94579184D01*
X102442215Y-94472398D01*
X102225439Y-94406640D01*
X102056492Y-94390000D01*
X101943508Y-94390000D01*
X101774561Y-94406640D01*
X101557785Y-94472398D01*
X101358003Y-94579184D01*
X101182893Y-94722893D01*
X101039184Y-94898003D01*
X100932398Y-95097785D01*
X100866640Y-95314561D01*
X100844436Y-95540000D01*
X100305000Y-95540000D01*
X100305000Y-93244771D01*
X100774199Y-93244771D01*
X100844795Y-93477500D01*
X100960148Y-93693694D01*
X101115461Y-93883230D01*
X101304767Y-94038824D01*
X101520790Y-94154497D01*
X101755229Y-94225803D01*
X101950000Y-94149002D01*
X101950000Y-93050000D01*
X102050000Y-93050000D01*
X102050000Y-94149002D01*
X102244771Y-94225803D01*
X102479210Y-94154497D01*
X102695233Y-94038824D01*
X102884539Y-93883230D01*
X103039852Y-93693694D01*
X103155205Y-93477500D01*
X103225801Y-93244771D01*
X103148913Y-93050000D01*
X102050000Y-93050000D01*
X101950000Y-93050000D01*
X100851087Y-93050000D01*
X100774199Y-93244771D01*
X100305000Y-93244771D01*
X100305000Y-92755229D01*
X100774199Y-92755229D01*
X100851087Y-92950000D01*
X101950000Y-92950000D01*
X101950000Y-91850998D01*
X102050000Y-91850998D01*
X102050000Y-92950000D01*
X103148913Y-92950000D01*
X103225801Y-92755229D01*
X103155205Y-92522500D01*
X103039852Y-92306306D01*
X102884539Y-92116770D01*
X102695233Y-91961176D01*
X102479210Y-91845503D01*
X102244771Y-91774197D01*
X102050000Y-91850998D01*
X101950000Y-91850998D01*
X101755229Y-91774197D01*
X101520790Y-91845503D01*
X101304767Y-91961176D01*
X101115461Y-92116770D01*
X100960148Y-92306306D01*
X100844795Y-92522500D01*
X100774199Y-92755229D01*
X100305000Y-92755229D01*
X100305000Y-90460000D01*
X100844436Y-90460000D01*
X100866640Y-90685439D01*
X100932398Y-90902215D01*
X101039184Y-91101997D01*
X101182893Y-91277107D01*
X101358003Y-91420816D01*
X101557785Y-91527602D01*
X101774561Y-91593360D01*
X101943508Y-91610000D01*
X102056492Y-91610000D01*
X102225439Y-91593360D01*
X102442215Y-91527602D01*
X102509459Y-91491659D01*
X118450000Y-91491659D01*
X118450000Y-91708341D01*
X118492273Y-91920858D01*
X118575193Y-92121045D01*
X118695575Y-92301209D01*
X118848791Y-92454425D01*
X119028955Y-92574807D01*
X119229142Y-92657727D01*
X119441659Y-92700000D01*
X119658341Y-92700000D01*
X119870858Y-92657727D01*
X120071045Y-92574807D01*
X120251209Y-92454425D01*
X120404425Y-92301209D01*
X120524807Y-92121045D01*
X120585395Y-91974771D01*
X130774199Y-91974771D01*
X130844795Y-92207500D01*
X130960148Y-92423694D01*
X131115461Y-92613230D01*
X131304767Y-92768824D01*
X131520790Y-92884497D01*
X131755229Y-92955803D01*
X131950000Y-92879002D01*
X131950000Y-91780000D01*
X132050000Y-91780000D01*
X132050000Y-92879002D01*
X132244771Y-92955803D01*
X132479210Y-92884497D01*
X132695233Y-92768824D01*
X132884539Y-92613230D01*
X133039852Y-92423694D01*
X133155205Y-92207500D01*
X133225801Y-91974771D01*
X133148913Y-91780000D01*
X132050000Y-91780000D01*
X131950000Y-91780000D01*
X130851087Y-91780000D01*
X130774199Y-91974771D01*
X120585395Y-91974771D01*
X120607727Y-91920858D01*
X120650000Y-91708341D01*
X120650000Y-91491659D01*
X120648721Y-91485229D01*
X130774199Y-91485229D01*
X130851087Y-91680000D01*
X131950000Y-91680000D01*
X131950000Y-90580998D01*
X132050000Y-90580998D01*
X132050000Y-91680000D01*
X133148913Y-91680000D01*
X133225801Y-91485229D01*
X133155205Y-91252500D01*
X133039852Y-91036306D01*
X132884539Y-90846770D01*
X132695233Y-90691176D01*
X132479210Y-90575503D01*
X132244771Y-90504197D01*
X132050000Y-90580998D01*
X131950000Y-90580998D01*
X131755229Y-90504197D01*
X131520790Y-90575503D01*
X131304767Y-90691176D01*
X131115461Y-90846770D01*
X130960148Y-91036306D01*
X130844795Y-91252500D01*
X130774199Y-91485229D01*
X120648721Y-91485229D01*
X120607727Y-91279142D01*
X120524807Y-91078955D01*
X120404425Y-90898791D01*
X120251209Y-90745575D01*
X120071045Y-90625193D01*
X119870858Y-90542273D01*
X119658341Y-90500000D01*
X119441659Y-90500000D01*
X119229142Y-90542273D01*
X119028955Y-90625193D01*
X118848791Y-90745575D01*
X118695575Y-90898791D01*
X118575193Y-91078955D01*
X118492273Y-91279142D01*
X118450000Y-91491659D01*
X102509459Y-91491659D01*
X102641997Y-91420816D01*
X102817107Y-91277107D01*
X102960816Y-91101997D01*
X103067602Y-90902215D01*
X103133360Y-90685439D01*
X103155564Y-90460000D01*
X103133360Y-90234561D01*
X103070164Y-90026231D01*
X103254736Y-89841659D01*
X108750000Y-89841659D01*
X108750000Y-90058341D01*
X108792273Y-90270858D01*
X108875193Y-90471045D01*
X108995575Y-90651209D01*
X109148791Y-90804425D01*
X109328955Y-90924807D01*
X109529142Y-91007727D01*
X109741659Y-91050000D01*
X109958341Y-91050000D01*
X110170858Y-91007727D01*
X110371045Y-90924807D01*
X110551209Y-90804425D01*
X110704425Y-90651209D01*
X110824807Y-90471045D01*
X110907727Y-90270858D01*
X110950000Y-90058341D01*
X110950000Y-89841659D01*
X110907727Y-89629142D01*
X110824807Y-89428955D01*
X110733069Y-89291659D01*
X113450000Y-89291659D01*
X113450000Y-89508341D01*
X113492273Y-89720858D01*
X113575193Y-89921045D01*
X113695575Y-90101209D01*
X113848791Y-90254425D01*
X114028955Y-90374807D01*
X114229142Y-90457727D01*
X114441659Y-90500000D01*
X114658341Y-90500000D01*
X114870858Y-90457727D01*
X115071045Y-90374807D01*
X115251209Y-90254425D01*
X115404425Y-90101209D01*
X115524807Y-89921045D01*
X115557689Y-89841659D01*
X125500000Y-89841659D01*
X125500000Y-90058341D01*
X125542273Y-90270858D01*
X125625193Y-90471045D01*
X125745575Y-90651209D01*
X125898791Y-90804425D01*
X126078955Y-90924807D01*
X126279142Y-91007727D01*
X126491659Y-91050000D01*
X126708341Y-91050000D01*
X126920858Y-91007727D01*
X127121045Y-90924807D01*
X127301209Y-90804425D01*
X127454425Y-90651209D01*
X127574807Y-90471045D01*
X127657727Y-90270858D01*
X127700000Y-90058341D01*
X127700000Y-89841659D01*
X127657727Y-89629142D01*
X127574807Y-89428955D01*
X127454425Y-89248791D01*
X127301209Y-89095575D01*
X127121045Y-88975193D01*
X126920858Y-88892273D01*
X126708341Y-88850000D01*
X126491659Y-88850000D01*
X126279142Y-88892273D01*
X126078955Y-88975193D01*
X125898791Y-89095575D01*
X125745575Y-89248791D01*
X125625193Y-89428955D01*
X125542273Y-89629142D01*
X125500000Y-89841659D01*
X115557689Y-89841659D01*
X115607727Y-89720858D01*
X115650000Y-89508341D01*
X115650000Y-89291659D01*
X115607727Y-89079142D01*
X115524807Y-88878955D01*
X115404425Y-88698791D01*
X115251209Y-88545575D01*
X115071045Y-88425193D01*
X114870858Y-88342273D01*
X114859432Y-88340000D01*
X130848549Y-88340000D01*
X130848549Y-90040000D01*
X130854341Y-90098810D01*
X130871496Y-90155360D01*
X130899353Y-90207477D01*
X130936842Y-90253158D01*
X130982523Y-90290647D01*
X131034640Y-90318504D01*
X131091190Y-90335659D01*
X131150000Y-90341451D01*
X132850000Y-90341451D01*
X132908810Y-90335659D01*
X132965360Y-90318504D01*
X133017477Y-90290647D01*
X133063158Y-90253158D01*
X133100647Y-90207477D01*
X133128504Y-90155360D01*
X133145659Y-90098810D01*
X133151451Y-90040000D01*
X133151451Y-88340000D01*
X133145659Y-88281190D01*
X133128504Y-88224640D01*
X133100647Y-88172523D01*
X133063158Y-88126842D01*
X133017477Y-88089353D01*
X132965360Y-88061496D01*
X132908810Y-88044341D01*
X132850000Y-88038549D01*
X131150000Y-88038549D01*
X131091190Y-88044341D01*
X131034640Y-88061496D01*
X130982523Y-88089353D01*
X130936842Y-88126842D01*
X130899353Y-88172523D01*
X130871496Y-88224640D01*
X130854341Y-88281190D01*
X130848549Y-88340000D01*
X114859432Y-88340000D01*
X114658341Y-88300000D01*
X114441659Y-88300000D01*
X114229142Y-88342273D01*
X114028955Y-88425193D01*
X113848791Y-88545575D01*
X113695575Y-88698791D01*
X113575193Y-88878955D01*
X113492273Y-89079142D01*
X113450000Y-89291659D01*
X110733069Y-89291659D01*
X110704425Y-89248791D01*
X110551209Y-89095575D01*
X110371045Y-88975193D01*
X110170858Y-88892273D01*
X109958341Y-88850000D01*
X109741659Y-88850000D01*
X109529142Y-88892273D01*
X109328955Y-88975193D01*
X109148791Y-89095575D01*
X108995575Y-89248791D01*
X108875193Y-89428955D01*
X108792273Y-89629142D01*
X108750000Y-89841659D01*
X103254736Y-89841659D01*
X105546396Y-87550000D01*
X116683499Y-87550000D01*
X116739477Y-87587403D01*
X116839571Y-87628864D01*
X116945830Y-87650000D01*
X117054170Y-87650000D01*
X117160429Y-87628864D01*
X117260523Y-87587403D01*
X117350604Y-87527213D01*
X117427213Y-87450604D01*
X117487403Y-87360523D01*
X117528864Y-87260429D01*
X117550000Y-87154170D01*
X117550000Y-87045830D01*
X117528864Y-86939571D01*
X117487403Y-86839477D01*
X117427213Y-86749396D01*
X117350604Y-86672787D01*
X117260523Y-86612597D01*
X117160429Y-86571136D01*
X117054170Y-86550000D01*
X116945830Y-86550000D01*
X116839571Y-86571136D01*
X116739477Y-86612597D01*
X116683499Y-86650000D01*
X105382094Y-86650000D01*
X105360000Y-86647824D01*
X105337906Y-86650000D01*
X105337895Y-86650000D01*
X105271785Y-86656511D01*
X105186959Y-86682243D01*
X105108783Y-86724029D01*
X105057432Y-86766172D01*
X105057428Y-86766176D01*
X105040263Y-86780263D01*
X105026176Y-86797428D01*
X103250000Y-88573605D01*
X103250000Y-88070000D01*
X103150000Y-87970000D01*
X102050000Y-87970000D01*
X102050000Y-89070000D01*
X102150000Y-89170000D01*
X102653605Y-89170000D01*
X102433769Y-89389836D01*
X102225439Y-89326640D01*
X102056492Y-89310000D01*
X101943508Y-89310000D01*
X101774561Y-89326640D01*
X101557785Y-89392398D01*
X101358003Y-89499184D01*
X101182893Y-89642893D01*
X101039184Y-89818003D01*
X100932398Y-90017785D01*
X100866640Y-90234561D01*
X100844436Y-90460000D01*
X100305000Y-90460000D01*
X100305000Y-88070000D01*
X100750000Y-88070000D01*
X100750000Y-88809396D01*
X100765372Y-88886675D01*
X100795524Y-88959471D01*
X100839299Y-89024985D01*
X100895014Y-89080700D01*
X100960529Y-89124475D01*
X101033324Y-89154628D01*
X101110603Y-89170000D01*
X101850000Y-89170000D01*
X101950000Y-89070000D01*
X101950000Y-87970000D01*
X100850000Y-87970000D01*
X100750000Y-88070000D01*
X100305000Y-88070000D01*
X100305000Y-87030604D01*
X100750000Y-87030604D01*
X100750000Y-87770000D01*
X100850000Y-87870000D01*
X101950000Y-87870000D01*
X101950000Y-86770000D01*
X102050000Y-86770000D01*
X102050000Y-87870000D01*
X103150000Y-87870000D01*
X103250000Y-87770000D01*
X103250000Y-87030604D01*
X103234628Y-86953325D01*
X103204476Y-86880529D01*
X103160701Y-86815015D01*
X103104986Y-86759300D01*
X103039471Y-86715525D01*
X102966676Y-86685372D01*
X102889397Y-86670000D01*
X102150000Y-86670000D01*
X102050000Y-86770000D01*
X101950000Y-86770000D01*
X101850000Y-86670000D01*
X101110603Y-86670000D01*
X101033324Y-86685372D01*
X100960529Y-86715525D01*
X100895014Y-86759300D01*
X100839299Y-86815015D01*
X100795524Y-86880529D01*
X100765372Y-86953325D01*
X100750000Y-87030604D01*
X100305000Y-87030604D01*
X100305000Y-85305000D01*
X133695001Y-85305000D01*
X133695000Y-100695000D01*
X133695000Y-100695000D01*
G37*
X133695000Y-100695000D02*
X100305000Y-100695000D01*
X100305000Y-98324771D01*
X100774199Y-98324771D01*
X100844795Y-98557500D01*
X100960148Y-98773694D01*
X101115461Y-98963230D01*
X101304767Y-99118824D01*
X101520790Y-99234497D01*
X101755229Y-99305803D01*
X101950000Y-99229002D01*
X101950000Y-98130000D01*
X102050000Y-98130000D01*
X102050000Y-99229002D01*
X102244771Y-99305803D01*
X102479210Y-99234497D01*
X102695233Y-99118824D01*
X102884539Y-98963230D01*
X103039852Y-98773694D01*
X103155205Y-98557500D01*
X103225801Y-98324771D01*
X103148913Y-98130000D01*
X102050000Y-98130000D01*
X101950000Y-98130000D01*
X100851087Y-98130000D01*
X100774199Y-98324771D01*
X100305000Y-98324771D01*
X100305000Y-97835229D01*
X100774199Y-97835229D01*
X100851087Y-98030000D01*
X101950000Y-98030000D01*
X101950000Y-96930998D01*
X102050000Y-96930998D01*
X102050000Y-98030000D01*
X103148913Y-98030000D01*
X103225801Y-97835229D01*
X103155205Y-97602500D01*
X103039852Y-97386306D01*
X102957658Y-97286000D01*
X105309524Y-97286000D01*
X105309524Y-99886000D01*
X110490476Y-99886000D01*
X110490476Y-97286000D01*
X105309524Y-97286000D01*
X102957658Y-97286000D01*
X102884539Y-97196770D01*
X102711774Y-97054771D01*
X130774199Y-97054771D01*
X130844795Y-97287500D01*
X130960148Y-97503694D01*
X131115461Y-97693230D01*
X131304767Y-97848824D01*
X131520790Y-97964497D01*
X131755229Y-98035803D01*
X131950000Y-97959002D01*
X131950000Y-96860000D01*
X132050000Y-96860000D01*
X132050000Y-97959002D01*
X132244771Y-98035803D01*
X132479210Y-97964497D01*
X132695233Y-97848824D01*
X132884539Y-97693230D01*
X133039852Y-97503694D01*
X133155205Y-97287500D01*
X133225801Y-97054771D01*
X133148913Y-96860000D01*
X132050000Y-96860000D01*
X131950000Y-96860000D01*
X130851087Y-96860000D01*
X130774199Y-97054771D01*
X102711774Y-97054771D01*
X102695233Y-97041176D01*
X102479210Y-96925503D01*
X102244771Y-96854197D01*
X102050000Y-96930998D01*
X101950000Y-96930998D01*
X101755229Y-96854197D01*
X101520790Y-96925503D01*
X101304767Y-97041176D01*
X101115461Y-97196770D01*
X100960148Y-97386306D01*
X100844795Y-97602500D01*
X100774199Y-97835229D01*
X100305000Y-97835229D01*
X100305000Y-95540000D01*
X100844436Y-95540000D01*
X100866640Y-95765439D01*
X100932398Y-95982215D01*
X101039184Y-96181997D01*
X101182893Y-96357107D01*
X101358003Y-96500816D01*
X101557785Y-96607602D01*
X101774561Y-96673360D01*
X101943508Y-96690000D01*
X102056492Y-96690000D01*
X102225439Y-96673360D01*
X102442215Y-96607602D01*
X102521489Y-96565229D01*
X130774199Y-96565229D01*
X130851087Y-96760000D01*
X131950000Y-96760000D01*
X131950000Y-95660998D01*
X132050000Y-95660998D01*
X132050000Y-96760000D01*
X133148913Y-96760000D01*
X133225801Y-96565229D01*
X133155205Y-96332500D01*
X133039852Y-96116306D01*
X132884539Y-95926770D01*
X132695233Y-95771176D01*
X132479210Y-95655503D01*
X132244771Y-95584197D01*
X132050000Y-95660998D01*
X131950000Y-95660998D01*
X131755229Y-95584197D01*
X131520790Y-95655503D01*
X131304767Y-95771176D01*
X131115461Y-95926770D01*
X130960148Y-96116306D01*
X130844795Y-96332500D01*
X130774199Y-96565229D01*
X102521489Y-96565229D01*
X102641997Y-96500816D01*
X102817107Y-96357107D01*
X102960816Y-96181997D01*
X103067602Y-95982215D01*
X103133360Y-95765439D01*
X103155564Y-95540000D01*
X103133360Y-95314561D01*
X103067602Y-95097785D01*
X102960816Y-94898003D01*
X102914576Y-94841659D01*
X106550000Y-94841659D01*
X106550000Y-95058341D01*
X106592273Y-95270858D01*
X106675193Y-95471045D01*
X106795575Y-95651209D01*
X106948791Y-95804425D01*
X107128955Y-95924807D01*
X107329142Y-96007727D01*
X107541659Y-96050000D01*
X107758341Y-96050000D01*
X107970858Y-96007727D01*
X108171045Y-95924807D01*
X108351209Y-95804425D01*
X108504425Y-95651209D01*
X108624807Y-95471045D01*
X108707727Y-95270858D01*
X108750000Y-95058341D01*
X108750000Y-94841659D01*
X123300000Y-94841659D01*
X123300000Y-95058341D01*
X123342273Y-95270858D01*
X123425193Y-95471045D01*
X123545575Y-95651209D01*
X123698791Y-95804425D01*
X123878955Y-95924807D01*
X124079142Y-96007727D01*
X124291659Y-96050000D01*
X124508341Y-96050000D01*
X124720858Y-96007727D01*
X124921045Y-95924807D01*
X125101209Y-95804425D01*
X125254425Y-95651209D01*
X125374807Y-95471045D01*
X125457727Y-95270858D01*
X125500000Y-95058341D01*
X125500000Y-94841659D01*
X125457727Y-94629142D01*
X125374807Y-94428955D01*
X125268597Y-94270000D01*
X130844436Y-94270000D01*
X130866640Y-94495439D01*
X130932398Y-94712215D01*
X131039184Y-94911997D01*
X131182893Y-95087107D01*
X131358003Y-95230816D01*
X131557785Y-95337602D01*
X131774561Y-95403360D01*
X131943508Y-95420000D01*
X132056492Y-95420000D01*
X132225439Y-95403360D01*
X132442215Y-95337602D01*
X132641997Y-95230816D01*
X132817107Y-95087107D01*
X132960816Y-94911997D01*
X133067602Y-94712215D01*
X133133360Y-94495439D01*
X133155564Y-94270000D01*
X133133360Y-94044561D01*
X133067602Y-93827785D01*
X132960816Y-93628003D01*
X132817107Y-93452893D01*
X132641997Y-93309184D01*
X132442215Y-93202398D01*
X132225439Y-93136640D01*
X132056492Y-93120000D01*
X131943508Y-93120000D01*
X131774561Y-93136640D01*
X131557785Y-93202398D01*
X131358003Y-93309184D01*
X131182893Y-93452893D01*
X131039184Y-93628003D01*
X130932398Y-93827785D01*
X130866640Y-94044561D01*
X130844436Y-94270000D01*
X125268597Y-94270000D01*
X125254425Y-94248791D01*
X125101209Y-94095575D01*
X124921045Y-93975193D01*
X124720858Y-93892273D01*
X124508341Y-93850000D01*
X124291659Y-93850000D01*
X124079142Y-93892273D01*
X123878955Y-93975193D01*
X123698791Y-94095575D01*
X123545575Y-94248791D01*
X123425193Y-94428955D01*
X123342273Y-94629142D01*
X123300000Y-94841659D01*
X108750000Y-94841659D01*
X108707727Y-94629142D01*
X108624807Y-94428955D01*
X108504425Y-94248791D01*
X108351209Y-94095575D01*
X108171045Y-93975193D01*
X107970858Y-93892273D01*
X107758341Y-93850000D01*
X107541659Y-93850000D01*
X107329142Y-93892273D01*
X107128955Y-93975193D01*
X106948791Y-94095575D01*
X106795575Y-94248791D01*
X106675193Y-94428955D01*
X106592273Y-94629142D01*
X106550000Y-94841659D01*
X102914576Y-94841659D01*
X102817107Y-94722893D01*
X102641997Y-94579184D01*
X102442215Y-94472398D01*
X102225439Y-94406640D01*
X102056492Y-94390000D01*
X101943508Y-94390000D01*
X101774561Y-94406640D01*
X101557785Y-94472398D01*
X101358003Y-94579184D01*
X101182893Y-94722893D01*
X101039184Y-94898003D01*
X100932398Y-95097785D01*
X100866640Y-95314561D01*
X100844436Y-95540000D01*
X100305000Y-95540000D01*
X100305000Y-93244771D01*
X100774199Y-93244771D01*
X100844795Y-93477500D01*
X100960148Y-93693694D01*
X101115461Y-93883230D01*
X101304767Y-94038824D01*
X101520790Y-94154497D01*
X101755229Y-94225803D01*
X101950000Y-94149002D01*
X101950000Y-93050000D01*
X102050000Y-93050000D01*
X102050000Y-94149002D01*
X102244771Y-94225803D01*
X102479210Y-94154497D01*
X102695233Y-94038824D01*
X102884539Y-93883230D01*
X103039852Y-93693694D01*
X103155205Y-93477500D01*
X103225801Y-93244771D01*
X103148913Y-93050000D01*
X102050000Y-93050000D01*
X101950000Y-93050000D01*
X100851087Y-93050000D01*
X100774199Y-93244771D01*
X100305000Y-93244771D01*
X100305000Y-92755229D01*
X100774199Y-92755229D01*
X100851087Y-92950000D01*
X101950000Y-92950000D01*
X101950000Y-91850998D01*
X102050000Y-91850998D01*
X102050000Y-92950000D01*
X103148913Y-92950000D01*
X103225801Y-92755229D01*
X103155205Y-92522500D01*
X103039852Y-92306306D01*
X102884539Y-92116770D01*
X102695233Y-91961176D01*
X102479210Y-91845503D01*
X102244771Y-91774197D01*
X102050000Y-91850998D01*
X101950000Y-91850998D01*
X101755229Y-91774197D01*
X101520790Y-91845503D01*
X101304767Y-91961176D01*
X101115461Y-92116770D01*
X100960148Y-92306306D01*
X100844795Y-92522500D01*
X100774199Y-92755229D01*
X100305000Y-92755229D01*
X100305000Y-90460000D01*
X100844436Y-90460000D01*
X100866640Y-90685439D01*
X100932398Y-90902215D01*
X101039184Y-91101997D01*
X101182893Y-91277107D01*
X101358003Y-91420816D01*
X101557785Y-91527602D01*
X101774561Y-91593360D01*
X101943508Y-91610000D01*
X102056492Y-91610000D01*
X102225439Y-91593360D01*
X102442215Y-91527602D01*
X102509459Y-91491659D01*
X118450000Y-91491659D01*
X118450000Y-91708341D01*
X118492273Y-91920858D01*
X118575193Y-92121045D01*
X118695575Y-92301209D01*
X118848791Y-92454425D01*
X119028955Y-92574807D01*
X119229142Y-92657727D01*
X119441659Y-92700000D01*
X119658341Y-92700000D01*
X119870858Y-92657727D01*
X120071045Y-92574807D01*
X120251209Y-92454425D01*
X120404425Y-92301209D01*
X120524807Y-92121045D01*
X120585395Y-91974771D01*
X130774199Y-91974771D01*
X130844795Y-92207500D01*
X130960148Y-92423694D01*
X131115461Y-92613230D01*
X131304767Y-92768824D01*
X131520790Y-92884497D01*
X131755229Y-92955803D01*
X131950000Y-92879002D01*
X131950000Y-91780000D01*
X132050000Y-91780000D01*
X132050000Y-92879002D01*
X132244771Y-92955803D01*
X132479210Y-92884497D01*
X132695233Y-92768824D01*
X132884539Y-92613230D01*
X133039852Y-92423694D01*
X133155205Y-92207500D01*
X133225801Y-91974771D01*
X133148913Y-91780000D01*
X132050000Y-91780000D01*
X131950000Y-91780000D01*
X130851087Y-91780000D01*
X130774199Y-91974771D01*
X120585395Y-91974771D01*
X120607727Y-91920858D01*
X120650000Y-91708341D01*
X120650000Y-91491659D01*
X120648721Y-91485229D01*
X130774199Y-91485229D01*
X130851087Y-91680000D01*
X131950000Y-91680000D01*
X131950000Y-90580998D01*
X132050000Y-90580998D01*
X132050000Y-91680000D01*
X133148913Y-91680000D01*
X133225801Y-91485229D01*
X133155205Y-91252500D01*
X133039852Y-91036306D01*
X132884539Y-90846770D01*
X132695233Y-90691176D01*
X132479210Y-90575503D01*
X132244771Y-90504197D01*
X132050000Y-90580998D01*
X131950000Y-90580998D01*
X131755229Y-90504197D01*
X131520790Y-90575503D01*
X131304767Y-90691176D01*
X131115461Y-90846770D01*
X130960148Y-91036306D01*
X130844795Y-91252500D01*
X130774199Y-91485229D01*
X120648721Y-91485229D01*
X120607727Y-91279142D01*
X120524807Y-91078955D01*
X120404425Y-90898791D01*
X120251209Y-90745575D01*
X120071045Y-90625193D01*
X119870858Y-90542273D01*
X119658341Y-90500000D01*
X119441659Y-90500000D01*
X119229142Y-90542273D01*
X119028955Y-90625193D01*
X118848791Y-90745575D01*
X118695575Y-90898791D01*
X118575193Y-91078955D01*
X118492273Y-91279142D01*
X118450000Y-91491659D01*
X102509459Y-91491659D01*
X102641997Y-91420816D01*
X102817107Y-91277107D01*
X102960816Y-91101997D01*
X103067602Y-90902215D01*
X103133360Y-90685439D01*
X103155564Y-90460000D01*
X103133360Y-90234561D01*
X103070164Y-90026231D01*
X103254736Y-89841659D01*
X108750000Y-89841659D01*
X108750000Y-90058341D01*
X108792273Y-90270858D01*
X108875193Y-90471045D01*
X108995575Y-90651209D01*
X109148791Y-90804425D01*
X109328955Y-90924807D01*
X109529142Y-91007727D01*
X109741659Y-91050000D01*
X109958341Y-91050000D01*
X110170858Y-91007727D01*
X110371045Y-90924807D01*
X110551209Y-90804425D01*
X110704425Y-90651209D01*
X110824807Y-90471045D01*
X110907727Y-90270858D01*
X110950000Y-90058341D01*
X110950000Y-89841659D01*
X110907727Y-89629142D01*
X110824807Y-89428955D01*
X110733069Y-89291659D01*
X113450000Y-89291659D01*
X113450000Y-89508341D01*
X113492273Y-89720858D01*
X113575193Y-89921045D01*
X113695575Y-90101209D01*
X113848791Y-90254425D01*
X114028955Y-90374807D01*
X114229142Y-90457727D01*
X114441659Y-90500000D01*
X114658341Y-90500000D01*
X114870858Y-90457727D01*
X115071045Y-90374807D01*
X115251209Y-90254425D01*
X115404425Y-90101209D01*
X115524807Y-89921045D01*
X115557689Y-89841659D01*
X125500000Y-89841659D01*
X125500000Y-90058341D01*
X125542273Y-90270858D01*
X125625193Y-90471045D01*
X125745575Y-90651209D01*
X125898791Y-90804425D01*
X126078955Y-90924807D01*
X126279142Y-91007727D01*
X126491659Y-91050000D01*
X126708341Y-91050000D01*
X126920858Y-91007727D01*
X127121045Y-90924807D01*
X127301209Y-90804425D01*
X127454425Y-90651209D01*
X127574807Y-90471045D01*
X127657727Y-90270858D01*
X127700000Y-90058341D01*
X127700000Y-89841659D01*
X127657727Y-89629142D01*
X127574807Y-89428955D01*
X127454425Y-89248791D01*
X127301209Y-89095575D01*
X127121045Y-88975193D01*
X126920858Y-88892273D01*
X126708341Y-88850000D01*
X126491659Y-88850000D01*
X126279142Y-88892273D01*
X126078955Y-88975193D01*
X125898791Y-89095575D01*
X125745575Y-89248791D01*
X125625193Y-89428955D01*
X125542273Y-89629142D01*
X125500000Y-89841659D01*
X115557689Y-89841659D01*
X115607727Y-89720858D01*
X115650000Y-89508341D01*
X115650000Y-89291659D01*
X115607727Y-89079142D01*
X115524807Y-88878955D01*
X115404425Y-88698791D01*
X115251209Y-88545575D01*
X115071045Y-88425193D01*
X114870858Y-88342273D01*
X114859432Y-88340000D01*
X130848549Y-88340000D01*
X130848549Y-90040000D01*
X130854341Y-90098810D01*
X130871496Y-90155360D01*
X130899353Y-90207477D01*
X130936842Y-90253158D01*
X130982523Y-90290647D01*
X131034640Y-90318504D01*
X131091190Y-90335659D01*
X131150000Y-90341451D01*
X132850000Y-90341451D01*
X132908810Y-90335659D01*
X132965360Y-90318504D01*
X133017477Y-90290647D01*
X133063158Y-90253158D01*
X133100647Y-90207477D01*
X133128504Y-90155360D01*
X133145659Y-90098810D01*
X133151451Y-90040000D01*
X133151451Y-88340000D01*
X133145659Y-88281190D01*
X133128504Y-88224640D01*
X133100647Y-88172523D01*
X133063158Y-88126842D01*
X133017477Y-88089353D01*
X132965360Y-88061496D01*
X132908810Y-88044341D01*
X132850000Y-88038549D01*
X131150000Y-88038549D01*
X131091190Y-88044341D01*
X131034640Y-88061496D01*
X130982523Y-88089353D01*
X130936842Y-88126842D01*
X130899353Y-88172523D01*
X130871496Y-88224640D01*
X130854341Y-88281190D01*
X130848549Y-88340000D01*
X114859432Y-88340000D01*
X114658341Y-88300000D01*
X114441659Y-88300000D01*
X114229142Y-88342273D01*
X114028955Y-88425193D01*
X113848791Y-88545575D01*
X113695575Y-88698791D01*
X113575193Y-88878955D01*
X113492273Y-89079142D01*
X113450000Y-89291659D01*
X110733069Y-89291659D01*
X110704425Y-89248791D01*
X110551209Y-89095575D01*
X110371045Y-88975193D01*
X110170858Y-88892273D01*
X109958341Y-88850000D01*
X109741659Y-88850000D01*
X109529142Y-88892273D01*
X109328955Y-88975193D01*
X109148791Y-89095575D01*
X108995575Y-89248791D01*
X108875193Y-89428955D01*
X108792273Y-89629142D01*
X108750000Y-89841659D01*
X103254736Y-89841659D01*
X105546396Y-87550000D01*
X116683499Y-87550000D01*
X116739477Y-87587403D01*
X116839571Y-87628864D01*
X116945830Y-87650000D01*
X117054170Y-87650000D01*
X117160429Y-87628864D01*
X117260523Y-87587403D01*
X117350604Y-87527213D01*
X117427213Y-87450604D01*
X117487403Y-87360523D01*
X117528864Y-87260429D01*
X117550000Y-87154170D01*
X117550000Y-87045830D01*
X117528864Y-86939571D01*
X117487403Y-86839477D01*
X117427213Y-86749396D01*
X117350604Y-86672787D01*
X117260523Y-86612597D01*
X117160429Y-86571136D01*
X117054170Y-86550000D01*
X116945830Y-86550000D01*
X116839571Y-86571136D01*
X116739477Y-86612597D01*
X116683499Y-86650000D01*
X105382094Y-86650000D01*
X105360000Y-86647824D01*
X105337906Y-86650000D01*
X105337895Y-86650000D01*
X105271785Y-86656511D01*
X105186959Y-86682243D01*
X105108783Y-86724029D01*
X105057432Y-86766172D01*
X105057428Y-86766176D01*
X105040263Y-86780263D01*
X105026176Y-86797428D01*
X103250000Y-88573605D01*
X103250000Y-88070000D01*
X103150000Y-87970000D01*
X102050000Y-87970000D01*
X102050000Y-89070000D01*
X102150000Y-89170000D01*
X102653605Y-89170000D01*
X102433769Y-89389836D01*
X102225439Y-89326640D01*
X102056492Y-89310000D01*
X101943508Y-89310000D01*
X101774561Y-89326640D01*
X101557785Y-89392398D01*
X101358003Y-89499184D01*
X101182893Y-89642893D01*
X101039184Y-89818003D01*
X100932398Y-90017785D01*
X100866640Y-90234561D01*
X100844436Y-90460000D01*
X100305000Y-90460000D01*
X100305000Y-88070000D01*
X100750000Y-88070000D01*
X100750000Y-88809396D01*
X100765372Y-88886675D01*
X100795524Y-88959471D01*
X100839299Y-89024985D01*
X100895014Y-89080700D01*
X100960529Y-89124475D01*
X101033324Y-89154628D01*
X101110603Y-89170000D01*
X101850000Y-89170000D01*
X101950000Y-89070000D01*
X101950000Y-87970000D01*
X100850000Y-87970000D01*
X100750000Y-88070000D01*
X100305000Y-88070000D01*
X100305000Y-87030604D01*
X100750000Y-87030604D01*
X100750000Y-87770000D01*
X100850000Y-87870000D01*
X101950000Y-87870000D01*
X101950000Y-86770000D01*
X102050000Y-86770000D01*
X102050000Y-87870000D01*
X103150000Y-87870000D01*
X103250000Y-87770000D01*
X103250000Y-87030604D01*
X103234628Y-86953325D01*
X103204476Y-86880529D01*
X103160701Y-86815015D01*
X103104986Y-86759300D01*
X103039471Y-86715525D01*
X102966676Y-86685372D01*
X102889397Y-86670000D01*
X102150000Y-86670000D01*
X102050000Y-86770000D01*
X101950000Y-86770000D01*
X101850000Y-86670000D01*
X101110603Y-86670000D01*
X101033324Y-86685372D01*
X100960529Y-86715525D01*
X100895014Y-86759300D01*
X100839299Y-86815015D01*
X100795524Y-86880529D01*
X100765372Y-86953325D01*
X100750000Y-87030604D01*
X100305000Y-87030604D01*
X100305000Y-85305000D01*
X133695001Y-85305000D01*
X133695000Y-100695000D01*
G04 #@! TD*
M02*
