G04 #@! TF.FileFunction,Copper,L2,Bot,Signal*
%FSLAX46Y46*%
G04 Gerber Fmt 4.6, Leading zero omitted, Abs format (unit mm)*
G04 Created by KiCad (PCBNEW 4.0.7-e2-6376~58~ubuntu16.04.1) date Fri Jan 19 19:37:22 2018*
%MOMM*%
%LPD*%
G01*
G04 APERTURE LIST*
%ADD10C,0.100000*%
%ADD11C,0.200000*%
%ADD12C,0.500000*%
%ADD13R,5.080000X1.800000*%
%ADD14C,0.300000*%
%ADD15C,1.600000*%
%ADD16R,1.700000X1.700000*%
%ADD17O,1.700000X1.700000*%
%ADD18C,0.300000*%
%ADD19C,0.150000*%
G04 APERTURE END LIST*
D10*
D11*
X107080952Y-98542857D02*
X107414286Y-97971429D01*
X107652381Y-98542857D02*
X107652381Y-97342857D01*
X107271428Y-97342857D01*
X107176190Y-97400000D01*
X107128571Y-97457143D01*
X107080952Y-97571429D01*
X107080952Y-97742857D01*
X107128571Y-97857143D01*
X107176190Y-97914286D01*
X107271428Y-97971429D01*
X107652381Y-97971429D01*
X106271428Y-98485714D02*
X106366666Y-98542857D01*
X106557143Y-98542857D01*
X106652381Y-98485714D01*
X106700000Y-98371429D01*
X106700000Y-97914286D01*
X106652381Y-97800000D01*
X106557143Y-97742857D01*
X106366666Y-97742857D01*
X106271428Y-97800000D01*
X106223809Y-97914286D01*
X106223809Y-98028571D01*
X106700000Y-98142857D01*
X105890476Y-97742857D02*
X105652381Y-98542857D01*
X105414285Y-97742857D01*
X103938094Y-97914286D02*
X103795237Y-97971429D01*
X103747618Y-98028571D01*
X103699999Y-98142857D01*
X103699999Y-98314286D01*
X103747618Y-98428571D01*
X103795237Y-98485714D01*
X103890475Y-98542857D01*
X104271428Y-98542857D01*
X104271428Y-97342857D01*
X103938094Y-97342857D01*
X103842856Y-97400000D01*
X103795237Y-97457143D01*
X103747618Y-97571429D01*
X103747618Y-97685714D01*
X103795237Y-97800000D01*
X103842856Y-97857143D01*
X103938094Y-97914286D01*
X104271428Y-97914286D01*
D12*
X128800000Y-86000000D03*
X116300000Y-86000000D03*
X116300000Y-89400000D03*
X128800000Y-89400000D03*
X109500000Y-88000000D03*
X135400000Y-88000000D03*
X109500000Y-94000000D03*
X135400000Y-94000000D03*
X125800000Y-92950000D03*
X125800000Y-95950000D03*
X122300000Y-95950000D03*
X122300000Y-92950000D03*
X118800000Y-95950000D03*
X118800000Y-92950000D03*
X139350000Y-94000000D03*
X139350000Y-88000000D03*
X143500000Y-92500000D03*
X141300000Y-92500000D03*
X143500000Y-89500000D03*
X141300000Y-89500000D03*
X141300000Y-86400000D03*
X143500000Y-86400000D03*
X143500000Y-95600000D03*
X141300000Y-95600000D03*
X103650000Y-92500000D03*
X101500000Y-92500000D03*
X101500000Y-89500000D03*
X103700000Y-89500000D03*
X103700000Y-86400000D03*
X101500000Y-86400000D03*
X103700000Y-95600000D03*
X101500000Y-95600000D03*
X105700000Y-88000000D03*
X105700000Y-94000000D03*
D13*
X102560000Y-88000000D03*
D14*
X104600000Y-88000000D03*
X100600000Y-88000000D03*
X101600000Y-88500000D03*
X101600000Y-87500000D03*
X102600000Y-88000000D03*
X103600000Y-88500000D03*
X103600000Y-87500000D03*
X104600000Y-94000000D03*
X100600000Y-94000000D03*
X101600000Y-94500000D03*
X101600000Y-93500000D03*
X102600000Y-94000000D03*
X103600000Y-94500000D03*
X103600000Y-93500000D03*
D13*
X102560000Y-94000000D03*
X142460000Y-88000000D03*
D14*
X144500000Y-88000000D03*
X140500000Y-88000000D03*
X141500000Y-88500000D03*
X141500000Y-87500000D03*
X142500000Y-88000000D03*
X143500000Y-88500000D03*
X143500000Y-87500000D03*
X144500000Y-94000000D03*
X140500000Y-94000000D03*
X141500000Y-94500000D03*
X141500000Y-93500000D03*
X142500000Y-94000000D03*
X143500000Y-94500000D03*
X143500000Y-93500000D03*
D13*
X142460000Y-94000000D03*
D15*
X133400000Y-87900000D03*
X131200000Y-92900000D03*
X120150000Y-86150000D03*
X125150000Y-88350000D03*
X111500000Y-92900000D03*
X113700000Y-87900000D03*
D16*
X107500000Y-87190000D03*
D17*
X107500000Y-89730000D03*
X107500000Y-92270000D03*
X107500000Y-94810000D03*
D16*
X137500000Y-87190000D03*
D17*
X137500000Y-89730000D03*
X137500000Y-92270000D03*
X137500000Y-94810000D03*
D12*
X121800000Y-97500000D03*
X126000000Y-98750000D03*
D18*
X114100000Y-97500000D02*
X110349999Y-93749999D01*
X110349999Y-93749999D02*
X110349999Y-92579999D01*
X110349999Y-92579999D02*
X108349999Y-90579999D01*
X108349999Y-90579999D02*
X107500000Y-89730000D01*
X121800000Y-97500000D02*
X114100000Y-97500000D01*
X133532002Y-92267998D02*
X136070000Y-89730000D01*
X136070000Y-89730000D02*
X137500000Y-89730000D01*
X133532002Y-92270000D02*
X133532002Y-92267998D01*
X126000000Y-98750000D02*
X127052002Y-98750000D01*
X127052002Y-98750000D02*
X133532002Y-92270000D01*
D19*
G36*
X144720000Y-86725000D02*
X142628750Y-86725000D01*
X142535000Y-86818750D01*
X142535000Y-87925000D01*
X142555000Y-87925000D01*
X142555000Y-88075000D01*
X142535000Y-88075000D01*
X142535000Y-89181250D01*
X142628750Y-89275000D01*
X144720000Y-89275000D01*
X144720000Y-92725000D01*
X142628750Y-92725000D01*
X142535000Y-92818750D01*
X142535000Y-93925000D01*
X142555000Y-93925000D01*
X142555000Y-94075000D01*
X142535000Y-94075000D01*
X142535000Y-95181250D01*
X142628750Y-95275000D01*
X144720000Y-95275000D01*
X144720000Y-99720000D01*
X100280000Y-99720000D01*
X100280000Y-96785000D01*
X103234524Y-96785000D01*
X103234524Y-99335000D01*
X108165477Y-99335000D01*
X108165477Y-98794143D01*
X125474310Y-98794143D01*
X125492896Y-98895410D01*
X125530797Y-98991137D01*
X125586570Y-99077680D01*
X125658091Y-99151742D01*
X125742635Y-99210501D01*
X125836981Y-99251720D01*
X125937537Y-99273829D01*
X126040472Y-99275985D01*
X126141866Y-99258107D01*
X126237856Y-99220875D01*
X126310143Y-99175000D01*
X127052002Y-99175000D01*
X127091093Y-99171167D01*
X127130181Y-99167747D01*
X127132324Y-99167124D01*
X127134552Y-99166906D01*
X127172133Y-99155559D01*
X127209834Y-99144607D01*
X127211822Y-99143577D01*
X127213957Y-99142932D01*
X127248589Y-99124518D01*
X127283474Y-99106435D01*
X127285220Y-99105041D01*
X127287193Y-99103992D01*
X127317638Y-99079162D01*
X127348297Y-99054687D01*
X127351399Y-99051627D01*
X127351472Y-99051568D01*
X127351528Y-99051501D01*
X127352522Y-99050520D01*
X131327693Y-95075349D01*
X136304084Y-95075349D01*
X136358208Y-95253787D01*
X136466726Y-95468012D01*
X136614952Y-95656950D01*
X136797190Y-95813340D01*
X137006436Y-95931173D01*
X137234650Y-96005919D01*
X137425000Y-95938955D01*
X137425000Y-94885000D01*
X137575000Y-94885000D01*
X137575000Y-95938955D01*
X137765350Y-96005919D01*
X137993564Y-95931173D01*
X138202810Y-95813340D01*
X138385048Y-95656950D01*
X138533274Y-95468012D01*
X138641792Y-95253787D01*
X138695916Y-95075349D01*
X138628761Y-94885000D01*
X137575000Y-94885000D01*
X137425000Y-94885000D01*
X136371239Y-94885000D01*
X136304084Y-95075349D01*
X131327693Y-95075349D01*
X131858391Y-94544651D01*
X136304084Y-94544651D01*
X136371239Y-94735000D01*
X137425000Y-94735000D01*
X137425000Y-93681045D01*
X137575000Y-93681045D01*
X137575000Y-94735000D01*
X138628761Y-94735000D01*
X138695916Y-94544651D01*
X138641792Y-94366213D01*
X138541765Y-94168750D01*
X139545000Y-94168750D01*
X139545000Y-94936934D01*
X139559411Y-95009383D01*
X139587679Y-95077629D01*
X139628718Y-95139048D01*
X139680951Y-95191281D01*
X139742371Y-95232321D01*
X139810616Y-95260589D01*
X139883065Y-95275000D01*
X142291250Y-95275000D01*
X142385000Y-95181250D01*
X142385000Y-94075000D01*
X139638750Y-94075000D01*
X139545000Y-94168750D01*
X138541765Y-94168750D01*
X138533274Y-94151988D01*
X138385048Y-93963050D01*
X138202810Y-93806660D01*
X137993564Y-93688827D01*
X137765350Y-93614081D01*
X137575000Y-93681045D01*
X137425000Y-93681045D01*
X137234650Y-93614081D01*
X137006436Y-93688827D01*
X136797190Y-93806660D01*
X136614952Y-93963050D01*
X136466726Y-94151988D01*
X136358208Y-94366213D01*
X136304084Y-94544651D01*
X131858391Y-94544651D01*
X133832522Y-92570520D01*
X133841731Y-92559309D01*
X134138894Y-92262146D01*
X136369584Y-92262146D01*
X136389484Y-92480804D01*
X136451475Y-92691432D01*
X136553197Y-92886009D01*
X136690775Y-93057121D01*
X136858969Y-93198253D01*
X137051372Y-93304027D01*
X137260656Y-93370416D01*
X137478850Y-93394890D01*
X137494557Y-93395000D01*
X137505443Y-93395000D01*
X137723957Y-93373575D01*
X137934147Y-93310114D01*
X138128008Y-93207036D01*
X138298156Y-93068267D01*
X138302458Y-93063066D01*
X139545000Y-93063066D01*
X139545000Y-93831250D01*
X139638750Y-93925000D01*
X142385000Y-93925000D01*
X142385000Y-92818750D01*
X142291250Y-92725000D01*
X139883065Y-92725000D01*
X139810616Y-92739411D01*
X139742371Y-92767679D01*
X139680951Y-92808719D01*
X139628718Y-92860952D01*
X139587679Y-92922371D01*
X139559411Y-92990617D01*
X139545000Y-93063066D01*
X138302458Y-93063066D01*
X138438110Y-92899092D01*
X138542539Y-92705955D01*
X138607465Y-92496213D01*
X138630416Y-92277854D01*
X138610516Y-92059196D01*
X138548525Y-91848568D01*
X138446803Y-91653991D01*
X138309225Y-91482879D01*
X138141031Y-91341747D01*
X137948628Y-91235973D01*
X137739344Y-91169584D01*
X137521150Y-91145110D01*
X137505443Y-91145000D01*
X137494557Y-91145000D01*
X137276043Y-91166425D01*
X137065853Y-91229886D01*
X136871992Y-91332964D01*
X136701844Y-91471733D01*
X136561890Y-91640908D01*
X136457461Y-91834045D01*
X136392535Y-92043787D01*
X136369584Y-92262146D01*
X134138894Y-92262146D01*
X136246041Y-90155000D01*
X136453340Y-90155000D01*
X136553197Y-90346009D01*
X136690775Y-90517121D01*
X136858969Y-90658253D01*
X137051372Y-90764027D01*
X137260656Y-90830416D01*
X137478850Y-90854890D01*
X137494557Y-90855000D01*
X137505443Y-90855000D01*
X137723957Y-90833575D01*
X137934147Y-90770114D01*
X138128008Y-90667036D01*
X138298156Y-90528267D01*
X138438110Y-90359092D01*
X138542539Y-90165955D01*
X138607465Y-89956213D01*
X138630416Y-89737854D01*
X138610516Y-89519196D01*
X138548525Y-89308568D01*
X138446803Y-89113991D01*
X138309225Y-88942879D01*
X138141031Y-88801747D01*
X137948628Y-88695973D01*
X137739344Y-88629584D01*
X137521150Y-88605110D01*
X137505443Y-88605000D01*
X137494557Y-88605000D01*
X137276043Y-88626425D01*
X137065853Y-88689886D01*
X136871992Y-88792964D01*
X136701844Y-88931733D01*
X136561890Y-89100908D01*
X136457461Y-89294045D01*
X136454070Y-89305000D01*
X136070000Y-89305000D01*
X136030913Y-89308832D01*
X135991821Y-89312253D01*
X135989678Y-89312876D01*
X135987450Y-89313094D01*
X135949822Y-89324455D01*
X135912168Y-89335394D01*
X135910185Y-89336422D01*
X135908045Y-89337068D01*
X135873378Y-89355501D01*
X135838528Y-89373565D01*
X135836781Y-89374959D01*
X135834809Y-89376008D01*
X135804388Y-89400818D01*
X135773704Y-89425313D01*
X135770597Y-89428377D01*
X135770530Y-89428432D01*
X135770479Y-89428494D01*
X135769479Y-89429480D01*
X133231482Y-91967478D01*
X133222273Y-91978689D01*
X132273186Y-92927776D01*
X132275046Y-92794591D01*
X132234097Y-92587788D01*
X132153761Y-92392876D01*
X132037096Y-92217281D01*
X131888546Y-92067691D01*
X131713770Y-91949803D01*
X131519424Y-91868107D01*
X131312912Y-91825716D01*
X131102099Y-91824245D01*
X130895014Y-91863748D01*
X130699547Y-91942722D01*
X130523142Y-92058158D01*
X130372518Y-92205660D01*
X130253413Y-92379609D01*
X130170362Y-92573380D01*
X130126531Y-92779591D01*
X130123587Y-92990389D01*
X130161644Y-93197744D01*
X130239252Y-93393758D01*
X130353454Y-93570964D01*
X130499900Y-93722614D01*
X130673014Y-93842931D01*
X130866200Y-93927332D01*
X131072100Y-93972602D01*
X131225154Y-93975808D01*
X126875962Y-98325000D01*
X126308805Y-98325000D01*
X126250911Y-98285950D01*
X126155998Y-98246052D01*
X126055143Y-98225350D01*
X125952188Y-98224631D01*
X125851054Y-98243924D01*
X125755593Y-98282492D01*
X125669441Y-98338868D01*
X125595881Y-98410904D01*
X125537713Y-98495856D01*
X125497154Y-98590488D01*
X125475748Y-98691196D01*
X125474310Y-98794143D01*
X108165477Y-98794143D01*
X108165477Y-96785000D01*
X103234524Y-96785000D01*
X100280000Y-96785000D01*
X100280000Y-95275000D01*
X102391250Y-95275000D01*
X102485000Y-95181250D01*
X102485000Y-94075000D01*
X102635000Y-94075000D01*
X102635000Y-95181250D01*
X102728750Y-95275000D01*
X105136935Y-95275000D01*
X105209384Y-95260589D01*
X105277629Y-95232321D01*
X105339049Y-95191281D01*
X105391282Y-95139048D01*
X105432321Y-95077629D01*
X105433265Y-95075349D01*
X106304084Y-95075349D01*
X106358208Y-95253787D01*
X106466726Y-95468012D01*
X106614952Y-95656950D01*
X106797190Y-95813340D01*
X107006436Y-95931173D01*
X107234650Y-96005919D01*
X107425000Y-95938955D01*
X107425000Y-94885000D01*
X107575000Y-94885000D01*
X107575000Y-95938955D01*
X107765350Y-96005919D01*
X107993564Y-95931173D01*
X108202810Y-95813340D01*
X108385048Y-95656950D01*
X108533274Y-95468012D01*
X108641792Y-95253787D01*
X108695916Y-95075349D01*
X108628761Y-94885000D01*
X107575000Y-94885000D01*
X107425000Y-94885000D01*
X106371239Y-94885000D01*
X106304084Y-95075349D01*
X105433265Y-95075349D01*
X105460589Y-95009383D01*
X105475000Y-94936934D01*
X105475000Y-94544651D01*
X106304084Y-94544651D01*
X106371239Y-94735000D01*
X107425000Y-94735000D01*
X107425000Y-93681045D01*
X107575000Y-93681045D01*
X107575000Y-94735000D01*
X108628761Y-94735000D01*
X108695916Y-94544651D01*
X108641792Y-94366213D01*
X108533274Y-94151988D01*
X108385048Y-93963050D01*
X108202810Y-93806660D01*
X107993564Y-93688827D01*
X107765350Y-93614081D01*
X107575000Y-93681045D01*
X107425000Y-93681045D01*
X107234650Y-93614081D01*
X107006436Y-93688827D01*
X106797190Y-93806660D01*
X106614952Y-93963050D01*
X106466726Y-94151988D01*
X106358208Y-94366213D01*
X106304084Y-94544651D01*
X105475000Y-94544651D01*
X105475000Y-94168750D01*
X105381250Y-94075000D01*
X102635000Y-94075000D01*
X102485000Y-94075000D01*
X102465000Y-94075000D01*
X102465000Y-93925000D01*
X102485000Y-93925000D01*
X102485000Y-92818750D01*
X102635000Y-92818750D01*
X102635000Y-93925000D01*
X105381250Y-93925000D01*
X105475000Y-93831250D01*
X105475000Y-93063066D01*
X105460589Y-92990617D01*
X105432321Y-92922371D01*
X105391282Y-92860952D01*
X105339049Y-92808719D01*
X105277629Y-92767679D01*
X105209384Y-92739411D01*
X105136935Y-92725000D01*
X102728750Y-92725000D01*
X102635000Y-92818750D01*
X102485000Y-92818750D01*
X102391250Y-92725000D01*
X100280000Y-92725000D01*
X100280000Y-92262146D01*
X106369584Y-92262146D01*
X106389484Y-92480804D01*
X106451475Y-92691432D01*
X106553197Y-92886009D01*
X106690775Y-93057121D01*
X106858969Y-93198253D01*
X107051372Y-93304027D01*
X107260656Y-93370416D01*
X107478850Y-93394890D01*
X107494557Y-93395000D01*
X107505443Y-93395000D01*
X107723957Y-93373575D01*
X107934147Y-93310114D01*
X108128008Y-93207036D01*
X108298156Y-93068267D01*
X108438110Y-92899092D01*
X108542539Y-92705955D01*
X108607465Y-92496213D01*
X108630416Y-92277854D01*
X108610516Y-92059196D01*
X108548525Y-91848568D01*
X108446803Y-91653991D01*
X108309225Y-91482879D01*
X108141031Y-91341747D01*
X107948628Y-91235973D01*
X107739344Y-91169584D01*
X107521150Y-91145110D01*
X107505443Y-91145000D01*
X107494557Y-91145000D01*
X107276043Y-91166425D01*
X107065853Y-91229886D01*
X106871992Y-91332964D01*
X106701844Y-91471733D01*
X106561890Y-91640908D01*
X106457461Y-91834045D01*
X106392535Y-92043787D01*
X106369584Y-92262146D01*
X100280000Y-92262146D01*
X100280000Y-89722146D01*
X106369584Y-89722146D01*
X106389484Y-89940804D01*
X106451475Y-90151432D01*
X106553197Y-90346009D01*
X106690775Y-90517121D01*
X106858969Y-90658253D01*
X107051372Y-90764027D01*
X107260656Y-90830416D01*
X107478850Y-90854890D01*
X107494557Y-90855000D01*
X107505443Y-90855000D01*
X107723957Y-90833575D01*
X107934147Y-90770114D01*
X107937364Y-90768404D01*
X109924999Y-92756039D01*
X109924999Y-93749999D01*
X109928832Y-93789090D01*
X109932252Y-93828178D01*
X109932875Y-93830321D01*
X109933093Y-93832549D01*
X109944440Y-93870130D01*
X109955392Y-93907831D01*
X109956422Y-93909819D01*
X109957067Y-93911954D01*
X109975481Y-93946586D01*
X109993564Y-93981471D01*
X109994958Y-93983217D01*
X109996007Y-93985190D01*
X110020837Y-94015635D01*
X110045312Y-94046294D01*
X110048372Y-94049396D01*
X110048431Y-94049469D01*
X110048498Y-94049525D01*
X110049479Y-94050519D01*
X113799479Y-97800520D01*
X113829845Y-97825463D01*
X113859889Y-97850673D01*
X113861843Y-97851747D01*
X113863574Y-97853169D01*
X113898196Y-97871733D01*
X113932575Y-97890633D01*
X113934707Y-97891309D01*
X113936674Y-97892364D01*
X113974185Y-97903832D01*
X114011638Y-97915713D01*
X114013860Y-97915962D01*
X114015995Y-97916615D01*
X114055041Y-97920581D01*
X114094066Y-97924959D01*
X114098429Y-97924989D01*
X114098516Y-97924998D01*
X114098597Y-97924990D01*
X114100000Y-97925000D01*
X121491555Y-97925000D01*
X121542635Y-97960501D01*
X121636981Y-98001720D01*
X121737537Y-98023829D01*
X121840472Y-98025985D01*
X121941866Y-98008107D01*
X122037856Y-97970875D01*
X122124786Y-97915707D01*
X122199345Y-97844706D01*
X122258693Y-97760574D01*
X122300570Y-97666517D01*
X122323380Y-97566118D01*
X122325022Y-97448521D01*
X122305024Y-97347524D01*
X122265790Y-97252335D01*
X122208814Y-97166579D01*
X122136267Y-97093523D01*
X122050911Y-97035950D01*
X121955998Y-96996052D01*
X121855143Y-96975350D01*
X121752188Y-96974631D01*
X121651054Y-96993924D01*
X121555593Y-97032492D01*
X121490634Y-97075000D01*
X114276041Y-97075000D01*
X111099023Y-93897983D01*
X111166200Y-93927332D01*
X111372100Y-93972602D01*
X111582872Y-93977017D01*
X111790487Y-93940409D01*
X111987038Y-93864172D01*
X112165038Y-93751210D01*
X112317707Y-93605826D01*
X112439229Y-93433556D01*
X112524977Y-93240964D01*
X112571683Y-93035385D01*
X112575046Y-92794591D01*
X112534097Y-92587788D01*
X112453761Y-92392876D01*
X112337096Y-92217281D01*
X112188546Y-92067691D01*
X112013770Y-91949803D01*
X111819424Y-91868107D01*
X111612912Y-91825716D01*
X111402099Y-91824245D01*
X111195014Y-91863748D01*
X110999547Y-91942722D01*
X110823142Y-92058158D01*
X110672518Y-92205660D01*
X110633575Y-92262535D01*
X108540593Y-90169553D01*
X108542539Y-90165955D01*
X108607465Y-89956213D01*
X108630416Y-89737854D01*
X108610516Y-89519196D01*
X108548525Y-89308568D01*
X108446803Y-89113991D01*
X108309225Y-88942879D01*
X108141031Y-88801747D01*
X107948628Y-88695973D01*
X107739344Y-88629584D01*
X107521150Y-88605110D01*
X107505443Y-88605000D01*
X107494557Y-88605000D01*
X107276043Y-88626425D01*
X107065853Y-88689886D01*
X106871992Y-88792964D01*
X106701844Y-88931733D01*
X106561890Y-89100908D01*
X106457461Y-89294045D01*
X106392535Y-89503787D01*
X106369584Y-89722146D01*
X100280000Y-89722146D01*
X100280000Y-89275000D01*
X102391250Y-89275000D01*
X102485000Y-89181250D01*
X102485000Y-88075000D01*
X102635000Y-88075000D01*
X102635000Y-89181250D01*
X102728750Y-89275000D01*
X105136935Y-89275000D01*
X105209384Y-89260589D01*
X105277629Y-89232321D01*
X105339049Y-89191281D01*
X105391282Y-89139048D01*
X105432321Y-89077629D01*
X105460589Y-89009383D01*
X105475000Y-88936934D01*
X105475000Y-88168750D01*
X105381250Y-88075000D01*
X102635000Y-88075000D01*
X102485000Y-88075000D01*
X102465000Y-88075000D01*
X102465000Y-87925000D01*
X102485000Y-87925000D01*
X102485000Y-86818750D01*
X102635000Y-86818750D01*
X102635000Y-87925000D01*
X105381250Y-87925000D01*
X105475000Y-87831250D01*
X105475000Y-87358750D01*
X106275000Y-87358750D01*
X106275000Y-88076935D01*
X106289411Y-88149384D01*
X106317679Y-88217629D01*
X106358719Y-88279049D01*
X106410952Y-88331282D01*
X106472371Y-88372321D01*
X106540617Y-88400589D01*
X106613066Y-88415000D01*
X107331250Y-88415000D01*
X107425000Y-88321250D01*
X107425000Y-87265000D01*
X107575000Y-87265000D01*
X107575000Y-88321250D01*
X107668750Y-88415000D01*
X108386934Y-88415000D01*
X108459383Y-88400589D01*
X108527629Y-88372321D01*
X108589048Y-88331282D01*
X108641281Y-88279049D01*
X108682321Y-88217629D01*
X108710589Y-88149384D01*
X108725000Y-88076935D01*
X108725000Y-87990389D01*
X112623587Y-87990389D01*
X112661644Y-88197744D01*
X112739252Y-88393758D01*
X112853454Y-88570964D01*
X112999900Y-88722614D01*
X113173014Y-88842931D01*
X113366200Y-88927332D01*
X113572100Y-88972602D01*
X113782872Y-88977017D01*
X113990487Y-88940409D01*
X114187038Y-88864172D01*
X114365038Y-88751210D01*
X114517707Y-88605826D01*
X114634408Y-88440389D01*
X124073587Y-88440389D01*
X124111644Y-88647744D01*
X124189252Y-88843758D01*
X124303454Y-89020964D01*
X124449900Y-89172614D01*
X124623014Y-89292931D01*
X124816200Y-89377332D01*
X125022100Y-89422602D01*
X125232872Y-89427017D01*
X125440487Y-89390409D01*
X125637038Y-89314172D01*
X125815038Y-89201210D01*
X125967707Y-89055826D01*
X126089229Y-88883556D01*
X126174977Y-88690964D01*
X126221683Y-88485385D01*
X126225046Y-88244591D01*
X126184097Y-88037788D01*
X126164561Y-87990389D01*
X132323587Y-87990389D01*
X132361644Y-88197744D01*
X132439252Y-88393758D01*
X132553454Y-88570964D01*
X132699900Y-88722614D01*
X132873014Y-88842931D01*
X133066200Y-88927332D01*
X133272100Y-88972602D01*
X133482872Y-88977017D01*
X133690487Y-88940409D01*
X133887038Y-88864172D01*
X134065038Y-88751210D01*
X134217707Y-88605826D01*
X134339229Y-88433556D01*
X134424977Y-88240964D01*
X134471683Y-88035385D01*
X134475046Y-87794591D01*
X134434097Y-87587788D01*
X134353761Y-87392876D01*
X134331088Y-87358750D01*
X136275000Y-87358750D01*
X136275000Y-88076935D01*
X136289411Y-88149384D01*
X136317679Y-88217629D01*
X136358719Y-88279049D01*
X136410952Y-88331282D01*
X136472371Y-88372321D01*
X136540617Y-88400589D01*
X136613066Y-88415000D01*
X137331250Y-88415000D01*
X137425000Y-88321250D01*
X137425000Y-87265000D01*
X137575000Y-87265000D01*
X137575000Y-88321250D01*
X137668750Y-88415000D01*
X138386934Y-88415000D01*
X138459383Y-88400589D01*
X138527629Y-88372321D01*
X138589048Y-88331282D01*
X138641281Y-88279049D01*
X138682321Y-88217629D01*
X138702567Y-88168750D01*
X139545000Y-88168750D01*
X139545000Y-88936934D01*
X139559411Y-89009383D01*
X139587679Y-89077629D01*
X139628718Y-89139048D01*
X139680951Y-89191281D01*
X139742371Y-89232321D01*
X139810616Y-89260589D01*
X139883065Y-89275000D01*
X142291250Y-89275000D01*
X142385000Y-89181250D01*
X142385000Y-88075000D01*
X139638750Y-88075000D01*
X139545000Y-88168750D01*
X138702567Y-88168750D01*
X138710589Y-88149384D01*
X138725000Y-88076935D01*
X138725000Y-87358750D01*
X138631250Y-87265000D01*
X137575000Y-87265000D01*
X137425000Y-87265000D01*
X136368750Y-87265000D01*
X136275000Y-87358750D01*
X134331088Y-87358750D01*
X134237096Y-87217281D01*
X134088546Y-87067691D01*
X133913770Y-86949803D01*
X133719424Y-86868107D01*
X133512912Y-86825716D01*
X133302099Y-86824245D01*
X133095014Y-86863748D01*
X132899547Y-86942722D01*
X132723142Y-87058158D01*
X132572518Y-87205660D01*
X132453413Y-87379609D01*
X132370362Y-87573380D01*
X132326531Y-87779591D01*
X132323587Y-87990389D01*
X126164561Y-87990389D01*
X126103761Y-87842876D01*
X125987096Y-87667281D01*
X125838546Y-87517691D01*
X125663770Y-87399803D01*
X125469424Y-87318107D01*
X125262912Y-87275716D01*
X125052099Y-87274245D01*
X124845014Y-87313748D01*
X124649547Y-87392722D01*
X124473142Y-87508158D01*
X124322518Y-87655660D01*
X124203413Y-87829609D01*
X124120362Y-88023380D01*
X124076531Y-88229591D01*
X124073587Y-88440389D01*
X114634408Y-88440389D01*
X114639229Y-88433556D01*
X114724977Y-88240964D01*
X114771683Y-88035385D01*
X114775046Y-87794591D01*
X114734097Y-87587788D01*
X114653761Y-87392876D01*
X114537096Y-87217281D01*
X114388546Y-87067691D01*
X114213770Y-86949803D01*
X114019424Y-86868107D01*
X113812912Y-86825716D01*
X113602099Y-86824245D01*
X113395014Y-86863748D01*
X113199547Y-86942722D01*
X113023142Y-87058158D01*
X112872518Y-87205660D01*
X112753413Y-87379609D01*
X112670362Y-87573380D01*
X112626531Y-87779591D01*
X112623587Y-87990389D01*
X108725000Y-87990389D01*
X108725000Y-87358750D01*
X108631250Y-87265000D01*
X107575000Y-87265000D01*
X107425000Y-87265000D01*
X106368750Y-87265000D01*
X106275000Y-87358750D01*
X105475000Y-87358750D01*
X105475000Y-87063066D01*
X105460589Y-86990617D01*
X105432321Y-86922371D01*
X105391282Y-86860952D01*
X105339049Y-86808719D01*
X105277629Y-86767679D01*
X105209384Y-86739411D01*
X105136935Y-86725000D01*
X102728750Y-86725000D01*
X102635000Y-86818750D01*
X102485000Y-86818750D01*
X102391250Y-86725000D01*
X100280000Y-86725000D01*
X100280000Y-86303065D01*
X106275000Y-86303065D01*
X106275000Y-87021250D01*
X106368750Y-87115000D01*
X107425000Y-87115000D01*
X107425000Y-86058750D01*
X107575000Y-86058750D01*
X107575000Y-87115000D01*
X108631250Y-87115000D01*
X108725000Y-87021250D01*
X108725000Y-86303065D01*
X108712533Y-86240389D01*
X119073587Y-86240389D01*
X119111644Y-86447744D01*
X119189252Y-86643758D01*
X119303454Y-86820964D01*
X119449900Y-86972614D01*
X119623014Y-87092931D01*
X119816200Y-87177332D01*
X120022100Y-87222602D01*
X120232872Y-87227017D01*
X120440487Y-87190409D01*
X120637038Y-87114172D01*
X120815038Y-87001210D01*
X120967707Y-86855826D01*
X121089229Y-86683556D01*
X121174977Y-86490964D01*
X121217666Y-86303065D01*
X136275000Y-86303065D01*
X136275000Y-87021250D01*
X136368750Y-87115000D01*
X137425000Y-87115000D01*
X137425000Y-86058750D01*
X137575000Y-86058750D01*
X137575000Y-87115000D01*
X138631250Y-87115000D01*
X138683184Y-87063066D01*
X139545000Y-87063066D01*
X139545000Y-87831250D01*
X139638750Y-87925000D01*
X142385000Y-87925000D01*
X142385000Y-86818750D01*
X142291250Y-86725000D01*
X139883065Y-86725000D01*
X139810616Y-86739411D01*
X139742371Y-86767679D01*
X139680951Y-86808719D01*
X139628718Y-86860952D01*
X139587679Y-86922371D01*
X139559411Y-86990617D01*
X139545000Y-87063066D01*
X138683184Y-87063066D01*
X138725000Y-87021250D01*
X138725000Y-86303065D01*
X138710589Y-86230616D01*
X138682321Y-86162371D01*
X138641281Y-86100951D01*
X138589048Y-86048718D01*
X138527629Y-86007679D01*
X138459383Y-85979411D01*
X138386934Y-85965000D01*
X137668750Y-85965000D01*
X137575000Y-86058750D01*
X137425000Y-86058750D01*
X137331250Y-85965000D01*
X136613066Y-85965000D01*
X136540617Y-85979411D01*
X136472371Y-86007679D01*
X136410952Y-86048718D01*
X136358719Y-86100951D01*
X136317679Y-86162371D01*
X136289411Y-86230616D01*
X136275000Y-86303065D01*
X121217666Y-86303065D01*
X121221683Y-86285385D01*
X121225046Y-86044591D01*
X121184097Y-85837788D01*
X121103761Y-85642876D01*
X120987096Y-85467281D01*
X120838546Y-85317691D01*
X120663770Y-85199803D01*
X120469424Y-85118107D01*
X120262912Y-85075716D01*
X120052099Y-85074245D01*
X119845014Y-85113748D01*
X119649547Y-85192722D01*
X119473142Y-85308158D01*
X119322518Y-85455660D01*
X119203413Y-85629609D01*
X119120362Y-85823380D01*
X119076531Y-86029591D01*
X119073587Y-86240389D01*
X108712533Y-86240389D01*
X108710589Y-86230616D01*
X108682321Y-86162371D01*
X108641281Y-86100951D01*
X108589048Y-86048718D01*
X108527629Y-86007679D01*
X108459383Y-85979411D01*
X108386934Y-85965000D01*
X107668750Y-85965000D01*
X107575000Y-86058750D01*
X107425000Y-86058750D01*
X107331250Y-85965000D01*
X106613066Y-85965000D01*
X106540617Y-85979411D01*
X106472371Y-86007679D01*
X106410952Y-86048718D01*
X106358719Y-86100951D01*
X106317679Y-86162371D01*
X106289411Y-86230616D01*
X106275000Y-86303065D01*
X100280000Y-86303065D01*
X100280000Y-82280000D01*
X144720000Y-82280000D01*
X144720000Y-86725000D01*
X144720000Y-86725000D01*
G37*
X144720000Y-86725000D02*
X142628750Y-86725000D01*
X142535000Y-86818750D01*
X142535000Y-87925000D01*
X142555000Y-87925000D01*
X142555000Y-88075000D01*
X142535000Y-88075000D01*
X142535000Y-89181250D01*
X142628750Y-89275000D01*
X144720000Y-89275000D01*
X144720000Y-92725000D01*
X142628750Y-92725000D01*
X142535000Y-92818750D01*
X142535000Y-93925000D01*
X142555000Y-93925000D01*
X142555000Y-94075000D01*
X142535000Y-94075000D01*
X142535000Y-95181250D01*
X142628750Y-95275000D01*
X144720000Y-95275000D01*
X144720000Y-99720000D01*
X100280000Y-99720000D01*
X100280000Y-96785000D01*
X103234524Y-96785000D01*
X103234524Y-99335000D01*
X108165477Y-99335000D01*
X108165477Y-98794143D01*
X125474310Y-98794143D01*
X125492896Y-98895410D01*
X125530797Y-98991137D01*
X125586570Y-99077680D01*
X125658091Y-99151742D01*
X125742635Y-99210501D01*
X125836981Y-99251720D01*
X125937537Y-99273829D01*
X126040472Y-99275985D01*
X126141866Y-99258107D01*
X126237856Y-99220875D01*
X126310143Y-99175000D01*
X127052002Y-99175000D01*
X127091093Y-99171167D01*
X127130181Y-99167747D01*
X127132324Y-99167124D01*
X127134552Y-99166906D01*
X127172133Y-99155559D01*
X127209834Y-99144607D01*
X127211822Y-99143577D01*
X127213957Y-99142932D01*
X127248589Y-99124518D01*
X127283474Y-99106435D01*
X127285220Y-99105041D01*
X127287193Y-99103992D01*
X127317638Y-99079162D01*
X127348297Y-99054687D01*
X127351399Y-99051627D01*
X127351472Y-99051568D01*
X127351528Y-99051501D01*
X127352522Y-99050520D01*
X131327693Y-95075349D01*
X136304084Y-95075349D01*
X136358208Y-95253787D01*
X136466726Y-95468012D01*
X136614952Y-95656950D01*
X136797190Y-95813340D01*
X137006436Y-95931173D01*
X137234650Y-96005919D01*
X137425000Y-95938955D01*
X137425000Y-94885000D01*
X137575000Y-94885000D01*
X137575000Y-95938955D01*
X137765350Y-96005919D01*
X137993564Y-95931173D01*
X138202810Y-95813340D01*
X138385048Y-95656950D01*
X138533274Y-95468012D01*
X138641792Y-95253787D01*
X138695916Y-95075349D01*
X138628761Y-94885000D01*
X137575000Y-94885000D01*
X137425000Y-94885000D01*
X136371239Y-94885000D01*
X136304084Y-95075349D01*
X131327693Y-95075349D01*
X131858391Y-94544651D01*
X136304084Y-94544651D01*
X136371239Y-94735000D01*
X137425000Y-94735000D01*
X137425000Y-93681045D01*
X137575000Y-93681045D01*
X137575000Y-94735000D01*
X138628761Y-94735000D01*
X138695916Y-94544651D01*
X138641792Y-94366213D01*
X138541765Y-94168750D01*
X139545000Y-94168750D01*
X139545000Y-94936934D01*
X139559411Y-95009383D01*
X139587679Y-95077629D01*
X139628718Y-95139048D01*
X139680951Y-95191281D01*
X139742371Y-95232321D01*
X139810616Y-95260589D01*
X139883065Y-95275000D01*
X142291250Y-95275000D01*
X142385000Y-95181250D01*
X142385000Y-94075000D01*
X139638750Y-94075000D01*
X139545000Y-94168750D01*
X138541765Y-94168750D01*
X138533274Y-94151988D01*
X138385048Y-93963050D01*
X138202810Y-93806660D01*
X137993564Y-93688827D01*
X137765350Y-93614081D01*
X137575000Y-93681045D01*
X137425000Y-93681045D01*
X137234650Y-93614081D01*
X137006436Y-93688827D01*
X136797190Y-93806660D01*
X136614952Y-93963050D01*
X136466726Y-94151988D01*
X136358208Y-94366213D01*
X136304084Y-94544651D01*
X131858391Y-94544651D01*
X133832522Y-92570520D01*
X133841731Y-92559309D01*
X134138894Y-92262146D01*
X136369584Y-92262146D01*
X136389484Y-92480804D01*
X136451475Y-92691432D01*
X136553197Y-92886009D01*
X136690775Y-93057121D01*
X136858969Y-93198253D01*
X137051372Y-93304027D01*
X137260656Y-93370416D01*
X137478850Y-93394890D01*
X137494557Y-93395000D01*
X137505443Y-93395000D01*
X137723957Y-93373575D01*
X137934147Y-93310114D01*
X138128008Y-93207036D01*
X138298156Y-93068267D01*
X138302458Y-93063066D01*
X139545000Y-93063066D01*
X139545000Y-93831250D01*
X139638750Y-93925000D01*
X142385000Y-93925000D01*
X142385000Y-92818750D01*
X142291250Y-92725000D01*
X139883065Y-92725000D01*
X139810616Y-92739411D01*
X139742371Y-92767679D01*
X139680951Y-92808719D01*
X139628718Y-92860952D01*
X139587679Y-92922371D01*
X139559411Y-92990617D01*
X139545000Y-93063066D01*
X138302458Y-93063066D01*
X138438110Y-92899092D01*
X138542539Y-92705955D01*
X138607465Y-92496213D01*
X138630416Y-92277854D01*
X138610516Y-92059196D01*
X138548525Y-91848568D01*
X138446803Y-91653991D01*
X138309225Y-91482879D01*
X138141031Y-91341747D01*
X137948628Y-91235973D01*
X137739344Y-91169584D01*
X137521150Y-91145110D01*
X137505443Y-91145000D01*
X137494557Y-91145000D01*
X137276043Y-91166425D01*
X137065853Y-91229886D01*
X136871992Y-91332964D01*
X136701844Y-91471733D01*
X136561890Y-91640908D01*
X136457461Y-91834045D01*
X136392535Y-92043787D01*
X136369584Y-92262146D01*
X134138894Y-92262146D01*
X136246041Y-90155000D01*
X136453340Y-90155000D01*
X136553197Y-90346009D01*
X136690775Y-90517121D01*
X136858969Y-90658253D01*
X137051372Y-90764027D01*
X137260656Y-90830416D01*
X137478850Y-90854890D01*
X137494557Y-90855000D01*
X137505443Y-90855000D01*
X137723957Y-90833575D01*
X137934147Y-90770114D01*
X138128008Y-90667036D01*
X138298156Y-90528267D01*
X138438110Y-90359092D01*
X138542539Y-90165955D01*
X138607465Y-89956213D01*
X138630416Y-89737854D01*
X138610516Y-89519196D01*
X138548525Y-89308568D01*
X138446803Y-89113991D01*
X138309225Y-88942879D01*
X138141031Y-88801747D01*
X137948628Y-88695973D01*
X137739344Y-88629584D01*
X137521150Y-88605110D01*
X137505443Y-88605000D01*
X137494557Y-88605000D01*
X137276043Y-88626425D01*
X137065853Y-88689886D01*
X136871992Y-88792964D01*
X136701844Y-88931733D01*
X136561890Y-89100908D01*
X136457461Y-89294045D01*
X136454070Y-89305000D01*
X136070000Y-89305000D01*
X136030913Y-89308832D01*
X135991821Y-89312253D01*
X135989678Y-89312876D01*
X135987450Y-89313094D01*
X135949822Y-89324455D01*
X135912168Y-89335394D01*
X135910185Y-89336422D01*
X135908045Y-89337068D01*
X135873378Y-89355501D01*
X135838528Y-89373565D01*
X135836781Y-89374959D01*
X135834809Y-89376008D01*
X135804388Y-89400818D01*
X135773704Y-89425313D01*
X135770597Y-89428377D01*
X135770530Y-89428432D01*
X135770479Y-89428494D01*
X135769479Y-89429480D01*
X133231482Y-91967478D01*
X133222273Y-91978689D01*
X132273186Y-92927776D01*
X132275046Y-92794591D01*
X132234097Y-92587788D01*
X132153761Y-92392876D01*
X132037096Y-92217281D01*
X131888546Y-92067691D01*
X131713770Y-91949803D01*
X131519424Y-91868107D01*
X131312912Y-91825716D01*
X131102099Y-91824245D01*
X130895014Y-91863748D01*
X130699547Y-91942722D01*
X130523142Y-92058158D01*
X130372518Y-92205660D01*
X130253413Y-92379609D01*
X130170362Y-92573380D01*
X130126531Y-92779591D01*
X130123587Y-92990389D01*
X130161644Y-93197744D01*
X130239252Y-93393758D01*
X130353454Y-93570964D01*
X130499900Y-93722614D01*
X130673014Y-93842931D01*
X130866200Y-93927332D01*
X131072100Y-93972602D01*
X131225154Y-93975808D01*
X126875962Y-98325000D01*
X126308805Y-98325000D01*
X126250911Y-98285950D01*
X126155998Y-98246052D01*
X126055143Y-98225350D01*
X125952188Y-98224631D01*
X125851054Y-98243924D01*
X125755593Y-98282492D01*
X125669441Y-98338868D01*
X125595881Y-98410904D01*
X125537713Y-98495856D01*
X125497154Y-98590488D01*
X125475748Y-98691196D01*
X125474310Y-98794143D01*
X108165477Y-98794143D01*
X108165477Y-96785000D01*
X103234524Y-96785000D01*
X100280000Y-96785000D01*
X100280000Y-95275000D01*
X102391250Y-95275000D01*
X102485000Y-95181250D01*
X102485000Y-94075000D01*
X102635000Y-94075000D01*
X102635000Y-95181250D01*
X102728750Y-95275000D01*
X105136935Y-95275000D01*
X105209384Y-95260589D01*
X105277629Y-95232321D01*
X105339049Y-95191281D01*
X105391282Y-95139048D01*
X105432321Y-95077629D01*
X105433265Y-95075349D01*
X106304084Y-95075349D01*
X106358208Y-95253787D01*
X106466726Y-95468012D01*
X106614952Y-95656950D01*
X106797190Y-95813340D01*
X107006436Y-95931173D01*
X107234650Y-96005919D01*
X107425000Y-95938955D01*
X107425000Y-94885000D01*
X107575000Y-94885000D01*
X107575000Y-95938955D01*
X107765350Y-96005919D01*
X107993564Y-95931173D01*
X108202810Y-95813340D01*
X108385048Y-95656950D01*
X108533274Y-95468012D01*
X108641792Y-95253787D01*
X108695916Y-95075349D01*
X108628761Y-94885000D01*
X107575000Y-94885000D01*
X107425000Y-94885000D01*
X106371239Y-94885000D01*
X106304084Y-95075349D01*
X105433265Y-95075349D01*
X105460589Y-95009383D01*
X105475000Y-94936934D01*
X105475000Y-94544651D01*
X106304084Y-94544651D01*
X106371239Y-94735000D01*
X107425000Y-94735000D01*
X107425000Y-93681045D01*
X107575000Y-93681045D01*
X107575000Y-94735000D01*
X108628761Y-94735000D01*
X108695916Y-94544651D01*
X108641792Y-94366213D01*
X108533274Y-94151988D01*
X108385048Y-93963050D01*
X108202810Y-93806660D01*
X107993564Y-93688827D01*
X107765350Y-93614081D01*
X107575000Y-93681045D01*
X107425000Y-93681045D01*
X107234650Y-93614081D01*
X107006436Y-93688827D01*
X106797190Y-93806660D01*
X106614952Y-93963050D01*
X106466726Y-94151988D01*
X106358208Y-94366213D01*
X106304084Y-94544651D01*
X105475000Y-94544651D01*
X105475000Y-94168750D01*
X105381250Y-94075000D01*
X102635000Y-94075000D01*
X102485000Y-94075000D01*
X102465000Y-94075000D01*
X102465000Y-93925000D01*
X102485000Y-93925000D01*
X102485000Y-92818750D01*
X102635000Y-92818750D01*
X102635000Y-93925000D01*
X105381250Y-93925000D01*
X105475000Y-93831250D01*
X105475000Y-93063066D01*
X105460589Y-92990617D01*
X105432321Y-92922371D01*
X105391282Y-92860952D01*
X105339049Y-92808719D01*
X105277629Y-92767679D01*
X105209384Y-92739411D01*
X105136935Y-92725000D01*
X102728750Y-92725000D01*
X102635000Y-92818750D01*
X102485000Y-92818750D01*
X102391250Y-92725000D01*
X100280000Y-92725000D01*
X100280000Y-92262146D01*
X106369584Y-92262146D01*
X106389484Y-92480804D01*
X106451475Y-92691432D01*
X106553197Y-92886009D01*
X106690775Y-93057121D01*
X106858969Y-93198253D01*
X107051372Y-93304027D01*
X107260656Y-93370416D01*
X107478850Y-93394890D01*
X107494557Y-93395000D01*
X107505443Y-93395000D01*
X107723957Y-93373575D01*
X107934147Y-93310114D01*
X108128008Y-93207036D01*
X108298156Y-93068267D01*
X108438110Y-92899092D01*
X108542539Y-92705955D01*
X108607465Y-92496213D01*
X108630416Y-92277854D01*
X108610516Y-92059196D01*
X108548525Y-91848568D01*
X108446803Y-91653991D01*
X108309225Y-91482879D01*
X108141031Y-91341747D01*
X107948628Y-91235973D01*
X107739344Y-91169584D01*
X107521150Y-91145110D01*
X107505443Y-91145000D01*
X107494557Y-91145000D01*
X107276043Y-91166425D01*
X107065853Y-91229886D01*
X106871992Y-91332964D01*
X106701844Y-91471733D01*
X106561890Y-91640908D01*
X106457461Y-91834045D01*
X106392535Y-92043787D01*
X106369584Y-92262146D01*
X100280000Y-92262146D01*
X100280000Y-89722146D01*
X106369584Y-89722146D01*
X106389484Y-89940804D01*
X106451475Y-90151432D01*
X106553197Y-90346009D01*
X106690775Y-90517121D01*
X106858969Y-90658253D01*
X107051372Y-90764027D01*
X107260656Y-90830416D01*
X107478850Y-90854890D01*
X107494557Y-90855000D01*
X107505443Y-90855000D01*
X107723957Y-90833575D01*
X107934147Y-90770114D01*
X107937364Y-90768404D01*
X109924999Y-92756039D01*
X109924999Y-93749999D01*
X109928832Y-93789090D01*
X109932252Y-93828178D01*
X109932875Y-93830321D01*
X109933093Y-93832549D01*
X109944440Y-93870130D01*
X109955392Y-93907831D01*
X109956422Y-93909819D01*
X109957067Y-93911954D01*
X109975481Y-93946586D01*
X109993564Y-93981471D01*
X109994958Y-93983217D01*
X109996007Y-93985190D01*
X110020837Y-94015635D01*
X110045312Y-94046294D01*
X110048372Y-94049396D01*
X110048431Y-94049469D01*
X110048498Y-94049525D01*
X110049479Y-94050519D01*
X113799479Y-97800520D01*
X113829845Y-97825463D01*
X113859889Y-97850673D01*
X113861843Y-97851747D01*
X113863574Y-97853169D01*
X113898196Y-97871733D01*
X113932575Y-97890633D01*
X113934707Y-97891309D01*
X113936674Y-97892364D01*
X113974185Y-97903832D01*
X114011638Y-97915713D01*
X114013860Y-97915962D01*
X114015995Y-97916615D01*
X114055041Y-97920581D01*
X114094066Y-97924959D01*
X114098429Y-97924989D01*
X114098516Y-97924998D01*
X114098597Y-97924990D01*
X114100000Y-97925000D01*
X121491555Y-97925000D01*
X121542635Y-97960501D01*
X121636981Y-98001720D01*
X121737537Y-98023829D01*
X121840472Y-98025985D01*
X121941866Y-98008107D01*
X122037856Y-97970875D01*
X122124786Y-97915707D01*
X122199345Y-97844706D01*
X122258693Y-97760574D01*
X122300570Y-97666517D01*
X122323380Y-97566118D01*
X122325022Y-97448521D01*
X122305024Y-97347524D01*
X122265790Y-97252335D01*
X122208814Y-97166579D01*
X122136267Y-97093523D01*
X122050911Y-97035950D01*
X121955998Y-96996052D01*
X121855143Y-96975350D01*
X121752188Y-96974631D01*
X121651054Y-96993924D01*
X121555593Y-97032492D01*
X121490634Y-97075000D01*
X114276041Y-97075000D01*
X111099023Y-93897983D01*
X111166200Y-93927332D01*
X111372100Y-93972602D01*
X111582872Y-93977017D01*
X111790487Y-93940409D01*
X111987038Y-93864172D01*
X112165038Y-93751210D01*
X112317707Y-93605826D01*
X112439229Y-93433556D01*
X112524977Y-93240964D01*
X112571683Y-93035385D01*
X112575046Y-92794591D01*
X112534097Y-92587788D01*
X112453761Y-92392876D01*
X112337096Y-92217281D01*
X112188546Y-92067691D01*
X112013770Y-91949803D01*
X111819424Y-91868107D01*
X111612912Y-91825716D01*
X111402099Y-91824245D01*
X111195014Y-91863748D01*
X110999547Y-91942722D01*
X110823142Y-92058158D01*
X110672518Y-92205660D01*
X110633575Y-92262535D01*
X108540593Y-90169553D01*
X108542539Y-90165955D01*
X108607465Y-89956213D01*
X108630416Y-89737854D01*
X108610516Y-89519196D01*
X108548525Y-89308568D01*
X108446803Y-89113991D01*
X108309225Y-88942879D01*
X108141031Y-88801747D01*
X107948628Y-88695973D01*
X107739344Y-88629584D01*
X107521150Y-88605110D01*
X107505443Y-88605000D01*
X107494557Y-88605000D01*
X107276043Y-88626425D01*
X107065853Y-88689886D01*
X106871992Y-88792964D01*
X106701844Y-88931733D01*
X106561890Y-89100908D01*
X106457461Y-89294045D01*
X106392535Y-89503787D01*
X106369584Y-89722146D01*
X100280000Y-89722146D01*
X100280000Y-89275000D01*
X102391250Y-89275000D01*
X102485000Y-89181250D01*
X102485000Y-88075000D01*
X102635000Y-88075000D01*
X102635000Y-89181250D01*
X102728750Y-89275000D01*
X105136935Y-89275000D01*
X105209384Y-89260589D01*
X105277629Y-89232321D01*
X105339049Y-89191281D01*
X105391282Y-89139048D01*
X105432321Y-89077629D01*
X105460589Y-89009383D01*
X105475000Y-88936934D01*
X105475000Y-88168750D01*
X105381250Y-88075000D01*
X102635000Y-88075000D01*
X102485000Y-88075000D01*
X102465000Y-88075000D01*
X102465000Y-87925000D01*
X102485000Y-87925000D01*
X102485000Y-86818750D01*
X102635000Y-86818750D01*
X102635000Y-87925000D01*
X105381250Y-87925000D01*
X105475000Y-87831250D01*
X105475000Y-87358750D01*
X106275000Y-87358750D01*
X106275000Y-88076935D01*
X106289411Y-88149384D01*
X106317679Y-88217629D01*
X106358719Y-88279049D01*
X106410952Y-88331282D01*
X106472371Y-88372321D01*
X106540617Y-88400589D01*
X106613066Y-88415000D01*
X107331250Y-88415000D01*
X107425000Y-88321250D01*
X107425000Y-87265000D01*
X107575000Y-87265000D01*
X107575000Y-88321250D01*
X107668750Y-88415000D01*
X108386934Y-88415000D01*
X108459383Y-88400589D01*
X108527629Y-88372321D01*
X108589048Y-88331282D01*
X108641281Y-88279049D01*
X108682321Y-88217629D01*
X108710589Y-88149384D01*
X108725000Y-88076935D01*
X108725000Y-87990389D01*
X112623587Y-87990389D01*
X112661644Y-88197744D01*
X112739252Y-88393758D01*
X112853454Y-88570964D01*
X112999900Y-88722614D01*
X113173014Y-88842931D01*
X113366200Y-88927332D01*
X113572100Y-88972602D01*
X113782872Y-88977017D01*
X113990487Y-88940409D01*
X114187038Y-88864172D01*
X114365038Y-88751210D01*
X114517707Y-88605826D01*
X114634408Y-88440389D01*
X124073587Y-88440389D01*
X124111644Y-88647744D01*
X124189252Y-88843758D01*
X124303454Y-89020964D01*
X124449900Y-89172614D01*
X124623014Y-89292931D01*
X124816200Y-89377332D01*
X125022100Y-89422602D01*
X125232872Y-89427017D01*
X125440487Y-89390409D01*
X125637038Y-89314172D01*
X125815038Y-89201210D01*
X125967707Y-89055826D01*
X126089229Y-88883556D01*
X126174977Y-88690964D01*
X126221683Y-88485385D01*
X126225046Y-88244591D01*
X126184097Y-88037788D01*
X126164561Y-87990389D01*
X132323587Y-87990389D01*
X132361644Y-88197744D01*
X132439252Y-88393758D01*
X132553454Y-88570964D01*
X132699900Y-88722614D01*
X132873014Y-88842931D01*
X133066200Y-88927332D01*
X133272100Y-88972602D01*
X133482872Y-88977017D01*
X133690487Y-88940409D01*
X133887038Y-88864172D01*
X134065038Y-88751210D01*
X134217707Y-88605826D01*
X134339229Y-88433556D01*
X134424977Y-88240964D01*
X134471683Y-88035385D01*
X134475046Y-87794591D01*
X134434097Y-87587788D01*
X134353761Y-87392876D01*
X134331088Y-87358750D01*
X136275000Y-87358750D01*
X136275000Y-88076935D01*
X136289411Y-88149384D01*
X136317679Y-88217629D01*
X136358719Y-88279049D01*
X136410952Y-88331282D01*
X136472371Y-88372321D01*
X136540617Y-88400589D01*
X136613066Y-88415000D01*
X137331250Y-88415000D01*
X137425000Y-88321250D01*
X137425000Y-87265000D01*
X137575000Y-87265000D01*
X137575000Y-88321250D01*
X137668750Y-88415000D01*
X138386934Y-88415000D01*
X138459383Y-88400589D01*
X138527629Y-88372321D01*
X138589048Y-88331282D01*
X138641281Y-88279049D01*
X138682321Y-88217629D01*
X138702567Y-88168750D01*
X139545000Y-88168750D01*
X139545000Y-88936934D01*
X139559411Y-89009383D01*
X139587679Y-89077629D01*
X139628718Y-89139048D01*
X139680951Y-89191281D01*
X139742371Y-89232321D01*
X139810616Y-89260589D01*
X139883065Y-89275000D01*
X142291250Y-89275000D01*
X142385000Y-89181250D01*
X142385000Y-88075000D01*
X139638750Y-88075000D01*
X139545000Y-88168750D01*
X138702567Y-88168750D01*
X138710589Y-88149384D01*
X138725000Y-88076935D01*
X138725000Y-87358750D01*
X138631250Y-87265000D01*
X137575000Y-87265000D01*
X137425000Y-87265000D01*
X136368750Y-87265000D01*
X136275000Y-87358750D01*
X134331088Y-87358750D01*
X134237096Y-87217281D01*
X134088546Y-87067691D01*
X133913770Y-86949803D01*
X133719424Y-86868107D01*
X133512912Y-86825716D01*
X133302099Y-86824245D01*
X133095014Y-86863748D01*
X132899547Y-86942722D01*
X132723142Y-87058158D01*
X132572518Y-87205660D01*
X132453413Y-87379609D01*
X132370362Y-87573380D01*
X132326531Y-87779591D01*
X132323587Y-87990389D01*
X126164561Y-87990389D01*
X126103761Y-87842876D01*
X125987096Y-87667281D01*
X125838546Y-87517691D01*
X125663770Y-87399803D01*
X125469424Y-87318107D01*
X125262912Y-87275716D01*
X125052099Y-87274245D01*
X124845014Y-87313748D01*
X124649547Y-87392722D01*
X124473142Y-87508158D01*
X124322518Y-87655660D01*
X124203413Y-87829609D01*
X124120362Y-88023380D01*
X124076531Y-88229591D01*
X124073587Y-88440389D01*
X114634408Y-88440389D01*
X114639229Y-88433556D01*
X114724977Y-88240964D01*
X114771683Y-88035385D01*
X114775046Y-87794591D01*
X114734097Y-87587788D01*
X114653761Y-87392876D01*
X114537096Y-87217281D01*
X114388546Y-87067691D01*
X114213770Y-86949803D01*
X114019424Y-86868107D01*
X113812912Y-86825716D01*
X113602099Y-86824245D01*
X113395014Y-86863748D01*
X113199547Y-86942722D01*
X113023142Y-87058158D01*
X112872518Y-87205660D01*
X112753413Y-87379609D01*
X112670362Y-87573380D01*
X112626531Y-87779591D01*
X112623587Y-87990389D01*
X108725000Y-87990389D01*
X108725000Y-87358750D01*
X108631250Y-87265000D01*
X107575000Y-87265000D01*
X107425000Y-87265000D01*
X106368750Y-87265000D01*
X106275000Y-87358750D01*
X105475000Y-87358750D01*
X105475000Y-87063066D01*
X105460589Y-86990617D01*
X105432321Y-86922371D01*
X105391282Y-86860952D01*
X105339049Y-86808719D01*
X105277629Y-86767679D01*
X105209384Y-86739411D01*
X105136935Y-86725000D01*
X102728750Y-86725000D01*
X102635000Y-86818750D01*
X102485000Y-86818750D01*
X102391250Y-86725000D01*
X100280000Y-86725000D01*
X100280000Y-86303065D01*
X106275000Y-86303065D01*
X106275000Y-87021250D01*
X106368750Y-87115000D01*
X107425000Y-87115000D01*
X107425000Y-86058750D01*
X107575000Y-86058750D01*
X107575000Y-87115000D01*
X108631250Y-87115000D01*
X108725000Y-87021250D01*
X108725000Y-86303065D01*
X108712533Y-86240389D01*
X119073587Y-86240389D01*
X119111644Y-86447744D01*
X119189252Y-86643758D01*
X119303454Y-86820964D01*
X119449900Y-86972614D01*
X119623014Y-87092931D01*
X119816200Y-87177332D01*
X120022100Y-87222602D01*
X120232872Y-87227017D01*
X120440487Y-87190409D01*
X120637038Y-87114172D01*
X120815038Y-87001210D01*
X120967707Y-86855826D01*
X121089229Y-86683556D01*
X121174977Y-86490964D01*
X121217666Y-86303065D01*
X136275000Y-86303065D01*
X136275000Y-87021250D01*
X136368750Y-87115000D01*
X137425000Y-87115000D01*
X137425000Y-86058750D01*
X137575000Y-86058750D01*
X137575000Y-87115000D01*
X138631250Y-87115000D01*
X138683184Y-87063066D01*
X139545000Y-87063066D01*
X139545000Y-87831250D01*
X139638750Y-87925000D01*
X142385000Y-87925000D01*
X142385000Y-86818750D01*
X142291250Y-86725000D01*
X139883065Y-86725000D01*
X139810616Y-86739411D01*
X139742371Y-86767679D01*
X139680951Y-86808719D01*
X139628718Y-86860952D01*
X139587679Y-86922371D01*
X139559411Y-86990617D01*
X139545000Y-87063066D01*
X138683184Y-87063066D01*
X138725000Y-87021250D01*
X138725000Y-86303065D01*
X138710589Y-86230616D01*
X138682321Y-86162371D01*
X138641281Y-86100951D01*
X138589048Y-86048718D01*
X138527629Y-86007679D01*
X138459383Y-85979411D01*
X138386934Y-85965000D01*
X137668750Y-85965000D01*
X137575000Y-86058750D01*
X137425000Y-86058750D01*
X137331250Y-85965000D01*
X136613066Y-85965000D01*
X136540617Y-85979411D01*
X136472371Y-86007679D01*
X136410952Y-86048718D01*
X136358719Y-86100951D01*
X136317679Y-86162371D01*
X136289411Y-86230616D01*
X136275000Y-86303065D01*
X121217666Y-86303065D01*
X121221683Y-86285385D01*
X121225046Y-86044591D01*
X121184097Y-85837788D01*
X121103761Y-85642876D01*
X120987096Y-85467281D01*
X120838546Y-85317691D01*
X120663770Y-85199803D01*
X120469424Y-85118107D01*
X120262912Y-85075716D01*
X120052099Y-85074245D01*
X119845014Y-85113748D01*
X119649547Y-85192722D01*
X119473142Y-85308158D01*
X119322518Y-85455660D01*
X119203413Y-85629609D01*
X119120362Y-85823380D01*
X119076531Y-86029591D01*
X119073587Y-86240389D01*
X108712533Y-86240389D01*
X108710589Y-86230616D01*
X108682321Y-86162371D01*
X108641281Y-86100951D01*
X108589048Y-86048718D01*
X108527629Y-86007679D01*
X108459383Y-85979411D01*
X108386934Y-85965000D01*
X107668750Y-85965000D01*
X107575000Y-86058750D01*
X107425000Y-86058750D01*
X107331250Y-85965000D01*
X106613066Y-85965000D01*
X106540617Y-85979411D01*
X106472371Y-86007679D01*
X106410952Y-86048718D01*
X106358719Y-86100951D01*
X106317679Y-86162371D01*
X106289411Y-86230616D01*
X106275000Y-86303065D01*
X100280000Y-86303065D01*
X100280000Y-82280000D01*
X144720000Y-82280000D01*
X144720000Y-86725000D01*
M02*
