M48
;DRILL file {KiCad 4.0.7-e2-6376~58~ubuntu16.04.1} date Fri Jan 19 15:58:07 2018
;FORMAT={-:-/ absolute / inch / decimal}
FMAT,2
INCH,TZ
T1C0.008
T2C0.012
T3C0.016
T4C0.031
T5C0.039
%
G90
G05
M72
T1
X3.9606Y-3.4646
X3.9606Y-3.7008
X4.Y-3.4449
X4.Y-3.4843
X4.Y-3.6811
X4.Y-3.7205
X4.0394Y-3.4646
X4.0394Y-3.7008
X4.0787Y-3.4449
X4.0787Y-3.4843
X4.0787Y-3.6811
X4.0787Y-3.7205
X4.1181Y-3.4646
X4.1181Y-3.7008
X5.5315Y-3.4646
X5.5315Y-3.7008
X5.5709Y-3.4449
X5.5709Y-3.4843
X5.5709Y-3.6811
X5.5709Y-3.7205
X5.6102Y-3.4646
X5.6102Y-3.7008
X5.6496Y-3.4449
X5.6496Y-3.4843
X5.6496Y-3.6811
X5.6496Y-3.7205
X5.689Y-3.4646
X5.689Y-3.7008
T2
X3.9961Y-3.4016
X3.9961Y-3.5236
X3.9961Y-3.6417
X3.9961Y-3.7638
X4.0807Y-3.6417
X4.0827Y-3.4016
X4.0827Y-3.5236
X4.0827Y-3.7638
X4.1614Y-3.4646
X4.1614Y-3.7008
X4.311Y-3.4646
X4.311Y-3.7008
X4.5787Y-3.3858
X4.5787Y-3.5197
X4.6772Y-3.6594
X4.6772Y-3.7776
X4.815Y-3.6594
X4.815Y-3.7776
X4.9528Y-3.6594
X4.9528Y-3.7776
X5.0709Y-3.3858
X5.0709Y-3.5197
X5.3307Y-3.4646
X5.3307Y-3.7008
X5.4862Y-3.4646
X5.4862Y-3.7008
X5.563Y-3.4016
X5.563Y-3.5236
X5.563Y-3.6417
X5.563Y-3.7638
X5.6496Y-3.4016
X5.6496Y-3.5236
X5.6496Y-3.6417
X5.6496Y-3.7638
T3
X4.7953Y-3.8386
X4.9606Y-3.8878
T4
X4.3898Y-3.6575
X4.4764Y-3.4606
X4.7303Y-3.3917
X4.9272Y-3.4783
X5.1654Y-3.6575
X5.252Y-3.4606
T5
X4.2323Y-3.4327
X4.2323Y-3.5327
X4.2323Y-3.6327
X4.2323Y-3.7327
X5.4134Y-3.4327
X5.4134Y-3.5327
X5.4134Y-3.6327
X5.4134Y-3.7327
T0
M30
