G04 #@! TF.FileFunction,Legend,Bot*
%FSLAX46Y46*%
G04 Gerber Fmt 4.6, Leading zero omitted, Abs format (unit mm)*
G04 Created by KiCad (PCBNEW 4.0.7-e2-6376~58~ubuntu16.04.1) date Fri Jan 19 19:37:22 2018*
%MOMM*%
%LPD*%
G01*
G04 APERTURE LIST*
%ADD10C,0.100000*%
%ADD11C,0.200000*%
G04 APERTURE END LIST*
D10*
D11*
X143352381Y-97207143D02*
X143390476Y-97254762D01*
X143504762Y-97302381D01*
X143580952Y-97302381D01*
X143695238Y-97254762D01*
X143771429Y-97159524D01*
X143809524Y-97064286D01*
X143847619Y-96873810D01*
X143847619Y-96730952D01*
X143809524Y-96540476D01*
X143771429Y-96445238D01*
X143695238Y-96350000D01*
X143580952Y-96302381D01*
X143504762Y-96302381D01*
X143390476Y-96350000D01*
X143352381Y-96397619D01*
X143009524Y-97302381D02*
X143009524Y-96635714D01*
X143009524Y-96826190D02*
X142971429Y-96730952D01*
X142933333Y-96683333D01*
X142857143Y-96635714D01*
X142780952Y-96635714D01*
X142209524Y-97254762D02*
X142285714Y-97302381D01*
X142438095Y-97302381D01*
X142514286Y-97254762D01*
X142552381Y-97159524D01*
X142552381Y-96778571D01*
X142514286Y-96683333D01*
X142438095Y-96635714D01*
X142285714Y-96635714D01*
X142209524Y-96683333D01*
X142171429Y-96778571D01*
X142171429Y-96873810D01*
X142552381Y-96969048D01*
X141485715Y-97302381D02*
X141485715Y-96778571D01*
X141523810Y-96683333D01*
X141600000Y-96635714D01*
X141752381Y-96635714D01*
X141828572Y-96683333D01*
X141485715Y-97254762D02*
X141561905Y-97302381D01*
X141752381Y-97302381D01*
X141828572Y-97254762D01*
X141866667Y-97159524D01*
X141866667Y-97064286D01*
X141828572Y-96969048D01*
X141752381Y-96921429D01*
X141561905Y-96921429D01*
X141485715Y-96873810D01*
X141219048Y-96635714D02*
X140914286Y-96635714D01*
X141104762Y-96302381D02*
X141104762Y-97159524D01*
X141066667Y-97254762D01*
X140990476Y-97302381D01*
X140914286Y-97302381D01*
X140647619Y-97302381D02*
X140647619Y-96635714D01*
X140647619Y-96302381D02*
X140685714Y-96350000D01*
X140647619Y-96397619D01*
X140609524Y-96350000D01*
X140647619Y-96302381D01*
X140647619Y-96397619D01*
X140342857Y-96635714D02*
X140152381Y-97302381D01*
X139961905Y-96635714D01*
X139352381Y-97254762D02*
X139428571Y-97302381D01*
X139580952Y-97302381D01*
X139657143Y-97254762D01*
X139695238Y-97159524D01*
X139695238Y-96778571D01*
X139657143Y-96683333D01*
X139580952Y-96635714D01*
X139428571Y-96635714D01*
X139352381Y-96683333D01*
X139314286Y-96778571D01*
X139314286Y-96873810D01*
X139695238Y-96969048D01*
X137904762Y-97207143D02*
X137942857Y-97254762D01*
X138057143Y-97302381D01*
X138133333Y-97302381D01*
X138247619Y-97254762D01*
X138323810Y-97159524D01*
X138361905Y-97064286D01*
X138400000Y-96873810D01*
X138400000Y-96730952D01*
X138361905Y-96540476D01*
X138323810Y-96445238D01*
X138247619Y-96350000D01*
X138133333Y-96302381D01*
X138057143Y-96302381D01*
X137942857Y-96350000D01*
X137904762Y-96397619D01*
X137447619Y-97302381D02*
X137523810Y-97254762D01*
X137561905Y-97207143D01*
X137600000Y-97111905D01*
X137600000Y-96826190D01*
X137561905Y-96730952D01*
X137523810Y-96683333D01*
X137447619Y-96635714D01*
X137333333Y-96635714D01*
X137257143Y-96683333D01*
X137219048Y-96730952D01*
X137180952Y-96826190D01*
X137180952Y-97111905D01*
X137219048Y-97207143D01*
X137257143Y-97254762D01*
X137333333Y-97302381D01*
X137447619Y-97302381D01*
X136838095Y-97302381D02*
X136838095Y-96635714D01*
X136838095Y-96730952D02*
X136800000Y-96683333D01*
X136723809Y-96635714D01*
X136609523Y-96635714D01*
X136533333Y-96683333D01*
X136495238Y-96778571D01*
X136495238Y-97302381D01*
X136495238Y-96778571D02*
X136457142Y-96683333D01*
X136380952Y-96635714D01*
X136266666Y-96635714D01*
X136190476Y-96683333D01*
X136152381Y-96778571D01*
X136152381Y-97302381D01*
X135771428Y-97302381D02*
X135771428Y-96635714D01*
X135771428Y-96730952D02*
X135733333Y-96683333D01*
X135657142Y-96635714D01*
X135542856Y-96635714D01*
X135466666Y-96683333D01*
X135428571Y-96778571D01*
X135428571Y-97302381D01*
X135428571Y-96778571D02*
X135390475Y-96683333D01*
X135314285Y-96635714D01*
X135199999Y-96635714D01*
X135123809Y-96683333D01*
X135085714Y-96778571D01*
X135085714Y-97302381D01*
X134590475Y-97302381D02*
X134666666Y-97254762D01*
X134704761Y-97207143D01*
X134742856Y-97111905D01*
X134742856Y-96826190D01*
X134704761Y-96730952D01*
X134666666Y-96683333D01*
X134590475Y-96635714D01*
X134476189Y-96635714D01*
X134399999Y-96683333D01*
X134361904Y-96730952D01*
X134323808Y-96826190D01*
X134323808Y-97111905D01*
X134361904Y-97207143D01*
X134399999Y-97254762D01*
X134476189Y-97302381D01*
X134590475Y-97302381D01*
X133980951Y-96635714D02*
X133980951Y-97302381D01*
X133980951Y-96730952D02*
X133942856Y-96683333D01*
X133866665Y-96635714D01*
X133752379Y-96635714D01*
X133676189Y-96683333D01*
X133638094Y-96778571D01*
X133638094Y-97302381D01*
X133295236Y-97254762D02*
X133219046Y-97302381D01*
X133066665Y-97302381D01*
X132990474Y-97254762D01*
X132952379Y-97159524D01*
X132952379Y-97111905D01*
X132990474Y-97016667D01*
X133066665Y-96969048D01*
X133180950Y-96969048D01*
X133257141Y-96921429D01*
X133295236Y-96826190D01*
X133295236Y-96778571D01*
X133257141Y-96683333D01*
X133180950Y-96635714D01*
X133066665Y-96635714D01*
X132990474Y-96683333D01*
X131619045Y-97302381D02*
X131999998Y-97302381D01*
X131999998Y-96302381D01*
X131352379Y-97302381D02*
X131352379Y-96635714D01*
X131352379Y-96302381D02*
X131390474Y-96350000D01*
X131352379Y-96397619D01*
X131314284Y-96350000D01*
X131352379Y-96302381D01*
X131352379Y-96397619D01*
X130628570Y-97254762D02*
X130704760Y-97302381D01*
X130857141Y-97302381D01*
X130933332Y-97254762D01*
X130971427Y-97207143D01*
X131009522Y-97111905D01*
X131009522Y-96826190D01*
X130971427Y-96730952D01*
X130933332Y-96683333D01*
X130857141Y-96635714D01*
X130704760Y-96635714D01*
X130628570Y-96683333D01*
X129980951Y-97254762D02*
X130057141Y-97302381D01*
X130209522Y-97302381D01*
X130285713Y-97254762D01*
X130323808Y-97159524D01*
X130323808Y-96778571D01*
X130285713Y-96683333D01*
X130209522Y-96635714D01*
X130057141Y-96635714D01*
X129980951Y-96683333D01*
X129942856Y-96778571D01*
X129942856Y-96873810D01*
X130323808Y-96969048D01*
X129599999Y-96635714D02*
X129599999Y-97302381D01*
X129599999Y-96730952D02*
X129561904Y-96683333D01*
X129485713Y-96635714D01*
X129371427Y-96635714D01*
X129295237Y-96683333D01*
X129257142Y-96778571D01*
X129257142Y-97302381D01*
X128914284Y-97254762D02*
X128838094Y-97302381D01*
X128685713Y-97302381D01*
X128609522Y-97254762D01*
X128571427Y-97159524D01*
X128571427Y-97111905D01*
X128609522Y-97016667D01*
X128685713Y-96969048D01*
X128799998Y-96969048D01*
X128876189Y-96921429D01*
X128914284Y-96826190D01*
X128914284Y-96778571D01*
X128876189Y-96683333D01*
X128799998Y-96635714D01*
X128685713Y-96635714D01*
X128609522Y-96683333D01*
X127923808Y-97254762D02*
X127999998Y-97302381D01*
X128152379Y-97302381D01*
X128228570Y-97254762D01*
X128266665Y-97159524D01*
X128266665Y-96778571D01*
X128228570Y-96683333D01*
X128152379Y-96635714D01*
X127999998Y-96635714D01*
X127923808Y-96683333D01*
X127885713Y-96778571D01*
X127885713Y-96873810D01*
X128266665Y-96969048D01*
X143352381Y-98907143D02*
X143390476Y-98954762D01*
X143504762Y-99002381D01*
X143580952Y-99002381D01*
X143695238Y-98954762D01*
X143771429Y-98859524D01*
X143809524Y-98764286D01*
X143847619Y-98573810D01*
X143847619Y-98430952D01*
X143809524Y-98240476D01*
X143771429Y-98145238D01*
X143695238Y-98050000D01*
X143580952Y-98002381D01*
X143504762Y-98002381D01*
X143390476Y-98050000D01*
X143352381Y-98097619D01*
X142552381Y-98907143D02*
X142590476Y-98954762D01*
X142704762Y-99002381D01*
X142780952Y-99002381D01*
X142895238Y-98954762D01*
X142971429Y-98859524D01*
X143009524Y-98764286D01*
X143047619Y-98573810D01*
X143047619Y-98430952D01*
X143009524Y-98240476D01*
X142971429Y-98145238D01*
X142895238Y-98050000D01*
X142780952Y-98002381D01*
X142704762Y-98002381D01*
X142590476Y-98050000D01*
X142552381Y-98097619D01*
X142209524Y-98621429D02*
X141600000Y-98621429D01*
X140952381Y-98478571D02*
X140838095Y-98526190D01*
X140800000Y-98573810D01*
X140761905Y-98669048D01*
X140761905Y-98811905D01*
X140800000Y-98907143D01*
X140838095Y-98954762D01*
X140914286Y-99002381D01*
X141219048Y-99002381D01*
X141219048Y-98002381D01*
X140952381Y-98002381D01*
X140876191Y-98050000D01*
X140838095Y-98097619D01*
X140800000Y-98192857D01*
X140800000Y-98288095D01*
X140838095Y-98383333D01*
X140876191Y-98430952D01*
X140952381Y-98478571D01*
X141219048Y-98478571D01*
X140266667Y-98526190D02*
X140266667Y-99002381D01*
X140533334Y-98002381D02*
X140266667Y-98526190D01*
X140000000Y-98002381D01*
X139733334Y-98621429D02*
X139123810Y-98621429D01*
X138780953Y-98954762D02*
X138666667Y-99002381D01*
X138476191Y-99002381D01*
X138400001Y-98954762D01*
X138361905Y-98907143D01*
X138323810Y-98811905D01*
X138323810Y-98716667D01*
X138361905Y-98621429D01*
X138400001Y-98573810D01*
X138476191Y-98526190D01*
X138628572Y-98478571D01*
X138704763Y-98430952D01*
X138742858Y-98383333D01*
X138780953Y-98288095D01*
X138780953Y-98192857D01*
X138742858Y-98097619D01*
X138704763Y-98050000D01*
X138628572Y-98002381D01*
X138438096Y-98002381D01*
X138323810Y-98050000D01*
X138019048Y-98716667D02*
X137638096Y-98716667D01*
X138095239Y-99002381D02*
X137828572Y-98002381D01*
X137561905Y-99002381D01*
M02*
