G04 #@! TF.GenerationSoftware,KiCad,Pcbnew,5.0.2-bee76a0~70~ubuntu18.04.1*
G04 #@! TF.CreationDate,2018-12-18T09:34:18-08:00*
G04 #@! TF.ProjectId,LowPassFilterModule,4c6f7750-6173-4734-9669-6c7465724d6f,rev?*
G04 #@! TF.SameCoordinates,Original*
G04 #@! TF.FileFunction,Legend,Bot*
G04 #@! TF.FilePolarity,Positive*
%FSLAX46Y46*%
G04 Gerber Fmt 4.6, Leading zero omitted, Abs format (unit mm)*
G04 Created by KiCad (PCBNEW 5.0.2-bee76a0~70~ubuntu18.04.1) date Tue 18 Dec 2018 09:34:18 AM PST*
%MOMM*%
%LPD*%
G01*
G04 APERTURE LIST*
%ADD10C,0.150000*%
%ADD11C,0.002540*%
%ADD12C,0.254000*%
G04 APERTURE END LIST*
D10*
X130785833Y-86410714D02*
X130819166Y-86448809D01*
X130919166Y-86486904D01*
X130985833Y-86486904D01*
X131085833Y-86448809D01*
X131152500Y-86372619D01*
X131185833Y-86296428D01*
X131219166Y-86144047D01*
X131219166Y-86029761D01*
X131185833Y-85877380D01*
X131152500Y-85801190D01*
X131085833Y-85725000D01*
X130985833Y-85686904D01*
X130919166Y-85686904D01*
X130819166Y-85725000D01*
X130785833Y-85763095D01*
X130485833Y-86486904D02*
X130485833Y-85953571D01*
X130485833Y-86105952D02*
X130452500Y-86029761D01*
X130419166Y-85991666D01*
X130352500Y-85953571D01*
X130285833Y-85953571D01*
X129785833Y-86448809D02*
X129852500Y-86486904D01*
X129985833Y-86486904D01*
X130052500Y-86448809D01*
X130085833Y-86372619D01*
X130085833Y-86067857D01*
X130052500Y-85991666D01*
X129985833Y-85953571D01*
X129852500Y-85953571D01*
X129785833Y-85991666D01*
X129752500Y-86067857D01*
X129752500Y-86144047D01*
X130085833Y-86220238D01*
X129152500Y-86486904D02*
X129152500Y-86067857D01*
X129185833Y-85991666D01*
X129252500Y-85953571D01*
X129385833Y-85953571D01*
X129452500Y-85991666D01*
X129152500Y-86448809D02*
X129219166Y-86486904D01*
X129385833Y-86486904D01*
X129452500Y-86448809D01*
X129485833Y-86372619D01*
X129485833Y-86296428D01*
X129452500Y-86220238D01*
X129385833Y-86182142D01*
X129219166Y-86182142D01*
X129152500Y-86144047D01*
X128919166Y-85953571D02*
X128652500Y-85953571D01*
X128819166Y-85686904D02*
X128819166Y-86372619D01*
X128785833Y-86448809D01*
X128719166Y-86486904D01*
X128652500Y-86486904D01*
X128419166Y-86486904D02*
X128419166Y-85953571D01*
X128419166Y-85686904D02*
X128452500Y-85725000D01*
X128419166Y-85763095D01*
X128385833Y-85725000D01*
X128419166Y-85686904D01*
X128419166Y-85763095D01*
X128152500Y-85953571D02*
X127985833Y-86486904D01*
X127819166Y-85953571D01*
X127285833Y-86448809D02*
X127352500Y-86486904D01*
X127485833Y-86486904D01*
X127552500Y-86448809D01*
X127585833Y-86372619D01*
X127585833Y-86067857D01*
X127552500Y-85991666D01*
X127485833Y-85953571D01*
X127352500Y-85953571D01*
X127285833Y-85991666D01*
X127252500Y-86067857D01*
X127252500Y-86144047D01*
X127585833Y-86220238D01*
X126019166Y-86410714D02*
X126052500Y-86448809D01*
X126152500Y-86486904D01*
X126219166Y-86486904D01*
X126319166Y-86448809D01*
X126385833Y-86372619D01*
X126419166Y-86296428D01*
X126452500Y-86144047D01*
X126452500Y-86029761D01*
X126419166Y-85877380D01*
X126385833Y-85801190D01*
X126319166Y-85725000D01*
X126219166Y-85686904D01*
X126152500Y-85686904D01*
X126052500Y-85725000D01*
X126019166Y-85763095D01*
X125619166Y-86486904D02*
X125685833Y-86448809D01*
X125719166Y-86410714D01*
X125752500Y-86334523D01*
X125752500Y-86105952D01*
X125719166Y-86029761D01*
X125685833Y-85991666D01*
X125619166Y-85953571D01*
X125519166Y-85953571D01*
X125452500Y-85991666D01*
X125419166Y-86029761D01*
X125385833Y-86105952D01*
X125385833Y-86334523D01*
X125419166Y-86410714D01*
X125452500Y-86448809D01*
X125519166Y-86486904D01*
X125619166Y-86486904D01*
X125085833Y-86486904D02*
X125085833Y-85953571D01*
X125085833Y-86029761D02*
X125052500Y-85991666D01*
X124985833Y-85953571D01*
X124885833Y-85953571D01*
X124819166Y-85991666D01*
X124785833Y-86067857D01*
X124785833Y-86486904D01*
X124785833Y-86067857D02*
X124752500Y-85991666D01*
X124685833Y-85953571D01*
X124585833Y-85953571D01*
X124519166Y-85991666D01*
X124485833Y-86067857D01*
X124485833Y-86486904D01*
X124152500Y-86486904D02*
X124152500Y-85953571D01*
X124152500Y-86029761D02*
X124119166Y-85991666D01*
X124052500Y-85953571D01*
X123952500Y-85953571D01*
X123885833Y-85991666D01*
X123852500Y-86067857D01*
X123852500Y-86486904D01*
X123852500Y-86067857D02*
X123819166Y-85991666D01*
X123752500Y-85953571D01*
X123652500Y-85953571D01*
X123585833Y-85991666D01*
X123552500Y-86067857D01*
X123552500Y-86486904D01*
X123119166Y-86486904D02*
X123185833Y-86448809D01*
X123219166Y-86410714D01*
X123252500Y-86334523D01*
X123252500Y-86105952D01*
X123219166Y-86029761D01*
X123185833Y-85991666D01*
X123119166Y-85953571D01*
X123019166Y-85953571D01*
X122952500Y-85991666D01*
X122919166Y-86029761D01*
X122885833Y-86105952D01*
X122885833Y-86334523D01*
X122919166Y-86410714D01*
X122952500Y-86448809D01*
X123019166Y-86486904D01*
X123119166Y-86486904D01*
X122585833Y-85953571D02*
X122585833Y-86486904D01*
X122585833Y-86029761D02*
X122552500Y-85991666D01*
X122485833Y-85953571D01*
X122385833Y-85953571D01*
X122319166Y-85991666D01*
X122285833Y-86067857D01*
X122285833Y-86486904D01*
X121985833Y-86448809D02*
X121919166Y-86486904D01*
X121785833Y-86486904D01*
X121719166Y-86448809D01*
X121685833Y-86372619D01*
X121685833Y-86334523D01*
X121719166Y-86258333D01*
X121785833Y-86220238D01*
X121885833Y-86220238D01*
X121952500Y-86182142D01*
X121985833Y-86105952D01*
X121985833Y-86067857D01*
X121952500Y-85991666D01*
X121885833Y-85953571D01*
X121785833Y-85953571D01*
X121719166Y-85991666D01*
X130852500Y-87836904D02*
X131185833Y-87836904D01*
X131185833Y-87036904D01*
X130619166Y-87836904D02*
X130619166Y-87303571D01*
X130619166Y-87036904D02*
X130652500Y-87075000D01*
X130619166Y-87113095D01*
X130585833Y-87075000D01*
X130619166Y-87036904D01*
X130619166Y-87113095D01*
X129985833Y-87798809D02*
X130052500Y-87836904D01*
X130185833Y-87836904D01*
X130252500Y-87798809D01*
X130285833Y-87760714D01*
X130319166Y-87684523D01*
X130319166Y-87455952D01*
X130285833Y-87379761D01*
X130252500Y-87341666D01*
X130185833Y-87303571D01*
X130052500Y-87303571D01*
X129985833Y-87341666D01*
X129419166Y-87798809D02*
X129485833Y-87836904D01*
X129619166Y-87836904D01*
X129685833Y-87798809D01*
X129719166Y-87722619D01*
X129719166Y-87417857D01*
X129685833Y-87341666D01*
X129619166Y-87303571D01*
X129485833Y-87303571D01*
X129419166Y-87341666D01*
X129385833Y-87417857D01*
X129385833Y-87494047D01*
X129719166Y-87570238D01*
X129085833Y-87303571D02*
X129085833Y-87836904D01*
X129085833Y-87379761D02*
X129052500Y-87341666D01*
X128985833Y-87303571D01*
X128885833Y-87303571D01*
X128819166Y-87341666D01*
X128785833Y-87417857D01*
X128785833Y-87836904D01*
X128485833Y-87798809D02*
X128419166Y-87836904D01*
X128285833Y-87836904D01*
X128219166Y-87798809D01*
X128185833Y-87722619D01*
X128185833Y-87684523D01*
X128219166Y-87608333D01*
X128285833Y-87570238D01*
X128385833Y-87570238D01*
X128452500Y-87532142D01*
X128485833Y-87455952D01*
X128485833Y-87417857D01*
X128452500Y-87341666D01*
X128385833Y-87303571D01*
X128285833Y-87303571D01*
X128219166Y-87341666D01*
X127619166Y-87798809D02*
X127685833Y-87836904D01*
X127819166Y-87836904D01*
X127885833Y-87798809D01*
X127919166Y-87722619D01*
X127919166Y-87417857D01*
X127885833Y-87341666D01*
X127819166Y-87303571D01*
X127685833Y-87303571D01*
X127619166Y-87341666D01*
X127585833Y-87417857D01*
X127585833Y-87494047D01*
X127919166Y-87570238D01*
X126352500Y-87760714D02*
X126385833Y-87798809D01*
X126485833Y-87836904D01*
X126552500Y-87836904D01*
X126652500Y-87798809D01*
X126719166Y-87722619D01*
X126752500Y-87646428D01*
X126785833Y-87494047D01*
X126785833Y-87379761D01*
X126752500Y-87227380D01*
X126719166Y-87151190D01*
X126652500Y-87075000D01*
X126552500Y-87036904D01*
X126485833Y-87036904D01*
X126385833Y-87075000D01*
X126352500Y-87113095D01*
X125652500Y-87760714D02*
X125685833Y-87798809D01*
X125785833Y-87836904D01*
X125852500Y-87836904D01*
X125952500Y-87798809D01*
X126019166Y-87722619D01*
X126052500Y-87646428D01*
X126085833Y-87494047D01*
X126085833Y-87379761D01*
X126052500Y-87227380D01*
X126019166Y-87151190D01*
X125952500Y-87075000D01*
X125852500Y-87036904D01*
X125785833Y-87036904D01*
X125685833Y-87075000D01*
X125652500Y-87113095D01*
X125352500Y-87532142D02*
X124819166Y-87532142D01*
X124252500Y-87417857D02*
X124152500Y-87455952D01*
X124119166Y-87494047D01*
X124085833Y-87570238D01*
X124085833Y-87684523D01*
X124119166Y-87760714D01*
X124152500Y-87798809D01*
X124219166Y-87836904D01*
X124485833Y-87836904D01*
X124485833Y-87036904D01*
X124252500Y-87036904D01*
X124185833Y-87075000D01*
X124152500Y-87113095D01*
X124119166Y-87189285D01*
X124119166Y-87265476D01*
X124152500Y-87341666D01*
X124185833Y-87379761D01*
X124252500Y-87417857D01*
X124485833Y-87417857D01*
X123652500Y-87455952D02*
X123652500Y-87836904D01*
X123885833Y-87036904D02*
X123652500Y-87455952D01*
X123419166Y-87036904D01*
X123185833Y-87532142D02*
X122652500Y-87532142D01*
X122352500Y-87798809D02*
X122252500Y-87836904D01*
X122085833Y-87836904D01*
X122019166Y-87798809D01*
X121985833Y-87760714D01*
X121952500Y-87684523D01*
X121952500Y-87608333D01*
X121985833Y-87532142D01*
X122019166Y-87494047D01*
X122085833Y-87455952D01*
X122219166Y-87417857D01*
X122285833Y-87379761D01*
X122319166Y-87341666D01*
X122352500Y-87265476D01*
X122352500Y-87189285D01*
X122319166Y-87113095D01*
X122285833Y-87075000D01*
X122219166Y-87036904D01*
X122052500Y-87036904D01*
X121952500Y-87075000D01*
X121685833Y-87608333D02*
X121352500Y-87608333D01*
X121752500Y-87836904D02*
X121519166Y-87036904D01*
X121285833Y-87836904D01*
X127828571Y-96635714D02*
X127714285Y-96678571D01*
X127676190Y-96721428D01*
X127638095Y-96807142D01*
X127638095Y-96935714D01*
X127676190Y-97021428D01*
X127714285Y-97064285D01*
X127790476Y-97107142D01*
X128095238Y-97107142D01*
X128095238Y-96207142D01*
X127828571Y-96207142D01*
X127752380Y-96250000D01*
X127714285Y-96292857D01*
X127676190Y-96378571D01*
X127676190Y-96464285D01*
X127714285Y-96550000D01*
X127752380Y-96592857D01*
X127828571Y-96635714D01*
X128095238Y-96635714D01*
X126952380Y-97107142D02*
X126952380Y-96635714D01*
X126990476Y-96550000D01*
X127066666Y-96507142D01*
X127219047Y-96507142D01*
X127295238Y-96550000D01*
X126952380Y-97064285D02*
X127028571Y-97107142D01*
X127219047Y-97107142D01*
X127295238Y-97064285D01*
X127333333Y-96978571D01*
X127333333Y-96892857D01*
X127295238Y-96807142D01*
X127219047Y-96764285D01*
X127028571Y-96764285D01*
X126952380Y-96721428D01*
X126571428Y-96507142D02*
X126571428Y-97107142D01*
X126571428Y-96592857D02*
X126533333Y-96550000D01*
X126457142Y-96507142D01*
X126342857Y-96507142D01*
X126266666Y-96550000D01*
X126228571Y-96635714D01*
X126228571Y-97107142D01*
X125504761Y-97107142D02*
X125504761Y-96207142D01*
X125504761Y-97064285D02*
X125580952Y-97107142D01*
X125733333Y-97107142D01*
X125809523Y-97064285D01*
X125847619Y-97021428D01*
X125885714Y-96935714D01*
X125885714Y-96678571D01*
X125847619Y-96592857D01*
X125809523Y-96550000D01*
X125733333Y-96507142D01*
X125580952Y-96507142D01*
X125504761Y-96550000D01*
D11*
G04 #@! TO.C,Ref\002A\002A*
G36*
X106468340Y-91756040D02*
X106427700Y-91756040D01*
X106300700Y-91753500D01*
X106216880Y-91748420D01*
X106186400Y-91740800D01*
X106191480Y-91720480D01*
X106209260Y-91649360D01*
X106242280Y-91529980D01*
X106282920Y-91375040D01*
X106333720Y-91189620D01*
X106432780Y-90828940D01*
X106486120Y-90638440D01*
X106529300Y-90470800D01*
X106564860Y-90341260D01*
X106587720Y-90252360D01*
X106595340Y-90216800D01*
X106595340Y-90214260D01*
X106567400Y-90173620D01*
X106508980Y-90092340D01*
X106422620Y-89980580D01*
X106315940Y-89845960D01*
X106194020Y-89693560D01*
X105792700Y-89198260D01*
X106305780Y-89198260D01*
X106727420Y-89739280D01*
X106783300Y-89807860D01*
X106900140Y-89957720D01*
X107001740Y-90087260D01*
X107083020Y-90188860D01*
X107133820Y-90252360D01*
X107154140Y-90275220D01*
X107151600Y-90259980D01*
X107138900Y-90188860D01*
X107116040Y-90069480D01*
X107085560Y-89909460D01*
X107047460Y-89711340D01*
X107004280Y-89487820D01*
X106956020Y-89243980D01*
X106923000Y-89071260D01*
X106874740Y-88837580D01*
X106834100Y-88629300D01*
X106801080Y-88451500D01*
X106775680Y-88314340D01*
X106757900Y-88225440D01*
X106752820Y-88187340D01*
X106752820Y-88179720D01*
X106765520Y-88169560D01*
X106803620Y-88164480D01*
X106879820Y-88164480D01*
X107006820Y-88164480D01*
X107260820Y-88169560D01*
X107286220Y-88294020D01*
X107314160Y-88410860D01*
X107354800Y-88494680D01*
X107413220Y-88563260D01*
X107453860Y-88598820D01*
X107524980Y-88636920D01*
X107613880Y-88647080D01*
X107618960Y-88647080D01*
X107690080Y-88636920D01*
X107748500Y-88598820D01*
X107758660Y-88588660D01*
X107796760Y-88540400D01*
X107812000Y-88481980D01*
X107804380Y-88390540D01*
X107781520Y-88255920D01*
X107761200Y-88164480D01*
X107745960Y-88088280D01*
X107740880Y-88057800D01*
X107725640Y-88055260D01*
X107659600Y-88055260D01*
X107585940Y-88052720D01*
X107585940Y-87626000D01*
X107636740Y-87620920D01*
X107654520Y-87613300D01*
X107657060Y-87600600D01*
X107651980Y-87585360D01*
X107636740Y-87519320D01*
X107616420Y-87425340D01*
X107606260Y-87384700D01*
X107578320Y-87285640D01*
X107550380Y-87217060D01*
X107542760Y-87204360D01*
X107471640Y-87125620D01*
X107375120Y-87077360D01*
X107270980Y-87062120D01*
X107182080Y-87082440D01*
X107118580Y-87143400D01*
X107116040Y-87148480D01*
X107098260Y-87237380D01*
X107103340Y-87361840D01*
X107126200Y-87501540D01*
X107154140Y-87618380D01*
X107408140Y-87623460D01*
X107491960Y-87626000D01*
X107585940Y-87626000D01*
X107585940Y-88052720D01*
X107547840Y-88052720D01*
X107403060Y-88052720D01*
X107230340Y-88050180D01*
X106722340Y-88050180D01*
X106712180Y-88014620D01*
X106709640Y-88007000D01*
X106686780Y-87900320D01*
X106661380Y-87760620D01*
X106633440Y-87608220D01*
X106605500Y-87455820D01*
X106585180Y-87321200D01*
X106569940Y-87214520D01*
X106562320Y-87156100D01*
X106564860Y-87125620D01*
X106600420Y-86945280D01*
X106689320Y-86787800D01*
X106816320Y-86660800D01*
X106976340Y-86584600D01*
X106994120Y-86579520D01*
X107113500Y-86561740D01*
X107253200Y-86561740D01*
X107377660Y-86576980D01*
X107497040Y-86612540D01*
X107679920Y-86714140D01*
X107847560Y-86856380D01*
X107984720Y-87024020D01*
X108078700Y-87204360D01*
X108086320Y-87227220D01*
X108106640Y-87316120D01*
X108134580Y-87445660D01*
X108170140Y-87603140D01*
X108205700Y-87778400D01*
X108241260Y-87958740D01*
X108274280Y-88131460D01*
X108302220Y-88281320D01*
X108322540Y-88398160D01*
X108332700Y-88469280D01*
X108332700Y-88570880D01*
X108312380Y-88735980D01*
X108261580Y-88873140D01*
X108241260Y-88906160D01*
X108124420Y-89035700D01*
X107966940Y-89127140D01*
X107784060Y-89172860D01*
X107588480Y-89167780D01*
X107565620Y-89165240D01*
X107494500Y-89155080D01*
X107464020Y-89155080D01*
X107464020Y-89162700D01*
X107474180Y-89223660D01*
X107497040Y-89335420D01*
X107527520Y-89490360D01*
X107565620Y-89688480D01*
X107608800Y-89917080D01*
X107659600Y-90171080D01*
X107743420Y-90587640D01*
X107796760Y-90851800D01*
X107845020Y-91095640D01*
X107885660Y-91309000D01*
X107921220Y-91489340D01*
X107946620Y-91623960D01*
X107961860Y-91712860D01*
X107964400Y-91743340D01*
X107961860Y-91745880D01*
X107916140Y-91750960D01*
X107827240Y-91753500D01*
X107707860Y-91756040D01*
X107603720Y-91756040D01*
X107519900Y-91753500D01*
X107476720Y-91748420D01*
X107456400Y-91738260D01*
X107451320Y-91720480D01*
X107446240Y-91695080D01*
X107428460Y-91616340D01*
X107408140Y-91502040D01*
X107380200Y-91364880D01*
X107372580Y-91324240D01*
X107337020Y-91161680D01*
X107309080Y-91060080D01*
X107288760Y-91011820D01*
X107278600Y-91001660D01*
X107202400Y-90915300D01*
X107123660Y-90826400D01*
X107050000Y-90750200D01*
X106999200Y-90696860D01*
X106978880Y-90676540D01*
X106973800Y-90691780D01*
X106958560Y-90757820D01*
X106935700Y-90869580D01*
X106905220Y-91014360D01*
X106872200Y-91182000D01*
X106846800Y-91298840D01*
X106813780Y-91456320D01*
X106788380Y-91588400D01*
X106768060Y-91679840D01*
X106760440Y-91720480D01*
X106757900Y-91723020D01*
X106752820Y-91738260D01*
X106732500Y-91748420D01*
X106686780Y-91753500D01*
X106602960Y-91756040D01*
X106468340Y-91756040D01*
X106468340Y-91756040D01*
G37*
X106468340Y-91756040D02*
X106427700Y-91756040D01*
X106300700Y-91753500D01*
X106216880Y-91748420D01*
X106186400Y-91740800D01*
X106191480Y-91720480D01*
X106209260Y-91649360D01*
X106242280Y-91529980D01*
X106282920Y-91375040D01*
X106333720Y-91189620D01*
X106432780Y-90828940D01*
X106486120Y-90638440D01*
X106529300Y-90470800D01*
X106564860Y-90341260D01*
X106587720Y-90252360D01*
X106595340Y-90216800D01*
X106595340Y-90214260D01*
X106567400Y-90173620D01*
X106508980Y-90092340D01*
X106422620Y-89980580D01*
X106315940Y-89845960D01*
X106194020Y-89693560D01*
X105792700Y-89198260D01*
X106305780Y-89198260D01*
X106727420Y-89739280D01*
X106783300Y-89807860D01*
X106900140Y-89957720D01*
X107001740Y-90087260D01*
X107083020Y-90188860D01*
X107133820Y-90252360D01*
X107154140Y-90275220D01*
X107151600Y-90259980D01*
X107138900Y-90188860D01*
X107116040Y-90069480D01*
X107085560Y-89909460D01*
X107047460Y-89711340D01*
X107004280Y-89487820D01*
X106956020Y-89243980D01*
X106923000Y-89071260D01*
X106874740Y-88837580D01*
X106834100Y-88629300D01*
X106801080Y-88451500D01*
X106775680Y-88314340D01*
X106757900Y-88225440D01*
X106752820Y-88187340D01*
X106752820Y-88179720D01*
X106765520Y-88169560D01*
X106803620Y-88164480D01*
X106879820Y-88164480D01*
X107006820Y-88164480D01*
X107260820Y-88169560D01*
X107286220Y-88294020D01*
X107314160Y-88410860D01*
X107354800Y-88494680D01*
X107413220Y-88563260D01*
X107453860Y-88598820D01*
X107524980Y-88636920D01*
X107613880Y-88647080D01*
X107618960Y-88647080D01*
X107690080Y-88636920D01*
X107748500Y-88598820D01*
X107758660Y-88588660D01*
X107796760Y-88540400D01*
X107812000Y-88481980D01*
X107804380Y-88390540D01*
X107781520Y-88255920D01*
X107761200Y-88164480D01*
X107745960Y-88088280D01*
X107740880Y-88057800D01*
X107725640Y-88055260D01*
X107659600Y-88055260D01*
X107585940Y-88052720D01*
X107585940Y-87626000D01*
X107636740Y-87620920D01*
X107654520Y-87613300D01*
X107657060Y-87600600D01*
X107651980Y-87585360D01*
X107636740Y-87519320D01*
X107616420Y-87425340D01*
X107606260Y-87384700D01*
X107578320Y-87285640D01*
X107550380Y-87217060D01*
X107542760Y-87204360D01*
X107471640Y-87125620D01*
X107375120Y-87077360D01*
X107270980Y-87062120D01*
X107182080Y-87082440D01*
X107118580Y-87143400D01*
X107116040Y-87148480D01*
X107098260Y-87237380D01*
X107103340Y-87361840D01*
X107126200Y-87501540D01*
X107154140Y-87618380D01*
X107408140Y-87623460D01*
X107491960Y-87626000D01*
X107585940Y-87626000D01*
X107585940Y-88052720D01*
X107547840Y-88052720D01*
X107403060Y-88052720D01*
X107230340Y-88050180D01*
X106722340Y-88050180D01*
X106712180Y-88014620D01*
X106709640Y-88007000D01*
X106686780Y-87900320D01*
X106661380Y-87760620D01*
X106633440Y-87608220D01*
X106605500Y-87455820D01*
X106585180Y-87321200D01*
X106569940Y-87214520D01*
X106562320Y-87156100D01*
X106564860Y-87125620D01*
X106600420Y-86945280D01*
X106689320Y-86787800D01*
X106816320Y-86660800D01*
X106976340Y-86584600D01*
X106994120Y-86579520D01*
X107113500Y-86561740D01*
X107253200Y-86561740D01*
X107377660Y-86576980D01*
X107497040Y-86612540D01*
X107679920Y-86714140D01*
X107847560Y-86856380D01*
X107984720Y-87024020D01*
X108078700Y-87204360D01*
X108086320Y-87227220D01*
X108106640Y-87316120D01*
X108134580Y-87445660D01*
X108170140Y-87603140D01*
X108205700Y-87778400D01*
X108241260Y-87958740D01*
X108274280Y-88131460D01*
X108302220Y-88281320D01*
X108322540Y-88398160D01*
X108332700Y-88469280D01*
X108332700Y-88570880D01*
X108312380Y-88735980D01*
X108261580Y-88873140D01*
X108241260Y-88906160D01*
X108124420Y-89035700D01*
X107966940Y-89127140D01*
X107784060Y-89172860D01*
X107588480Y-89167780D01*
X107565620Y-89165240D01*
X107494500Y-89155080D01*
X107464020Y-89155080D01*
X107464020Y-89162700D01*
X107474180Y-89223660D01*
X107497040Y-89335420D01*
X107527520Y-89490360D01*
X107565620Y-89688480D01*
X107608800Y-89917080D01*
X107659600Y-90171080D01*
X107743420Y-90587640D01*
X107796760Y-90851800D01*
X107845020Y-91095640D01*
X107885660Y-91309000D01*
X107921220Y-91489340D01*
X107946620Y-91623960D01*
X107961860Y-91712860D01*
X107964400Y-91743340D01*
X107961860Y-91745880D01*
X107916140Y-91750960D01*
X107827240Y-91753500D01*
X107707860Y-91756040D01*
X107603720Y-91756040D01*
X107519900Y-91753500D01*
X107476720Y-91748420D01*
X107456400Y-91738260D01*
X107451320Y-91720480D01*
X107446240Y-91695080D01*
X107428460Y-91616340D01*
X107408140Y-91502040D01*
X107380200Y-91364880D01*
X107372580Y-91324240D01*
X107337020Y-91161680D01*
X107309080Y-91060080D01*
X107288760Y-91011820D01*
X107278600Y-91001660D01*
X107202400Y-90915300D01*
X107123660Y-90826400D01*
X107050000Y-90750200D01*
X106999200Y-90696860D01*
X106978880Y-90676540D01*
X106973800Y-90691780D01*
X106958560Y-90757820D01*
X106935700Y-90869580D01*
X106905220Y-91014360D01*
X106872200Y-91182000D01*
X106846800Y-91298840D01*
X106813780Y-91456320D01*
X106788380Y-91588400D01*
X106768060Y-91679840D01*
X106760440Y-91720480D01*
X106757900Y-91723020D01*
X106752820Y-91738260D01*
X106732500Y-91748420D01*
X106686780Y-91753500D01*
X106602960Y-91756040D01*
X106468340Y-91756040D01*
G04 #@! TO.C,G\002A\002A\002A*
G36*
X115498740Y-94548980D02*
X115475880Y-94536280D01*
X115422540Y-94503260D01*
X115348880Y-94455000D01*
X115259980Y-94396580D01*
X115173620Y-94335620D01*
X115099960Y-94287360D01*
X115049160Y-94254340D01*
X115028840Y-94244180D01*
X115016140Y-94246720D01*
X114975500Y-94267040D01*
X114914540Y-94300060D01*
X114878980Y-94317840D01*
X114823100Y-94340700D01*
X114795160Y-94345780D01*
X114790080Y-94338160D01*
X114769760Y-94297520D01*
X114739280Y-94223860D01*
X114696100Y-94127340D01*
X114647840Y-94013040D01*
X114597040Y-93891120D01*
X114543700Y-93769200D01*
X114495440Y-93649820D01*
X114452260Y-93543140D01*
X114416700Y-93456780D01*
X114393840Y-93395820D01*
X114386220Y-93370420D01*
X114388760Y-93365340D01*
X114416700Y-93337400D01*
X114464960Y-93301840D01*
X114569100Y-93215480D01*
X114673240Y-93085940D01*
X114736740Y-92938620D01*
X114759600Y-92773520D01*
X114741820Y-92623660D01*
X114680860Y-92478880D01*
X114579260Y-92346800D01*
X114454800Y-92250280D01*
X114312560Y-92186780D01*
X114150000Y-92166460D01*
X113995060Y-92184240D01*
X113847740Y-92242660D01*
X113715660Y-92344260D01*
X113659780Y-92407760D01*
X113583580Y-92539840D01*
X113540400Y-92682080D01*
X113535320Y-92717640D01*
X113542940Y-92875120D01*
X113588660Y-93024980D01*
X113669940Y-93157060D01*
X113784240Y-93268820D01*
X113799480Y-93278980D01*
X113852820Y-93317080D01*
X113888380Y-93345020D01*
X113916320Y-93367880D01*
X113718200Y-93847940D01*
X113685180Y-93924140D01*
X113631840Y-94053680D01*
X113583580Y-94167980D01*
X113542940Y-94256880D01*
X113517540Y-94317840D01*
X113504840Y-94340700D01*
X113504840Y-94343240D01*
X113487060Y-94345780D01*
X113451500Y-94333080D01*
X113382920Y-94300060D01*
X113339740Y-94277200D01*
X113288940Y-94251800D01*
X113266080Y-94244180D01*
X113245760Y-94254340D01*
X113197500Y-94284820D01*
X113126380Y-94333080D01*
X113040020Y-94391500D01*
X112958740Y-94447380D01*
X112885080Y-94495640D01*
X112829200Y-94531200D01*
X112803800Y-94546440D01*
X112798720Y-94546440D01*
X112775860Y-94533740D01*
X112732680Y-94495640D01*
X112666640Y-94434680D01*
X112575200Y-94343240D01*
X112559960Y-94330540D01*
X112483760Y-94251800D01*
X112422800Y-94188300D01*
X112382160Y-94142580D01*
X112366920Y-94119720D01*
X112379620Y-94094320D01*
X112415180Y-94040980D01*
X112463440Y-93964780D01*
X112524400Y-93875880D01*
X112684420Y-93644740D01*
X112595520Y-93426300D01*
X112570120Y-93360260D01*
X112534560Y-93278980D01*
X112509160Y-93223100D01*
X112496460Y-93197700D01*
X112473600Y-93187540D01*
X112415180Y-93174840D01*
X112328820Y-93157060D01*
X112224680Y-93136740D01*
X112125620Y-93118960D01*
X112039260Y-93101180D01*
X111973220Y-93088480D01*
X111945280Y-93083400D01*
X111937660Y-93080860D01*
X111932580Y-93065620D01*
X111930040Y-93035140D01*
X111927500Y-92981800D01*
X111924960Y-92897980D01*
X111924960Y-92773520D01*
X111924960Y-92760820D01*
X111927500Y-92643980D01*
X111927500Y-92550000D01*
X111932580Y-92491580D01*
X111935120Y-92466180D01*
X111963060Y-92461100D01*
X112026560Y-92445860D01*
X112115460Y-92430620D01*
X112219600Y-92410300D01*
X112227220Y-92407760D01*
X112331360Y-92387440D01*
X112420260Y-92369660D01*
X112481220Y-92354420D01*
X112509160Y-92346800D01*
X112514240Y-92339180D01*
X112534560Y-92298540D01*
X112565040Y-92232500D01*
X112600600Y-92153760D01*
X112633620Y-92069940D01*
X112664100Y-91996280D01*
X112684420Y-91940400D01*
X112689500Y-91915000D01*
X112674260Y-91889600D01*
X112638700Y-91836260D01*
X112587900Y-91760060D01*
X112524400Y-91671160D01*
X112521860Y-91663540D01*
X112460900Y-91574640D01*
X112410100Y-91498440D01*
X112379620Y-91445100D01*
X112366920Y-91422240D01*
X112366920Y-91419700D01*
X112387240Y-91394300D01*
X112432960Y-91343500D01*
X112496460Y-91274920D01*
X112575200Y-91196180D01*
X112600600Y-91170780D01*
X112686960Y-91086960D01*
X112745380Y-91031080D01*
X112783480Y-91003140D01*
X112801260Y-90995520D01*
X112829200Y-91013300D01*
X112885080Y-91048860D01*
X112961280Y-91102200D01*
X113052720Y-91163160D01*
X113057800Y-91165700D01*
X113146700Y-91226660D01*
X113220360Y-91277460D01*
X113273700Y-91313020D01*
X113296560Y-91325720D01*
X113301640Y-91325720D01*
X113337200Y-91315560D01*
X113400700Y-91292700D01*
X113476900Y-91262220D01*
X113560720Y-91229200D01*
X113634380Y-91198720D01*
X113690260Y-91173320D01*
X113718200Y-91158080D01*
X113718200Y-91155540D01*
X113728360Y-91125060D01*
X113743600Y-91059020D01*
X113761380Y-90967580D01*
X113781700Y-90858360D01*
X113786780Y-90840580D01*
X113807100Y-90733900D01*
X113822340Y-90647540D01*
X113835040Y-90586580D01*
X113842660Y-90561180D01*
X113857900Y-90558640D01*
X113908700Y-90553560D01*
X113987440Y-90551020D01*
X114083960Y-90551020D01*
X114183020Y-90551020D01*
X114282080Y-90553560D01*
X114365900Y-90556100D01*
X114424320Y-90561180D01*
X114449720Y-90566260D01*
X114452260Y-90566260D01*
X114459880Y-90599280D01*
X114475120Y-90665320D01*
X114492900Y-90759300D01*
X114515760Y-90868520D01*
X114518300Y-90886300D01*
X114538620Y-90992980D01*
X114556400Y-91079340D01*
X114569100Y-91140300D01*
X114576720Y-91163160D01*
X114584340Y-91168240D01*
X114630060Y-91186020D01*
X114701180Y-91216500D01*
X114787540Y-91252060D01*
X114990740Y-91333340D01*
X115242200Y-91163160D01*
X115265060Y-91147920D01*
X115353960Y-91086960D01*
X115427620Y-91036160D01*
X115478420Y-91003140D01*
X115501280Y-90992980D01*
X115526680Y-91015840D01*
X115577480Y-91061560D01*
X115643520Y-91127600D01*
X115722260Y-91206340D01*
X115780680Y-91262220D01*
X115849260Y-91333340D01*
X115894980Y-91381600D01*
X115917840Y-91412080D01*
X115925460Y-91429860D01*
X115922920Y-91442560D01*
X115907680Y-91467960D01*
X115872120Y-91521300D01*
X115818780Y-91597500D01*
X115757820Y-91686400D01*
X115709560Y-91760060D01*
X115653680Y-91843880D01*
X115618120Y-91904840D01*
X115607960Y-91932780D01*
X115610500Y-91945480D01*
X115628280Y-91993740D01*
X115656220Y-92067400D01*
X115694320Y-92156300D01*
X115780680Y-92354420D01*
X115910220Y-92379820D01*
X115988960Y-92392520D01*
X116100720Y-92415380D01*
X116204860Y-92435700D01*
X116369960Y-92466180D01*
X116375040Y-93068160D01*
X116349640Y-93078320D01*
X116324240Y-93085940D01*
X116263280Y-93098640D01*
X116176920Y-93116420D01*
X116075320Y-93136740D01*
X115988960Y-93151980D01*
X115900060Y-93169760D01*
X115836560Y-93182460D01*
X115808620Y-93187540D01*
X115801000Y-93197700D01*
X115780680Y-93238340D01*
X115747660Y-93306920D01*
X115714640Y-93388200D01*
X115679080Y-93472020D01*
X115648600Y-93550760D01*
X115625740Y-93609180D01*
X115618120Y-93642200D01*
X115630820Y-93665060D01*
X115663840Y-93715860D01*
X115712100Y-93789520D01*
X115770520Y-93875880D01*
X115831480Y-93964780D01*
X115882280Y-94038440D01*
X115915300Y-94091780D01*
X115930540Y-94117180D01*
X115922920Y-94134960D01*
X115889900Y-94175600D01*
X115823860Y-94244180D01*
X115724800Y-94340700D01*
X115709560Y-94355940D01*
X115630820Y-94432140D01*
X115564780Y-94493100D01*
X115519060Y-94533740D01*
X115498740Y-94548980D01*
X115498740Y-94548980D01*
G37*
X115498740Y-94548980D02*
X115475880Y-94536280D01*
X115422540Y-94503260D01*
X115348880Y-94455000D01*
X115259980Y-94396580D01*
X115173620Y-94335620D01*
X115099960Y-94287360D01*
X115049160Y-94254340D01*
X115028840Y-94244180D01*
X115016140Y-94246720D01*
X114975500Y-94267040D01*
X114914540Y-94300060D01*
X114878980Y-94317840D01*
X114823100Y-94340700D01*
X114795160Y-94345780D01*
X114790080Y-94338160D01*
X114769760Y-94297520D01*
X114739280Y-94223860D01*
X114696100Y-94127340D01*
X114647840Y-94013040D01*
X114597040Y-93891120D01*
X114543700Y-93769200D01*
X114495440Y-93649820D01*
X114452260Y-93543140D01*
X114416700Y-93456780D01*
X114393840Y-93395820D01*
X114386220Y-93370420D01*
X114388760Y-93365340D01*
X114416700Y-93337400D01*
X114464960Y-93301840D01*
X114569100Y-93215480D01*
X114673240Y-93085940D01*
X114736740Y-92938620D01*
X114759600Y-92773520D01*
X114741820Y-92623660D01*
X114680860Y-92478880D01*
X114579260Y-92346800D01*
X114454800Y-92250280D01*
X114312560Y-92186780D01*
X114150000Y-92166460D01*
X113995060Y-92184240D01*
X113847740Y-92242660D01*
X113715660Y-92344260D01*
X113659780Y-92407760D01*
X113583580Y-92539840D01*
X113540400Y-92682080D01*
X113535320Y-92717640D01*
X113542940Y-92875120D01*
X113588660Y-93024980D01*
X113669940Y-93157060D01*
X113784240Y-93268820D01*
X113799480Y-93278980D01*
X113852820Y-93317080D01*
X113888380Y-93345020D01*
X113916320Y-93367880D01*
X113718200Y-93847940D01*
X113685180Y-93924140D01*
X113631840Y-94053680D01*
X113583580Y-94167980D01*
X113542940Y-94256880D01*
X113517540Y-94317840D01*
X113504840Y-94340700D01*
X113504840Y-94343240D01*
X113487060Y-94345780D01*
X113451500Y-94333080D01*
X113382920Y-94300060D01*
X113339740Y-94277200D01*
X113288940Y-94251800D01*
X113266080Y-94244180D01*
X113245760Y-94254340D01*
X113197500Y-94284820D01*
X113126380Y-94333080D01*
X113040020Y-94391500D01*
X112958740Y-94447380D01*
X112885080Y-94495640D01*
X112829200Y-94531200D01*
X112803800Y-94546440D01*
X112798720Y-94546440D01*
X112775860Y-94533740D01*
X112732680Y-94495640D01*
X112666640Y-94434680D01*
X112575200Y-94343240D01*
X112559960Y-94330540D01*
X112483760Y-94251800D01*
X112422800Y-94188300D01*
X112382160Y-94142580D01*
X112366920Y-94119720D01*
X112379620Y-94094320D01*
X112415180Y-94040980D01*
X112463440Y-93964780D01*
X112524400Y-93875880D01*
X112684420Y-93644740D01*
X112595520Y-93426300D01*
X112570120Y-93360260D01*
X112534560Y-93278980D01*
X112509160Y-93223100D01*
X112496460Y-93197700D01*
X112473600Y-93187540D01*
X112415180Y-93174840D01*
X112328820Y-93157060D01*
X112224680Y-93136740D01*
X112125620Y-93118960D01*
X112039260Y-93101180D01*
X111973220Y-93088480D01*
X111945280Y-93083400D01*
X111937660Y-93080860D01*
X111932580Y-93065620D01*
X111930040Y-93035140D01*
X111927500Y-92981800D01*
X111924960Y-92897980D01*
X111924960Y-92773520D01*
X111924960Y-92760820D01*
X111927500Y-92643980D01*
X111927500Y-92550000D01*
X111932580Y-92491580D01*
X111935120Y-92466180D01*
X111963060Y-92461100D01*
X112026560Y-92445860D01*
X112115460Y-92430620D01*
X112219600Y-92410300D01*
X112227220Y-92407760D01*
X112331360Y-92387440D01*
X112420260Y-92369660D01*
X112481220Y-92354420D01*
X112509160Y-92346800D01*
X112514240Y-92339180D01*
X112534560Y-92298540D01*
X112565040Y-92232500D01*
X112600600Y-92153760D01*
X112633620Y-92069940D01*
X112664100Y-91996280D01*
X112684420Y-91940400D01*
X112689500Y-91915000D01*
X112674260Y-91889600D01*
X112638700Y-91836260D01*
X112587900Y-91760060D01*
X112524400Y-91671160D01*
X112521860Y-91663540D01*
X112460900Y-91574640D01*
X112410100Y-91498440D01*
X112379620Y-91445100D01*
X112366920Y-91422240D01*
X112366920Y-91419700D01*
X112387240Y-91394300D01*
X112432960Y-91343500D01*
X112496460Y-91274920D01*
X112575200Y-91196180D01*
X112600600Y-91170780D01*
X112686960Y-91086960D01*
X112745380Y-91031080D01*
X112783480Y-91003140D01*
X112801260Y-90995520D01*
X112829200Y-91013300D01*
X112885080Y-91048860D01*
X112961280Y-91102200D01*
X113052720Y-91163160D01*
X113057800Y-91165700D01*
X113146700Y-91226660D01*
X113220360Y-91277460D01*
X113273700Y-91313020D01*
X113296560Y-91325720D01*
X113301640Y-91325720D01*
X113337200Y-91315560D01*
X113400700Y-91292700D01*
X113476900Y-91262220D01*
X113560720Y-91229200D01*
X113634380Y-91198720D01*
X113690260Y-91173320D01*
X113718200Y-91158080D01*
X113718200Y-91155540D01*
X113728360Y-91125060D01*
X113743600Y-91059020D01*
X113761380Y-90967580D01*
X113781700Y-90858360D01*
X113786780Y-90840580D01*
X113807100Y-90733900D01*
X113822340Y-90647540D01*
X113835040Y-90586580D01*
X113842660Y-90561180D01*
X113857900Y-90558640D01*
X113908700Y-90553560D01*
X113987440Y-90551020D01*
X114083960Y-90551020D01*
X114183020Y-90551020D01*
X114282080Y-90553560D01*
X114365900Y-90556100D01*
X114424320Y-90561180D01*
X114449720Y-90566260D01*
X114452260Y-90566260D01*
X114459880Y-90599280D01*
X114475120Y-90665320D01*
X114492900Y-90759300D01*
X114515760Y-90868520D01*
X114518300Y-90886300D01*
X114538620Y-90992980D01*
X114556400Y-91079340D01*
X114569100Y-91140300D01*
X114576720Y-91163160D01*
X114584340Y-91168240D01*
X114630060Y-91186020D01*
X114701180Y-91216500D01*
X114787540Y-91252060D01*
X114990740Y-91333340D01*
X115242200Y-91163160D01*
X115265060Y-91147920D01*
X115353960Y-91086960D01*
X115427620Y-91036160D01*
X115478420Y-91003140D01*
X115501280Y-90992980D01*
X115526680Y-91015840D01*
X115577480Y-91061560D01*
X115643520Y-91127600D01*
X115722260Y-91206340D01*
X115780680Y-91262220D01*
X115849260Y-91333340D01*
X115894980Y-91381600D01*
X115917840Y-91412080D01*
X115925460Y-91429860D01*
X115922920Y-91442560D01*
X115907680Y-91467960D01*
X115872120Y-91521300D01*
X115818780Y-91597500D01*
X115757820Y-91686400D01*
X115709560Y-91760060D01*
X115653680Y-91843880D01*
X115618120Y-91904840D01*
X115607960Y-91932780D01*
X115610500Y-91945480D01*
X115628280Y-91993740D01*
X115656220Y-92067400D01*
X115694320Y-92156300D01*
X115780680Y-92354420D01*
X115910220Y-92379820D01*
X115988960Y-92392520D01*
X116100720Y-92415380D01*
X116204860Y-92435700D01*
X116369960Y-92466180D01*
X116375040Y-93068160D01*
X116349640Y-93078320D01*
X116324240Y-93085940D01*
X116263280Y-93098640D01*
X116176920Y-93116420D01*
X116075320Y-93136740D01*
X115988960Y-93151980D01*
X115900060Y-93169760D01*
X115836560Y-93182460D01*
X115808620Y-93187540D01*
X115801000Y-93197700D01*
X115780680Y-93238340D01*
X115747660Y-93306920D01*
X115714640Y-93388200D01*
X115679080Y-93472020D01*
X115648600Y-93550760D01*
X115625740Y-93609180D01*
X115618120Y-93642200D01*
X115630820Y-93665060D01*
X115663840Y-93715860D01*
X115712100Y-93789520D01*
X115770520Y-93875880D01*
X115831480Y-93964780D01*
X115882280Y-94038440D01*
X115915300Y-94091780D01*
X115930540Y-94117180D01*
X115922920Y-94134960D01*
X115889900Y-94175600D01*
X115823860Y-94244180D01*
X115724800Y-94340700D01*
X115709560Y-94355940D01*
X115630820Y-94432140D01*
X115564780Y-94493100D01*
X115519060Y-94533740D01*
X115498740Y-94548980D01*
G04 #@! TD*
D12*
G36*
X129673000Y-100723000D02*
X123227000Y-100723000D01*
X123227000Y-97627000D01*
X129673000Y-97627000D01*
X129673000Y-100723000D01*
X129673000Y-100723000D01*
G37*
X129673000Y-100723000D02*
X123227000Y-100723000D01*
X123227000Y-97627000D01*
X129673000Y-97627000D01*
X129673000Y-100723000D01*
M02*
