G04 #@! TF.GenerationSoftware,KiCad,Pcbnew,5.0.2-bee76a0~70~ubuntu18.04.1*
G04 #@! TF.CreationDate,2018-12-18T09:34:18-08:00*
G04 #@! TF.ProjectId,LowPassFilterModule,4c6f7750-6173-4734-9669-6c7465724d6f,rev?*
G04 #@! TF.SameCoordinates,Original*
G04 #@! TF.FileFunction,Legend,Top*
G04 #@! TF.FilePolarity,Positive*
%FSLAX46Y46*%
G04 Gerber Fmt 4.6, Leading zero omitted, Abs format (unit mm)*
G04 Created by KiCad (PCBNEW 5.0.2-bee76a0~70~ubuntu18.04.1) date Tue 18 Dec 2018 09:34:18 AM PST*
%MOMM*%
%LPD*%
G01*
G04 APERTURE LIST*
%ADD10C,0.150000*%
%ADD11C,0.120000*%
%ADD12C,0.200000*%
%ADD13C,0.254000*%
G04 APERTURE END LIST*
D10*
X124330833Y-100273809D02*
X124264166Y-100311904D01*
X124130833Y-100311904D01*
X124064166Y-100273809D01*
X124030833Y-100197619D01*
X124030833Y-99892857D01*
X124064166Y-99816666D01*
X124130833Y-99778571D01*
X124264166Y-99778571D01*
X124330833Y-99816666D01*
X124364166Y-99892857D01*
X124364166Y-99969047D01*
X124030833Y-100045238D01*
X124564166Y-99778571D02*
X124830833Y-99778571D01*
X124664166Y-99511904D02*
X124664166Y-100197619D01*
X124697500Y-100273809D01*
X124764166Y-100311904D01*
X124830833Y-100311904D01*
X125064166Y-100311904D02*
X125064166Y-99511904D01*
X125364166Y-100311904D02*
X125364166Y-99892857D01*
X125330833Y-99816666D01*
X125264166Y-99778571D01*
X125164166Y-99778571D01*
X125097500Y-99816666D01*
X125064166Y-99854761D01*
X125964166Y-100273809D02*
X125897500Y-100311904D01*
X125764166Y-100311904D01*
X125697500Y-100273809D01*
X125664166Y-100197619D01*
X125664166Y-99892857D01*
X125697500Y-99816666D01*
X125764166Y-99778571D01*
X125897500Y-99778571D01*
X125964166Y-99816666D01*
X125997500Y-99892857D01*
X125997500Y-99969047D01*
X125664166Y-100045238D01*
X126297500Y-100311904D02*
X126297500Y-99778571D01*
X126297500Y-99930952D02*
X126330833Y-99854761D01*
X126364166Y-99816666D01*
X126430833Y-99778571D01*
X126497500Y-99778571D01*
X126730833Y-100311904D02*
X126730833Y-99511904D01*
X126797500Y-100007142D02*
X126997500Y-100311904D01*
X126997500Y-99778571D02*
X126730833Y-100083333D01*
X127297500Y-100311904D02*
X127297500Y-99778571D01*
X127297500Y-99511904D02*
X127264166Y-99550000D01*
X127297500Y-99588095D01*
X127330833Y-99550000D01*
X127297500Y-99511904D01*
X127297500Y-99588095D01*
X127530833Y-99778571D02*
X127797500Y-99778571D01*
X127630833Y-99511904D02*
X127630833Y-100197619D01*
X127664166Y-100273809D01*
X127730833Y-100311904D01*
X127797500Y-100311904D01*
X128030833Y-100235714D02*
X128064166Y-100273809D01*
X128030833Y-100311904D01*
X127997500Y-100273809D01*
X128030833Y-100235714D01*
X128030833Y-100311904D01*
X128664166Y-100273809D02*
X128597500Y-100311904D01*
X128464166Y-100311904D01*
X128397500Y-100273809D01*
X128364166Y-100235714D01*
X128330833Y-100159523D01*
X128330833Y-99930952D01*
X128364166Y-99854761D01*
X128397500Y-99816666D01*
X128464166Y-99778571D01*
X128597500Y-99778571D01*
X128664166Y-99816666D01*
X129064166Y-100311904D02*
X128997500Y-100273809D01*
X128964166Y-100235714D01*
X128930833Y-100159523D01*
X128930833Y-99930952D01*
X128964166Y-99854761D01*
X128997500Y-99816666D01*
X129064166Y-99778571D01*
X129164166Y-99778571D01*
X129230833Y-99816666D01*
X129264166Y-99854761D01*
X129297500Y-99930952D01*
X129297500Y-100159523D01*
X129264166Y-100235714D01*
X129230833Y-100273809D01*
X129164166Y-100311904D01*
X129064166Y-100311904D01*
X129597500Y-100311904D02*
X129597500Y-99778571D01*
X129597500Y-99854761D02*
X129630833Y-99816666D01*
X129697500Y-99778571D01*
X129797500Y-99778571D01*
X129864166Y-99816666D01*
X129897500Y-99892857D01*
X129897500Y-100311904D01*
X129897500Y-99892857D02*
X129930833Y-99816666D01*
X129997500Y-99778571D01*
X130097500Y-99778571D01*
X130164166Y-99816666D01*
X130197500Y-99892857D01*
X130197500Y-100311904D01*
X131030833Y-99588095D02*
X131064166Y-99550000D01*
X131130833Y-99511904D01*
X131297500Y-99511904D01*
X131364166Y-99550000D01*
X131397500Y-99588095D01*
X131430833Y-99664285D01*
X131430833Y-99740476D01*
X131397500Y-99854761D01*
X130997500Y-100311904D01*
X131430833Y-100311904D01*
X131864166Y-99511904D02*
X131930833Y-99511904D01*
X131997500Y-99550000D01*
X132030833Y-99588095D01*
X132064166Y-99664285D01*
X132097500Y-99816666D01*
X132097500Y-100007142D01*
X132064166Y-100159523D01*
X132030833Y-100235714D01*
X131997500Y-100273809D01*
X131930833Y-100311904D01*
X131864166Y-100311904D01*
X131797500Y-100273809D01*
X131764166Y-100235714D01*
X131730833Y-100159523D01*
X131697500Y-100007142D01*
X131697500Y-99816666D01*
X131730833Y-99664285D01*
X131764166Y-99588095D01*
X131797500Y-99550000D01*
X131864166Y-99511904D01*
X132764166Y-100311904D02*
X132364166Y-100311904D01*
X132564166Y-100311904D02*
X132564166Y-99511904D01*
X132497500Y-99626190D01*
X132430833Y-99702380D01*
X132364166Y-99740476D01*
X133097500Y-100311904D02*
X133230833Y-100311904D01*
X133297500Y-100273809D01*
X133330833Y-100235714D01*
X133397500Y-100121428D01*
X133430833Y-99969047D01*
X133430833Y-99664285D01*
X133397500Y-99588095D01*
X133364166Y-99550000D01*
X133297500Y-99511904D01*
X133164166Y-99511904D01*
X133097500Y-99550000D01*
X133064166Y-99588095D01*
X133030833Y-99664285D01*
X133030833Y-99854761D01*
X133064166Y-99930952D01*
X133097500Y-99969047D01*
X133164166Y-100007142D01*
X133297500Y-100007142D01*
X133364166Y-99969047D01*
X133397500Y-99930952D01*
X133430833Y-99854761D01*
X125797500Y-86511904D02*
X125464166Y-86511904D01*
X125464166Y-85711904D01*
X126130833Y-86511904D02*
X126064166Y-86473809D01*
X126030833Y-86435714D01*
X125997500Y-86359523D01*
X125997500Y-86130952D01*
X126030833Y-86054761D01*
X126064166Y-86016666D01*
X126130833Y-85978571D01*
X126230833Y-85978571D01*
X126297500Y-86016666D01*
X126330833Y-86054761D01*
X126364166Y-86130952D01*
X126364166Y-86359523D01*
X126330833Y-86435714D01*
X126297500Y-86473809D01*
X126230833Y-86511904D01*
X126130833Y-86511904D01*
X126597500Y-85978571D02*
X126730833Y-86511904D01*
X126864166Y-86130952D01*
X126997500Y-86511904D01*
X127130833Y-85978571D01*
X127930833Y-86511904D02*
X127930833Y-85711904D01*
X128197500Y-85711904D01*
X128264166Y-85750000D01*
X128297500Y-85788095D01*
X128330833Y-85864285D01*
X128330833Y-85978571D01*
X128297500Y-86054761D01*
X128264166Y-86092857D01*
X128197500Y-86130952D01*
X127930833Y-86130952D01*
X128930833Y-86511904D02*
X128930833Y-86092857D01*
X128897500Y-86016666D01*
X128830833Y-85978571D01*
X128697500Y-85978571D01*
X128630833Y-86016666D01*
X128930833Y-86473809D02*
X128864166Y-86511904D01*
X128697500Y-86511904D01*
X128630833Y-86473809D01*
X128597500Y-86397619D01*
X128597500Y-86321428D01*
X128630833Y-86245238D01*
X128697500Y-86207142D01*
X128864166Y-86207142D01*
X128930833Y-86169047D01*
X129230833Y-86473809D02*
X129297500Y-86511904D01*
X129430833Y-86511904D01*
X129497500Y-86473809D01*
X129530833Y-86397619D01*
X129530833Y-86359523D01*
X129497500Y-86283333D01*
X129430833Y-86245238D01*
X129330833Y-86245238D01*
X129264166Y-86207142D01*
X129230833Y-86130952D01*
X129230833Y-86092857D01*
X129264166Y-86016666D01*
X129330833Y-85978571D01*
X129430833Y-85978571D01*
X129497500Y-86016666D01*
X129797500Y-86473809D02*
X129864166Y-86511904D01*
X129997500Y-86511904D01*
X130064166Y-86473809D01*
X130097500Y-86397619D01*
X130097500Y-86359523D01*
X130064166Y-86283333D01*
X129997500Y-86245238D01*
X129897500Y-86245238D01*
X129830833Y-86207142D01*
X129797500Y-86130952D01*
X129797500Y-86092857D01*
X129830833Y-86016666D01*
X129897500Y-85978571D01*
X129997500Y-85978571D01*
X130064166Y-86016666D01*
X131164166Y-86092857D02*
X130930833Y-86092857D01*
X130930833Y-86511904D02*
X130930833Y-85711904D01*
X131264166Y-85711904D01*
X131530833Y-86511904D02*
X131530833Y-85978571D01*
X131530833Y-85711904D02*
X131497500Y-85750000D01*
X131530833Y-85788095D01*
X131564166Y-85750000D01*
X131530833Y-85711904D01*
X131530833Y-85788095D01*
X131964166Y-86511904D02*
X131897500Y-86473809D01*
X131864166Y-86397619D01*
X131864166Y-85711904D01*
X132130833Y-85978571D02*
X132397500Y-85978571D01*
X132230833Y-85711904D02*
X132230833Y-86397619D01*
X132264166Y-86473809D01*
X132330833Y-86511904D01*
X132397500Y-86511904D01*
X132897500Y-86473809D02*
X132830833Y-86511904D01*
X132697500Y-86511904D01*
X132630833Y-86473809D01*
X132597500Y-86397619D01*
X132597500Y-86092857D01*
X132630833Y-86016666D01*
X132697500Y-85978571D01*
X132830833Y-85978571D01*
X132897500Y-86016666D01*
X132930833Y-86092857D01*
X132930833Y-86169047D01*
X132597500Y-86245238D01*
X133230833Y-86511904D02*
X133230833Y-85978571D01*
X133230833Y-86130952D02*
X133264166Y-86054761D01*
X133297500Y-86016666D01*
X133364166Y-85978571D01*
X133430833Y-85978571D01*
D11*
G04 #@! TO.C,J1*
X100670000Y-86590000D02*
X102000000Y-86590000D01*
X100670000Y-87920000D02*
X100670000Y-86590000D01*
X100670000Y-89190000D02*
X103330000Y-89190000D01*
X103330000Y-89190000D02*
X103330000Y-99410000D01*
X100670000Y-89190000D02*
X100670000Y-99410000D01*
X100670000Y-99410000D02*
X103330000Y-99410000D01*
D12*
G04 #@! TO.C,L3*
X127801240Y-97449980D02*
X127801240Y-87450000D01*
X123198760Y-97449980D02*
X127801240Y-97449980D01*
X123198760Y-87450000D02*
X123198760Y-97449980D01*
X127801240Y-87450000D02*
X123198760Y-87450000D01*
G04 #@! TO.C,L2*
X122049980Y-88198760D02*
X112050000Y-88198760D01*
X122049980Y-92801240D02*
X122049980Y-88198760D01*
X112050000Y-92801240D02*
X122049980Y-92801240D01*
X112050000Y-88198760D02*
X112050000Y-92801240D01*
G04 #@! TO.C,L1*
X106448760Y-87450020D02*
X106448760Y-97450000D01*
X111051240Y-87450020D02*
X106448760Y-87450020D01*
X111051240Y-97450000D02*
X111051240Y-87450020D01*
X106448760Y-97450000D02*
X111051240Y-97450000D01*
D11*
G04 #@! TO.C,C1*
X113610000Y-96441422D02*
X113610000Y-96958578D01*
X112190000Y-96441422D02*
X112190000Y-96958578D01*
G04 #@! TO.C,C2*
X105710000Y-92741422D02*
X105710000Y-93258578D01*
X104290000Y-92741422D02*
X104290000Y-93258578D01*
G04 #@! TO.C,C3*
X114990000Y-96441422D02*
X114990000Y-96958578D01*
X116410000Y-96441422D02*
X116410000Y-96958578D01*
G04 #@! TO.C,C4*
X117258578Y-93290000D02*
X116741422Y-93290000D01*
X117258578Y-94710000D02*
X116741422Y-94710000D01*
G04 #@! TO.C,C5*
X119210000Y-96441422D02*
X119210000Y-96958578D01*
X117790000Y-96441422D02*
X117790000Y-96958578D01*
G04 #@! TO.C,C6*
X128290000Y-93258578D02*
X128290000Y-92741422D01*
X129710000Y-93258578D02*
X129710000Y-92741422D01*
G04 #@! TO.C,C7*
X120590000Y-96441422D02*
X120590000Y-96958578D01*
X122010000Y-96441422D02*
X122010000Y-96958578D01*
G04 #@! TO.C,R1*
X119362779Y-87610000D02*
X119037221Y-87610000D01*
X119362779Y-86590000D02*
X119037221Y-86590000D01*
G04 #@! TO.C,R2*
X114962779Y-86590000D02*
X114637221Y-86590000D01*
X114962779Y-87610000D02*
X114637221Y-87610000D01*
G04 #@! TO.C,J2*
X130670000Y-98140000D02*
X133330000Y-98140000D01*
X130670000Y-90460000D02*
X130670000Y-98140000D01*
X133330000Y-90460000D02*
X133330000Y-98140000D01*
X130670000Y-90460000D02*
X133330000Y-90460000D01*
X130670000Y-89190000D02*
X130670000Y-87860000D01*
X130670000Y-87860000D02*
X132000000Y-87860000D01*
G04 #@! TO.C,J1*
D10*
X101666666Y-85352380D02*
X101666666Y-86066666D01*
X101619047Y-86209523D01*
X101523809Y-86304761D01*
X101380952Y-86352380D01*
X101285714Y-86352380D01*
X102666666Y-86352380D02*
X102095238Y-86352380D01*
X102380952Y-86352380D02*
X102380952Y-85352380D01*
X102285714Y-85495238D01*
X102190476Y-85590476D01*
X102095238Y-85638095D01*
G04 #@! TO.C,L3*
X123683333Y-87202380D02*
X123207142Y-87202380D01*
X123207142Y-86202380D01*
X123921428Y-86202380D02*
X124540476Y-86202380D01*
X124207142Y-86583333D01*
X124350000Y-86583333D01*
X124445238Y-86630952D01*
X124492857Y-86678571D01*
X124540476Y-86773809D01*
X124540476Y-87011904D01*
X124492857Y-87107142D01*
X124445238Y-87154761D01*
X124350000Y-87202380D01*
X124064285Y-87202380D01*
X123969047Y-87154761D01*
X123921428Y-87107142D01*
G04 #@! TO.C,L2*
X112733333Y-94152380D02*
X112257142Y-94152380D01*
X112257142Y-93152380D01*
X113019047Y-93247619D02*
X113066666Y-93200000D01*
X113161904Y-93152380D01*
X113400000Y-93152380D01*
X113495238Y-93200000D01*
X113542857Y-93247619D01*
X113590476Y-93342857D01*
X113590476Y-93438095D01*
X113542857Y-93580952D01*
X112971428Y-94152380D01*
X113590476Y-94152380D01*
G04 #@! TO.C,L1*
X106983333Y-87152380D02*
X106507142Y-87152380D01*
X106507142Y-86152380D01*
X107840476Y-87152380D02*
X107269047Y-87152380D01*
X107554761Y-87152380D02*
X107554761Y-86152380D01*
X107459523Y-86295238D01*
X107364285Y-86390476D01*
X107269047Y-86438095D01*
G04 #@! TO.C,C1*
X112733333Y-99557142D02*
X112685714Y-99604761D01*
X112542857Y-99652380D01*
X112447619Y-99652380D01*
X112304761Y-99604761D01*
X112209523Y-99509523D01*
X112161904Y-99414285D01*
X112114285Y-99223809D01*
X112114285Y-99080952D01*
X112161904Y-98890476D01*
X112209523Y-98795238D01*
X112304761Y-98700000D01*
X112447619Y-98652380D01*
X112542857Y-98652380D01*
X112685714Y-98700000D01*
X112733333Y-98747619D01*
X113685714Y-99652380D02*
X113114285Y-99652380D01*
X113400000Y-99652380D02*
X113400000Y-98652380D01*
X113304761Y-98795238D01*
X113209523Y-98890476D01*
X113114285Y-98938095D01*
G04 #@! TO.C,C2*
X104833333Y-95861142D02*
X104785714Y-95908761D01*
X104642857Y-95956380D01*
X104547619Y-95956380D01*
X104404761Y-95908761D01*
X104309523Y-95813523D01*
X104261904Y-95718285D01*
X104214285Y-95527809D01*
X104214285Y-95384952D01*
X104261904Y-95194476D01*
X104309523Y-95099238D01*
X104404761Y-95004000D01*
X104547619Y-94956380D01*
X104642857Y-94956380D01*
X104785714Y-95004000D01*
X104833333Y-95051619D01*
X105214285Y-95051619D02*
X105261904Y-95004000D01*
X105357142Y-94956380D01*
X105595238Y-94956380D01*
X105690476Y-95004000D01*
X105738095Y-95051619D01*
X105785714Y-95146857D01*
X105785714Y-95242095D01*
X105738095Y-95384952D01*
X105166666Y-95956380D01*
X105785714Y-95956380D01*
G04 #@! TO.C,C3*
X115533333Y-99557142D02*
X115485714Y-99604761D01*
X115342857Y-99652380D01*
X115247619Y-99652380D01*
X115104761Y-99604761D01*
X115009523Y-99509523D01*
X114961904Y-99414285D01*
X114914285Y-99223809D01*
X114914285Y-99080952D01*
X114961904Y-98890476D01*
X115009523Y-98795238D01*
X115104761Y-98700000D01*
X115247619Y-98652380D01*
X115342857Y-98652380D01*
X115485714Y-98700000D01*
X115533333Y-98747619D01*
X115866666Y-98652380D02*
X116485714Y-98652380D01*
X116152380Y-99033333D01*
X116295238Y-99033333D01*
X116390476Y-99080952D01*
X116438095Y-99128571D01*
X116485714Y-99223809D01*
X116485714Y-99461904D01*
X116438095Y-99557142D01*
X116390476Y-99604761D01*
X116295238Y-99652380D01*
X116009523Y-99652380D01*
X115914285Y-99604761D01*
X115866666Y-99557142D01*
G04 #@! TO.C,C4*
X119671333Y-94357142D02*
X119623714Y-94404761D01*
X119480857Y-94452380D01*
X119385619Y-94452380D01*
X119242761Y-94404761D01*
X119147523Y-94309523D01*
X119099904Y-94214285D01*
X119052285Y-94023809D01*
X119052285Y-93880952D01*
X119099904Y-93690476D01*
X119147523Y-93595238D01*
X119242761Y-93500000D01*
X119385619Y-93452380D01*
X119480857Y-93452380D01*
X119623714Y-93500000D01*
X119671333Y-93547619D01*
X120528476Y-93785714D02*
X120528476Y-94452380D01*
X120290380Y-93404761D02*
X120052285Y-94119047D01*
X120671333Y-94119047D01*
G04 #@! TO.C,C5*
X118333333Y-99557142D02*
X118285714Y-99604761D01*
X118142857Y-99652380D01*
X118047619Y-99652380D01*
X117904761Y-99604761D01*
X117809523Y-99509523D01*
X117761904Y-99414285D01*
X117714285Y-99223809D01*
X117714285Y-99080952D01*
X117761904Y-98890476D01*
X117809523Y-98795238D01*
X117904761Y-98700000D01*
X118047619Y-98652380D01*
X118142857Y-98652380D01*
X118285714Y-98700000D01*
X118333333Y-98747619D01*
X119238095Y-98652380D02*
X118761904Y-98652380D01*
X118714285Y-99128571D01*
X118761904Y-99080952D01*
X118857142Y-99033333D01*
X119095238Y-99033333D01*
X119190476Y-99080952D01*
X119238095Y-99128571D01*
X119285714Y-99223809D01*
X119285714Y-99461904D01*
X119238095Y-99557142D01*
X119190476Y-99604761D01*
X119095238Y-99652380D01*
X118857142Y-99652380D01*
X118761904Y-99604761D01*
X118714285Y-99557142D01*
G04 #@! TO.C,C6*
X128833333Y-95897142D02*
X128785714Y-95944761D01*
X128642857Y-95992380D01*
X128547619Y-95992380D01*
X128404761Y-95944761D01*
X128309523Y-95849523D01*
X128261904Y-95754285D01*
X128214285Y-95563809D01*
X128214285Y-95420952D01*
X128261904Y-95230476D01*
X128309523Y-95135238D01*
X128404761Y-95040000D01*
X128547619Y-94992380D01*
X128642857Y-94992380D01*
X128785714Y-95040000D01*
X128833333Y-95087619D01*
X129690476Y-94992380D02*
X129500000Y-94992380D01*
X129404761Y-95040000D01*
X129357142Y-95087619D01*
X129261904Y-95230476D01*
X129214285Y-95420952D01*
X129214285Y-95801904D01*
X129261904Y-95897142D01*
X129309523Y-95944761D01*
X129404761Y-95992380D01*
X129595238Y-95992380D01*
X129690476Y-95944761D01*
X129738095Y-95897142D01*
X129785714Y-95801904D01*
X129785714Y-95563809D01*
X129738095Y-95468571D01*
X129690476Y-95420952D01*
X129595238Y-95373333D01*
X129404761Y-95373333D01*
X129309523Y-95420952D01*
X129261904Y-95468571D01*
X129214285Y-95563809D01*
G04 #@! TO.C,C7*
X121133333Y-99557142D02*
X121085714Y-99604761D01*
X120942857Y-99652380D01*
X120847619Y-99652380D01*
X120704761Y-99604761D01*
X120609523Y-99509523D01*
X120561904Y-99414285D01*
X120514285Y-99223809D01*
X120514285Y-99080952D01*
X120561904Y-98890476D01*
X120609523Y-98795238D01*
X120704761Y-98700000D01*
X120847619Y-98652380D01*
X120942857Y-98652380D01*
X121085714Y-98700000D01*
X121133333Y-98747619D01*
X121466666Y-98652380D02*
X122133333Y-98652380D01*
X121704761Y-99652380D01*
G04 #@! TO.C,R1*
X121475333Y-87608380D02*
X121142000Y-87132190D01*
X120903904Y-87608380D02*
X120903904Y-86608380D01*
X121284857Y-86608380D01*
X121380095Y-86656000D01*
X121427714Y-86703619D01*
X121475333Y-86798857D01*
X121475333Y-86941714D01*
X121427714Y-87036952D01*
X121380095Y-87084571D01*
X121284857Y-87132190D01*
X120903904Y-87132190D01*
X122427714Y-87608380D02*
X121856285Y-87608380D01*
X122142000Y-87608380D02*
X122142000Y-86608380D01*
X122046761Y-86751238D01*
X121951523Y-86846476D01*
X121856285Y-86894095D01*
G04 #@! TO.C,R2*
X111935333Y-87352380D02*
X111602000Y-86876190D01*
X111363904Y-87352380D02*
X111363904Y-86352380D01*
X111744857Y-86352380D01*
X111840095Y-86400000D01*
X111887714Y-86447619D01*
X111935333Y-86542857D01*
X111935333Y-86685714D01*
X111887714Y-86780952D01*
X111840095Y-86828571D01*
X111744857Y-86876190D01*
X111363904Y-86876190D01*
X112316285Y-86447619D02*
X112363904Y-86400000D01*
X112459142Y-86352380D01*
X112697238Y-86352380D01*
X112792476Y-86400000D01*
X112840095Y-86447619D01*
X112887714Y-86542857D01*
X112887714Y-86638095D01*
X112840095Y-86780952D01*
X112268666Y-87352380D01*
X112887714Y-87352380D01*
G04 #@! TO.C,J2*
X129416666Y-88602380D02*
X129416666Y-89316666D01*
X129369047Y-89459523D01*
X129273809Y-89554761D01*
X129130952Y-89602380D01*
X129035714Y-89602380D01*
X129845238Y-88697619D02*
X129892857Y-88650000D01*
X129988095Y-88602380D01*
X130226190Y-88602380D01*
X130321428Y-88650000D01*
X130369047Y-88697619D01*
X130416666Y-88792857D01*
X130416666Y-88888095D01*
X130369047Y-89030952D01*
X129797619Y-89602380D01*
X130416666Y-89602380D01*
G04 #@! TD*
D13*
G36*
X111073000Y-100723000D02*
X104127000Y-100723000D01*
X104127000Y-97777000D01*
X111073000Y-97777000D01*
X111073000Y-100723000D01*
X111073000Y-100723000D01*
G37*
X111073000Y-100723000D02*
X104127000Y-100723000D01*
X104127000Y-97777000D01*
X111073000Y-97777000D01*
X111073000Y-100723000D01*
M02*
